<?xml version="1.0" encoding="UTF-8" standalone="no"?>
<!-- Created with Inkscape (http://www.inkscape.org/) -->

<svg
   xmlns:dc="http://purl.org/dc/elements/1.1/"
   xmlns:cc="http://creativecommons.org/ns#"
   xmlns:rdf="http://www.w3.org/1999/02/22-rdf-syntax-ns#"
   xmlns:svg="http://www.w3.org/2000/svg"
   xmlns="http://www.w3.org/2000/svg"
   xmlns:sodipodi="http://sodipodi.sourceforge.net/DTD/sodipodi-0.dtd"
   xmlns:inkscape="http://www.inkscape.org/namespaces/inkscape"
   width="124.29637mm"
   height="113.20065mm"
   viewBox="0 0 124.29637 113.20065"
   version="1.1"
   id="svg8"
   inkscape:version="0.92.3 (2405546, 2018-03-11)"
   sodipodi:docname="home-coming-2019-logo.svg">
  <defs
     id="defs2" />
  <sodipodi:namedview
     id="base"
     pagecolor="#ffffff"
     bordercolor="#666666"
     borderopacity="1.0"
     inkscape:pageopacity="0.0"
     inkscape:pageshadow="2"
     inkscape:zoom="0.98994949"
     inkscape:cx="224.18805"
     inkscape:cy="152.67244"
     inkscape:document-units="mm"
     inkscape:current-layer="layer1"
     showgrid="false"
     fit-margin-top="0"
     fit-margin-left="0"
     fit-margin-right="0"
     fit-margin-bottom="0"
     inkscape:window-width="1342"
     inkscape:window-height="740"
     inkscape:window-x="0"
     inkscape:window-y="0"
     inkscape:window-maximized="1" />
  <metadata
     id="metadata5">
    <rdf:RDF>
      <cc:Work
         rdf:about="">
        <dc:format>image/svg+xml</dc:format>
        <dc:type
           rdf:resource="http://purl.org/dc/dcmitype/StillImage" />
        <dc:title></dc:title>
      </cc:Work>
    </rdf:RDF>
  </metadata>
  <g
     inkscape:label="Layer 1"
     inkscape:groupmode="layer"
     id="layer1"
     transform="translate(-43.136845,-63.318153)">
    <path
       style="fill:#165aa5;fill-opacity:1;stroke-width:0.31999999"
       d="m 575.62695,429.1875 c -2.8417,-0.119 -6.16414,1.25157 -9.10742,3.97656 -1.96645,1.82056 -5.40847,6.6759 -6.11328,8.625 -0.30901,0.85455 -0.52797,1.04918 -1.04297,0.91992 -0.35871,-0.0899 -0.81398,-0.0622 -1.00976,0.0625 -0.45136,0.28732 -1.84643,3.0818 -3.78907,7.58594 -3.18618,7.38724 -6.6147,13.09805 -8.67383,14.44727 -0.8165,0.53495 -0.8703,0.53312 -1.29296,-0.0449 -0.63077,-0.86276 -0.54833,-4.01705 0.18554,-7.07813 0.83037,-3.46318 2.10961,-7.09142 4.27539,-12.125 2.79682,-6.50014 3.04705,-8.80057 1.16016,-10.6875 -0.65367,-0.65363 -1.41222,-1.02258 -2.4082,-1.17187 -1.26633,-0.18989 -1.74898,-0.0708 -3.75391,0.92382 -3.80965,1.88992 -8.64601,6.8118 -12.35547,12.57422 -2.39293,3.71705 -2.30836,3.61079 -2.08008,2.6836 0.10836,-0.44002 1.11897,-3.12577 2.2461,-5.9668 2.45091,-6.17779 2.6159,-7.59508 1.07226,-9.13867 -0.85024,-0.85032 -1.13929,-0.95398 -2.25195,-0.80469 -2.80074,0.37565 -4.78352,3.14026 -6.99609,9.74805 -1.25855,3.75874 -1.44879,4.12252 -2.08008,4.00195 -0.382,-0.0729 -0.84971,0.059 -1.03906,0.29297 -0.18932,0.23414 -1.67072,3.37835 -3.29297,6.98633 -3.89413,8.66086 -6.78761,13.52969 -8.83789,14.87304 -0.83902,0.55038 -0.88841,0.54948 -1.29883,-0.0117 -0.68652,-0.93884 -0.51251,-4.4503 0.38672,-7.82032 0.97134,-3.64036 2.26747,-7.24834 4.3125,-12 2.01218,-4.67542 2.33115,-5.74698 2.36132,-7.89844 0.0207,-1.50162 -0.10807,-1.9614 -0.74609,-2.64062 -2.35661,-2.50847 -6.16428,0.77793 -9.6543,8.33203 -1.14576,2.48111 -1.30998,2.68268 -2.02148,2.50391 -1.00853,-0.25312 -1.26238,0.1499 -3.98633,6.30664 -3.12249,7.05743 -4.65375,10.02243 -6.63086,12.83398 -2.00201,2.84697 -3.07541,3.72896 -3.80078,3.12696 -1.79841,-1.49258 -0.17628,-8.83258 4.24414,-19.20508 1.73635,-4.07441 2.13611,-5.34597 2.2461,-7.1211 0.1522,-2.45899 -0.25309,-3.37432 -1.95508,-4.41211 -3.0988,-1.88942 -7.51495,0.82699 -11.98242,7.37305 -1.14108,1.67199 -1.99634,2.80394 -1.9004,2.51367 0.096,-0.29015 0.34241,-1.37871 0.54688,-2.41797 0.89703,-4.55954 -1.68014,-7.04735 -5.86914,-5.66601 -2.1024,0.69332 -5.73385,4.24201 -8.22656,8.03711 -0.94874,1.4445 -1.76375,2.58586 -1.8125,2.53711 -0.0487,-0.0487 0.4415,-1.37355 1.08984,-2.94531 0.91884,-2.22781 1.18397,-3.30609 1.19531,-4.88672 0.0144,-1.75567 -0.0841,-2.10841 -0.73828,-2.63868 -0.41699,-0.338 -1.25001,-0.61328 -1.85742,-0.61328 -2.59415,0 -4.66026,2.18576 -6.47852,6.85352 -1.59273,4.08892 -2.67324,7.84186 -3.37109,11.70703 -1.05426,5.83922 -0.72244,5.21064 -3.06836,5.79492 -1.13892,0.28362 -2.7361,0.61457 -3.55078,0.73438 l -1.48242,0.21875 0.43945,-1.85352 c 0.60117,-2.53897 0.59012,-8.11741 -0.0215,-10.42383 -1.28784,-4.85646 -4.0562,-7.5686 -8.88477,-8.70703 -4.89203,-1.15332 -10.2059,0.12244 -13.1582,3.16016 -2.59642,2.67148 -3.79247,6.43135 -3.14844,9.89453 l 0.36328,1.95508 -2.51562,4.82617 c -5.72183,10.97802 -8.85953,14.93405 -13.81446,17.41406 -2.2902,1.14622 -2.8786,1.30664 -4.79882,1.30664 -1.20337,0 -2.54651,-0.16492 -2.98633,-0.36523 -3.25384,-1.48252 -1.91047,-10.99997 2.70312,-19.1543 3.59154,-6.34798 6.03181,-8.96094 8.375,-8.96094 1.73605,0 1.98846,0.82117 1.19336,3.88282 -0.77064,2.96708 -0.8066,5.30414 -0.0937,6.09179 0.74892,0.82757 2.40078,0.75514 3.24414,-0.14258 0.94107,-1.00162 1.78241,-4.46301 1.57227,-6.46484 -0.7502,-7.14807 -6.44197,-10.96681 -12.19531,-8.18164 -3.54324,1.71523 -7.49401,6.06292 -9.9961,11 -0.91797,1.81175 -1.18584,2.12066 -1.5664,1.80469 -0.25255,-0.21014 -0.65977,-0.30467 -0.9043,-0.21094 -0.24473,0.0939 -1.68077,2.59485 -3.19141,5.55664 -6.38294,12.51474 -10.62942,17.4075 -16.74023,19.29492 -2.54249,0.78543 -2.93175,0.79587 -4.62305,0.11914 -1.01786,-0.40728 -1.46271,-0.83313 -1.91992,-1.83984 -0.67313,-1.48218 -0.7866,-2.75 -0.24609,-2.75 0.69172,0 6.28525,-2.80723 8.3164,-4.17383 7.48883,-5.03864 11.12751,-12.80736 9.13672,-19.50586 -0.7635,-2.56906 -1.58071,-3.69262 -3.48242,-4.7832 -2.41262,-1.3849 -5.10432,-1.38158 -7.88477,0.008 -3.50506,1.75151 -8.02338,6.86427 -9.98242,11.29297 -0.54603,1.23383 -0.70231,1.35916 -1.53906,1.23633 -1.05441,-0.15474 -1.05578,-0.15414 -4.21875,7.125 -3.25765,7.49703 -5.4994,11.45468 -7.93164,14 -1.49828,1.56794 -2.16534,1.55176 -2.64844,-0.0606 -0.76108,-2.54029 1.10134,-9.55091 4.86719,-18.31836 2.16952,-5.05134 2.70241,-7.3537 2.11133,-9.14648 -0.80338,-2.43674 -3.92105,-3.34115 -6.88477,-1.9961 -1.92529,0.87379 -4.76436,3.82918 -7.09766,7.38477 -1.0891,1.65955 -2.02767,3.06364 -2.08398,3.12109 -0.0564,0.0573 0.12127,-0.5199 0.39453,-1.28125 0.27315,-0.76134 0.51235,-2.3526 0.53125,-3.53711 0.0322,-2.01112 -0.0332,-2.22046 -0.97656,-3.16406 -0.78289,-0.78285 -1.36086,-1.04374 -2.57031,-1.16015 -3.19068,-0.3066 -6.44578,2.21219 -10.41993,8.06445 -1.188,1.74943 -2.16015,3.10835 -2.16015,3.01953 0,-0.0887 0.52044,-1.44923 1.15625,-3.02344 0.63578,-1.57421 1.23081,-3.66324 1.32031,-4.64062 0.14154,-1.54541 0.0622,-1.88798 -0.59766,-2.63867 -0.4173,-0.47475 -1.19075,-0.94395 -1.71875,-1.04297 -1.40979,-0.26427 -3.57318,1.00354 -4.83593,2.83593 -1.98375,2.87861 -4.8069,11.56322 -5.69141,17.50196 -0.26932,1.8082 -0.56132,3.358 -0.64844,3.44531 -0.27332,0.2733 -5.09859,1.35034 -6.06054,1.35352 -0.83355,0.002 -0.90015,-0.0773 -0.72852,-0.87696 0.10388,-0.484 0.33818,-2.25338 0.52149,-3.93164 0.81957,-7.50474 -1.90268,-13.25615 -7.29102,-15.40039 -1.51645,-0.60344 -2.44528,-0.72877 -5.50391,-0.73633 -3.14252,-0.009 -3.98551,0.10228 -5.76172,0.77149 -2.78344,1.0487 -5.35367,3.56296 -6.40039,6.25976 -1.34743,3.47157 -0.8466,8.18875 1.10157,10.38477 0.37222,0.41956 0.27701,0.96775 -0.65039,3.73047 -1.4288,4.25635 -1.9982,8.9125 -1.46875,12 0.71161,4.14977 2.02746,5.60557 5.46875,6.04687 4.27394,0.54803 7.52885,-0.8453 11.8164,-5.05664 2.72306,-2.67466 4.76019,-5.4767 6.05664,-8.33398 0.94385,-2.08033 1.16104,-2.28346 2.47656,-2.29102 0.528,-0.003 2.20161,-0.33837 3.71876,-0.74414 l 2.75976,-0.73633 0.17774,2.36524 c 0.35671,4.71738 2.39559,8.07226 4.90429,8.07226 0.69207,0 1.59238,-0.23417 2,-0.51953 0.61236,-0.4289 0.71143,-0.72044 0.57227,-1.67969 -0.0926,-0.63855 -0.34266,-2.45701 -0.55469,-4.04101 l -0.38477,-2.88086 1.19532,-2.87891 c 1.38009,-3.32523 4.23723,-8.40869 6.92578,-12.32031 2.03968,-2.96765 3.61676,-4.91784 3.36523,-4.16016 -3.83331,11.54794 -4.67969,14.95969 -4.67969,18.86133 0,2.82293 0.55721,4.25392 1.86329,4.79492 1.15331,0.47774 2.83536,0.059 3.72656,-0.92578 0.30089,-0.33248 1.11974,-2.16152 1.81836,-4.0664 1.60058,-4.3643 4.41736,-9.75442 7.48437,-14.32032 3.7897,-5.64166 3.80805,-5.65069 2.23633,-0.98437 -2.01071,5.97007 -2.50041,8.71978 -2.34961,13.2207 0.19162,5.72606 1.39984,7.71113 5.01953,8.25391 4.47262,0.67075 8.74615,-3.34441 13.15039,-12.35352 l 1.64258,-3.36132 -0.21484,2.88085 c -0.24741,3.30649 0.17742,5.92565 1.33203,8.21094 1.29082,2.55504 3.77325,3.78906 7.625,3.78906 8.74118,0 17.16128,-6.74207 23.17383,-18.55468 0.76301,-1.499 1.2954,-2.43863 1.18164,-2.08789 -0.11392,0.35059 -0.29173,2.30768 -0.39453,4.34961 -0.16301,3.24226 -0.0975,4.0055 0.51367,6.01757 1.31115,4.31672 3.73672,5.9746 8.67187,5.92774 3.39496,-0.0322 6.94275,-1.13214 9.91993,-3.07617 5.0087,-3.27066 10.9801,-10.71479 13.64648,-17.01368 0.64494,-1.52352 1.21586,-2.72749 1.26953,-2.67382 0.0538,0.0538 -0.17654,0.98533 -0.51367,2.06836 -1.37994,4.4338 -1.59074,10.11049 -0.49024,13.19335 0.69272,1.94045 1.59365,2.81241 3.48829,3.375 4.65135,1.38131 9.09604,-0.37009 13.97265,-5.5039 2.52888,-2.66226 4.28477,-5.20699 5.45117,-7.90039 0.65753,-1.51828 0.90405,-1.79114 1.61524,-1.79492 0.46144,-0.003 2.25769,-0.36663 3.99219,-0.80664 1.73457,-0.44021 3.19418,-0.79883 3.24218,-0.79883 0.048,0 0.0886,0.68354 0.0918,1.51953 0.0122,3.72824 1.75475,7.77707 3.69531,8.58789 1.51125,0.63148 2.21067,0.56603 3.22071,-0.30274 l 0.87695,-0.7539 -0.58008,-3.08399 c -0.31933,-1.69655 -0.50792,-3.73973 -0.41797,-4.53906 0.23641,-2.09741 3.80612,-9.11689 7.23438,-14.22851 3.17268,-4.73046 4.4167,-6.35681 4.04101,-5.2793 -3.57891,10.26565 -4.74115,15.20356 -4.58203,19.4668 0.0987,2.64041 0.16557,2.8787 1.00391,3.59961 1.24418,1.06975 2.80836,1.02889 4.06445,-0.10743 0.69464,-0.62842 1.38727,-1.9785 2.42188,-4.7207 1.67882,-4.44971 3.82453,-8.6043 6.76757,-13.10742 2.35677,-3.60609 4.46629,-6.41 4.10157,-5.45117 -1.11734,2.93722 -2.82756,8.4156 -3.24414,10.38867 -0.68115,3.22235 -0.6963,8.30703 -0.0312,10.58008 0.55067,1.88213 1.69301,3.23999 3.20312,3.81054 1.4699,0.55537 4.03806,0.40634 5.53906,-0.32031 2.91277,-1.41003 6.94385,-6.82311 9.74414,-13.08594 l 1.20899,-2.70507 -0.1836,3.74609 c -0.37347,7.58494 1.67286,10.64363 6.74219,10.07227 2.01532,-0.22715 3.60778,-1.11473 5.57227,-3.10352 2.92422,-2.96035 5.40705,-7.20013 7.72851,-13.19922 l 0.82618,-2.13672 v 4.69531 c 0,5.43277 0.4771,7.52496 2.15234,9.46289 0.86358,0.99897 1.31563,1.24411 2.54492,1.38282 1.29199,0.14562 1.60406,0.06 2.29492,-0.63086 0.71868,-0.7186 0.76677,-0.92505 0.48633,-2.03906 -0.17155,-0.68164 -0.39398,-1.84001 -0.49414,-2.57422 -0.36967,-2.71333 2.25914,-9.04708 6.05469,-14.5918 2.15834,-3.153 6.31737,-8.03674 7.28515,-8.55469 0.6248,-0.33437 0.62422,-0.30916 -0.041,1.35157 -2.64382,6.60024 -3.80274,11.49509 -3.80274,16.06835 0,5.23034 1.23647,7.76423 4.22071,8.65039 4.85922,1.44303 9.15849,-2.18668 13.89844,-11.73437 l 1.79492,-3.61328 -0.17578,2.29492 c -0.31907,4.16515 0.68735,8.4166 2.4375,10.29102 1.9923,2.13377 4.8057,2.33363 8.33007,0.59179 2.22985,-1.10203 4.89115,-3.47046 6.35938,-5.6582 0.45619,-0.67967 0.4381,-0.43929 -0.12305,1.59961 -1.06892,3.88373 -2.44722,7.61789 -4.10742,11.12109 l -1.55469,3.2793 -1.53906,0.008 c -3.11747,0.0133 -11.03553,0.62987 -14.39844,1.1211 -18.02785,2.63338 -27.71614,7.36701 -29.27539,14.30664 -0.98075,4.3649 3.16529,8.665 9.17383,9.51562 13.46128,1.90575 28.51672,-5.25324 37.99219,-18.0664 l 2.12695,-2.87696 15.30078,-0.0195 c 12.68361,-0.0156 16.03785,-0.11458 19.61914,-0.58203 10.52508,-1.37371 16.41836,-3.44215 21.63086,-7.58984 3.89911,-3.10266 5.0083,-6.1628 3.03516,-8.3711 -0.82496,-0.92334 -1.12374,-1.04492 -2.57617,-1.04492 -1.6094,0 -1.68663,0.0438 -3.60157,2.08008 -7.80192,8.29614 -8.97285,9.21104 -13.93359,10.87305 -3.63454,1.21768 -7.20318,1.58644 -15.43359,1.60156 -6.88834,0.0112 -20.8275,-0.59652 -21.19336,-0.92383 -0.12794,-0.11437 0.59164,-1.87426 1.59961,-3.91211 l 1.83398,-3.70508 1.4668,0.15039 c 4.02429,0.41719 8.04793,-3.68072 12.53125,-12.76172 3.08545,-6.24956 5.71104,-13.49286 6.21875,-17.15625 0.15428,-1.11299 0.0851,-1.39318 -0.38672,-1.57421 -0.90573,-0.34761 -1.7112,0.98001 -3.95703,6.52148 -3.88192,9.57842 -7.79161,16.9641 -10.50977,19.84766 -0.53919,0.57203 -1.13606,1.03906 -1.32617,1.03906 -0.56311,0 -0.77668,-1.50865 -0.58203,-4.11524 0.21468,-2.87727 0.92002,-5.65973 3.25195,-12.84375 0.94262,-2.904 1.80169,-5.85653 1.91016,-6.56054 0.51632,-3.3481 -1.88341,-5.93257 -4.30469,-4.63672 -0.53072,0.28403 -0.62793,0.17658 -0.80859,-0.88086 -0.46477,-2.72281 -0.86664,-3.685 -2.02344,-4.8418 -1.17308,-1.17307 -2.70514,-1.78016 -4.41016,-1.85156 z m 1.39649,5.65039 c 1.34196,0 1.94169,0.89848 2.38476,3.57227 0.31299,1.88889 0.27585,2.17637 -0.52734,4.10937 -0.4749,1.14301 -1.27937,3.28336 -1.78711,4.75586 -2.13604,6.19465 -7.33248,14.04279 -10.62891,16.05273 -3.29593,2.00962 -3.8835,-0.97183 -1.8164,-9.21093 1.41362,-5.63445 3.92067,-10.89909 7.40429,-15.55078 1.87609,-2.50511 3.50773,-3.72852 4.97071,-3.72852 z M 431.09961,449.6582 c 1.69994,0.065 3.37549,0.75331 4.8457,2.01172 1.72078,1.47296 2.49946,3.00963 2.97266,5.875 0.38872,2.35385 0.0698,6.64956 -0.69531,9.37305 l -0.33594,1.19922 -1.98633,-0.0371 c -2.28888,-0.0436 -5.02539,-0.55074 -5.02539,-0.93164 0,-0.14332 0.80045,-1.8979 1.77734,-3.89844 2.64424,-5.41489 2.71847,-8.29413 0.24024,-9.23633 -1.87945,-0.71459 -4.76443,1.33597 -7.3457,5.21875 l -1.51954,2.28516 -0.28906,-1.09961 c -0.52724,-2.00905 -0.10345,-5.44465 0.90039,-7.28906 1.05604,-1.9403 2.30077,-2.81038 4.75977,-3.32618 0.5653,-0.11857 1.13452,-0.16621 1.70117,-0.14453 z m -56.93945,12.13282 c 0.77788,0.0747 1.36768,0.69148 1.71875,1.86328 0.55283,1.84512 -0.0613,5.24473 -1.40821,7.79297 -1.79006,3.38657 -7.05177,8.20344 -11.34179,10.38476 -0.74098,0.37667 -1.44212,0.68555 -1.55664,0.68555 -0.28918,0 0.11746,-2.03064 0.86328,-4.32031 1.0665,-3.27428 4.32316,-9.4692 6.49023,-12.34375 2.11661,-2.80763 3.93791,-4.18693 5.23438,-4.0625 z m -89.10547,7.30468 c 3.3358,-0.11133 6.51641,1.94865 7.74804,5.43946 0.9817,2.78245 0.90222,7.85294 -0.18554,11.89257 -0.31994,1.18829 -0.35352,1.21201 -1.83399,1.18555 -0.82921,-0.014 -1.65211,-0.0702 -1.82812,-0.125 -0.176,-0.0546 -1.14368,-0.26982 -2.15039,-0.47656 l -1.83008,-0.375 1.42773,-2.64063 c 3.79113,-7.01166 3.53476,-11.4043 -0.61914,-10.625 -1.45176,0.27236 -4.41558,2.97796 -5.94726,5.42774 -0.616,0.98525 -1.2217,1.79175 -1.34571,1.79492 -0.40207,0.007 -0.66175,-2.24704 -0.49609,-4.31055 0.24459,-3.04713 1.51713,-5.20115 3.73828,-6.32617 1.08022,-0.54714 2.21033,-0.82422 3.32227,-0.86133 z m 144.29297,0.87696 1.0039,0.22461 c 0.55227,0.12366 2.2572,0.38959 3.78711,0.59179 l 2.78125,0.36914 -1.05469,2.42188 c -1.44283,3.31786 -4.04317,7.28498 -5.9414,9.06054 -4.34752,4.06659 -5.13564,-0.84677 -1.60352,-10.00585 z m 135.55468,10.66015 c 0.32108,-0.0113 0.51189,-0.004 0.54297,0.0274 0.20349,0.20349 -3.63364,5.08685 -5.56445,7.08203 -4.91894,5.0829 -12.15981,9.04876 -18.44531,10.10351 -6.28551,1.05476 -12.3019,0.33326 -14.2168,-1.70508 -0.93933,-0.99983 -1.20229,-2.98962 -0.55859,-4.23437 2.06203,-3.98748 9.9188,-7.23687 22.67773,-9.37695 4.69967,-0.78831 13.31695,-1.81769 15.56445,-1.89649 z m -280.66992,8.75 c 0.23335,0.0895 1.39201,0.32577 2.57422,0.52344 1.18221,0.19786 2.69259,0.45107 3.35547,0.56445 l 1.20508,0.20703 -1.74024,3.53516 c -1.81044,3.67771 -4.01017,6.89083 -5.67187,8.28906 -1.02987,0.86654 -2.46108,1.06634 -3.0957,0.43164 -0.9333,-0.93327 -0.23498,-5.10239 1.7539,-10.48047 0.83044,-2.24551 1.32449,-3.18332 1.61914,-3.07031 z"
       transform="scale(0.26458333)"
       id="path3373"
       inkscape:connector-curvature="0" />
    <path
       style="fill:#0290d1;fill-opacity:1;stroke-width:0.08466666"
       d="m 104.14334,176.44124 c -0.0264,-0.0427 -0.0118,-0.17276 0.0325,-0.28913 0.17887,-0.47045 -0.29854,-1.17973 -1.07267,-1.59365 -0.14403,-0.077 -0.30461,-0.21989 -0.35686,-0.3175 -0.0879,-0.16433 -0.0732,-0.17749 0.19818,-0.17749 0.17044,0 0.53172,0.12435 0.86304,0.29704 0.31344,0.16338 0.59243,0.27448 0.61999,0.24691 0.0275,-0.0276 0.0489,-0.40005 0.0474,-0.82772 -0.002,-0.65413 -0.0359,-0.84384 -0.21167,-1.195 -0.2921,-0.58352 -0.53142,-0.73104 -1.30962,-0.80723 -0.75197,-0.0736 -0.96962,-0.2 -1.37583,-0.79883 -0.39111,-0.57656 -0.3559,-1.1485 0.0707,-1.1485 0.43274,0 1.07098,0.31115 1.46643,0.7149 l 0.4153,0.42403 -0.23858,-0.37897 c -0.43577,-0.69215 -0.75164,-1.02271 -1.35207,-1.41488 -1.00367,-0.65555 -1.30343,-1.01931 -1.43438,-1.74062 -0.0954,-0.5254 -0.0127,-0.65246 0.42484,-0.65246 0.52232,0 0.88673,0.17282 1.20096,0.56957 0.34948,0.44126 0.46495,0.76117 0.3999,1.10793 -0.0452,0.24073 -0.0719,0.26656 -0.18156,0.17553 -0.0707,-0.0587 -0.21711,-0.28057 -0.32528,-0.49305 -0.3614,-0.70985 -0.89077,-0.99877 -0.89077,-0.48616 0,0.38872 0.34798,0.74429 1.10066,1.12468 0.79941,0.404 1.12392,0.71742 1.77931,1.71851 0.23164,0.35383 0.42136,0.58356 0.42159,0.51052 0,-0.073 0.0581,-0.32695 0.12856,-0.56424 0.13935,-0.46927 0.7907,-1.20796 1.06511,-1.20796 0.63552,0 0.49823,1.2671 -0.19453,1.7955 -0.49613,0.37841 -0.6054,0.71866 -0.53548,1.66738 0.0607,0.82381 0.18654,1.6344 0.20437,1.31657 0.0149,-0.26615 0.40913,-0.81779 0.75639,-1.05849 0.54041,-0.37458 1.00724,-0.54436 1.1564,-0.42058 0.17975,0.14918 0.15849,0.64796 -0.0469,1.10076 -0.23627,0.52091 -0.36746,0.64665 -0.97907,0.93855 -0.64562,0.30813 -0.98595,0.70075 -1.22184,1.40961 -0.15061,0.45258 -0.20688,0.53203 -0.37681,0.53203 -0.10987,0 -0.22134,-0.0349 -0.2477,-0.0776 z"
       id="path3425"
       inkscape:connector-curvature="0" />
    <path
       style="fill:#0290d1;fill-opacity:1;stroke-width:0.08466666"
       d="m 111.77306,173.24502 c -0.13274,-0.13272 -0.0471,-0.65953 0.14906,-0.91667 0.2427,-0.31819 1.32613,-0.91245 1.59348,-0.87402 0.21935,0.0315 0.42287,0.38615 0.32352,0.56369 -0.0378,0.0675 -0.36509,0.38386 -0.72741,0.70307 -0.5596,0.49304 -0.70565,0.58038 -0.97047,0.58038 -0.17146,0 -0.33714,-0.0254 -0.36818,-0.0564 z"
       id="path3423"
       inkscape:connector-curvature="0" />
    <path
       style="fill:#0290d1;fill-opacity:1;stroke-width:0.08466666"
       d="m 109.99407,172.46931 c -0.19428,-0.21468 -0.17384,-0.57356 0.0614,-1.07884 0.34252,-0.7356 1.12298,-1.24278 2.41347,-1.5684 0.6033,-0.15222 0.89886,-0.17455 1.96599,-0.14853 1.06011,0.0259 1.27922,0.0539 1.40519,0.17987 0.11546,0.11546 0.12842,0.18241 0.0572,0.29582 -0.0716,0.11412 -0.25878,0.15741 -0.84524,0.19554 -1.08458,0.0705 -1.92253,0.44216 -3.33554,1.47945 -0.67326,0.49424 -1.23839,0.79992 -1.47888,0.79992 -0.057,0 -0.1666,-0.0697 -0.24366,-0.15483 z"
       id="path3421"
       inkscape:connector-curvature="0" />
    <path
       style="fill:#0290d1;fill-opacity:1;stroke-width:0.08466666"
       d="m 96.03327,170.03632 c -0.12741,-0.0691 -0.41799,-0.40184 -0.64574,-0.73934 -0.64807,-0.96041 -1.43485,-1.58288 -2.86868,-2.26959 -1.86639,-0.89389 -4.07374,-1.37578 -5.31324,-1.15995 l -0.33867,0.059 0.381,-0.12441 c 0.20955,-0.0684 0.81915,-0.20579 1.35467,-0.30525 1.1377,-0.21128 3.17694,-0.2526 4.064,-0.0823 2.24529,0.431 3.74927,1.52933 4.48062,3.2721 l 0.24844,0.59205 -0.18345,0.32641 c -0.29214,0.51979 -0.72444,0.67794 -1.17895,0.43133 z"
       id="path3419"
       inkscape:connector-curvature="0" />
    <path
       style="fill:#0290d1;fill-opacity:1;stroke-width:0.08466666"
       d="m 115.40647,168.47048 c -1.26963,-0.21259 -2.29869,-0.95221 -2.78116,-1.99892 -0.26648,-0.57812 -0.26607,-1.68483 8.5e-4,-2.22942 0.39675,-0.80958 1.21903,-1.52434 1.75288,-1.52369 0.56137,8.5e-4 1.06589,0.57032 0.94207,1.06367 -0.0813,0.32405 -0.42388,0.62935 -0.70613,0.62935 -0.15492,0 -0.32015,0.0838 -0.45917,0.23283 -0.32702,0.35062 -0.40726,0.55849 -0.40639,1.05277 0.002,1.18771 1.28453,2.18573 2.80862,2.18573 0.63511,0 1.82073,-0.24331 3.22429,-0.6617 l 1.0807,-0.32214 -0.45566,-0.18886 c -0.5639,-0.23372 -1.13974,-0.71645 -1.29343,-1.08427 -0.15239,-0.36472 -0.14783,-0.96187 0.009,-1.18584 0.13847,-0.19771 0.48572,-0.31507 0.71599,-0.24198 0.15595,0.0495 0.34431,0.3813 0.34431,0.60654 0,0.0721 -0.0798,0.24312 -0.17724,0.38002 -0.0975,0.1369 -0.15642,0.30316 -0.13098,0.36946 0.0724,0.18873 0.83603,0.53791 1.64476,0.75213 0.59134,0.15663 0.74281,0.22894 0.76305,0.36428 0.0384,0.25643 -0.14561,0.35899 -1.36135,0.75897 -3.01,0.99031 -4.33003,1.2395 -5.51505,1.04107 z"
       id="path3417"
       inkscape:connector-curvature="0" />
    <path
       style="fill:#0290d1;fill-opacity:1;stroke-width:0.31999999"
       d="m 459.13281,570.88672 c -0.58504,-0.005 -1.17646,0.0189 -1.77148,0.0742 -6.23395,0.5794 -18.26449,3.9571 -33.52539,9.41406 -20.42499,7.30352 -24.51995,8.70312 -25.47852,8.70312 -0.70938,0 -2.01046,-0.76953 -4.9414,-2.91796 -8.79587,-6.44758 -11.63374,-8.09363 -14.5879,-8.46289 -2.23335,-0.27905 -5.98395,0.56499 -7.89257,1.77539 -3.26423,2.07012 -4.40466,6.54175 -2.59571,10.17187 1.66201,3.33521 6.22805,6.46947 10.48828,7.19922 2.67266,0.45781 6.1955,0.0469 13.375,-1.55664 5.94206,-1.32718 6.79233,-1.28538 8.26563,0.39258 l 1.00195,1.14062 -2.35547,1.3418 c -6.14509,3.50192 -9.97744,7.80424 -11.77929,13.21875 -0.78501,2.35903 -0.90621,6.64561 -0.26172,9.2793 1.1054,4.51706 4.12608,7.74539 8.29297,8.86523 0.96223,0.25841 2.26831,0.47891 2.90429,0.49023 4.49205,0.0818 9.82757,-2.79538 11.46875,-6.18554 1.0012,-2.06835 1.38279,-4.81974 0.9336,-6.73438 -0.65877,-2.808 -4.29676,-5.61914 -7.27344,-5.61914 -2.60613,0 -5.16583,2.82573 -4.71875,5.20899 0.3041,1.62089 1.0146,2.25934 2.24219,2.01367 1.60301,-0.32047 1.98474,-0.91258 1.57617,-2.44336 -0.325,-1.21769 -0.2989,-1.32926 0.38867,-1.64258 1.63166,-0.74339 4.37696,0.59182 5.43945,2.64649 1.44658,2.79738 -0.62368,6.69232 -4.51757,8.5 -2.39789,1.11314 -4.24379,1.27279 -6.78125,0.58593 -1.78969,-0.48446 -2.41998,-0.85353 -3.78125,-2.21484 -2.10478,-2.10478 -3.01172,-4.40814 -3.01172,-7.64844 0,-1.28205 0.21874,-2.97307 0.48633,-3.75781 0.62041,-1.82083 2.64239,-4.28276 5.20703,-6.33984 2.4616,-1.97443 9.94463,-5.78711 11.35742,-5.78711 0.55374,0 2.11289,0.57689 3.4668,1.28125 3.32742,1.73113 8.87692,3.92667 11.80273,4.66992 3.65465,0.92848 9.67968,0.85819 12.58984,-0.14649 5.85026,-2.01978 7.41529,-7.22011 3.48829,-11.58789 -2.96773,-3.30081 -7.20749,-4.38298 -14.88477,-3.79883 -5.05115,0.38438 -9.06891,1.16403 -13.83398,2.68555 -4.52999,1.4465 -6.11011,1.48238 -7.375,0.16211 -0.7781,-0.81226 -0.85414,-1.02462 -0.45899,-1.26953 0.58897,-0.36469 35.63109,-12.03136 36.95313,-12.30273 0.528,-0.10844 3.33623,-0.9744 6.24023,-1.92579 6.52997,-2.13932 10.98694,-3.0649 15,-3.11328 4.83662,-0.0584 6.98884,0.8353 8.91602,3.70313 1.2328,1.8342 1.8028,3.73666 1.51367,5.05273 -0.48616,2.21337 -3.62836,4.36869 -5.78125,3.96485 -1.59988,-0.30014 -1.93917,-0.92982 -1.21875,-2.26758 0.68326,-1.26875 0.46737,-1.90901 -0.91016,-2.69141 -1.16024,-0.659 -2.30314,-0.0782 -2.79883,1.42383 -1.02342,3.10103 1.50749,6.24023 5.03125,6.24023 2.76821,0 5.36369,-1.45845 6.72266,-3.77734 0.72722,-1.24116 0.83644,-1.79179 0.85156,-4.3418 0.0218,-3.45936 -0.50218,-4.71873 -3.12109,-7.5039 -2.47278,-2.62976 -6.25234,-4.13009 -10.34766,-4.16797 z m -83.03711,9.34766 c 0.82927,0.019 1.75895,0.14033 2.80274,0.35937 3.36748,0.7067 6.6189,2.225 9.57812,4.47461 2.53501,1.92718 5.59961,4.80371 5.59961,5.25586 0,0.37429 -3.27033,1.47948 -6.24414,2.10937 -2.40646,0.50986 -6.52037,0.57845 -8.70898,0.14649 -5.44645,-1.07494 -9.7892,-6.30065 -8.04688,-9.6836 0.95865,-1.86131 2.53174,-2.71916 5.01953,-2.6621 z m 51.03907,15.9414 c 1.68813,-0.0308 3.17662,0.0353 4.13476,0.21484 1.00823,0.18894 2.90079,0.78828 4.20703,1.33204 2.78608,1.15986 3.46901,2.12 2.7461,3.86523 -0.5404,1.30462 -3.15646,3.01185 -5.57422,3.63672 -1.04897,0.27126 -2.41605,0.48204 -3.03906,0.4707 -1.65718,-0.0329 -6.23559,-1.05588 -8.8125,-1.96875 -2.8263,-1.00119 -9.74062,-4.173 -9.75196,-4.47461 -0.012,-0.30603 3.63075,-1.3715 7.52344,-2.19922 2.38576,-0.50728 5.75284,-0.82564 8.56641,-0.87695 z"
       transform="scale(0.26458333)"
       id="path3415"
       inkscape:connector-curvature="0" />
    <path
       style="fill:#0290d1;fill-opacity:1;stroke-width:0.08466666"
       d="m 75.987274,164.73896 c 0,-0.38958 0.270995,-0.76349 0.845337,-1.16637 0.436894,-0.30646 0.678663,-0.56068 0.678663,-0.7136 0,-0.0218 -0.119985,-0.0815 -0.266634,-0.13257 -0.480797,-0.16761 -1.18177,-0.10534 -2.278818,0.20243 -1.242964,0.3487 -1.715718,0.4224 -2.222202,0.34644 -1.105386,-0.16576 -0.702915,-0.72103 0.78098,-1.0775 0.852984,-0.2049 0.898243,-0.27667 0.336599,-0.5338 -0.474401,-0.21719 -1.028428,-0.30022 -3.080924,-0.46174 -0.5588,-0.044 -1.122537,-0.12066 -1.25275,-0.17043 l -0.236749,-0.0905 0.448416,-0.36552 c 0.460688,-0.37552 0.675606,-0.68206 0.60578,-0.86402 -0.08844,-0.23047 -1.146956,-0.51995 -2.302346,-0.62963 -0.749836,-0.0712 -1.157018,-0.26652 -1.157018,-0.55504 0,-0.23461 0.381575,-0.46369 0.868391,-0.52135 1.047408,-0.12404 0.633778,-0.49805 -1.536067,-1.38891 -0.367222,-0.15078 -0.800073,-0.39037 -0.961891,-0.53245 l -0.294214,-0.25833 0.188103,-0.15231 c 0.139257,-0.11276 0.335373,-0.15232 0.755208,-0.15232 0.353435,0 0.628405,-0.0448 0.729801,-0.11897 0.155331,-0.11358 0.156286,-0.1324 0.02111,-0.41587 -0.159896,-0.3353 -0.688254,-0.72956 -1.398922,-1.04385 -0.264369,-0.11691 -0.584619,-0.28659 -0.711666,-0.37706 -0.127048,-0.0905 -0.394897,-0.22231 -0.595223,-0.29299 -0.391725,-0.13821 -0.832293,-0.50467 -0.832293,-0.69231 0,-0.22556 0.250121,-0.59419 0.436189,-0.64285 0.113632,-0.0297 0.439846,0.0511 0.818233,0.20256 0.481366,0.19274 0.65642,0.22943 0.74482,0.15606 0.06356,-0.0528 0.09636,-0.12697 0.0729,-0.16493 -0.092,-0.14886 -2.283545,-1.80955 -2.653351,-2.01063 -0.772575,-0.4201 -1.001171,-0.77767 -0.771514,-1.20678 0.225136,-0.42068 0.679541,-0.36022 1.363374,0.18139 0.183909,0.14566 0.470684,0.29558 0.637279,0.33314 l 0.302899,0.0683 -0.0557,-0.35311 c -0.102071,-0.64712 -0.398907,-1.0924 -1.448866,-2.17345 -0.565342,-0.58209 -1.074188,-1.1455 -1.130769,-1.25204 -0.121114,-0.22803 -0.06777,-0.44638 0.159255,-0.65183 0.246874,-0.22342 0.479305,-0.11526 1.176941,0.54764 0.343948,0.32682 0.671417,0.59423 0.727712,0.59423 0.172708,0 0.382598,-0.29701 0.382598,-0.5414 0,-0.32991 -0.09293,-0.47543 -1.060942,-1.6615 -0.923699,-1.13178 -1.224235,-1.56926 -1.224742,-1.78285 -4.23e-4,-0.16582 0.347144,-0.50159 0.519187,-0.50159 0.07017,0 0.345676,0.20955 0.612228,0.46567 0.266551,0.25612 0.543083,0.46567 0.614514,0.46567 0.236264,0 0.1296,-0.31409 -0.848202,-2.49767 -0.337883,-0.75454 -0.413432,-1.42209 -0.171452,-1.51494 0.425684,-0.16335 0.707421,0.0293 0.833112,0.56973 0.03072,0.13207 0.148746,0.33302 0.262286,0.44657 0.272762,0.27276 0.528304,0.21078 1.167267,-0.2831 0.270375,-0.20899 0.504408,-0.36624 0.520074,-0.34945 0.01567,0.0168 -0.08935,0.87749 -0.233366,1.91266 -0.295957,2.12727 -0.281468,2.33326 0.167196,2.37709 0.304452,0.0297 0.664568,-0.28236 1.273462,-1.10364 0.363059,-0.4897 0.791215,-0.79146 1.006019,-0.70903 0.183773,0.0705 0.155752,0.87939 -0.04168,1.20316 -0.08822,0.14468 -0.363011,0.43043 -0.610642,0.635 -1.488149,1.22939 -1.841246,2.12854 -1.742,4.43595 0.05496,1.27777 0.150701,1.67172 0.488337,2.00935 0.19841,0.19841 0.305003,0.23971 0.563518,0.21834 0.293158,-0.0242 0.339791,-0.0658 0.579284,-0.5168 0.143253,-0.26974 0.397964,-0.64456 0.566025,-0.83294 0.246955,-0.27681 0.343155,-0.33155 0.50154,-0.28537 0.298281,0.087 0.486654,0.35043 0.438886,0.61385 -0.06029,0.33246 -0.583522,1.50052 -0.957687,2.1379 -0.177683,0.30269 -0.350595,0.67801 -0.38425,0.83406 -0.07781,0.36082 0.07831,0.92739 0.343887,1.24795 0.201213,0.24287 0.20594,0.24395 0.336649,0.077 0.07291,-0.0931 0.268126,-0.42618 0.433806,-0.74011 0.348273,-0.65991 0.92,-1.23723 1.073195,-1.08369 0.0577,0.0578 0.09503,0.37746 0.0924,0.79108 -0.0039,0.60555 -0.04435,0.78793 -0.3175,1.4301 -0.323964,0.76163 -0.393496,1.2768 -0.218521,1.61902 0.108624,0.21245 0.757344,0.9046 0.84784,0.9046 0.08696,0 0.21946,-0.47572 0.28298,-1.016 0.07346,-0.62482 0.226426,-0.84666 0.583788,-0.84666 0.470986,0 0.59147,0.21871 0.542326,0.98448 -0.02294,0.35745 -0.0065,0.80605 0.03647,0.99688 0.043,0.19084 0.134393,0.66874 0.203095,1.06201 0.152399,0.87238 0.346916,1.20626 0.842575,1.4462 0.376667,0.18234 1.053701,0.32362 1.053701,0.21987 0,-0.0298 -0.09525,-0.45729 -0.211667,-0.94998 -0.116417,-0.49269 -0.211667,-0.96273 -0.211667,-1.04452 0,-0.37159 0.61001,-0.56866 0.869104,-0.28078 0.182298,0.20256 0.529293,1.14945 0.823222,2.24643 0.363066,1.35501 0.608178,1.65212 1.470025,1.7818 l 0.326017,0.0491 -0.03831,-0.31356 c -0.02107,-0.17245 -0.104945,-0.55809 -0.186395,-0.85697 -0.09564,-0.35096 -0.128721,-0.66452 -0.0934,-0.8854 0.0589,-0.36835 0.362731,-1.12008 0.426809,-1.056 0.02146,0.0215 0.09813,0.32262 0.170382,0.66925 0.254181,1.21949 1.030673,2.49443 1.967455,3.23041 0.582357,0.45752 1.325832,0.87712 2.462112,1.38955 0.865325,0.39023 0.885993,0.41888 0.209672,0.29061 -0.815402,-0.15463 -1.476773,0.0692 -3.687291,1.24803 -0.983714,0.52459 -1.163406,0.55169 -1.163406,0.17545 z"
       id="path3409"
       inkscape:connector-curvature="0" />
    <path
       style="fill:#0290d1;fill-opacity:1;stroke-width:0.08466666"
       d="m 85.240299,164.28908 c 1.285367,-1.28537 2.417161,-4.15129 2.572331,-6.51365 0.0423,-0.64457 0.019,-0.89132 -0.14135,-1.49196 -0.23069,-0.86432 -0.28972,-1.2855 -0.21942,-1.56561 0.0894,-0.35641 0.67539,-0.55751 1.20811,-0.41463 0.20607,0.0553 0.66882,0.87746 0.92391,1.64157 0.23892,0.71566 0.22124,2.13843 -0.0368,2.96036 -0.41324,1.31634 -1.28995,2.69344 -2.500405,3.9275 -0.670535,0.68362 -2.011909,1.83281 -2.139315,1.83281 -0.0239,0 0.125908,-0.16938 0.332926,-0.37639 z"
       id="path3407"
       inkscape:connector-curvature="0" />
    <path
       style="fill:#0290d1;fill-opacity:1;stroke-width:0.08466666"
       d="m 126.66027,163.58309 c -0.23283,-0.12922 -0.63288,-0.3877 -0.889,-0.57439 -1.33851,-0.97566 -2.18736,-1.33366 -3.06263,-1.29162 -0.31369,0.0151 -0.5435,0.005 -0.5107,-0.0224 0.0328,-0.0274 0.47877,-0.19444 0.991,-0.3712 2.55527,-0.88181 3.86942,-2.0468 4.50282,-3.99174 0.12709,-0.39027 0.25612,-0.70958 0.28671,-0.70958 0.0306,0 0.12206,0.21122 0.20326,0.4694 0.17362,0.55197 0.13314,0.96927 -0.1729,1.78235 -0.28287,0.75153 -0.27493,0.79625 0.14149,0.79625 0.43466,0 0.87658,-0.20507 1.09109,-0.50632 0.0906,-0.12729 0.29602,-0.59397 0.45643,-1.03706 0.41142,-1.13659 0.95666,-2.24598 1.15638,-2.35286 0.12474,-0.0668 0.22874,-0.0618 0.39303,0.0189 0.41489,0.20369 0.42154,0.3102 0.0849,1.36037 -0.17135,0.53452 -0.31154,0.99566 -0.31154,1.02475 0,0.0939 0.46576,0.0563 0.89977,-0.0726 0.68959,-0.2048 0.84435,-0.43945 1.2666,-1.92048 0.20071,-0.704 0.28896,-1.18875 0.28896,-1.58733 0,-0.65822 0.13213,-0.85406 0.57622,-0.85406 0.37592,0 0.49891,0.24246 0.5697,1.12309 0.0328,0.40815 0.0884,0.75988 0.12362,0.78163 0.10874,0.0672 0.72878,-0.43325 0.91988,-0.74245 0.24308,-0.39331 0.23322,-0.95043 -0.0315,-1.77933 -0.12456,-0.39002 -0.21059,-0.86044 -0.21059,-1.15153 0,-0.52627 0.1318,-1.02541 0.27075,-1.02541 0.20534,0 0.65243,0.60477 0.90758,1.22767 0.35214,0.85969 0.45114,0.97304 0.67388,0.77147 0.0903,-0.0817 0.24713,-0.34148 0.34858,-0.57729 0.2072,-0.48167 0.18401,-0.81161 -0.0956,-1.35968 -0.26894,-0.52714 -0.8352,-2.17249 -0.8352,-2.42675 0,-0.23856 0.17121,-0.44374 0.45455,-0.54474 0.18861,-0.0673 0.64978,0.38039 0.82827,0.80395 0.32981,0.7826 0.45352,0.96245 0.68006,0.98862 0.34058,0.0393 0.72406,-0.20076 0.91341,-0.57191 0.0927,-0.18178 0.22278,-0.64773 0.28898,-1.03542 0.42426,-2.48464 0.16798,-3.69408 -1.03158,-4.86802 -0.68811,-0.67343 -0.86369,-0.97804 -0.86369,-1.49844 0,-0.48039 0.0646,-0.64613 0.25164,-0.64613 0.25289,0 0.57932,0.32495 0.94535,0.94107 0.48602,0.8181 0.75674,1.09093 1.08246,1.09093 0.43488,0 0.46415,-0.17256 0.37633,-2.2188 -0.0426,-0.99158 -0.0622,-1.87079 -0.0437,-1.95381 0.0272,-0.12145 0.12968,-0.0594 0.52486,0.3175 0.36017,0.34355 0.55486,0.4681 0.73023,0.46715 0.33677,-0.002 0.4219,-0.0759 0.68457,-0.59581 0.23718,-0.46944 0.38037,-0.55902 0.74658,-0.46711 0.1659,0.0416 0.20497,0.10559 0.20497,0.33552 0,0.42017 -0.1752,0.84072 -0.75713,1.81733 -0.43481,0.72973 -0.85154,1.58655 -0.85154,1.75083 0,0.13439 0.3854,6e-5 0.57628,-0.20086 0.12543,-0.13204 0.3732,-0.32705 0.5506,-0.43336 l 0.32254,-0.19328 0.20663,0.1941 c 0.24151,0.2269 0.26235,0.46742 0.0658,0.7596 -0.0775,0.11514 -0.62245,0.70464 -1.2111,1.31 -1.18751,1.22123 -1.37527,1.52424 -1.15385,1.86217 0.24218,0.36962 0.39192,0.31372 1.38582,-0.51743 0.46471,-0.3886 0.65199,-0.4234 0.90689,-0.16851 0.11718,0.11719 0.21281,0.26243 0.21251,0.32275 -0.001,0.26267 -0.5132,0.79198 -1.69278,1.7505 -0.80159,0.65136 -1.3477,1.42946 -1.3528,1.92744 -0.002,0.16163 0.0284,0.17461 0.2733,0.11813 0.15135,-0.0349 0.53551,-0.20235 0.85371,-0.37209 0.31818,-0.16974 0.63424,-0.30862 0.70234,-0.30862 0.2181,0 0.53945,0.39863 0.53945,0.66918 0,0.28123 -0.3169,0.56979 -0.84666,0.77093 -0.47281,0.17951 -2.97262,1.79159 -2.9386,1.89504 0.051,0.15515 0.37687,0.157 0.83528,0.005 0.23801,-0.079 0.53009,-0.14373 0.64908,-0.14373 0.43999,0 0.69712,0.68392 0.36884,0.98102 -0.0847,0.0767 -0.38002,0.21667 -0.65617,0.31107 -0.27616,0.0944 -0.6164,0.22506 -0.7561,0.29035 -0.1397,0.0653 -0.51157,0.21541 -0.82638,0.33359 -0.68729,0.25802 -1.25084,0.63046 -1.41331,0.93404 -0.16919,0.31614 -0.0391,0.408 0.68781,0.48567 0.70392,0.0752 1.03679,0.29127 0.83091,0.53934 -0.18059,0.2176 -0.66726,0.4343 -1.52936,0.68098 -0.86796,0.24837 -1.35776,0.45617 -1.68667,0.71559 -0.1797,0.14173 -0.19249,0.17983 -0.0847,0.25229 0.0698,0.0469 0.26707,0.10878 0.43826,0.13744 0.36418,0.061 0.81612,0.31656 0.88719,0.50176 0.13435,0.35011 -0.61465,0.65644 -1.41061,0.57692 -0.55096,-0.055 -1.92721,0.16786 -2.09938,0.34003 -0.17588,0.17588 -0.0558,0.44526 0.4249,0.95357 l 0.41968,0.44375 -0.28252,0.0519 c -0.15538,0.0286 -1.13977,0.0607 -2.18752,0.0715 -1.59915,0.0164 -1.95597,0.043 -2.2225,0.16607 -0.17462,0.0806 -0.3175,0.18099 -0.3175,0.22308 0,0.0421 0.18098,0.14099 0.40217,0.21979 1.0381,0.36979 1.30845,0.50184 1.50454,0.73488 0.1161,0.13798 0.19112,0.28318 0.16671,0.32267 -0.0244,0.0395 -0.24373,0.11316 -0.48739,0.16372 -0.52119,0.10814 -1.12096,-0.025 -2.41639,-0.53658 -0.43342,-0.17115 -0.97052,-0.3533 -1.19357,-0.40478 -0.43207,-0.0997 -1.15306,-0.0349 -1.24374,0.1118 -0.0834,0.13501 0.11381,0.4223 0.5143,0.74903 0.49449,0.40343 0.81904,0.90862 0.78823,1.22698 -0.0323,0.33376 -0.18666,0.34725 -0.70186,0.0613 z"
       id="path3405"
       inkscape:connector-curvature="0" />
    <path
       style="fill:#0290d1;fill-opacity:1;stroke-width:0.08466666"
       d="m 90.8408,162.15919 c 1.86118,-2.5028 3.31624,-3.72604 4.22857,-3.5549 0.3386,0.0635 0.74836,0.47493 0.97726,0.98118 0.21759,0.48126 0.21789,0.63186 0.002,0.98124 -0.45243,0.73204 -2.54167,1.50525 -5.03145,1.86209 l -0.42179,0.0605 0.24544,-0.33006 z"
       id="path3403"
       inkscape:connector-curvature="0" />
    <path
       style="fill:#0290d1;fill-opacity:1;stroke-width:0.08466666"
       d="m 80.402644,157.04494 c -0.311963,-0.22599 -0.35137,-0.29286 -0.35137,-0.59623 0,-1.03083 0.493998,-2.34144 1.217136,-3.22917 1.169186,-1.43531 3.811014,-2.59013 6.4452,-2.8174 0.32596,-0.0281 0.76411,-0.0675 0.97366,-0.0875 0.30565,-0.0292 0.2556,-0.003 -0.25301,0.13136 -2.088036,0.55234 -4.896861,2.63536 -5.955296,4.41641 -0.173889,0.29263 -0.414867,0.8539 -0.535494,1.24729 -0.360285,1.17493 -0.822571,1.45552 -1.540826,0.93522 z"
       id="path3401"
       inkscape:connector-curvature="0" />
    <path
       style="fill:#ff892f;fill-opacity:1;stroke-width:0.08466666"
       d="m 91.94006,152.63644 c -0.1435,-0.0417 -0.32898,-0.15098 -0.41221,-0.24295 -0.28269,-0.31236 -0.38373,-0.15699 2.92121,-4.49202 2.46796,-3.23719 4.00191,-5.80111 4.76517,-7.96475 0.7895,-2.23799 0.92935,-3.78636 0.38633,-4.2773 -0.49309,-0.44581 -1.95299,0.0629 -3.05659,1.06509 -1.33465,1.21199 -2.43314,3.16068 -2.43702,4.32319 -8.5e-4,0.16532 -0.0467,0.34629 -0.10261,0.40217 -0.15464,0.15464 -0.61734,0.12132 -0.84152,-0.0606 -0.1744,-0.14153 -0.19892,-0.23175 -0.19236,-0.70755 0.009,-0.6208 0.27458,-1.27903 0.88642,-2.19328 0.74372,-1.11134 2.62474,-2.73469 3.93206,-3.39343 1.02035,-0.51414 2.20882,-0.64113 2.89438,-0.30926 0.8473,0.41017 1.17174,1.18803 1.1622,2.7864 -0.01,1.65368 -0.36054,2.83117 -1.48564,4.98862 -0.97837,1.87607 -1.80969,3.12405 -4.85694,7.2912 -0.51223,0.70048 -0.9443,1.31099 -0.96015,1.35667 -0.0448,0.12902 0.78148,-0.22194 1.80682,-0.76746 0.98017,-0.52151 2.06734,-0.93103 2.47158,-0.93103 0.30553,0 0.82197,0.27343 0.85775,0.45412 0.0323,0.16298 -0.14806,0.24019 -1.21119,0.5186 -0.42367,0.11094 -1.64973,0.59437 -2.75467,1.08616 -2.61354,1.16322 -3.03372,1.28209 -3.77302,1.06742 z"
       id="path3399"
       inkscape:connector-curvature="0" />
    <path
       style="fill:#ff892f;fill-opacity:1;stroke-width:0.31999999"
       d="m 500.17969,484.81836 c -1.43499,0.0148 -2.88441,0.64924 -3.61719,1.76758 -0.64777,0.98868 -2.14577,5.554 -2.82812,8.62109 l -0.5293,2.37891 -0.74414,-0.48828 c -2.13872,-1.40134 -5.71151,-1.24802 -8.94532,0.38281 -11.02337,5.55912 -21.18221,21.15046 -22.56835,34.63672 -0.40808,3.97016 0.2195,9.85586 1.26953,11.89258 0.86464,1.67716 2.08468,3.02253 3.3789,3.72851 1.49265,0.81407 6.26778,0.70456 8.25782,-0.18945 3.52199,-1.58223 8.55758,-7.9698 13.17382,-16.71094 2.05867,-3.89836 2.10739,-3.95975 1.90821,-2.40039 -1.13961,8.91541 -5.58551,25.37167 -9.08399,33.62695 -1.90382,4.49235 -2.8206,5.73243 -4.23437,5.73243 -0.77125,-10e-6 -1.13268,0.19702 -1.41992,0.76757 -0.53719,1.06761 -0.23245,1.61263 1.28711,2.30274 v 0.002 c 2.58531,1.17411 4.71835,0.61191 7.23242,-1.90234 5.59083,-5.59132 10.02644,-18.77852 13.57617,-40.36914 1.14024,-6.93506 2.4139,-16.38198 3.08594,-22.87891 0.29877,-2.88782 0.73545,-4.62327 2.42773,-9.6582 1.75771,-5.22943 2.04919,-6.41022 1.9668,-7.98828 -0.0889,-1.70336 -0.18549,-1.91169 -1.18555,-2.58399 -0.69189,-0.46512 -1.54721,-0.67883 -2.4082,-0.66992 z m -11.50391,14.9082 c 0.35568,-0.0434 0.62114,0.0684 0.86524,0.3125 0.2818,0.28177 1.12841,0.59478 1.88281,0.69532 1.33334,0.17797 1.37451,0.21848 1.47656,1.46289 0.32444,3.95576 -4.20158,17.10232 -9.44141,27.42187 -4.57738,9.01489 -8.197,13.90678 -10.82226,14.625 -2.58236,0.70643 -3.16211,0.32272 -3.82617,-2.52734 -0.99122,-4.25439 -0.49071,-10.75277 1.27539,-16.54297 1.53305,-5.02613 5.15349,-12.28676 7.94531,-15.93555 1.60894,-2.10285 6.0062,-6.54889 7.79883,-7.88476 1.40941,-1.05034 2.2529,-1.55466 2.8457,-1.62696 z"
       transform="scale(0.26458333)"
       id="path3397"
       inkscape:connector-curvature="0" />
    <path
       style="fill:#ff892f;fill-opacity:1;stroke-width:0.31999999"
       d="m 419.13281,504.37695 c -3.56701,0.009 -7.87469,2.62237 -11.71484,7.32032 -0.93147,1.13952 -1.50108,1.53802 -2.41992,1.69335 -1.40104,0.23668 -2.61194,0.96678 -3.52149,2.12305 -2.09522,2.66362 -5.14655,10.98251 -6.57226,17.92188 -3.68436,17.93302 -1.36862,31.64344 5.95898,35.29492 2.81186,1.40122 6.55596,0.99842 9.62891,-1.03516 6.25742,-4.14096 13.57451,-23.37445 15.27734,-40.1582 0.51281,-5.05414 0.23756,-14.737 -0.49219,-17.33984 -0.71576,-2.55296 -1.68448,-4.22202 -2.86914,-4.94141 -0.97968,-0.59491 -2.08638,-0.88191 -3.27539,-0.87891 z m -1.47656,2.64258 c 1.79431,-0.0254 2.92796,1.86303 3.60547,5.7168 0.4924,2.80074 0.40647,11.24021 -0.16602,16.18164 -1.39132,12.00862 -4.21729,22.84339 -7.9707,30.56055 -1.95458,4.01873 -3.56531,6.06826 -5.43164,6.91601 -1.61821,0.73508 -1.9825,0.73961 -3.37695,0.043 -2.80113,-1.39929 -3.95524,-6.91037 -3.24805,-15.51953 0.61357,-7.46907 2.89128,-20.2135 5.60547,-31.37891 0.89178,-3.66852 1.98336,-5.45678 5.50195,-9.00976 2.29064,-2.31306 4.08489,-3.49005 5.48047,-3.50977 z"
       transform="scale(0.26458333)"
       id="path3393"
       inkscape:connector-curvature="0" />
    <path
       style="fill:#0290d1;fill-opacity:1;stroke-width:0.08466666"
       d="m 77.70888,149.9658 c -0.519461,-0.17858 -0.731295,-0.45961 -0.772144,-1.02434 -0.04633,-0.64057 0.09885,-1.17111 0.368881,-1.34805 0.708766,-0.4644 2.745161,-0.0475 5.112437,1.04672 l 0.638887,0.29531 -0.377013,0.16416 c -0.565268,0.24616 -2.308976,0.73678 -3.131085,0.88099 -0.824192,0.14457 -1.389636,0.14003 -1.839963,-0.0148 z"
       id="path3389"
       inkscape:connector-curvature="0" />
    <path
       style="fill:#ff892f;fill-opacity:1;stroke-width:0.08466666"
       d="m 114.88662,149.3881 c -0.26692,-0.19821 -0.0624,-0.41961 0.43466,-0.47063 l 0.4125,-0.0423 0.0174,-1.6363 c 0.0236,-2.21909 0.37469,-6.56688 0.61835,-7.65809 0.0669,-0.29945 0.0555,-0.32795 -0.17951,-0.44947 -0.13799,-0.0713 -0.23895,-0.15734 -0.22433,-0.19108 0.0146,-0.0337 0.24606,-0.48647 0.51435,-1.00609 0.29895,-0.57902 0.71546,-1.61978 1.07591,-2.68848 0.63571,-1.88479 0.9122,-2.47955 1.30722,-2.81194 0.21602,-0.18176 0.3158,-0.20784 0.66639,-0.17415 0.7069,0.0679 0.71191,0.0933 0.32396,1.63703 -1.22024,4.85572 -2.06378,8.68191 -2.41583,10.95782 -0.23341,1.50897 -0.40902,3.55894 -0.3135,3.65947 0.0324,0.0341 0.26727,0.0292 0.52185,-0.0109 0.25459,-0.0401 0.63433,-0.049 0.84388,-0.0197 0.30456,0.0425 0.3862,0.0897 0.4069,0.2349 0.0391,0.27426 -0.47094,0.42069 -2.15973,0.62004 -1.7355,0.20487 -1.64507,0.20243 -1.85049,0.0499 z"
       id="path3387"
       inkscape:connector-curvature="0" />
    <path
       style="fill:#0290d1;fill-opacity:1;stroke-width:0.08466666"
       d="m 87.036274,147.82521 c -2.622499,-1.0984 -4.309483,-2.38299 -5.320574,-4.05149 -0.650598,-1.0736 -0.877697,-2.42237 -0.61554,-3.65575 0.144443,-0.67956 0.177181,-0.72063 0.68668,-0.86146 0.752085,-0.20788 1.022061,0.14726 1.100987,1.44829 0.02966,0.48895 0.111777,1.09855 0.182482,1.35467 0.179824,0.65141 0.860112,1.98237 1.484436,2.90425 0.717592,1.0596 2.220781,2.55186 2.937925,2.91658 0.72403,0.36822 0.48556,0.33944 -0.456396,-0.0551 z"
       id="path3385"
       inkscape:connector-curvature="0" />
    <path
       style="fill:#165aa5;fill-opacity:1;stroke-width:0.31999999"
       d="m 283.57227,433.72461 c -2.05278,0.006 -2.54898,0.14155 -4.69532,1.2793 -5.97523,3.16732 -12.4586,12.19204 -17.69336,24.63281 -0.96273,2.28801 -2.6493,6.47712 -3.74804,9.30859 l -1.99805,5.14844 -3.31055,1.8418 c -4.571,2.54317 -10.31925,5.07003 -15.77343,6.93164 -2.53151,0.86407 -4.64172,1.57031 -4.68946,1.57031 -0.10497,0 -0.0663,-0.34449 1.13867,-10.24023 0.52507,-4.31199 1.09524,-7.88591 1.26758,-7.94336 0.17235,-0.0575 1.64563,-0.75367 3.27539,-1.54688 7.0587,-3.43555 10.79833,-7.52736 10.80664,-11.82226 0.018,-9.38691 -10.93407,-8.89398 -17.2832,0.77734 -1.78566,2.72001 -3.30267,6.36053 -3.96484,9.51953 -0.24128,1.15098 -0.48932,2.13541 -0.55274,2.18945 -0.0634,0.0541 -1.77092,0.6431 -3.79492,1.3086 -4.57122,1.50304 -16.47565,6.2369 -22.00781,8.75195 -15.61907,7.10079 -28.82033,18.00863 -33.88086,27.99414 -2.78165,5.48878 -4.31461,12.69275 -3.33399,15.66406 0.88,2.66638 4.01957,3.6907 6.05664,1.97657 1.19671,-1.00698 1.53511,-2.09007 1.79688,-5.74805 0.2768,-3.86793 0.95915,-6.81283 2.33398,-10.08008 2.93815,-6.98249 6.84867,-11.62198 14.98047,-17.76953 8.24756,-6.23509 20.72264,-12.62237 32.97461,-16.88477 l 4.1836,-1.45703 -0.25977,1.33594 c -0.14289,0.73429 -0.56659,4.21153 -0.94141,7.72656 -0.37481,3.51504 -0.77892,6.96395 -0.89843,7.66407 l -0.2168,1.27148 -5.59375,2.13672 c -12.92601,4.93451 -19.35719,8.58622 -25.4707,14.46289 -4.79851,4.61261 -7.25803,8.40946 -9.09961,14.04492 -0.7854,2.4034 -0.94336,3.4136 -0.94336,6.04102 0,6.68111 1.64058,10.09813 5.71875,11.91015 0.76923,0.34182 2.06414,0.73352 2.8789,0.8711 6.03458,1.01968 14.63801,-1.12574 20.52149,-5.11719 9.28485,-6.299 15.65598,-19.10266 18.85351,-37.89258 0.35705,-2.09813 0.76136,-3.9224 0.89844,-4.05469 0.1371,-0.13247 1.80119,-0.82969 3.69922,-1.54882 5.24979,-1.98894 12.51823,-5.28246 15.90625,-7.20704 1.67077,-0.94911 3.06389,-1.70015 3.09375,-1.66992 0.0298,0.0306 -0.29698,1.35155 -0.72461,2.93555 -1.25609,4.65271 -2.34739,11.10327 -2.74023,16.18945 -1.04349,13.51015 2.8283,25.19886 9.92773,29.97071 3.66235,2.4616 7.27586,2.90905 11.26172,1.39648 2.01556,-0.76486 4.98511,-3.24543 5.88477,-4.91602 l 0.5996,-1.11328 4.34961,-0.18554 c 6.93029,-0.29575 10.0445,-1.11297 21.63086,-5.67188 9.01155,-3.54576 12.64365,-4.47045 17.49024,-4.46289 5.74947,0.0107 9.11005,1.21316 15.68945,5.61914 3.19329,2.13827 3.69912,2.375 5.09766,2.375 1.26319,0 1.74734,-0.17383 2.59765,-0.93359 0.88744,-0.79299 1.04493,-1.15175 1.04493,-2.37696 0,-1.74686 -0.72465,-2.84152 -2.82618,-4.26757 -1.66087,-1.12702 -3.94662,-2.05671 -7.57422,-3.07813 -2.07829,-0.5853 -3.2566,-0.67589 -8.79882,-0.67578 -8.51444,2.3e-4 -12.94966,0.81818 -24.32032,4.48633 -10.15849,3.27711 -16.20517,4.60547 -20.97851,4.60547 h -1.79492 v -1.88086 c 0,-1.44235 -0.19197,-2.20767 -0.82227,-3.28321 -0.8953,-1.52768 -2.84131,-2.83593 -4.21875,-2.83593 -3.22402,0 -5.83923,3.53123 -4.98633,6.73242 0.47918,1.79852 2.85638,4.19235 4.81055,4.84375 l 1.37891,0.46094 -1.23438,1.36523 c -1.33388,1.47644 -3.51617,2.7391 -5.32226,3.07813 -1.82523,0.34238 -3.57827,-0.33166 -5.54688,-2.13086 -3.18392,-2.90994 -5.19228,-8.28967 -5.95508,-15.94922 -0.881,-8.84652 0.51221,-17.87186 4.87305,-31.56641 l 1.67773,-5.27148 3.99024,-3.09571 c 7.40915,-5.7487 13.24639,-11.90711 17.08594,-18.02734 3.32043,-5.29274 4.67464,-11.91123 3.0664,-14.98047 -1.14803,-2.19095 -2.12112,-2.73998 -4.84765,-2.73242 z m 0.45898,4.69922 c 0.22022,0.0483 0.39657,0.23546 0.68945,0.5957 0.5402,0.66448 0.60841,1.10434 0.46289,3.01758 -0.23247,3.05684 -1.12789,5.246 -3.79297,9.28125 -2.45205,3.71278 -7.28832,8.96224 -11.60156,12.5918 -1.42636,1.2003 -2.77494,2.28872 -2.99804,2.41796 -0.95749,0.55495 4.15044,-11.2372 7.1289,-16.45703 3.28922,-5.76442 7.01305,-10.32157 9.16016,-11.21093 0.46685,-0.19346 0.73095,-0.28468 0.95117,-0.23633 z m -41.76563,11.13476 c 1.73482,0 2.3711,0.79345 2.3711,2.96289 0,2.8822 -1.95708,5.32189 -6.3086,7.86329 -1.24898,0.72948 -2.62772,1.46178 -3.0625,1.62695 l -0.78906,0.29883 0.59961,-2.68946 c 0.32976,-1.47991 0.79307,-3.25584 1.03125,-3.94726 1.26716,-3.67797 3.72179,-6.11524 6.1582,-6.11524 z m -19.95703,43.51563 -0.22461,1.52148 c -0.12426,0.83668 -0.80305,3.82657 -1.50781,6.64258 -4.62238,18.46953 -12.97962,29.8679 -23.23828,31.69727 -4.59436,0.81929 -6.91319,0.43203 -8.89648,-1.49024 -1.38403,-1.34147 -1.81055,-2.69334 -1.81055,-5.73828 0,-3.18712 0.50377,-5.30838 2.00976,-8.46875 2.44528,-5.13127 6.43937,-9.34685 12.95508,-13.67187 3.57126,-2.37052 12.89916,-7.19643 18.35742,-9.49805 z m 51.98047,20.85547 c 0.15271,-0.0119 0.31184,-0.01 0.47656,0.006 0.90531,0.0867 1.1818,0.32117 1.79102,1.52929 0.39602,0.78528 0.71875,1.82962 0.71875,2.32032 0,1.05089 -0.75405,1.16605 -2.55078,0.38672 -1.58773,-0.68867 -2.24805,-1.38859 -2.24805,-2.375 0,-1.04825 0.74358,-1.78403 1.8125,-1.86719 z"
       transform="scale(0.26458333)"
       id="path3383"
       inkscape:connector-curvature="0" />
    <path
       style="fill:#000000;stroke-width:0.08466666"
       d="m 111.62594,123.13647 c 0,-0.0466 -0.0545,0.0106 -0.121,0.127 -0.0665,0.11642 -0.12099,0.24977 -0.12099,0.29633 0,0.0466 0.0544,-0.0106 0.12099,-0.127 0.0666,-0.11641 0.121,-0.24976 0.121,-0.29633 z"
       id="path3359"
       inkscape:connector-curvature="0" />
    <path
       style="fill:#165aa5;fill-opacity:1;stroke-width:0.31999999"
       d="m 369.44141,322.53711 c -0.23208,-0.01 -0.46991,-0.008 -0.71289,0.006 -1.2959,0.0743 -2.74388,0.48754 -4.3125,1.25976 -5.16344,2.54193 -12.78797,12.4799 -19.8086,25.82227 l -1.55078,2.94922 -1.57617,0.33789 c -2.39762,0.5142 -9.37037,1.60547 -10.25977,1.60547 h -0.78711 l 1.34766,-2.80078 c 2.67039,-5.54933 4.5318,-8.87629 7.31055,-13.07032 3.03964,-4.58789 7.48205,-9.54725 10.18554,-11.36914 1.37605,-0.92738 1.57709,-1.19201 1.41797,-1.8789 -0.27001,-1.16723 -1.69581,-2.5243 -2.88867,-2.74805 -3.49871,-0.65639 -10.57636,3.87936 -15.06055,9.65039 -1.084,1.39502 -4.5997,5.92063 -7.8125,10.05664 -3.21276,4.13601 -7.16774,9.10503 -8.78711,11.04102 l -2.94336,3.51953 -3.64453,0.88672 c -8.59135,2.0931 -15.00195,6.87826 -15.00195,11.19531 0,1.47224 1.23751,3.77881 2.46484,4.59375 l 1.02344,0.67969 -5.84375,6.20117 c -3.21493,3.41114 -8.74732,9.00637 -12.29297,12.43164 l -6.44726,6.22656 -5.53125,-0.0801 c -15.79166,-0.23017 -36.70008,-2.39094 -51.61328,-5.33398 -7.66296,-1.51226 -11.22226,-1.88345 -18.24024,-1.90234 -6.31017,-0.0173 -6.93174,0.0351 -10.18555,0.86132 -6.39739,1.62448 -10.50094,3.69349 -14.32617,7.22266 -4.18546,3.86154 -6.85029,8.96732 -7.83007,14.99805 -2.10724,12.9699 5.71715,24.70519 19.26171,28.88867 4.21913,1.30314 7.6773,1.72852 14.03907,1.72851 8.44972,4.2e-4 12.74559,-0.69156 21.85742,-3.52148 16.57382,-5.14741 33.42113,-16.10363 55.10351,-35.83594 0.70784,-0.64414 1.43203,-0.78807 6.24024,-1.24218 5.8731,-0.55469 11.872,-1.37485 17.85351,-2.44336 2.07532,-0.37074 3.81582,-0.62083 3.86914,-0.55469 0.0533,0.066 -0.17196,2.13562 -0.50195,4.59961 -0.80348,5.99985 -0.85685,15.63095 -0.11328,20.46875 0.29664,1.93001 0.96232,5.14837 1.47852,7.15039 3.04336,11.80335 9.10401,19.40933 17.2539,21.6543 v 0.002 c 4.20061,1.1571 9.94826,-0.0297 13.93555,-2.875 1.95088,-1.39211 4.65572,-4.51001 5.08398,-5.85938 0.15682,-0.49398 0.55736,-0.54282 3.50196,-0.43359 3.5958,0.13308 7.08403,-0.22704 12.35742,-1.27344 5.34648,-1.06084 9.08848,-2.29842 19.83984,-6.56445 13.76686,-5.46259 19.20013,-6.78175 26.40039,-6.41211 1.93599,0.0993 4.59992,0.40775 5.91992,0.68555 3.28899,0.69173 8.15594,3.11296 14.02539,6.97851 4.39934,2.89731 5.08476,3.24612 6.63868,3.375 2.10848,0.17488 3.33955,-0.29097 4.61718,-1.74609 1.23534,-1.40697 1.31833,-3.49288 0.21875,-5.57227 -1.96637,-3.71841 -11.2971,-7.46534 -20.73046,-8.32617 -4.21599,-0.38472 -11.06134,-0.0434 -17.32618,0.86328 -5.31564,0.76933 -13.7775,2.94778 -22.66015,5.83594 -13.49265,4.38712 -18.79117,5.58329 -26.59571,6.00195 l -4.05468,0.21875 0.17383,-1.91015 c 0.26399,-2.91164 -0.53268,-5.23775 -2.44727,-7.15235 -2.3503,-2.3503 -4.79388,-2.75573 -7.68359,-1.27343 -1.48615,0.76233 -2.38708,1.7579 -3.1875,3.52343 -1.3147,2.89992 -0.57865,6.20066 1.94921,8.72852 1.42867,1.42866 4.43268,3.11328 5.55274,3.11328 0.81037,0 0.52809,0.54032 -1.32422,2.54102 -2.2309,2.40963 -5.06447,3.86565 -7.97852,4.09961 -1.67872,0.1347 -2.27775,0.0296 -3.81835,-0.67579 -5.07914,-2.32527 -9.01625,-9.49136 -10.92579,-19.88476 -0.47657,-2.59385 -0.58664,-4.83837 -0.58984,-11.8418 -0.002,-8.00995 0.0605,-9.00128 0.875,-13.59961 1.3303,-7.51011 0.74911,-6.63111 5.20508,-7.85742 2.1049,-0.57929 5.3187,-1.57591 7.14258,-2.21484 1.82387,-0.6389 3.36203,-1.11649 3.41797,-1.06055 0.056,0.056 -0.10622,1.46925 -0.36133,3.13867 -1.41536,9.26222 -0.6061,17.07538 2.02929,19.59961 2.07281,1.98542 5.38976,2.42022 9.07227,1.18945 2.96738,-0.99171 4.67214,-2.20596 8.06445,-5.74023 4.54194,-4.73204 8.44848,-10.79795 11.64063,-18.08008 0.92923,-2.11978 1.69018,-3.70933 1.69336,-3.5332 0.002,0.17601 -0.20948,1.90382 -0.46875,3.83984 -0.59853,4.46593 -0.59994,7.71851 -0.004,10.5586 1.17721,5.60915 3.01768,8.31601 6.29688,9.26562 1.64178,0.47531 1.99426,0.47982 3.65234,0.0469 3.18527,-0.8318 6.28749,-4.4682 10.10156,-11.83789 1.19388,-2.30695 2.17799,-4.05113 2.18555,-3.875 0.008,0.17597 0.15414,1.6408 0.32422,3.2539 0.64554,6.1268 2.22516,8.41514 6.46484,9.36524 1.77627,0.39809 4.56982,-0.038 6.47852,-1.01172 4.46456,-2.27766 10.27788,-10.82076 14.60351,-21.45703 l 1.58985,-3.91016 -0.24805,2.08008 c -0.13682,1.14402 -0.24376,4.16873 -0.23242,6.7207 0.0205,5.34641 0.68511,8.24381 2.53515,11.06836 1.69558,2.58864 4.52992,3.444 6.8086,2.05469 0.87855,-0.5356 1.03837,-0.82041 1.03515,-1.83789 -0.002,-0.66259 -0.21653,-1.90659 -0.47656,-2.76367 -0.25999,-0.85709 -0.56107,-2.87357 -0.66992,-4.48047 -0.18463,-2.72504 -0.13264,-3.09934 0.78125,-5.58203 2.27826,-6.1894 9.84492,-18.85358 14.75781,-24.69922 0.91385,-1.08741 0.89505,-0.995 -0.66015,3.19922 -1.86754,5.03655 -3.3872,10.13403 -4.62696,15.52148 -1.14009,4.9542 -1.29479,10.80818 -0.33789,12.73437 1.01824,2.04968 3.25031,2.70042 5.53711,1.61524 1.50784,-0.7155 2.41365,-2.1988 3.7832,-6.18945 2.27604,-6.63194 5.97278,-13.58937 11.73047,-22.08008 4.51828,-6.66305 4.63664,-6.78556 3.42969,-3.52149 -1.40379,3.79639 -3.29637,9.9211 -4.00586,12.96094 -0.85107,3.64543 -0.8556,12.60138 -0.008,15.35938 1.14043,3.71032 4.08414,5.52577 8.45312,5.21093 2.92218,-0.21059 4.83526,-1.2488 7.63086,-4.13867 4.2336,-4.37639 7.92266,-10.81059 11.52735,-20.11133 0.99541,-2.56841 1.04122,-2.63188 0.82617,-1.12109 -0.1251,0.88002 -0.22852,4.19333 -0.22852,7.36133 0,5.08796 0.0843,6.02804 0.72266,8.05859 0.83539,2.6569 2.33604,4.81224 3.92578,5.63867 1.5295,0.79506 3.88829,0.58204 4.98828,-0.45117 0.92595,-0.87061 0.92274,-1.59061 -0.0195,-5.04687 -0.54289,-1.992 -0.5398,-2.10814 0.13477,-4.80078 2.17678,-8.6888 8.82636,-19.44504 16.93164,-27.39063 1.25193,-1.22725 2.27539,-2.11559 2.27539,-1.97461 0,0.14113 -0.70881,2.15261 -1.57617,4.4707 -3.4924,9.33389 -4.59231,14.16405 -4.60743,20.21485 -0.0199,8.83823 2.44132,12.48047 8.43164,12.48047 2.07039,0 2.70166,-0.14515 4.5254,-1.04297 4.39736,-2.16488 9.2076,-8.79868 13.61914,-18.78321 l 1.70312,-3.85351 -0.24805,2.08008 c -0.45025,3.7881 -0.28033,10.54432 0.31446,12.5 1.18405,3.89302 3.4581,5.58908 7.46289,5.5664 1.93088,-0.0107 2.61822,-0.17798 4.48633,-1.09765 6.01254,-2.95998 12.14179,-12.50323 16.51171,-25.71094 1.05873,-3.1999 1.94425,-6.46581 1.97071,-7.25781 0.0455,-1.40459 0.0218,-1.44237 -1.00196,-1.54102 -1.04042,-0.10008 -1.06456,-0.0729 -2.60937,3.19922 -0.85712,1.81557 -2.52693,5.46156 -3.71094,8.10156 -5.03282,11.2215 -8.92619,17.56359 -11.91406,19.41016 l -1.13281,0.70117 -0.55274,-0.68359 c -2.20116,-2.71835 0.11393,-12.75684 6.2461,-27.07422 2.42456,-5.66086 3.68515,-9.60558 3.68164,-11.52539 -0.008,-4.27015 -3.05234,-5.96379 -6.55078,-3.64649 -2.19134,1.45146 -4.29821,4.46705 -7.13868,10.21485 l -2.46875,4.99609 -1.14843,-0.15234 c -1.05113,-0.13833 -1.20657,-0.049 -1.85547,1.05078 -0.38967,0.66043 -2.08173,4.30359 -3.75977,8.0957 -3.84676,8.69318 -5.50026,11.99491 -7.71679,15.41406 -2.2941,3.53866 -4.08242,5.66097 -5.30079,6.29102 -0.93014,0.48087 -1.0087,0.47301 -1.52929,-0.16992 -1.62879,-2.01147 -0.80951,-8.1917 2.27148,-17.12696 1.23545,-3.58295 2.04608,-5.59325 5.37305,-13.31445 1.36547,-3.16883 1.4501,-3.53335 1.47656,-6.40039 0.0254,-2.72217 -0.0522,-3.15258 -0.74023,-4.11719 -1.59682,-2.23891 -4.85169,-2.85172 -8.08594,-1.52148 -5.69514,2.34247 -14.55111,11.57752 -19.76172,20.60742 -0.94216,1.63272 -1.77484,2.90485 -1.85156,2.82813 -0.21226,-0.2123 1.68919,-5.57539 3.57812,-10.08985 2.782,-6.6483 3.25549,-8.52497 2.70508,-10.71094 -0.92133,-3.65903 -5.01153,-4.0265 -8.2832,-0.74414 -1.80242,1.80832 -4.04891,6.46282 -5.96094,12.34766 -1.50319,4.62675 -1.56847,4.75492 -2.26953,4.43555 -1.36169,-0.62045 -1.57026,-0.28468 -5.72656,9.24218 -3.6463,8.35794 -5.72569,12.46949 -8.10547,16.02735 -4.83421,7.22721 -7.2847,7.75889 -7.18946,1.56054 0.0471,-3.07131 0.96905,-7.15492 2.87696,-12.73437 1.33353,-3.89979 2.30132,-6.30281 5.50976,-13.69141 1.41309,-3.25459 1.46145,-3.46342 1.47657,-6.66211 l 0.0195,-3.30273 -1.32422,-1.23438 c -1.50584,-1.40552 -3.4097,-2.04587 -5.16211,-1.73632 -4.52387,0.79884 -9.3472,5.34795 -14.30469,13.49218 -0.87417,1.43615 -1.62028,2.58467 -1.6543,2.54688 -0.0359,-0.0359 0.29411,-1.2899 0.73243,-2.78516 0.60619,-2.06831 0.77147,-3.26876 0.68945,-5.02148 -0.12748,-2.73041 -0.71468,-3.73204 -2.83594,-4.83789 -4.96539,-2.58849 -11.6592,2.50803 -18.92969,14.41211 -0.88989,1.45701 -1.54301,2.43411 -1.45117,2.16992 0.0917,-0.264 1.04732,-2.65367 2.12305,-5.30859 2.11869,-5.22913 2.64037,-7.81884 1.98047,-9.81836 -1.07581,-3.25954 -5.682,-3.06504 -8.70313,0.36718 -0.71229,0.80916 -1.84479,2.62487 -2.51562,4.03516 -1.20121,2.52544 -4.16602,10.96971 -4.16602,11.86523 0,0.32123 -0.37857,0.45899 -1.25976,0.45899 -1.22937,0 -1.28201,0.0485 -2.22266,2 -0.53019,1.09999 -2.35406,5.16705 -4.05273,9.03906 -4.38932,10.00536 -7.79532,15.85763 -10.88868,18.70899 -1.70864,1.57481 -2.49896,1.6406 -3.20898,0.26757 -1.50875,-2.9176 1.00803,-13.50165 5.82617,-24.51171 3.19034,-7.29052 4.02208,-9.85318 4.17969,-12.86524 0.16868,-3.22137 -0.15776,-4.05475 -1.92578,-4.91992 -1.0673,-0.52233 -1.39909,-0.5504 -2.52539,-0.21289 -3.16713,0.94892 -6.69719,5.98741 -11.16407,15.93555 -3.15609,7.02904 -7.91818,16.68989 -10.52734,21.35742 -2.21219,3.95746 -5.75454,9.4414 -6.09961,9.4414 -0.44334,0 -0.91296,-1.99826 -1.11328,-4.74023 -0.51428,-7.03268 2.13501,-18.04048 7.40234,-30.75977 2.93042,-7.07629 2.19505,-10.90039 -2.0957,-10.90039 -2.74545,0 -5.52796,2.4164 -7.53515,6.54492 -0.60314,1.2406 -1.85376,4.58158 -2.78126,7.42579 -1.66125,5.09427 -1.70042,5.16844 -2.52734,5.00781 -1.16443,-0.22632 -1.8116,0.72138 -5.50586,8.06055 -4.94683,9.82756 -9.40713,16.74502 -13.32812,20.66601 -1.45875,1.45875 -3.68781,2.85547 -4.55664,2.85547 -1.42814,0 -1.96123,-5.64756 -1.08204,-11.44531 1.04724,-6.90577 3.81446,-17.73066 6.8086,-26.63477 1.89207,-5.62685 8.35822,-22.13949 8.8457,-22.58789 0.20776,-0.19105 1.315,-0.59488 2.45899,-0.89648 3.24087,-0.85463 7.57125,-3.13401 10.23242,-5.38672 6.09063,-5.15581 9.23582,-11.47578 8.88281,-17.84961 -0.27853,-5.03056 -2.50912,-7.83341 -5.99023,-7.98047 z m 0.39257,7.33984 c 1.29956,0 1.62913,0.71051 1.4375,3.09766 -0.44114,5.49566 -5.92612,12.20636 -12.26953,15.01172 -2.58969,1.14531 -2.7903,1.07032 -2.01172,-0.74805 0.93498,-2.18362 3.67198,-7.22966 5.33789,-9.83984 3.21412,-5.03581 5.69335,-7.52149 7.50586,-7.52149 z m -29.61132,27.52344 c 0.70352,-0.002 0.70308,0.007 -0.25,2.13086 -2.77138,6.17688 -6.68447,18.45079 -8.36133,26.23242 -0.66675,3.09404 -0.82591,3.4726 -1.69531,4.00781 -1.3606,0.8377 -6.8339,2.91214 -10.30079,3.9043 -1.61712,0.4628 -3.00655,0.8418 -3.08789,0.8418 -0.2415,0 2.5375,-9.20921 5.21289,-17.2793 1.98826,-5.99739 6.46807,-18.07939 6.84375,-18.45508 0.11188,-0.11187 10.78749,-1.3796 11.63868,-1.38281 z m -24.64844,5.45508 c 0.10268,0.0308 -0.5572,1.96182 -1.54297,4.5 -3.00938,7.74856 -6.21887,17.57181 -7.62109,23.32422 -0.70767,2.90305 -1.28878,5.5119 -1.29102,5.79687 -0.003,0.42278 -0.75709,0.61639 -4.08398,1.04688 -2.244,0.29038 -5.44714,0.65773 -7.11914,0.81836 -5.34856,0.5142 -10.24024,0.74554 -10.24024,0.48437 0,-0.13942 2.19923,-2.49698 4.88672,-5.24023 5.9854,-6.10961 13.65813,-14.71555 21.02734,-23.58399 3.05481,-3.67627 5.73508,-6.88355 5.95508,-7.12695 0.0138,-0.0152 0.0224,-0.0216 0.0293,-0.0195 z m -122.75391,35.56445 c 1.58816,-0.0252 3.23533,0.05 4.93555,0.23047 1.936,0.20553 8.19992,1.15143 13.91992,2.10156 21.59899,3.5878 30.88239,4.60314 44.94531,4.91797 l 9.26563,0.20703 -4.82227,3.9336 c -21.25979,17.34489 -39.37652,27.10188 -55.41992,29.8457 -3.95375,0.67631 -11.84417,0.79995 -15.72851,0.24609 -2.77217,-0.39522 -7.35469,-1.95476 -9.91993,-3.375 -4.47783,-2.47918 -8.00012,-7.19616 -9.44336,-12.64843 -0.69225,-2.61513 -0.51617,-8.62498 0.33399,-11.44141 2.63232,-8.72049 10.81651,-13.84084 21.93359,-14.01758 z m 143.75196,34.59766 c 0.30325,-0.001 0.58909,0.10879 1.04492,0.32617 1.27869,0.60975 2.35602,2.74338 2.60547,5.16016 0.21418,2.07526 0.0765,2.13416 -2.73828,1.16211 -2.0151,-0.69589 -3.22767,-1.53371 -3.87696,-2.67774 -0.41919,-0.73841 -0.41135,-0.95164 0.082,-1.98633 0.37236,-0.78077 0.93688,-1.31892 1.73047,-1.65039 0.52749,-0.2208 0.8491,-0.33295 1.15235,-0.33398 z"
       transform="scale(0.26458333)"
       id="path3355"
       inkscape:connector-curvature="0" />
    <path
       style="fill:#165aa5;fill-opacity:1;stroke-width:0.08466666"
       d="m 136.22761,115.72639 c -1.058,-0.40234 -0.83155,-3.00391 0.39596,-4.54905 0.38094,-0.47951 1.09066,-1.0034 1.45087,-1.07098 0.59847,-0.11227 1.2435,0.35113 1.2435,0.89336 0,0.28887 -0.0917,0.42075 -0.94529,1.35999 -1.37763,1.51581 -1.70349,2.08443 -1.65925,2.89539 0.0186,0.34081 -0.005,0.41756 -0.14713,0.47139 -0.0931,0.0353 -0.24553,0.0353 -0.33866,0 z"
       id="path3343"
       inkscape:connector-curvature="0" />
    <path
       style="fill:#0290d1;fill-opacity:1;stroke-width:0.31999999"
       d="m 564.16797,388.16797 c -3.06794,0.17047 -6.4541,1.41809 -9.19336,3.48047 -5.05047,3.80247 -7.61795,9.73887 -6.7168,15.53515 0.78089,5.02303 2.43986,8.34148 5.62305,11.24805 2.08683,1.90556 6.07243,4.00017 9.33594,4.9082 l -0.002,0.002 c 3.0135,0.83841 9.96634,0.6859 13.74024,-0.30078 4.81655,-1.25931 10.23391,-4.46811 16.77344,-9.9375 l 2.37109,-1.98633 3.70898,0.25976 c 4.75654,0.33347 7.27441,0.22996 9.70703,-0.40039 3.88154,-1.00584 6.40756,-2.71873 7.93555,-5.38281 1.71322,-2.98696 1.16769,-6.1054 -1.40039,-8.00586 -0.73308,-0.54244 -1.37159,-0.66992 -3.36133,-0.66992 -1.37745,0 -2.94594,0.19876 -3.57422,0.45312 -2.0663,0.83611 -5.25631,3.30489 -8.18359,6.33203 l -2.9043,3.00196 -3.8164,-1.06641 -3.81641,-1.06836 -0.17578,-2.46093 c -0.14634,-2.05127 -0.33372,-2.68807 -1.13086,-3.82227 -2.45442,-3.49217 -6.46925,-4.00807 -8.5918,-1.10547 -1.40651,1.92352 -0.64318,4.6683 1.43946,5.17578 1.20011,0.29242 2.27482,-0.69469 1.87109,-1.71875 -0.25036,-0.63492 -0.4563,-0.72823 -1.25586,-0.56836 -0.90671,0.18134 -0.95508,0.13668 -0.95508,-0.86523 0,-2.11673 2.41883,-3.24212 4.3086,-2.00391 1.75294,1.14868 2.39587,3.06553 1.88476,5.6211 -0.17057,0.85311 -0.31757,0.99593 -0.8789,0.83984 -0.37115,-0.10318 -2.40363,-0.43018 -4.51563,-0.72461 l -3.83984,-0.53516 -0.0234,-2.15625 c -0.0193,-1.74474 -0.21584,-2.55265 -1.0332,-4.21289 -1.83765,-3.73273 -5.8929,-6.71973 -10.4043,-7.66601 -0.91604,-0.19214 -1.90313,-0.25604 -2.92578,-0.19922 z m 1.28125,1.79297 c 2.82935,0.0864 5.64754,1.15524 8.04297,3.36328 2.35842,2.17391 3.39938,5.11458 2.84961,8.04492 -0.18274,0.97429 -0.34268,1.14844 -1.0586,1.14844 -1.83386,0 -4.57776,1.04915 -5.98632,2.28906 -1.51253,1.33138 -2.62463,3.61702 -2.32227,4.77344 0.16445,0.6288 0.0879,0.66434 -0.98633,0.46289 -2.68675,-0.50404 -4.54801,-2.04708 -5.23437,-4.33789 -0.77704,-2.59363 0.88119,-5.57248 2.98828,-5.36914 1.34838,0.12998 1.62023,1.08355 0.4375,1.5332 -1.63593,0.622 -0.60769,2.96875 1.30078,2.96875 0.47611,0 1.05744,-0.26228 1.29101,-0.58203 0.67677,-0.92553 0.52379,-3.09681 -0.30468,-4.32617 -1.01042,-1.49938 -1.99559,-1.94207 -4.00196,-1.79883 -1.40156,0.10008 -1.88336,0.3087 -2.82617,1.21484 -2.15973,2.07587 -2.77425,4.32603 -1.90039,6.95703 1.00358,3.02155 4.85244,5.49415 8.55078,5.49415 1.40141,0 1.79659,0.15188 2.82617,1.08203 1.88822,1.70592 4.46493,2.57252 7.68165,2.58007 2.39059,0.006 2.97768,-0.11433 4.8496,-0.99609 1.33293,-0.62785 3.03438,-1.84185 4.54883,-3.24609 1.53245,-1.42092 2.62891,-2.20223 2.99024,-2.12891 0.3137,0.0636 1.71973,0.35597 3.125,0.65039 l 2.55468,0.53711 -1.91406,1.76172 c -2.51244,2.31243 -5.85919,4.66785 -8.62305,6.06836 -2.75664,1.39691 -4.16385,1.89961 -7.04101,2.51367 -8.53274,1.82117 -16.67435,-0.52587 -22.91602,-6.60547 -3.15598,-3.07415 -4.47717,-7.78015 -3.38281,-12.04883 1.9569,-7.6331 8.23636,-12.19399 14.46094,-12.0039 z m 47.03125,8.53515 c 0.56207,-0.017 1.06589,0.0334 1.48242,0.15821 2.82849,0.8474 3.73404,3.23279 1.91602,5.05078 -1.3694,1.36943 -4.55055,2.94468 -6.9961,3.46289 -1.19149,0.25236 -2.88759,0.43648 -3.76758,0.40625 -2.99497,-0.0976 -4.79938,-0.29459 -5.06054,-0.55274 -0.41341,-0.4083 4.77983,-5.66662 6.65625,-6.74023 1.88195,-1.07666 4.08333,-1.73428 5.76953,-1.78516 z m -38.72461,8.08594 -0.64063,0.72461 c -0.35198,0.39874 -1.35825,1.1386 -2.23828,1.64453 -2.02412,1.16376 -2.47219,1.1764 -2.34179,0.0625 0.12778,-1.09085 1.52101,-1.93995 3.64843,-2.22265 z m 2.80273,0.33203 4.19922,0.54102 c 4.63892,0.59739 5.31836,0.74135 5.31836,1.1289 0,0.7372 -3.08722,3.58487 -4.72851,4.36133 -1.43464,0.67888 -2.39468,0.88359 -4.54493,0.96485 -2.99746,0.11334 -3.98572,-0.0683 -5.98437,-1.09571 -1.41695,-0.72824 -2.01756,-1.33789 -1.32031,-1.33789 0.97005,-5.6e-4 4.4661,-1.96805 5.71289,-3.21484 z"
       transform="scale(0.26458333)"
       id="path3341"
       inkscape:connector-curvature="0" />
    <path
       style="fill:#0290d1;fill-opacity:1;stroke-width:0.31999999"
       d="m 257.58789,322.91602 c -3.9711,0.0817 -7.86711,1.14429 -11.25391,3.30468 -2.40921,1.5368 -5.74304,4.93748 -7.20507,7.34961 -2.67916,4.42016 -3.40429,9.90532 -1.89258,14.32813 0.40991,1.19924 0.69491,2.22443 0.63281,2.27734 -0.0621,0.053 -0.90504,0.34986 -1.87305,0.66016 -0.96799,0.31045 -3.80005,1.53729 -6.29297,2.72656 l -4.5332,2.16211 -0.88086,-1.96289 c -1.2929,-2.87951 -1.37102,-4.59019 -0.30859,-6.76172 1.06793,-2.18275 2.52227,-3.36133 4.14258,-3.36133 2.21653,0 4.35351,1.74852 4.35351,3.5625 0,0.82386 -0.10769,0.91602 -1.05664,0.91602 -1.33729,0 -1.82422,0.48894 -1.82422,1.83203 0,0.84023 0.16936,1.12914 0.80078,1.36914 1.22572,0.46602 3.03235,-0.27045 3.93555,-1.60156 1.94392,-2.86489 -0.88877,-7.46912 -4.87109,-7.91797 -2.89677,-0.32652 -6.29446,1.60173 -7.67188,4.35156 -1.69491,3.3837 -1.82193,6.73245 -0.375,9.85547 l 0.7461,1.61133 -4.20313,2.5957 c -2.31104,1.42775 -4.69261,2.93563 -5.29297,3.35156 l -1.09179,0.75586 -4.1875,-2.55664 c -4.50169,-2.74817 -7.57175,-4.17318 -11.8711,-5.51367 -2.35426,-0.73478 -3.12969,-0.83018 -5.83594,-0.7168 -2.49047,0.10428 -3.48109,0.2973 -4.90234,0.95313 -2.10968,0.97349 -3.95714,2.76863 -4.51367,4.38672 -0.64299,1.8695 -0.48258,4.78824 0.35156,6.41015 0.93038,1.80907 3.24647,4.27954 4.9375,5.26758 3.43928,2.00954 10.05512,2.97016 14.78516,2.14649 2.63449,-0.4588 8.20333,-2.22179 11.78515,-3.73243 1.41683,-0.5975 3.01158,-1.08624 3.54493,-1.08593 0.53334,3.7e-4 3.63462,1.13432 6.89062,2.52148 7.84144,3.34061 9.80747,4.00907 15.67969,5.32227 4.73535,1.05872 5.18458,1.10368 9.91992,0.98046 8.99383,-0.23396 16.24957,-2.31484 22.24023,-6.375 2.81926,-1.91067 7.65756,-6.72647 9.45118,-9.4082 2.20125,-3.29114 3.52402,-7.50206 3.74414,-11.92187 0.30684,-6.16063 -0.8052,-11.29064 -3.39063,-15.64258 -4.78403,-8.0527 -13.87685,-12.61909 -22.61328,-12.43945 z m -0.47266,2.68945 c 3.8307,0.0156 6.36642,0.65404 10.24024,2.57812 2.5386,1.26093 3.5179,1.98696 5.93359,4.40235 4.61732,4.61677 6.64818,9.18639 6.62891,14.91211 -0.0178,5.32467 -2.01111,9.69481 -7.13086,15.63086 -4.58334,5.31405 -11.67419,9.7153 -18.39063,11.41601 -4.53234,1.14769 -13.16065,1.37261 -18.08007,0.4707 -4.49611,-0.82424 -9.63779,-2.53894 -13.91993,-4.64062 -5.44891,-2.67439 -5.40705,-2.27909 -0.51562,-4.76367 l 4.20508,-2.13672 4.07617,2.07422 c 4.59661,2.33801 7.08035,3.03736 10.80664,3.04492 3.17083,0.006 5.64836,-0.61691 8.57031,-2.15234 2.5053,-1.31649 6.2321,-4.76815 6.90039,-6.39063 0.35548,-0.86305 0.71237,-1.1107 2.23047,-1.54883 4.46623,-1.28893 8.60797,-4.74662 9.93555,-8.29492 0.97218,-2.59831 0.91553,-5.6325 -0.14453,-7.75976 -0.95352,-1.91347 -3.14464,-4.0435 -5.04492,-4.90625 -3.31071,-1.50308 -7.73048,0.0229 -9.0586,3.12695 -0.86394,2.01914 -0.35646,5.31312 1.06055,6.87891 1.41363,1.56204 4.57812,-0.24031 4.57812,-2.60743 0,-1.01265 -1.14203,-1.98798 -2.05859,-1.75781 -0.58049,0.14566 -0.85995,0.0226 -1.14062,-0.50195 -0.50165,-0.93733 0.28647,-1.80632 1.88281,-2.07617 3.27656,-0.55355 6.09501,2.60433 6.10937,6.84375 0.006,1.74512 -0.15585,2.33878 -1.08594,4 -1.3411,2.39542 -2.09627,3.12054 -4.32226,4.15039 l -1.73633,0.80273 -0.54297,-1.60351 c -0.88853,-2.62466 -3.31659,-4.76166 -6.67187,-5.8711 -1.37401,-0.4543 -2.32201,-0.53046 -4.64063,-0.3789 -1.60241,0.10466 -3.27356,0.2766 -3.71484,0.38281 -0.7219,0.17359 -0.89587,0.006 -1.73242,-1.66992 -1.21102,-2.42586 -1.50075,-6.38291 -0.67774,-9.25391 1.1002,-3.83792 4.81895,-8.22033 8.74414,-10.30274 2.90245,-1.53978 5.28035,-2.11277 8.70703,-2.09765 z m -5.90625,27.65625 c 1.15879,-8.7e-4 1.81039,0.12807 2.47071,0.4414 1.1451,0.54339 2.0898,2.06394 1.6875,2.71485 -0.23737,0.38407 -0.58684,0.38266 -3.02149,-0.0215 -2.18286,-0.3623 -5.95129,-2.16588 -5.49023,-2.62695 0.17955,-0.17945 1.53222,-0.38932 3.00586,-0.4668 0.51816,-0.0272 0.96139,-0.0407 1.34765,-0.041 z m -8.375,2.45117 c 0.09,0.005 0.15491,0.0236 0.20118,0.0566 2.66657,1.90473 6.78534,3.22852 10.04687,3.22852 1.27547,0 2.11328,0.13304 2.11328,0.33789 0,0.18655 -0.75569,1.13997 -1.67969,2.11718 -1.86626,1.97386 -4.76682,3.60836 -7.80078,4.39454 -2.47095,0.6404 -5.95304,0.86592 -7.90625,0.51367 -2.8298,-0.5102 -8.5332,-3.7199 -8.5332,-4.80274 0,-0.13908 2.98862,-1.57479 6.64063,-3.1914 4.48065,-1.98349 6.28815,-2.68682 6.91796,-2.6543 z m -52.19336,2.03516 c 3.14664,0.0166 6.94577,0.75844 9.81055,2.08203 2.41027,1.11364 8.67068,5.09483 8.65821,5.50586 -0.0103,0.33951 -6.80504,2.89939 -9.05079,3.41015 -2.22319,0.50555 -6.52151,0.81763 -8.22265,0.59766 -4.33519,-0.56058 -8.36485,-2.16675 -9.125,-3.63672 -1.30225,-2.51826 0.0987,-5.55315 3.3125,-7.17578 1.07514,-0.54283 2.7292,-0.79315 4.61718,-0.7832 z"
       transform="scale(0.26458333)"
       id="path3331"
       inkscape:connector-curvature="0" />
    <path
       style="fill:#165aa5;fill-opacity:1;stroke-width:0.08466666"
       d="m 145.62947,90.48951 c -0.38606,-0.33897 -0.55437,-0.90112 -0.5536,-1.8489 0.001,-1.76529 0.77528,-3.59276 2.01762,-4.76471 0.92588,-0.87343 1.69959,-1.12616 2.41229,-0.78796 0.3564,0.16912 0.68326,0.55729 0.76681,0.91065 0.0939,0.39724 -0.15744,0.79363 -1.24708,1.96658 -1.25239,1.34814 -1.73649,1.96331 -2.07311,2.63446 -0.33676,0.67141 -0.38893,0.97254 -0.2574,1.48574 0.10171,0.39685 0.0978,0.43904 -0.0513,0.54803 -0.27756,0.20295 -0.68506,0.14514 -1.01425,-0.14389 z"
       id="path3321"
       inkscape:connector-curvature="0" />
    <g
       id="g3574"
       style="fill:#0290d1;fill-opacity:1">
      <path
         id="path3319"
         transform="scale(0.26458333)"
         d="m 518.41797,239.31836 c -1.67384,-0.11286 -4.01205,1.46387 -7.0625,4.75586 -4.79773,5.17762 -8.31544,8.56683 -11.60938,11.18164 -3.74683,2.97437 -7.0907,5.30789 -7.30273,5.0957 -0.0791,-0.0791 -0.28544,-1.71229 -0.45703,-3.6289 -0.17182,-1.91661 -0.50559,-4.20601 -0.74219,-5.08789 -0.29518,-1.10029 -0.33231,-1.82309 -0.11914,-2.30079 0.66516,-1.49062 -0.86192,-3.93554 -2.45703,-3.93554 -0.43801,0 -2.06326,0.42291 -3.61328,0.9414 -6.96114,2.32871 -13.0746,3.14739 -26.49805,3.54688 -10.99109,0.32711 -13.58119,0.57453 -18.55664,1.77539 -1.75763,0.42422 -4.67106,0.98999 -6.47461,1.25781 -3.14143,0.46647 -3.30462,0.46294 -3.88281,-0.11523 -0.90025,-0.90028 -4.48983,-1.11729 -11.13477,-0.67383 -5.6756,0.37875 -9.27185,0.26039 -11.86914,-0.38867 -1.62852,-0.40694 -5.11812,0.0259 -9.68164,1.20117 -4.3333,1.116 -6.78241,1.27808 -10.13867,0.67187 -1.55195,-0.2803 -3.2199,-0.56701 -3.70508,-0.63867 -0.87364,-0.12902 -1.8881,-0.0534 -12.01172,0.90625 -8.68535,0.82333 -13.65393,0.57294 -20.54492,-1.03906 -1.60581,-0.37563 -5.40016,-0.54008 -16.64062,-0.7207 -16.25494,-0.26119 -18.9766,-0.51816 -26.21094,-2.46094 -4.94361,-1.32762 -5.6163,-1.26307 -6.53906,0.62305 -0.44818,0.91609 -0.51613,1.41329 -0.28516,2.07812 0.20459,0.58893 0.16696,1.65625 -0.11719,3.27344 -0.23193,1.32 -0.42874,3.73663 -0.43555,5.36914 l -0.0117,2.96875 -1.04102,-0.53516 c -4.02975,-2.07421 -12.11487,-8.56871 -17.64648,-14.17187 -5.21816,-5.28546 -7.54393,-6.5927 -9.40235,-5.29102 -0.56221,0.3938 -0.71065,0.81277 -0.71289,2 -0.002,0.82602 -0.50693,3.30196 -1.12109,5.50196 -1.40754,5.04201 -1.91446,10.00045 -1.54297,15.06445 l 0.27148,3.70508 -2.88281,0.37304 c -1.58535,0.20541 -6.12203,1.16856 -10.08203,2.14063 -3.96,0.97206 -8.42392,1.89651 -9.91992,2.05469 -2.66805,0.28207 -2.73646,0.27271 -3.59375,-0.53907 -0.76141,-0.72095 -0.9775,-0.78087 -1.67969,-0.46093 -0.45459,0.20713 -0.80664,0.63534 -0.80664,0.98242 0,0.90947 2.71635,7.51608 4.22656,10.27929 3.41048,6.2402 7.48625,11.37705 14.23633,17.94141 7.79909,7.58457 16.91307,13.85909 28.09766,19.34375 8.36159,4.10034 17.43505,7.55779 25.91992,9.87891 5.95881,1.63011 6.961,1.10207 8.44726,-4.44531 0.5187,-1.93603 1.18455,-4.81444 1.47852,-6.39844 0.29398,-1.584 0.83328,-3.58083 1.19922,-4.4375 l 0.66601,-1.5586 1.62305,0.19727 c 0.89344,0.10828 3.20855,0.40422 5.14453,0.6582 1.93603,0.25418 5.82465,0.62094 8.64063,0.81446 7.69421,0.52834 35.10935,0.88446 46.7207,0.60742 5.63199,-0.1344 16.21552,-0.3146 23.51953,-0.40039 7.30398,-0.0859 15.9432,-0.30945 19.19922,-0.49805 24.41605,-1.41354 27.32598,-1.65936 34.7207,-2.93359 2.112,-0.3639 4.30714,-0.74114 4.87891,-0.83789 0.98377,-0.16638 1.0745,-0.0963 1.69336,1.30273 0.35962,0.81305 0.93492,2.73932 1.27734,4.28125 0.59551,2.68055 2.11783,7.93877 2.81836,9.73242 0.48681,1.24638 1.58546,1.8711 3.28711,1.8711 3.16237,0 18.08964,-5.65606 27.48438,-10.41407 22.79523,-11.54479 40.13973,-29.13159 46.08984,-46.73437 1.12108,-3.31616 1.17663,-4.14855 0.30469,-4.61524 -0.69623,-0.37257 -1.04179,-0.25397 -2.14258,0.73633 -0.63231,0.56882 -0.97652,0.61423 -3.19922,0.41406 -2.48579,-0.22384 -4.44737,-0.57859 -13.21289,-2.38867 -2.55197,-0.52701 -5.73599,-1.05675 -7.07617,-1.17773 l -2.43555,-0.2207 -0.17187,-6.11915 c -0.1815,-6.45673 -0.56296,-8.57657 -2.60157,-14.51757 -0.52384,-1.52699 -0.73321,-2.68881 -0.61718,-3.4043 0.1353,-0.83398 0.0191,-1.24261 -0.5,-1.76172 -0.4124,-0.41239 -0.89713,-0.63816 -1.45508,-0.67578 z m -0.27735,7.3125 0.36719,3.23437 c 0.51028,4.48621 0.4632,6.68006 -0.25,11.76758 -1.02882,7.33885 -1.07453,7.95325 -0.66797,8.71289 0.65647,1.2266 1.99464,1.53844 5.88672,1.37305 3.19423,-0.13575 4.31584,-0.0131 10.91992,1.20117 5.86496,1.0784 7.79959,1.31715 9.5254,1.17383 1.68185,-0.13969 2.11078,-0.0911 1.91992,0.21875 -2.55576,4.1487 -11.7311,16.50762 -15.47461,20.84375 -8.8348,10.23345 -20.62425,17.69769 -38.4668,24.35352 -2.07511,0.77407 -3.85452,1.4082 -3.95312,1.4082 -0.0987,0 1.02506,-1.3036 2.49609,-2.89649 5.74148,-6.21705 9.23437,-10.54316 9.23437,-11.43554 0,-0.27923 -0.26965,-0.80476 -0.59961,-1.16797 -0.83792,-0.92281 -1.85342,-4.10941 -1.36132,-4.27344 1.56045,-0.52014 10.60156,-7.78062 10.60156,-8.51367 0,-0.65946 -1.09803,-1.47266 -1.98633,-1.47266 -1.36324,0 -3.30817,0.84282 -5.75976,2.49414 -2.40409,1.6193 -4.41145,2.75054 -4.55469,2.56836 -0.31718,-0.40335 -0.7778,-3.95815 -0.52344,-4.04297 1.19089,-0.39696 6.10352,-5.06263 6.10352,-5.79687 0,-0.68154 -0.97466,-1.62305 -1.67969,-1.62305 -0.28022,0 -1.66795,0.48876 -3.08399,1.08594 -2.87047,1.21062 -2.68854,1.2934 -3.07617,-1.40625 -0.11376,-0.792 -0.27792,-1.69279 -0.36523,-2.00195 -0.10262,-0.36308 0.0669,-0.64711 0.48047,-0.80078 0.86388,-0.32103 7.77512,-5.61399 9.87695,-7.56446 1.77196,-1.64435 2.08419,-2.51775 1.0918,-3.04883 -0.46152,-0.24703 -0.83829,-0.13324 -1.67969,0.50586 -1.15385,0.87642 -10.15244,5.40048 -10.33008,5.19336 -0.0578,-0.0674 -0.18241,-0.71865 -0.27539,-1.44726 l -0.16797,-1.32422 1.30469,-0.20899 c 2.79885,-0.44755 8.14901,-4.17824 10.05469,-7.01171 1.19784,-1.78119 1.62782,-3.51485 1.04687,-4.21485 -0.7694,-0.92707 -1.79306,-0.51011 -4.34375,1.76758 -1.53169,1.36778 -3.60874,2.81032 -5.32226,3.69531 l -2.81055,1.45117 0.008,-2.81445 0.006,-2.8164 3.74024,-1.75977 c 2.05663,-0.968 5.00528,-2.5068 6.55273,-3.41992 3.7299,-2.20093 11.12346,-7.6948 13.5625,-10.07813 z m -244.21874,4.57422 c 0.0741,-0.0741 0.98528,0.65424 2.02539,1.61719 1.0401,0.96294 4.28108,3.35464 7.20312,5.3164 5.2959,3.55549 9.05432,5.62199 14.36523,7.89649 l 2.80079,1.19922 v 2.18359 2.18359 l -1.72852,-0.76367 c -0.9502,-0.42022 -2.56981,-1.00467 -3.59961,-1.29883 -1.0298,-0.29417 -2.9569,-1.09341 -4.2832,-1.77734 -2.76055,-1.42349 -3.04289,-1.47351 -3.49805,-0.62305 -0.28688,0.53603 0.14269,1.11455 3.17383,4.26758 3.77661,3.92848 6.13584,5.51322 8.73242,5.86914 l 1.42188,0.19531 -0.15039,1.64453 c -0.0829,0.90388 -0.19084,1.68876 -0.24024,1.7461 -0.12215,0.14179 -4.76767,-2.39189 -6.54883,-3.57227 -0.792,-0.52486 -2.21239,-1.60423 -3.15625,-2.39844 -1.37541,-1.15727 -1.82034,-1.37651 -2.24023,-1.10351 -1.29838,0.84419 0.17205,4.17345 3.14648,7.12695 1.15393,1.14579 3.5009,3.07101 5.21485,4.27735 2.74082,1.92906 3.62012,2.76562 2.90429,2.76562 -0.11659,0 -0.87423,-0.41099 -1.68164,-0.91406 -2.36034,-1.47069 -10.20661,-5.48438 -10.7207,-5.48438 -0.62314,0 -1.46605,1.23106 -1.24219,1.81446 0.0973,0.25357 1.27577,1.26693 2.61719,2.2539 1.34142,0.98698 4.20847,3.24549 6.37305,5.01758 l 3.93554,3.2207 -0.21093,1.28711 c -0.11668,0.70722 -0.2533,1.32997 -0.30274,1.38477 -0.14937,0.16581 -6.29275,-3.03307 -7.83594,-4.08008 -0.792,-0.53735 -1.74665,-0.97851 -2.12109,-0.97851 -0.92675,-0.002 -1.5119,0.78614 -1.27734,1.7207 0.18928,0.75414 4.68042,5.22638 8.21875,8.18359 2.17036,1.81387 2.18835,2.5702 0.0352,1.49024 -0.8226,-0.41261 -2.61975,-1.08004 -3.99414,-1.48438 l -2.5,-0.73633 -0.69336,0.69532 -0.69531,0.69336 3.59375,3.60351 c 2.68836,2.69601 3.59375,3.80789 3.59375,4.41602 0,1.06469 2.47427,4.06848 7.95508,9.65625 2.37367,2.41999 4.18235,4.39232 4.01953,4.38476 -1.36685,-0.0779 -15.15971,-5.36927 -20.61523,-7.9082 -9.81994,-4.57005 -18.89568,-11.741 -26.73633,-21.125 -2.69863,-3.22983 -11.34436,-14.41595 -12.04883,-15.58984 -0.12195,-0.20319 0.87679,-0.33267 2.73633,-0.35157 2.24763,-0.0229 4.46311,-0.37575 9.53125,-1.51953 5.87637,-1.32622 7.02847,-1.49023 10.46289,-1.49023 3.58684,0 3.91975,-0.0527 4.73047,-0.75 1.05346,-0.90618 1.06706,-1.62714 0.12304,-6.94336 -1.16657,-6.57046 -1.34887,-8.65052 -1.13476,-12.93555 0.11399,-2.28179 0.26764,-4.20905 0.3418,-4.2832 z m 212.53515,1.02734 c 0.0571,0.0572 -0.0179,3.25719 -0.16601,7.11328 -0.37592,9.78707 -0.005,17.19966 1.35937,27.17188 0.96359,7.04361 1.84899,11.41409 3.28906,16.22656 0.11411,0.3812 -0.063,0.59415 -0.58984,0.71094 -1.88296,0.41786 -4.98523,0.83301 -9.71289,1.29687 -2.81598,0.27625 -8.07363,0.998 -11.68164,1.60352 -7.82086,1.31252 -16.88872,2.53536 -22.39844,3.02148 -2.20002,0.19416 -5.65571,0.49934 -7.67969,0.67774 -5.00787,0.44122 -7.88497,0.74001 -21.36133,2.22461 -11.86306,1.30688 -14.11925,1.4357 -16.08007,0.91601 -2.08392,-0.55219 -10.80429,-0.7077 -15.97461,-0.28515 -4.48687,0.36687 -5.89777,0.33869 -14.10547,-0.26758 -5.016,-0.37051 -13.00777,-0.89383 -17.75977,-1.16406 -11.25936,-0.64063 -18.22368,-1.26529 -26.69726,-2.39454 -8.70906,-1.16058 -9.33007,-1.22449 -15.58399,-1.61132 -4.85363,-0.30021 -7.95553,-0.68417 -8.29883,-1.02735 -0.0827,-0.0827 0.20504,-1.5057 0.63868,-3.16015 1.14277,-4.36018 1.3692,-5.90619 2.25976,-15.46485 1.02091,-10.95782 1.01453,-15.7586 -0.0371,-29.68945 l -0.2207,-2.91406 0.76953,0.22265 c 0.42334,0.12282 3.43346,0.36511 6.68945,0.53711 3.256,0.17204 9.08894,0.59286 12.96094,0.93555 3.872,0.34269 9.94936,0.77912 13.50586,0.9707 3.55654,0.19159 7.22753,0.47005 8.1582,0.61719 3.27168,0.51718 9.08504,0.35522 16.89649,-0.4707 6.61024,-0.69891 9.06941,-0.81598 15.67969,-0.7461 6.96075,0.0736 8.247,0.004 11.47461,-0.61718 5.26382,-1.01398 8.56633,-1.00725 11.5664,0.0234 5.79859,1.99213 12.24853,2.34431 17.91797,0.98047 2.66971,-0.64225 5.35075,-0.70453 12.96094,-0.30664 4.63483,0.24234 5.69532,0.18774 11.19922,-0.56055 3.34401,-0.45465 7.88013,-0.98131 10.08007,-1.17187 2.20003,-0.19056 7.31335,-0.76317 11.36133,-1.27148 4.04799,-0.50836 9.08722,-1.0175 11.19922,-1.13282 2.112,-0.11533 4.83853,-0.40999 6.0586,-0.65429 1.22014,-0.24428 2.26519,-0.39699 2.32226,-0.33985 z m 4.51172,57.95313 c 0.0555,0.0555 -1.9571,1.97411 -4.47461,4.26367 -2.51754,2.28952 -5.29264,4.89664 -6.16602,5.79492 -0.87335,0.89828 -1.68764,1.63281 -1.80859,1.63281 -0.12091,0 -0.89223,-1.82688 -1.71484,-4.06054 -0.82262,-2.23367 -1.69448,-4.44622 -1.9375,-4.91602 l -0.44141,-0.85351 2.14453,-0.19922 c 1.17986,-0.10908 3.93992,-0.35324 6.13281,-0.54297 2.19289,-0.18985 4.92705,-0.54245 6.07618,-0.78321 1.14912,-0.24113 2.13389,-0.39149 2.18945,-0.33593 z m -188,3.18164 c 0.0365,-0.031 1.21895,0.12542 2.62695,0.34765 1.40801,0.22224 4.57702,0.49958 7.04102,0.61524 2.464,0.11569 5.07313,0.2904 5.79883,0.38867 l 1.32031,0.17969 -0.74414,1.96875 c -0.40906,1.08336 -1.22575,3.37338 -1.81445,5.08789 l -1.07032,3.11719 -1.58593,-1.61719 c -0.87194,-0.89008 -3.84677,-3.511 -6.61133,-5.82422 -2.76455,-2.31322 -4.9976,-4.23344 -4.96094,-4.26367 z"
         style="fill:#0290d1;fill-opacity:1;stroke-width:0.31999999"
         inkscape:connector-curvature="0" />
      <path
         id="path3307"
         d="m 95.43726,77.786085 c -0.1248,-0.06984 -0.14599,-0.22087 -0.14599,-1.040782 0,-1.042543 0.0784,-1.249113 0.40721,-1.073125 0.12393,0.06632 0.17382,0.205791 0.20406,0.570434 0.0338,0.407069 0.0812,0.519472 0.3033,0.71788 0.33926,0.303132 0.79557,0.390406 1.23276,0.235788 0.46275,-0.163652 0.68492,-0.480754 0.61139,-0.872651 -0.069,-0.367673 -0.29505,-0.503555 -1.06898,-0.642476 -1.00756,-0.180856 -1.4233,-0.456387 -1.56632,-1.038072 -0.13387,-0.544475 0.19386,-1.185799 0.7545,-1.476443 0.35593,-0.184523 1.12094,-0.185818 1.48373,-0.0025 0.27207,0.137465 0.29314,0.137329 0.39721,-0.0025 0.0868,-0.116637 0.14212,-0.128025 0.26301,-0.05409 0.22368,0.136796 0.27432,1.713628 0.0601,1.870286 -0.26445,0.193379 -0.45727,-0.0092 -0.45727,-0.480525 0,-0.317305 -0.0483,-0.471839 -0.20434,-0.653187 -0.18153,-0.211048 -0.26085,-0.237557 -0.71077,-0.237557 -0.65452,0 -0.86289,0.16626 -0.86289,0.688501 0,0.466699 0.1577,0.576952 1.09391,0.764726 0.81711,0.163889 1.17422,0.373532 1.39157,0.816931 0.5172,1.0551 -0.6595,2.205796 -1.95917,1.915872 -0.21962,-0.049 -0.48504,-0.145001 -0.58981,-0.213343 -0.16788,-0.1095 -0.1905,-0.109297 -0.1905,0.0017 0,0.181364 -0.26871,0.304808 -0.44669,0.205206 z"
         style="fill:#0290d1;fill-opacity:1;stroke-width:0.08466666"
         inkscape:connector-curvature="0" />
      <path
         id="path3305"
         d="m 101.05879,77.783185 c -0.43982,-0.07746 -0.71519,-0.243518 -0.91917,-0.55427 -0.12501,-0.190458 -0.15625,-0.48978 -0.19168,-1.837292 l -0.0423,-1.609776 -0.31109,-0.07342 c -0.1711,-0.04038 -0.33368,-0.132291 -0.36129,-0.204258 -0.10579,-0.275675 0.0953,-0.335365 1.13978,-0.338303 0.89738,-0.0025 1.03001,0.01548 1.10173,0.149488 0.12055,0.225264 -0.11186,0.425932 -0.4216,0.363982 -0.37809,-0.07562 -0.42786,0.119896 -0.42786,1.680726 0,1.566791 0.0387,1.688753 0.58756,1.85321 0.36132,0.108254 0.80805,0.05137 1.0529,-0.134079 0.22162,-0.16786 0.30027,-0.676537 0.29475,-1.906396 -0.006,-1.358799 -0.0398,-1.481667 -0.40629,-1.481667 -0.30151,0 -0.48931,-0.184446 -0.40678,-0.399517 0.0396,-0.103073 0.23982,-0.124578 1.09297,-0.117339 l 1.04455,0.0089 v 0.204114 c 0,0.157861 -0.0671,0.22667 -0.29633,0.303674 l -0.29633,0.09956 -0.0423,1.516659 c -0.0371,1.329758 -0.0637,1.553176 -0.21599,1.812993 -0.32062,0.547099 -1.11653,0.814281 -1.97516,0.663058 z"
         style="fill:#0290d1;fill-opacity:1;stroke-width:0.08466666"
         inkscape:connector-curvature="0" />
      <path
         id="path3303"
         d="m 111.80128,77.789085 c -0.58299,-0.113902 -1.01853,-0.462382 -1.31234,-1.050002 -0.22578,-0.451553 -0.254,-0.592667 -0.254,-1.27 0,-0.973404 0.16426,-1.419623 0.71077,-1.930815 0.63539,-0.594334 1.5606,-0.709591 2.18315,-0.271958 0.16972,0.119304 0.18874,0.116696 0.23606,-0.03241 0.0686,-0.216052 0.26656,-0.282854 0.41081,-0.138599 0.16475,0.164752 0.13316,1.892926 -0.0366,2.00041 -0.16375,0.103692 -0.21342,0.09608 -0.36552,-0.05601 -0.0807,-0.08075 -0.13304,-0.279908 -0.13304,-0.50667 0,-0.546659 -0.32859,-0.893141 -0.89403,-0.942704 -0.56589,-0.04961 -0.94658,0.165015 -1.21401,0.684394 -0.25981,0.504554 -0.28714,1.584571 -0.0543,2.147172 0.28628,0.691845 0.93969,1.007991 1.60038,0.774328 0.40494,-0.143206 0.63396,-0.431301 0.7015,-0.882456 0.0606,-0.404706 0.23772,-0.578993 0.46487,-0.457428 0.39153,0.209541 0.0694,1.266088 -0.5002,1.640493 -0.2599,0.170831 -0.95333,0.402302 -1.12016,0.373904 -0.0233,-0.004 -0.21378,-0.04071 -0.42333,-0.08165 z"
         style="fill:#0290d1;fill-opacity:1;stroke-width:0.08466666"
         inkscape:connector-curvature="0" />
      <path
         id="path3301"
         d="m 119.04028,77.824405 c -0.76677,-0.172195 -1.13119,-0.440284 -1.46155,-1.075191 -0.19703,-0.378688 -0.22594,-0.53511 -0.22866,-1.237801 -0.004,-0.986739 0.11306,-1.344506 0.61441,-1.880497 0.61839,-0.661111 1.4801,-0.820022 2.19359,-0.404537 0.26323,0.153289 0.27257,0.153339 0.32072,0.0016 0.0669,-0.210786 0.26618,-0.275454 0.40894,-0.132698 0.16475,0.164753 0.13316,1.892927 -0.0366,2.000411 -0.16375,0.103691 -0.21342,0.09608 -0.36552,-0.05601 -0.0807,-0.08075 -0.13304,-0.279908 -0.13304,-0.506671 0,-0.546659 -0.32859,-0.89314 -0.89403,-0.942704 -0.56589,-0.04961 -0.94658,0.165015 -1.21401,0.684395 -0.25981,0.504554 -0.28714,1.58457 -0.0543,2.147172 0.28628,0.691845 0.93969,1.00799 1.60038,0.774327 0.40494,-0.143205 0.63396,-0.4313 0.7015,-0.882455 0.0606,-0.404707 0.23772,-0.578993 0.46487,-0.457429 0.11345,0.06072 0.15764,0.179409 0.15764,0.423427 0,0.717423 -0.54677,1.327463 -1.35467,1.511418 -0.40214,0.09158 -0.45002,0.09378 -0.71966,0.03322 z"
         style="fill:#0290d1;fill-opacity:1;stroke-width:0.08466666"
         inkscape:connector-curvature="0" />
      <path
         id="path3299"
         d="m 85.3515,77.687194 c -0.106383,-0.07779 -0.2863,-0.66901 -0.610768,-2.007023 -0.252984,-1.04322 -0.50673,-1.92742 -0.56388,-1.96491 -0.05715,-0.03748 -0.185276,-0.04909 -0.284726,-0.02579 -0.211565,0.04956 -0.396341,-0.13517 -0.354194,-0.354109 0.02633,-0.136822 0.143078,-0.153213 1.153168,-0.1619 1.000235,-0.0086 1.132806,0.007 1.205179,0.142291 0.127737,0.238675 -0.129802,0.444534 -0.475098,0.379755 -0.164025,-0.03077 -0.299957,-0.01428 -0.333798,0.04048 -0.0314,0.05082 0.06856,0.744805 0.22214,1.542212 l 0.279247,1.449824 0.347853,-1.719496 c 0.266632,-1.318031 0.38503,-1.74669 0.507094,-1.835945 0.211735,-0.154822 0.324528,-0.146906 0.553974,0.0389 0.162009,0.131183 0.240939,0.411015 0.507479,1.799167 0.1736,0.904104 0.33683,1.58667 0.36273,1.51682 0.13412,-0.361637 0.48901,-2.307564 0.46554,-2.552657 -0.0257,-0.268343 -0.0449,-0.283676 -0.35544,-0.283676 -0.34931,0 -0.5422,-0.171179 -0.45346,-0.402429 0.0409,-0.106672 0.23524,-0.128177 1.11826,-0.123757 0.58779,0.003 1.08854,0.03744 1.11278,0.07665 0.0242,0.03922 0.0891,0.04215 0.14404,0.0065 0.055,-0.03563 0.58719,-0.06917 1.18266,-0.07454 0.9607,-0.0087 1.09185,0.0074 1.164,0.142189 0.11562,0.216036 -0.11358,0.417712 -0.47472,0.417712 -0.15965,0 -0.29029,0.0294 -0.29029,0.06534 0,0.03593 0.22413,0.731258 0.49806,1.545167 0.57336,1.70351 0.4559,1.726624 1.07176,-0.210939 0.21621,-0.680246 0.37105,-1.294299 0.34408,-1.364564 -0.0363,-0.09452 -0.1223,-0.114012 -0.33072,-0.07491 -0.34231,0.06421 -0.57324,-0.135983 -0.42605,-0.369358 0.0743,-0.117814 0.25173,-0.142172 1.07624,-0.14776 0.75354,-0.0051 1.01076,0.02162 1.08654,0.112928 0.14751,0.177741 -0.0328,0.405469 -0.30549,0.38575 -0.28465,-0.02057 -0.30635,0.02493 -1.03216,2.16491 -0.64721,1.908208 -0.77566,2.107624 -1.20307,1.867729 -0.18113,-0.101667 -0.33105,-0.439098 -0.90059,-2.02697 l -0.68329,-1.904992 -0.33848,-0.0453 c -0.18617,-0.02491 -0.38349,-0.07316 -0.43848,-0.107213 -0.055,-0.03405 -0.12529,-0.02096 -0.15622,0.02909 -0.032,0.0518 -0.15874,0.06849 -0.29413,0.03876 -0.13083,-0.02873 -0.25947,-0.01731 -0.28586,0.02538 -0.0264,0.0427 -0.24105,0.911708 -0.47704,1.931129 -0.43297,1.87032 -0.54965,2.149822 -0.89748,2.149822 -0.30527,0 -0.42924,-0.314816 -0.703027,-1.785282 -0.150986,-0.810912 -0.303022,-1.568848 -0.337862,-1.684307 -0.04652,-0.154162 -0.151579,0.239276 -0.395538,1.481167 -0.381575,1.942481 -0.530589,2.222093 -1.000963,1.878152 z"
         style="fill:#0290d1;fill-opacity:1;stroke-width:0.08466666"
         inkscape:connector-curvature="0" />
      <path
         id="path3297"
         d="m 114.51782,77.551169 c -0.11875,-0.231843 -0.008,-0.346372 0.33553,-0.346372 0.23826,0 0.35274,-0.04503 0.41628,-0.16377 0.11687,-0.218372 0.11578,-3.012127 -0.001,-3.230829 -0.0663,-0.123969 -0.16438,-0.161053 -0.38626,-0.14611 -0.33044,0.02226 -0.49025,-0.132063 -0.36981,-0.357107 0.0635,-0.118677 0.23339,-0.138125 1.14904,-0.131555 0.91946,0.0066 1.08779,0.02875 1.16649,0.153543 0.13084,0.207467 -0.0333,0.342739 -0.42891,0.35345 l -0.32198,0.0087 v 1.735667 1.735666 l 0.36445,0.02626 c 0.22786,0.01642 0.3828,0.07408 0.41341,0.153856 0.10103,0.263288 -0.13128,0.327736 -1.20962,0.335585 -0.8875,0.0064 -1.06949,-0.01404 -1.12736,-0.127 z"
         style="fill:#0290d1;fill-opacity:1;stroke-width:0.08466666"
         inkscape:connector-curvature="0" />
      <path
         id="path3295"
         d="m 122.41082,77.574329 c -0.091,-0.237126 0.0471,-0.369528 0.3854,-0.369528 0.22489,0 0.34888,-0.04328 0.38366,-0.133925 0.10163,-0.264838 0.057,-3.213219 -0.0502,-3.320474 -0.13535,-0.135349 -0.7008,-0.129964 -0.8151,0.0078 -0.0499,0.06015 -0.10221,0.370493 -0.1162,0.689661 -0.028,0.638971 -0.18089,0.862634 -0.44168,0.646201 -0.10475,-0.08694 -0.13409,-0.283515 -0.13409,-0.898339 0,-0.432866 0.0231,-0.847301 0.0514,-0.920961 0.0447,-0.116451 0.29194,-0.133926 1.89463,-0.133926 1.37167,0 1.86554,0.02708 1.93041,0.105833 0.049,0.05944 0.0813,0.472923 0.0739,0.943339 -0.0139,0.879035 -0.10331,1.080118 -0.42512,0.956624 -0.1108,-0.04252 -0.1385,-0.177301 -0.1385,-0.673871 0,-0.707966 -0.0714,-0.824492 -0.50377,-0.82263 -0.55321,0.0024 -0.5515,-0.0026 -0.58385,1.733923 -0.0208,1.116177 -8.5e-4,1.60688 0.0699,1.691758 0.0546,0.06577 0.23921,0.131225 0.41028,0.145466 0.26845,0.02234 0.31106,0.05489 0.31106,0.237558 v 0.211667 l -1.12889,0.0097 c -0.88231,0.0075 -1.13858,-0.01555 -1.17323,-0.105833 z"
         style="fill:#0290d1;fill-opacity:1;stroke-width:0.08466666"
         inkscape:connector-curvature="0" />
      <path
         id="path3291"
         d="m 106.15881,75.97606 c -0.1037,-0.270248 0.132,-0.379925 0.81647,-0.379925 0.68447,0 0.92016,0.109677 0.81646,0.379925 -0.0389,0.101286 -0.20964,0.128075 -0.81646,0.128075 -0.60683,0 -0.7776,-0.02679 -0.81647,-0.128075 z"
         style="fill:#0290d1;fill-opacity:1;stroke-width:0.08466666"
         inkscape:connector-curvature="0" />
    </g>
  </g>
</svg>
