<?xml version="1.0" encoding="UTF-8" standalone="no"?>
<!-- Created with Inkscape (http://www.inkscape.org/) -->

<svg
   xmlns:dc="http://purl.org/dc/elements/1.1/"
   xmlns:cc="http://creativecommons.org/ns#"
   xmlns:rdf="http://www.w3.org/1999/02/22-rdf-syntax-ns#"
   xmlns:svg="http://www.w3.org/2000/svg"
   xmlns="http://www.w3.org/2000/svg"
   xmlns:sodipodi="http://sodipodi.sourceforge.net/DTD/sodipodi-0.dtd"
   xmlns:inkscape="http://www.inkscape.org/namespaces/inkscape"
   width="41.483376mm"
   height="9.455761mm"
   viewBox="0 0 41.483376 9.455761"
   version="1.1"
   id="svg862"
   inkscape:version="0.92.3 (2405546, 2018-03-11)"
   sodipodi:docname="divider.svg">
  <defs
     id="defs856" />
  <sodipodi:namedview
     id="base"
     pagecolor="#ffffff"
     bordercolor="#666666"
     borderopacity="1.0"
     inkscape:pageopacity="0.0"
     inkscape:pageshadow="2"
     inkscape:zoom="2.8"
     inkscape:cx="23.851408"
     inkscape:cy="13.210223"
     inkscape:document-units="mm"
     inkscape:current-layer="layer1"
     showgrid="false"
     fit-margin-top="0"
     fit-margin-left="0"
     fit-margin-right="0"
     fit-margin-bottom="0"
     inkscape:window-width="1337"
     inkscape:window-height="742"
     inkscape:window-x="0"
     inkscape:window-y="0"
     inkscape:window-maximized="1" />
  <metadata
     id="metadata859">
    <rdf:RDF>
      <cc:Work
         rdf:about="">
        <dc:format>image/svg+xml</dc:format>
        <dc:type
           rdf:resource="http://purl.org/dc/dcmitype/StillImage" />
        <dc:title></dc:title>
      </cc:Work>
    </rdf:RDF>
  </metadata>
  <g
     inkscape:label="Layer 1"
     inkscape:groupmode="layer"
     id="layer1"
     transform="translate(-59.294769,-87.409027)">
    <path
       style="fill:#0290d1;fill-opacity:1;stroke-width:0.08466666"
       d="m 86.418938,87.414293 c -0.811726,0.0451 -1.707647,0.375203 -2.43241,0.920874 -1.33627,1.00607 -2.015582,2.576743 -1.777153,4.110342 0.20661,1.32901 0.645546,2.207016 1.487765,2.976046 0.552141,0.50418 1.606664,1.058379 2.470134,1.298628 l -5.29e-4,5.29e-4 c 0.797322,0.22183 2.636928,0.181478 3.635439,-0.07958 1.274379,-0.333192 2.707722,-1.182187 4.437973,-2.629297 l 0.62735,-0.52555 0.981335,0.06873 c 1.258501,0.08823 1.924687,0.06084 2.568318,-0.105936 1.026991,-0.266129 1.69533,-0.719331 2.09961,-1.424202 0.45329,-0.7903 0.30896,-1.615387 -0.37052,-2.118217 -0.193956,-0.143521 -0.362895,-0.17725 -0.889347,-0.17725 -0.364451,0 -0.779447,0.05259 -0.945679,0.119888 -0.546709,0.221221 -1.390732,0.874419 -2.165242,1.67535 l -0.768429,0.794269 -1.009756,-0.282155 -1.009759,-0.28267 -0.04651,-0.651121 c -0.03872,-0.542732 -0.0883,-0.711218 -0.299207,-1.011309 -0.649398,-0.92397 -1.711656,-1.060468 -2.273247,-0.292489 -0.372139,0.508931 -0.170175,1.235155 0.380857,1.369425 0.317529,0.07737 0.60188,-0.183803 0.495059,-0.454752 -0.06624,-0.16799 -0.120729,-0.192678 -0.332279,-0.150379 -0.239901,0.04798 -0.252699,0.03616 -0.252699,-0.228925 0,-0.560052 0.639983,-0.857811 1.139984,-0.530202 0.463799,0.303922 0.633908,0.811089 0.498676,1.48725 -0.04513,0.225719 -0.08402,0.263506 -0.232542,0.222208 -0.0982,-0.0273 -0.63596,-0.113819 -1.19476,-0.19172 l -1.015958,-0.141595 -0.0062,-0.570507 c -0.0051,-0.46163 -0.05711,-0.675389 -0.273368,-1.114661 -0.486211,-0.987618 -1.559163,-1.777929 -2.752804,-2.028298 -0.242369,-0.05084 -0.503537,-0.06774 -0.774113,-0.05271 z m 0.338998,0.47439 c 0.748598,0.02286 1.494244,0.305657 2.128035,0.889868 0.623999,0.57518 0.89942,1.353232 0.75396,2.128551 -0.04835,0.257781 -0.09067,0.303858 -0.280088,0.303858 -0.485209,0 -1.211199,0.277588 -1.583881,0.605647 -0.40019,0.352261 -0.694433,0.957004 -0.614434,1.262973 0.04351,0.16637 0.02326,0.175773 -0.260966,0.122473 -0.710869,-0.13336 -1.203328,-0.541623 -1.384927,-1.147733 -0.205592,-0.686232 0.233148,-1.474386 0.790649,-1.420585 0.356759,0.03439 0.428686,0.286689 0.115755,0.405659 -0.43284,0.164571 -0.160785,0.785482 0.344165,0.785482 0.125971,0 0.279781,-0.0694 0.341579,-0.153996 0.179063,-0.24488 0.138587,-0.819364 -0.08061,-1.144632 -0.26734,-0.396711 -0.528,-0.51384 -1.058852,-0.475941 -0.370829,0.02648 -0.498305,0.08168 -0.747757,0.321427 -0.571429,0.54924 -0.734021,1.144595 -0.502812,1.840714 0.265531,0.799452 1.283875,1.45366 2.262394,1.45366 0.37079,0 0.475348,0.04019 0.747758,0.286288 0.499591,0.451358 1.181346,0.680646 2.032436,0.682643 0.63251,0.0016 0.787845,-0.03025 1.283124,-0.263549 0.352671,-0.166118 0.802846,-0.487323 1.203544,-0.858861 0.405461,-0.375952 0.695566,-0.582673 0.791168,-0.563274 0.083,0.01683 0.455012,0.09418 0.826823,0.172082 l 0.675926,0.142111 -0.506429,0.466121 c -0.664749,0.611831 -1.550244,1.235036 -2.281515,1.605587 -0.729361,0.369599 -1.101686,0.502605 -1.862934,0.665075 -2.257621,0.481852 -4.411755,-0.139136 -6.063197,-1.747697 -0.83502,-0.813369 -1.184585,-2.058498 -0.895035,-3.187919 0.517763,-2.019591 2.179203,-3.226327 3.826124,-3.176032 z m 12.443685,2.258258 c 0.148714,-0.0045 0.282016,0.0088 0.392223,0.04186 0.748366,0.224208 0.987966,0.855343 0.506946,1.336352 -0.362319,0.362329 -1.203999,0.779114 -1.85105,0.916223 -0.315249,0.06677 -0.764009,0.115486 -0.996839,0.107487 -0.792419,-0.02582 -1.269836,-0.07794 -1.338935,-0.146246 -0.109381,-0.108029 1.264664,-1.499293 1.761133,-1.783352 0.497933,-0.284867 1.080381,-0.458862 1.526522,-0.472324 z m -10.245887,2.139405 -0.1695,0.19172 c -0.09313,0.1055 -0.35937,0.301254 -0.592212,0.435115 -0.535548,0.307912 -0.6541,0.311256 -0.619598,0.01654 0.03381,-0.288621 0.402434,-0.513279 0.965314,-0.588077 z m 0.741556,0.08785 1.111043,0.143145 c 1.227381,0.158059 1.40715,0.196149 1.40715,0.298688 0,0.195051 -0.816827,0.948497 -1.251085,1.153935 -0.379582,0.17962 -0.633593,0.233783 -1.202513,0.255283 -0.793078,0.02999 -1.054555,-0.01807 -1.583365,-0.289906 -0.374901,-0.192681 -0.533812,-0.353984 -0.349332,-0.353984 0.25666,-1.48e-4 1.181656,-0.520713 1.511536,-0.850593 z"
       id="path3341"
       inkscape:connector-curvature="0" />
    <path
       inkscape:connector-curvature="0"
       id="path1413"
       d="m 73.653977,87.414293 c 0.811726,0.0451 1.707647,0.375203 2.43241,0.920874 1.33627,1.00607 2.015582,2.576743 1.777153,4.110342 -0.20661,1.32901 -0.645546,2.207016 -1.487765,2.976046 -0.552141,0.50418 -1.606664,1.058379 -2.470134,1.298628 l 5.29e-4,5.29e-4 c -0.797322,0.22183 -2.636928,0.181478 -3.635439,-0.07958 -1.274379,-0.333192 -2.707722,-1.182187 -4.437973,-2.629297 l -0.62735,-0.52555 -0.981335,0.06873 c -1.258501,0.08823 -1.924687,0.06084 -2.568318,-0.105936 -1.026991,-0.266129 -1.69533,-0.719331 -2.09961,-1.424202 -0.45329,-0.7903 -0.30896,-1.615387 0.37052,-2.118217 0.193956,-0.143521 0.362895,-0.17725 0.889347,-0.17725 0.364451,0 0.779447,0.05259 0.945679,0.119888 0.546709,0.221221 1.390732,0.874419 2.165242,1.67535 l 0.768429,0.794269 1.009756,-0.282155 1.009759,-0.28267 0.04651,-0.651121 c 0.03872,-0.542732 0.0883,-0.711218 0.299207,-1.011309 0.649398,-0.92397 1.711656,-1.060468 2.273247,-0.292489 0.372139,0.508931 0.170175,1.235155 -0.380857,1.369425 -0.317529,0.07737 -0.60188,-0.183803 -0.495059,-0.454752 0.06624,-0.16799 0.120729,-0.192678 0.332279,-0.150379 0.239901,0.04798 0.252699,0.03616 0.252699,-0.228925 0,-0.560052 -0.639983,-0.857811 -1.139984,-0.530202 -0.463799,0.303922 -0.633908,0.811089 -0.498676,1.48725 0.04513,0.225719 0.08402,0.263506 0.232542,0.222208 0.0982,-0.0273 0.63596,-0.113819 1.19476,-0.19172 l 1.015958,-0.141595 0.0062,-0.570507 c 0.0051,-0.46163 0.05711,-0.675389 0.273368,-1.114661 0.486211,-0.987618 1.559163,-1.777929 2.752804,-2.028298 0.242369,-0.05084 0.503537,-0.06774 0.774113,-0.05271 z m -0.338998,0.47439 c -0.748598,0.02286 -1.494244,0.305657 -2.128035,0.889868 -0.623999,0.57518 -0.89942,1.353232 -0.75396,2.128551 0.04835,0.257781 0.09067,0.303858 0.280088,0.303858 0.485209,0 1.211199,0.277588 1.583881,0.605647 0.40019,0.352261 0.694433,0.957004 0.614434,1.262973 -0.04351,0.16637 -0.02326,0.175773 0.260966,0.122473 0.710869,-0.13336 1.203328,-0.541623 1.384927,-1.147733 0.205592,-0.686232 -0.233148,-1.474386 -0.790649,-1.420585 -0.356759,0.03439 -0.428686,0.286689 -0.115755,0.405659 0.43284,0.164571 0.160785,0.785482 -0.344165,0.785482 -0.125971,0 -0.279781,-0.0694 -0.341579,-0.153996 -0.179063,-0.24488 -0.138587,-0.819364 0.08061,-1.144632 0.26734,-0.396711 0.528,-0.51384 1.058852,-0.475941 0.370829,0.02648 0.498305,0.08168 0.747757,0.321427 0.571429,0.54924 0.734021,1.144595 0.502812,1.840714 -0.265531,0.799452 -1.283875,1.45366 -2.262394,1.45366 -0.37079,0 -0.475348,0.04019 -0.747758,0.286288 -0.499591,0.451358 -1.181346,0.680646 -2.032436,0.682643 -0.63251,0.0016 -0.787845,-0.03025 -1.283124,-0.263549 -0.352671,-0.166118 -0.802846,-0.487323 -1.203544,-0.858861 -0.405461,-0.375952 -0.695566,-0.582673 -0.791168,-0.563274 -0.083,0.01683 -0.455012,0.09418 -0.826823,0.172082 l -0.675926,0.142111 0.506429,0.466121 c 0.664749,0.611831 1.550244,1.235036 2.281515,1.605587 0.729361,0.369599 1.101686,0.502605 1.862934,0.665075 2.257621,0.481852 4.411755,-0.139136 6.063197,-1.747697 0.83502,-0.813369 1.184585,-2.058498 0.895035,-3.187919 -0.517763,-2.019591 -2.179203,-3.226327 -3.826124,-3.176032 z m -12.443685,2.258258 c -0.148714,-0.0045 -0.282016,0.0088 -0.392223,0.04186 -0.748366,0.224208 -0.987966,0.855343 -0.506946,1.336352 0.362319,0.362329 1.203999,0.779114 1.85105,0.916223 0.315249,0.06677 0.764009,0.115486 0.996839,0.107487 0.792419,-0.02582 1.269836,-0.07794 1.338935,-0.146246 0.109381,-0.108029 -1.264664,-1.499293 -1.761133,-1.783352 -0.497933,-0.284867 -1.080381,-0.458862 -1.526522,-0.472324 z m 10.245887,2.139405 0.1695,0.19172 c 0.09313,0.1055 0.35937,0.301254 0.592212,0.435115 0.535548,0.307912 0.6541,0.311256 0.619598,0.01654 -0.03381,-0.288621 -0.402434,-0.513279 -0.965314,-0.588077 z m -0.741556,0.08785 -1.111043,0.143145 c -1.227381,0.158059 -1.40715,0.196149 -1.40715,0.298688 0,0.195051 0.816827,0.948497 1.251085,1.153935 0.379582,0.17962 0.633593,0.233783 1.202513,0.255283 0.793078,0.02999 1.054555,-0.01807 1.583365,-0.289906 0.374901,-0.192681 0.533812,-0.353984 0.349332,-0.353984 -0.25666,-1.48e-4 -1.181656,-0.520713 -1.511536,-0.850593 z"
       style="fill:#0290d1;fill-opacity:1;stroke-width:0.08466666" />
  </g>
</svg>
