<?xml version="1.0" encoding="UTF-8" standalone="no"?>
<!-- Created with Inkscape (http://www.inkscape.org/) -->

<svg
   xmlns:dc="http://purl.org/dc/elements/1.1/"
   xmlns:cc="http://creativecommons.org/ns#"
   xmlns:rdf="http://www.w3.org/1999/02/22-rdf-syntax-ns#"
   xmlns:svg="http://www.w3.org/2000/svg"
   xmlns="http://www.w3.org/2000/svg"
   xmlns:sodipodi="http://sodipodi.sourceforge.net/DTD/sodipodi-0.dtd"
   xmlns:inkscape="http://www.inkscape.org/namespaces/inkscape"
   width="187.8754mm"
   height="34.687332mm"
   viewBox="0 0 187.8754 34.687332"
   version="1.1"
   id="svg8"
   inkscape:version="0.92.3 (2405546, 2018-03-11)"
   sodipodi:docname="title.svg">
  <defs
     id="defs2" />
  <sodipodi:namedview
     id="base"
     pagecolor="#ffffff"
     bordercolor="#666666"
     borderopacity="1.0"
     inkscape:pageopacity="0.0"
     inkscape:pageshadow="2"
     inkscape:zoom="0.7"
     inkscape:cx="309.85943"
     inkscape:cy="-309.27613"
     inkscape:document-units="mm"
     inkscape:current-layer="layer1"
     showgrid="false"
     fit-margin-top="0"
     fit-margin-left="0"
     fit-margin-right="0"
     fit-margin-bottom="0"
     inkscape:window-width="1337"
     inkscape:window-height="742"
     inkscape:window-x="0"
     inkscape:window-y="0"
     inkscape:window-maximized="1" />
  <metadata
     id="metadata5">
    <rdf:RDF>
      <cc:Work
         rdf:about="">
        <dc:format>image/svg+xml</dc:format>
        <dc:type
           rdf:resource="http://purl.org/dc/dcmitype/StillImage" />
        <dc:title></dc:title>
      </cc:Work>
    </rdf:RDF>
  </metadata>
  <g
     inkscape:label="Layer 1"
     inkscape:groupmode="layer"
     id="layer1"
     transform="translate(109.10859,-113.24914)">
    <g
       aria-label="Homecoming Attendees"
       transform="matrix(1.4679776,0,0,1.4679776,494.24523,-469.51151)"
       style="font-style:normal;font-weight:normal;font-size:40px;line-height:1.25;font-family:sans-serif;letter-spacing:0px;word-spacing:0px;fill:#0290d1;fill-opacity:1;stroke:none"
       id="flowRoot815">
      <path
         d="m -403.02773,415.23531 q -0.08,-0.4 -0.08,-1.08 0.04,-0.68 0.24,-1.68 0.2,-1 0.56,-2.36 0.4,-1.4 1.04,-3.24 0.4,-1.16 0.6,-1.56 0.24,-0.44 0.08,-0.36 -0.84,0.2 -1.56,0.4 -0.64,0.2 -1.32,0.4 -0.64,0.16 -1.08,0.28 -0.68,0.24 -0.84,0.24 -0.16,0 -0.24,0.28 0,0 -0.32,0.76 -0.28,0.76 -0.64,1.72 -0.32,0.96 -0.6,1.84 -0.28,0.88 -0.28,1.16 0.04,0.44 -0.44,0.52 -0.48,0.08 -0.72,0 -0.44,-0.16 -0.28,-1 0.2,-0.84 0.52,-1.96 0.24,-0.8 0.44,-1.32 0.24,-0.56 0.52,-1.32 0.04,-0.08 0,-0.12 0,-0.04 -0.24,0.04 -0.2,0.08 -0.72,0.32 -0.52,0.2 -1.48,0.56 -0.2,0.08 -0.4,0.12 -0.16,0 -0.36,0 -0.08,0 -0.32,-0.04 -0.2,-0.08 0.24,-0.28 1.4,-0.68 2.12,-0.96 0.72,-0.28 1.08,-0.44 0.4,-0.2 0.56,-0.44 0.16,-0.28 0.4,-0.92 0.28,-0.68 0.8,-1.88 0.52,-1.24 1.6,-3.36 0.24,-0.44 0.64,-0.4 0.4,0 0.48,0.04 0.16,0.12 0.12,0.32 -0.08,0.44 -0.2,0.68 -0.08,0.24 -0.28,0.72 -0.72,1.68 -1.12,2.64 -0.4,0.92 -0.52,1.36 -0.12,0.4 0.04,0.44 0.16,0.04 0.52,-0.08 1.64,-0.48 2.48,-0.64 0.88,-0.2 1.28,-0.24 0.4,-0.08 0.44,-0.08 0.08,-0.04 0.16,-0.2 0.24,-0.68 0.72,-1.64 0.48,-1 1.04,-2 0.56,-1.04 1.12,-1.92 0.56,-0.92 0.96,-1.44 0.12,-0.12 0.36,-0.12 0.24,-0.04 0.4,0.04 0.16,0.08 0.2,0.28 0.08,0.2 -0.16,0.52 -2.08,3.72 -3.28,6.52 -1.2,2.76 -1.84,4.84 -0.64,2.08 -0.84,3.52 -0.2,1.48 -0.24,2.56 0,0.2 -0.2,0.32 -0.16,0.16 -0.4,0.2 -0.24,0.04 -0.48,-0.12 -0.2,-0.12 -0.28,-0.44 z"
         style="font-style:normal;font-variant:normal;font-weight:normal;font-stretch:normal;font-family:'Harvest Barn DEMO';-inkscape-font-specification:'Harvest Barn DEMO';fill:#0290d1;fill-opacity:1"
         id="path823" />
      <path
         d="m -391.44148,406.59531 q 0.32,-0.04 0.4,0.28 0.12,0.28 -0.28,0.32 -0.68,0.08 -1.2,0.08 -0.48,0 -0.52,0.04 -0.08,0.08 -0.04,0.2 0.08,0.08 0.04,0.16 -0.24,1.12 -0.76,2.08 -0.52,0.92 -1.2,1.64 -0.68,0.68 -1.48,1.04 -0.76,0.36 -1.56,0.28 -0.68,-0.08 -0.92,-0.6 -0.24,-0.56 -0.16,-1.32 0.08,-0.76 0.4,-1.6 0.32,-0.88 0.76,-1.56 0.44,-0.72 0.92,-1.12 0.48,-0.44 0.88,-0.36 0.12,0.04 0.44,0.04 0.36,0 0.56,0.24 0.2,0.24 0.6,0.12 0.44,-0.12 0.76,0.04 0.08,0.04 0.2,0.04 0.12,-0.04 0.24,-0.04 0.16,0 0.4,0.04 0.24,0 0.6,0 0.36,0 0.92,-0.04 z m -6.04,5.56 q 0.36,0 0.92,-0.36 0.56,-0.4 1.08,-1 0.56,-0.64 0.96,-1.48 0.44,-0.88 0.56,-1.88 -0.2,0.08 -0.68,0.16 -0.44,0.04 -0.96,-0.28 -0.2,-0.08 -0.32,0.16 -0.08,0.16 -0.48,0.92 -0.36,0.72 -0.72,1.56 -0.36,0.84 -0.52,1.52 -0.16,0.68 0.16,0.68 z"
         style="font-style:normal;font-variant:normal;font-weight:normal;font-stretch:normal;font-family:'Harvest Barn DEMO';-inkscape-font-specification:'Harvest Barn DEMO';fill:#0290d1;fill-opacity:1"
         id="path825" />
      <path
         d="m -382.38773,405.07531 q 0.2,0.08 0.28,0.44 0.12,0.32 0.12,0.6 0,0 -0.28,0.96 -0.24,0.92 -0.56,2.12 -0.28,1.2 -0.52,2.36 -0.2,1.12 -0.12,1.56 0.08,0.36 -0.2,0.44 -0.24,0.12 -0.6,0 -0.32,-0.12 -0.64,-0.4 -0.28,-0.28 -0.28,-0.72 0,-1.28 0.52,-2.8 0.52,-1.56 1.04,-3.72 -0.24,0.12 -0.68,0.64 -0.4,0.48 -0.88,1.12 -0.44,0.64 -0.92,1.36 -0.44,0.72 -0.76,1.24 -0.32,0.56 -0.44,0.76 -0.08,0.2 -0.36,0.24 -0.08,0 -0.24,0.04 -0.16,0.04 -0.36,0.04 -0.16,-0.04 -0.28,-0.12 -0.12,-0.12 -0.08,-0.44 0,0 0.04,-0.4 0.08,-0.44 0.16,-1 0.08,-0.56 0.16,-1.16 0.08,-0.64 0.12,-1.04 0,-0.16 -0.04,-0.12 -0.04,0.04 -0.12,0.04 -0.88,1.24 -1.4,2.2 -0.48,0.96 -0.8,1.64 -0.28,0.68 -0.48,1.12 -0.16,0.4 -0.4,0.52 -0.24,0.12 -0.44,0 -0.24,-0.12 -0.52,-0.24 -0.32,-0.16 -0.32,-0.72 0,-0.6 0.24,-1.44 0.2,-0.84 0.52,-1.8 0.32,-1 0.64,-1.96 0.16,-0.52 0.6,-0.72 0.44,-0.24 1,0.04 0.24,0.16 0.2,0.52 0,0.36 -0.12,0.76 -0.12,0.4 -0.24,0.8 -0.12,0.36 -0.08,0.52 0.24,-0.24 0.48,-0.64 0.24,-0.44 0.52,-0.8 0.28,-0.4 0.6,-0.68 0.36,-0.28 0.84,-0.24 0.4,0.04 0.52,0.4 0.12,0.32 0.08,0.8 0,0.44 -0.08,0.88 -0.04,0.4 0,0.6 0.16,-0.12 0.64,-0.84 0.48,-0.72 1.08,-1.44 0.64,-0.72 1.36,-1.16 0.76,-0.48 1.48,-0.16 z"
         style="font-style:normal;font-variant:normal;font-weight:normal;font-stretch:normal;font-family:'Harvest Barn DEMO';-inkscape-font-specification:'Harvest Barn DEMO';fill:#0290d1;fill-opacity:1"
         id="path827" />
      <path
         d="m -375.56648,406.79531 q 0.16,0.12 -0.04,0.64 -0.2,0.48 -0.6,1.2 -0.36,0.68 -0.92,1.48 -0.52,0.76 -1.04,1.48 -0.72,0.96 -1.76,1.32 -1,0.36 -1.64,-0.08 -0.68,-0.4 -0.68,-1.68 -0.04,-1.28 1.2,-3.56 0.44,-0.8 1.12,-1.32 0.68,-0.52 1.28,-0.64 0.64,-0.16 1,0.08 0.4,0.24 0.2,0.92 -0.24,0.76 -0.88,1.56 -0.6,0.8 -1.4,1 -0.24,0.04 -0.28,0.28 -0.08,0.24 -0.2,0.72 -0.08,0.44 -0.12,0.88 -0.04,0.44 0,0.76 0.08,0.32 0.32,0.32 1.08,-0.52 2.08,-2.04 1.04,-1.52 1.92,-3.32 0.08,-0.04 0.2,-0.04 0.16,-0.04 0.24,0.04 z m -4.16,1.8 q 0,0.04 0.08,0.04 0.04,0 0.16,-0.12 0.16,-0.12 0.28,-0.32 0.16,-0.24 0.28,-0.56 0.12,-0.32 0.08,-0.68 -0.24,0.36 -0.48,0.76 -0.2,0.4 -0.36,0.84 z"
         style="font-style:normal;font-variant:normal;font-weight:normal;font-stretch:normal;font-family:'Harvest Barn DEMO';-inkscape-font-specification:'Harvest Barn DEMO';fill:#0290d1;fill-opacity:1"
         id="path829" />
      <path
         d="m -371.83523,405.19531 q 0.52,0.2 0.56,0.6 0.04,0.36 -0.2,0.6 -0.24,0.2 -0.4,0.12 -0.16,-0.08 -0.28,-0.24 -0.12,-0.16 -0.28,-0.32 -0.12,-0.2 -0.36,-0.2 -0.6,0 -1.16,0.88 -0.56,0.84 -0.88,1.92 -0.32,1.04 -0.32,2.04 0,1 0.56,1.28 0.36,0.2 1.04,-0.28 0.68,-0.48 1.36,-1.24 0.72,-0.8 1.32,-1.72 0.64,-0.92 0.88,-1.64 0.04,-0.12 0.2,-0.16 0.16,-0.08 0.28,-0.04 0.12,0.04 0.16,0.2 0.08,0.12 -0.04,0.36 -1.4,2.72 -2.68,3.88 -1.28,1.16 -2.32,1.28 -1,0.12 -1.68,-0.48 -0.64,-0.6 -0.8,-1.4 -0.2,-1.04 0.16,-2.24 0.32,-1.2 1.04,-2.12 0.72,-0.92 1.72,-1.28 1.04,-0.4 2.12,0.2 z"
         style="font-style:normal;font-variant:normal;font-weight:normal;font-stretch:normal;font-family:'Harvest Barn DEMO';-inkscape-font-specification:'Harvest Barn DEMO';fill:#0290d1;fill-opacity:1"
         id="path831" />
      <path
         d="m -363.94148,406.59531 q 0.32,-0.04 0.4,0.28 0.12,0.28 -0.28,0.32 -0.68,0.08 -1.2,0.08 -0.48,0 -0.52,0.04 -0.08,0.08 -0.04,0.2 0.08,0.08 0.04,0.16 -0.24,1.12 -0.76,2.08 -0.52,0.92 -1.2,1.64 -0.68,0.68 -1.48,1.04 -0.76,0.36 -1.56,0.28 -0.68,-0.08 -0.92,-0.6 -0.24,-0.56 -0.16,-1.32 0.08,-0.76 0.4,-1.6 0.32,-0.88 0.76,-1.56 0.44,-0.72 0.92,-1.12 0.48,-0.44 0.88,-0.36 0.12,0.04 0.44,0.04 0.36,0 0.56,0.24 0.2,0.24 0.6,0.12 0.44,-0.12 0.76,0.04 0.08,0.04 0.2,0.04 0.12,-0.04 0.24,-0.04 0.16,0 0.4,0.04 0.24,0 0.6,0 0.36,0 0.92,-0.04 z m -6.04,5.56 q 0.36,0 0.92,-0.36 0.56,-0.4 1.08,-1 0.56,-0.64 0.96,-1.48 0.44,-0.88 0.56,-1.88 -0.2,0.08 -0.68,0.16 -0.44,0.04 -0.96,-0.28 -0.2,-0.08 -0.32,0.16 -0.08,0.16 -0.48,0.92 -0.36,0.72 -0.72,1.56 -0.36,0.84 -0.52,1.52 -0.16,0.68 0.16,0.68 z"
         style="font-style:normal;font-variant:normal;font-weight:normal;font-stretch:normal;font-family:'Harvest Barn DEMO';-inkscape-font-specification:'Harvest Barn DEMO';fill:#0290d1;fill-opacity:1"
         id="path833" />
      <path
         d="m -354.88773,405.07531 q 0.2,0.08 0.28,0.44 0.12,0.32 0.12,0.6 0,0 -0.28,0.96 -0.24,0.92 -0.56,2.12 -0.28,1.2 -0.52,2.36 -0.2,1.12 -0.12,1.56 0.08,0.36 -0.2,0.44 -0.24,0.12 -0.6,0 -0.32,-0.12 -0.64,-0.4 -0.28,-0.28 -0.28,-0.72 0,-1.28 0.52,-2.8 0.52,-1.56 1.04,-3.72 -0.24,0.12 -0.68,0.64 -0.4,0.48 -0.88,1.12 -0.44,0.64 -0.92,1.36 -0.44,0.72 -0.76,1.24 -0.32,0.56 -0.44,0.76 -0.08,0.2 -0.36,0.24 -0.08,0 -0.24,0.04 -0.16,0.04 -0.36,0.04 -0.16,-0.04 -0.28,-0.12 -0.12,-0.12 -0.08,-0.44 0,0 0.04,-0.4 0.08,-0.44 0.16,-1 0.08,-0.56 0.16,-1.16 0.08,-0.64 0.12,-1.04 0,-0.16 -0.04,-0.12 -0.04,0.04 -0.12,0.04 -0.88,1.24 -1.4,2.2 -0.48,0.96 -0.8,1.64 -0.28,0.68 -0.48,1.12 -0.16,0.4 -0.4,0.52 -0.24,0.12 -0.44,0 -0.24,-0.12 -0.52,-0.24 -0.32,-0.16 -0.32,-0.72 0,-0.6 0.24,-1.44 0.2,-0.84 0.52,-1.8 0.32,-1 0.64,-1.96 0.16,-0.52 0.6,-0.72 0.44,-0.24 1,0.04 0.24,0.16 0.2,0.52 0,0.36 -0.12,0.76 -0.12,0.4 -0.24,0.8 -0.12,0.36 -0.08,0.52 0.24,-0.24 0.48,-0.64 0.24,-0.44 0.52,-0.8 0.28,-0.4 0.6,-0.68 0.36,-0.28 0.84,-0.24 0.4,0.04 0.52,0.4 0.12,0.32 0.08,0.8 0,0.44 -0.08,0.88 -0.04,0.4 0,0.6 0.16,-0.12 0.64,-0.84 0.48,-0.72 1.08,-1.44 0.64,-0.72 1.36,-1.16 0.76,-0.48 1.48,-0.16 z"
         style="font-style:normal;font-variant:normal;font-weight:normal;font-stretch:normal;font-family:'Harvest Barn DEMO';-inkscape-font-specification:'Harvest Barn DEMO';fill:#0290d1;fill-opacity:1"
         id="path835" />
      <path
         d="m -350.42648,403.71531 q -0.2,0.24 -0.36,0.48 -0.12,0.24 -0.28,0.48 -0.2,0.24 -0.6,0.24 -0.2,0.04 -0.32,-0.08 -0.12,-0.16 -0.04,-0.28 0.08,-0.24 0.16,-0.48 0.12,-0.24 0.2,-0.44 0.08,-0.16 0.32,-0.16 0.4,-0.04 0.88,0.16 0.04,0.04 0.04,0.08 z m -1.92,2.04 q 0.2,-0.12 0.4,-0.08 0.2,0.04 0.4,0.08 0.52,0.12 0.4,0.68 l -0.36,1.56 q -0.12,0.52 -0.28,1 -0.12,0.48 -0.24,1 -0.12,0.48 -0.2,0.72 -0.04,0.2 -0.12,0.4 -0.04,0.16 -0.08,0.4 -0.04,0.2 -0.16,0.68 -0.12,0.44 -0.52,0.48 -0.2,0 -0.44,0 -0.24,0 -0.44,-0.08 -0.28,-0.12 -0.32,-0.24 -0.04,-0.08 -0.08,-0.4 0,-0.36 0.08,-0.72 0.04,-0.36 0.12,-0.68 0.08,-0.52 0.16,-0.8 0.04,-0.32 0.12,-0.56 0.04,-0.24 0.12,-0.52 0.08,-0.32 0.2,-0.84 0.12,-0.44 0.28,-0.8 0.16,-0.4 0.32,-0.84 0.08,-0.32 0.64,-0.44 z"
         style="font-style:normal;font-variant:normal;font-weight:normal;font-stretch:normal;font-family:'Harvest Barn DEMO';-inkscape-font-specification:'Harvest Barn DEMO';fill:#0290d1;fill-opacity:1"
         id="path837" />
      <path
         d="m -344.11273,404.79531 q 0.56,0.32 0.36,1.24 -0.16,0.88 -0.56,2 -0.4,1.12 -0.8,2.28 -0.36,1.16 -0.2,1.96 0.08,0.36 -0.08,0.52 -0.16,0.2 -0.4,0.2 -0.24,0 -0.48,-0.2 -0.24,-0.16 -0.32,-0.52 -0.12,-0.64 0.2,-1.76 0.32,-1.12 0.72,-2.24 0.4,-1.12 0.64,-2 0.28,-0.88 0,-1.04 -0.24,0.12 -0.72,0.56 -0.48,0.4 -1.04,1.04 -0.52,0.6 -1.04,1.4 -0.48,0.8 -0.76,1.64 -0.2,0.48 -0.32,0.96 -0.08,0.48 -0.24,0.84 -0.16,0.32 -0.44,0.44 -0.28,0.12 -0.8,-0.2 -0.32,-0.2 -0.28,-0.8 0.04,-0.64 0.28,-1.52 0.24,-0.88 0.6,-1.92 0.36,-1.04 0.72,-2.08 0.24,-0.68 0.56,-0.76 0.36,-0.08 1.08,0.08 0.24,0 0.24,0.24 0.04,0.2 -0.04,0.52 -0.04,0.28 -0.16,0.64 -0.12,0.32 -0.2,0.6 0.36,-0.48 0.76,-0.92 0.44,-0.48 0.88,-0.8 0.44,-0.36 0.92,-0.48 0.48,-0.12 0.92,0.08 z"
         style="font-style:normal;font-variant:normal;font-weight:normal;font-stretch:normal;font-family:'Harvest Barn DEMO';-inkscape-font-specification:'Harvest Barn DEMO';fill:#0290d1;fill-opacity:1"
         id="path839" />
      <path
         d="m -335.96336,406.95531 q 0.2,-0.32 0.36,-0.16 0.2,0.16 0.12,0.36 -0.76,1.4 -1.52,2.52 -0.76,1.12 -1.4,2 -0.64,0.88 -1.12,1.52 -0.48,0.68 -0.64,1.2 -0.28,0.72 -0.44,1.12 -0.12,0.44 -0.44,1.12 -0.8,1.88 -1.64,2.76 -0.88,0.92 -1.52,1.12 -0.68,0.24 -0.96,-0.12 -0.28,-0.32 0.08,-1 0.16,-0.28 0.28,-0.52 0.12,-0.24 0.32,-0.56 0.2,-0.28 0.48,-0.68 0.28,-0.4 0.72,-1 0.48,-0.6 0.68,-0.84 0.2,-0.24 0.32,-0.48 0.12,-0.2 0.24,-0.64 0.12,-0.4 0.4,-1.4 0.28,-1.04 0.44,-1.6 0.2,-0.56 0.28,-0.84 0.08,-0.28 0.08,-0.32 0.04,-0.08 0,-0.16 -0.84,1.12 -1.44,1.6 -0.56,0.44 -0.88,0.44 -0.8,0.04 -1,-0.6 -0.24,-0.68 0,-1.6 0.24,-0.96 0.84,-1.96 0.56,-1.04 1.32,-1.72 0.76,-0.68 1.6,-0.84 0.88,-0.16 1.68,0.6 0.08,0.08 0.24,0.28 0.16,0.2 0.12,0.4 -0.04,0.52 -0.2,1.24 -0.16,0.68 -0.36,1.44 -0.2,0.72 -0.4,1.4 -0.16,0.68 -0.24,1.16 0.16,-0.16 0.6,-0.76 0.44,-0.6 0.96,-1.4 0.56,-0.8 1.08,-1.64 0.56,-0.84 0.96,-1.44 z m -8.32,12.92 q 0.08,0.04 0.32,-0.32 0.24,-0.36 0.48,-0.84 0.2,-0.48 0.4,-0.92 0.16,-0.44 0.12,-0.56 -0.04,0 -0.12,0.08 -0.08,0.08 -0.32,0.44 -0.28,0.4 -0.52,0.84 -0.24,0.44 -0.36,0.8 -0.16,0.4 0,0.48 z m 1.44,-8.24 q 0.04,0 0.4,-0.48 0.4,-0.48 0.88,-1.2 0.52,-0.76 1.04,-1.64 0.52,-0.92 0.84,-1.8 -0.52,0 -1.2,0.8 -0.68,0.8 -1.24,1.76 -0.52,0.96 -0.76,1.76 -0.28,0.8 0.04,0.8 z"
         style="font-style:normal;font-variant:normal;font-weight:normal;font-stretch:normal;font-family:'Harvest Barn DEMO';-inkscape-font-specification:'Harvest Barn DEMO';fill:#0290d1;fill-opacity:1"
         id="path841" />
      <path
         d="m -330.43336,411.71531 q 0.12,0.04 0.28,-0.04 0.36,-0.12 0.92,-0.72 0.56,-0.64 1.08,-1.32 0.56,-0.68 0.92,-1.24 0.4,-0.56 0.36,-0.56 l -0.04,-0.04 h -0.04 q -0.28,0.04 -0.68,0.04 -0.36,-0.04 -0.6,-0.16 -0.12,-0.04 -0.04,-0.16 0.08,-0.16 0.2,-0.16 0.28,-0.04 0.44,-0.04 0.16,0 0.28,0.04 0.12,0 0.28,0 0.2,0 0.52,0 0.16,0 0.68,-0.76 0.56,-0.8 1.28,-1.92 0.76,-1.16 1.56,-2.48 0.84,-1.36 1.56,-2.48 0.76,-1.16 1.32,-1.92 0.56,-0.8 0.76,-0.8 0.64,-0.04 0.72,0.12 0.12,0.12 -0.24,0.92 -0.32,0.76 -1.08,2.48 -0.72,1.72 -1.76,4.84 -0.44,1.28 -0.84,2.6 -0.4,1.28 -0.76,2.44 -0.36,1.16 -0.6,2.08 -0.24,0.92 -0.28,1.4 -0.08,0.28 -0.24,0.32 -0.2,0.08 -0.44,0.12 -0.24,0.08 -0.44,0 -0.2,-0.08 -0.28,-0.16 -0.04,-0.08 -0.04,-0.32 -0.04,-0.44 0.16,-1.32 0.24,-0.84 0.52,-1.76 0.28,-0.96 0.52,-1.8 0.28,-0.88 0.4,-1.32 -0.4,0.04 -0.84,0.08 -0.44,0 -0.84,0.04 -0.16,0 -0.64,0.68 -0.48,0.68 -1.16,1.48 -0.68,0.8 -1.48,1.48 -0.76,0.64 -1.52,0.68 -0.28,0 -0.24,-0.2 0.08,-0.24 0.36,-0.16 z m 7.88,-8.4 q -0.96,1.36 -1.56,2.16 -0.56,0.76 -0.88,1.16 -0.36,0.48 -0.48,0.64 0.24,0.08 0.64,-0.04 0.4,-0.12 0.8,-0.12 0.12,0 0.16,-0.08 0.04,-0.08 0.12,-0.32 0.08,-0.28 0.2,-0.72 0.16,-0.44 0.48,-1.16 0.04,-0.12 0.12,-0.36 0.12,-0.28 0.2,-0.52 0.12,-0.24 0.16,-0.44 0.08,-0.2 0.04,-0.2 z"
         style="font-style:normal;font-variant:normal;font-weight:normal;font-stretch:normal;font-family:'Harvest Barn DEMO';-inkscape-font-specification:'Harvest Barn DEMO';fill:#0290d1;fill-opacity:1"
         id="path843" />
      <path
         d="m -316.93773,402.27531 q 1.04,0.04 1.96,0.08 0.92,0.04 1.76,0.12 0.32,0.04 0.24,0.28 -0.04,0.24 -0.32,0.24 -0.2,-0.08 -1.32,-0.08 -1.12,-0.04 -2.52,-0.04 -0.84,2.16 -1.52,4.24 -0.68,2.04 -1.16,3.64 -0.48,1.6 -0.72,2.56 -0.24,1 -0.24,1 -0.08,0.28 -0.2,0.4 -0.16,0.16 -0.56,0.28 -0.28,0.08 -0.36,0.08 -0.08,0.04 -0.28,-0.04 -0.16,-0.04 -0.08,-0.64 0.04,-0.56 0.28,-1.52 0.24,-0.96 0.6,-2.16 0.36,-1.24 0.8,-2.56 0.44,-1.36 0.92,-2.72 0.52,-1.36 1.04,-2.56 -0.76,0 -1.32,0.04 -0.52,0.04 -0.68,0.08 -0.12,0.04 -0.32,-0.04 -0.2,-0.08 -0.28,-0.2 -0.12,-0.16 -0.04,-0.28 0.04,-0.12 0.48,-0.12 0.56,0 1.08,-0.04 0.56,-0.04 1.36,-0.04 0.68,-1.64 1.32,-2.64 0.68,-1.04 1.12,-1.08 0.24,0 0.36,0 0.12,0 0.08,0.16 0,0.12 -0.16,0.52 -0.16,0.36 -0.48,1.08 -0.2,0.48 -0.44,1 -0.2,0.48 -0.4,0.96 z"
         style="font-style:normal;font-variant:normal;font-weight:normal;font-stretch:normal;font-family:'Harvest Barn DEMO';-inkscape-font-specification:'Harvest Barn DEMO';fill:#0290d1;fill-opacity:1"
         id="path845" />
      <path
         d="m -313.42211,402.27531 q 1.04,0.04 1.96,0.08 0.92,0.04 1.76,0.12 0.32,0.04 0.24,0.28 -0.04,0.24 -0.32,0.24 -0.2,-0.08 -1.32,-0.08 -1.12,-0.04 -2.52,-0.04 -0.84,2.16 -1.52,4.24 -0.68,2.04 -1.16,3.64 -0.48,1.6 -0.72,2.56 -0.24,1 -0.24,1 -0.08,0.28 -0.2,0.4 -0.16,0.16 -0.56,0.28 -0.28,0.08 -0.36,0.08 -0.08,0.04 -0.28,-0.04 -0.16,-0.04 -0.08,-0.64 0.04,-0.56 0.28,-1.52 0.24,-0.96 0.6,-2.16 0.36,-1.24 0.8,-2.56 0.44,-1.36 0.92,-2.72 0.52,-1.36 1.04,-2.56 -0.76,0 -1.32,0.04 -0.52,0.04 -0.68,0.08 -0.12,0.04 -0.32,-0.04 -0.2,-0.08 -0.28,-0.2 -0.12,-0.16 -0.04,-0.28 0.04,-0.12 0.48,-0.12 0.56,0 1.08,-0.04 0.56,-0.04 1.36,-0.04 0.68,-1.64 1.32,-2.64 0.68,-1.04 1.12,-1.08 0.24,0 0.36,0 0.12,0 0.08,0.16 0,0.12 -0.16,0.52 -0.16,0.36 -0.48,1.08 -0.2,0.48 -0.44,1 -0.2,0.48 -0.4,0.96 z"
         style="font-style:normal;font-variant:normal;font-weight:normal;font-stretch:normal;font-family:'Harvest Barn DEMO';-inkscape-font-specification:'Harvest Barn DEMO';fill:#0290d1;fill-opacity:1"
         id="path847" />
      <path
         d="m -308.06648,406.79531 q 0.16,0.12 -0.04,0.64 -0.2,0.48 -0.6,1.2 -0.36,0.68 -0.92,1.48 -0.52,0.76 -1.04,1.48 -0.72,0.96 -1.76,1.32 -1,0.36 -1.64,-0.08 -0.68,-0.4 -0.68,-1.68 -0.04,-1.28 1.2,-3.56 0.44,-0.8 1.12,-1.32 0.68,-0.52 1.28,-0.64 0.64,-0.16 1,0.08 0.4,0.24 0.2,0.92 -0.24,0.76 -0.88,1.56 -0.6,0.8 -1.4,1 -0.24,0.04 -0.28,0.28 -0.08,0.24 -0.2,0.72 -0.08,0.44 -0.12,0.88 -0.04,0.44 0,0.76 0.08,0.32 0.32,0.32 1.08,-0.52 2.08,-2.04 1.04,-1.52 1.92,-3.32 0.08,-0.04 0.2,-0.04 0.16,-0.04 0.24,0.04 z m -4.16,1.8 q 0,0.04 0.08,0.04 0.04,0 0.16,-0.12 0.16,-0.12 0.28,-0.32 0.16,-0.24 0.28,-0.56 0.12,-0.32 0.08,-0.68 -0.24,0.36 -0.48,0.76 -0.2,0.4 -0.36,0.84 z"
         style="font-style:normal;font-variant:normal;font-weight:normal;font-stretch:normal;font-family:'Harvest Barn DEMO';-inkscape-font-specification:'Harvest Barn DEMO';fill:#0290d1;fill-opacity:1"
         id="path849" />
      <path
         d="m -303.17523,404.79531 q 0.56,0.32 0.36,1.24 -0.16,0.88 -0.56,2 -0.4,1.12 -0.8,2.28 -0.36,1.16 -0.2,1.96 0.08,0.36 -0.08,0.52 -0.16,0.2 -0.4,0.2 -0.24,0 -0.48,-0.2 -0.24,-0.16 -0.32,-0.52 -0.12,-0.64 0.2,-1.76 0.32,-1.12 0.72,-2.24 0.4,-1.12 0.64,-2 0.28,-0.88 0,-1.04 -0.24,0.12 -0.72,0.56 -0.48,0.4 -1.04,1.04 -0.52,0.6 -1.04,1.4 -0.48,0.8 -0.76,1.64 -0.2,0.48 -0.32,0.96 -0.08,0.48 -0.24,0.84 -0.16,0.32 -0.44,0.44 -0.28,0.12 -0.8,-0.2 -0.32,-0.2 -0.28,-0.8 0.04,-0.64 0.28,-1.52 0.24,-0.88 0.6,-1.92 0.36,-1.04 0.72,-2.08 0.24,-0.68 0.56,-0.76 0.36,-0.08 1.08,0.08 0.24,0 0.24,0.24 0.04,0.2 -0.04,0.52 -0.04,0.28 -0.16,0.64 -0.12,0.32 -0.2,0.6 0.36,-0.48 0.76,-0.92 0.44,-0.48 0.88,-0.8 0.44,-0.36 0.92,-0.48 0.48,-0.12 0.92,0.08 z"
         style="font-style:normal;font-variant:normal;font-weight:normal;font-stretch:normal;font-family:'Harvest Barn DEMO';-inkscape-font-specification:'Harvest Barn DEMO';fill:#0290d1;fill-opacity:1"
         id="path851" />
      <path
         d="m -296.54586,399.91531 q 0.12,-0.28 0.4,-0.32 0.28,-0.04 0.52,0.12 0.28,0.16 0.44,0.48 0.2,0.28 0.08,0.6 -0.2,0.64 -0.32,1 -0.12,0.32 -0.24,0.6 -0.08,0.28 -0.2,0.6 -0.12,0.32 -0.32,0.96 -0.2,0.64 -0.52,1.72 -0.32,1.08 -0.84,2.84 -0.08,0.36 -0.28,1.04 -0.2,0.64 -0.44,1.4 -0.2,0.72 -0.4,1.44 -0.2,0.72 -0.24,1.12 0,0.08 -0.04,0.12 0,0.04 0,0.12 -0.04,0.32 -0.4,0.4 -0.6,0.16 -0.84,-0.16 -0.2,-0.32 -0.2,-0.84 0,-0.52 0.16,-1.16 0.16,-0.68 0.32,-1.28 0.16,-0.6 0.28,-1 0.12,-0.4 0.04,-0.4 -0.12,0 -0.32,0.48 -0.2,0.48 -0.52,1.04 -0.32,0.52 -0.8,0.92 -0.44,0.4 -1.04,0.2 -0.48,-0.12 -0.64,-0.68 -0.16,-0.6 -0.04,-1.32 0.12,-0.72 0.44,-1.48 0.32,-0.8 0.84,-1.36 0.52,-0.6 1.2,-0.84 0.68,-0.24 1.44,0.12 0.2,0.08 0.4,-0.4 0.24,-0.52 0.52,-1.44 0.28,-0.92 0.64,-2.12 0.4,-1.2 0.92,-2.52 z m -4.72,10.96 q 0.04,-0.08 0.28,-0.56 0.28,-0.48 0.56,-1.04 0.32,-0.56 0.56,-1.04 0.28,-0.52 0.28,-0.64 -0.48,0.08 -0.88,0.6 -0.4,0.48 -0.64,1.08 -0.24,0.6 -0.32,1.12 -0.08,0.48 0.04,0.52 0.08,0 0.12,-0.04 z"
         style="font-style:normal;font-variant:normal;font-weight:normal;font-stretch:normal;font-family:'Harvest Barn DEMO';-inkscape-font-specification:'Harvest Barn DEMO';fill:#0290d1;fill-opacity:1"
         id="path853" />
      <path
         d="m -290.80086,406.79531 q 0.16,0.12 -0.04,0.64 -0.2,0.48 -0.6,1.2 -0.36,0.68 -0.92,1.48 -0.52,0.76 -1.04,1.48 -0.72,0.96 -1.76,1.32 -1,0.36 -1.64,-0.08 -0.68,-0.4 -0.68,-1.68 -0.04,-1.28 1.2,-3.56 0.44,-0.8 1.12,-1.32 0.68,-0.52 1.28,-0.64 0.64,-0.16 1,0.08 0.4,0.24 0.2,0.92 -0.24,0.76 -0.88,1.56 -0.6,0.8 -1.4,1 -0.24,0.04 -0.28,0.28 -0.08,0.24 -0.2,0.72 -0.08,0.44 -0.12,0.88 -0.04,0.44 0,0.76 0.08,0.32 0.32,0.32 1.08,-0.52 2.08,-2.04 1.04,-1.52 1.92,-3.32 0.08,-0.04 0.2,-0.04 0.16,-0.04 0.24,0.04 z m -4.16,1.8 q 0,0.04 0.08,0.04 0.04,0 0.16,-0.12 0.16,-0.12 0.28,-0.32 0.16,-0.24 0.28,-0.56 0.12,-0.32 0.08,-0.68 -0.24,0.36 -0.48,0.76 -0.2,0.4 -0.36,0.84 z"
         style="font-style:normal;font-variant:normal;font-weight:normal;font-stretch:normal;font-family:'Harvest Barn DEMO';-inkscape-font-specification:'Harvest Barn DEMO';fill:#0290d1;fill-opacity:1"
         id="path855" />
      <path
         d="m -286.26961,406.79531 q 0.16,0.12 -0.04,0.64 -0.2,0.48 -0.6,1.2 -0.36,0.68 -0.92,1.48 -0.52,0.76 -1.04,1.48 -0.72,0.96 -1.76,1.32 -1,0.36 -1.64,-0.08 -0.68,-0.4 -0.68,-1.68 -0.04,-1.28 1.2,-3.56 0.44,-0.8 1.12,-1.32 0.68,-0.52 1.28,-0.64 0.64,-0.16 1,0.08 0.4,0.24 0.2,0.92 -0.24,0.76 -0.88,1.56 -0.6,0.8 -1.4,1 -0.24,0.04 -0.28,0.28 -0.08,0.24 -0.2,0.72 -0.08,0.44 -0.12,0.88 -0.04,0.44 0,0.76 0.08,0.32 0.32,0.32 1.08,-0.52 2.08,-2.04 1.04,-1.52 1.92,-3.32 0.08,-0.04 0.2,-0.04 0.16,-0.04 0.24,0.04 z m -4.16,1.8 q 0,0.04 0.08,0.04 0.04,0 0.16,-0.12 0.16,-0.12 0.28,-0.32 0.16,-0.24 0.28,-0.56 0.12,-0.32 0.08,-0.68 -0.24,0.36 -0.48,0.76 -0.2,0.4 -0.36,0.84 z"
         style="font-style:normal;font-variant:normal;font-weight:normal;font-stretch:normal;font-family:'Harvest Barn DEMO';-inkscape-font-specification:'Harvest Barn DEMO';fill:#0290d1;fill-opacity:1"
         id="path857" />
      <path
         d="m -286.57836,406.35531 q 0.4,-0.6 1.12,-0.8 0.72,-0.24 1.32,-0.08 0.64,0.12 0.96,0.6 0.32,0.48 -0.04,1.24 -0.12,0.24 -0.28,0.36 -0.12,0.12 -0.28,0.16 -0.16,0 -0.32,-0.2 -0.04,-0.04 0.04,-0.24 0.16,-0.24 0.16,-0.6 0,-0.4 -0.12,-0.64 -0.12,-0.28 -0.36,-0.32 -0.24,-0.04 -0.6,0.4 -0.2,0.24 -0.4,0.64 -0.16,0.4 -0.08,0.72 0.12,0.84 0.48,1.88 0.36,1 0.48,2 0.16,0.96 -0.12,1.8 -0.24,0.84 -1.36,1.28 -0.92,0.4 -1.4,0.32 -0.48,-0.04 -0.6,-0.32 -0.16,-0.28 0,-0.76 0.12,-0.44 0.44,-0.92 0.28,-0.44 0.64,-0.8 0.36,-0.4 0.72,-0.52 0.24,-0.48 0.08,-1.12 -0.16,-0.64 -0.4,-1.32 -0.24,-0.72 -0.36,-1.4 -0.12,-0.72 0.28,-1.36 z m -0.4,7.72 q 0.16,-0.08 0.28,-0.32 0.16,-0.2 0.28,-0.48 0.12,-0.28 0.2,-0.56 0.08,-0.28 0.04,-0.44 -0.4,0.2 -0.68,0.56 -0.28,0.36 -0.4,0.68 -0.12,0.32 -0.04,0.52 0.04,0.2 0.32,0.04 z"
         style="font-style:normal;font-variant:normal;font-weight:normal;font-stretch:normal;font-family:'Harvest Barn DEMO';-inkscape-font-specification:'Harvest Barn DEMO';fill:#0290d1;fill-opacity:1"
         id="path859" />
    </g>
  </g>
</svg>
