<?xml version="1.0" encoding="UTF-8" standalone="no"?>
<svg
   xmlns:dc="http://purl.org/dc/elements/1.1/"
   xmlns:cc="http://creativecommons.org/ns#"
   xmlns:rdf="http://www.w3.org/1999/02/22-rdf-syntax-ns#"
   xmlns:svg="http://www.w3.org/2000/svg"
   xmlns="http://www.w3.org/2000/svg"
   xmlns:sodipodi="http://sodipodi.sourceforge.net/DTD/sodipodi-0.dtd"
   xmlns:inkscape="http://www.inkscape.org/namespaces/inkscape"
   width="668.03101"
   height="137.89728"
   viewBox="0 0 668.03101 137.89728"
   version="1.1"
   id="svg22"
   sodipodi:docname="home-greeting.svg"
   style="fill:none"
   inkscape:version="0.92.4 (5da689c313, 2019-01-14)">
  <metadata
     id="metadata28">
    <rdf:RDF>
      <cc:Work
         rdf:about="">
        <dc:format>image/svg+xml</dc:format>
        <dc:type
           rdf:resource="http://purl.org/dc/dcmitype/StillImage" />
        <dc:title></dc:title>
      </cc:Work>
    </rdf:RDF>
  </metadata>
  <defs
     id="defs26" />
  <sodipodi:namedview
     pagecolor="#ffffff"
     bordercolor="#666666"
     borderopacity="1"
     objecttolerance="10"
     gridtolerance="10"
     guidetolerance="10"
     inkscape:pageopacity="0"
     inkscape:pageshadow="2"
     inkscape:window-width="1920"
     inkscape:window-height="1016"
     id="namedview24"
     showgrid="false"
     fit-margin-top="0"
     fit-margin-left="0"
     fit-margin-right="0"
     fit-margin-bottom="0"
     inkscape:zoom="1.1648987"
     inkscape:cx="475.21393"
     inkscape:cy="25.710122"
     inkscape:window-x="0"
     inkscape:window-y="27"
     inkscape:window-maximized="1"
     inkscape:current-layer="svg22" />
  <path
     d="M 58.368,43.608 V 111 H 41.952 V 83.256 H 16.416 V 111 H 0 V 43.608 h 16.416 v 26.4 h 25.536 v -26.4 z m 62.347,39.744 c 0,1.536 -0.096,3.136 -0.288,4.8 H 83.2748 c 0.256,3.328 1.312,5.888 3.168,7.68 1.92,1.728 4.256,2.592 7.008,2.592 4.0962,0 6.9442,-1.728 8.5442,-5.184 h 17.472 c -0.896,3.52 -2.528,6.688 -4.896,9.504 -2.304,2.816 -5.216,5.024 -8.736,6.624 -3.52,1.6 -7.456,2.4 -11.8082,2.4 -5.248,0 -9.92,-1.12 -14.016,-3.36 -4.096,-2.24 -7.296,-5.44 -9.6,-9.6 -2.304,-4.16 -3.456,-9.024 -3.456,-14.592 0,-5.568 1.12,-10.432 3.36,-14.592 2.304,-4.16 5.504,-7.36 9.6,-9.6 4.096,-2.24 8.8,-3.36 14.112,-3.36 5.1842,0 9.7922,1.088 13.8242,3.264 4.032,2.176 7.168,5.28 9.408,9.312 2.304,4.032 3.456,8.736 3.456,14.112 z m -16.8,-4.32 c 0,-2.816 -0.96,-5.056 -2.88,-6.72 -1.92,-1.664 -4.32,-2.496 -7.2002,-2.496 -2.752,0 -5.088,0.8 -7.008,2.4 -1.856,1.6 -3.008,3.872 -3.456,6.816 z M 145.791,39.96 V 111 H 129.375 V 39.96 Z m 28.313,0 V 111 H 157.688 V 39.96 Z m 36.28,71.808 c -5.248,0 -9.984,-1.12 -14.208,-3.36 -4.16,-2.24 -7.456,-5.44 -9.888,-9.6 -2.368,-4.16 -3.552,-9.024 -3.552,-14.592 0,-5.504 1.216,-10.336 3.648,-14.496 2.432,-4.224 5.76,-7.456 9.984,-9.696 4.224,-2.24 8.96,-3.36 14.208,-3.36 5.248,0 9.984,1.12 14.208,3.36 4.224,2.24 7.552,5.472 9.984,9.696 2.432,4.16 3.648,8.992 3.648,14.496 0,5.504 -1.248,10.368 -3.744,14.592 -2.432,4.16 -5.792,7.36 -10.08,9.6 -4.224,2.24 -8.96,3.36 -14.208,3.36 z m 0,-14.208 c 3.136,0 5.792,-1.152 7.968,-3.456 2.24,-2.304 3.36,-5.6 3.36,-9.888 0,-4.288 -1.088,-7.584 -3.264,-9.888 -2.112,-2.304 -4.736,-3.456 -7.872,-3.456 -3.2,0 -5.856,1.152 -7.968,3.456 -2.112,2.24 -3.168,5.536 -3.168,9.888 0,4.288 1.024,7.584 3.072,9.888 2.112,2.304 4.736,3.456 7.872,3.456 z M 360.205,43.608 342.637,111 H 322.765 L 312.013,66.648 300.877,111 H 281.005 L 263.917,43.608 h 17.568 l 9.696,49.056 12,-49.056 h 18.048 l 11.52,49.056 9.792,-49.056 z M 527.26,66.36 c 1.92,-2.944 4.32,-5.248 7.2,-6.912 2.88,-1.728 6.08,-2.592 9.6,-2.592 v 17.376 h -4.512 c -4.096,0 -7.168,0.896 -9.216,2.688 -2.048,1.728 -3.072,4.8 -3.072,9.216 V 111 H 510.844 V 57.432 h 16.416 z m 41.062,-26.4 V 111 H 551.906 V 39.96 Z m 8.633,44.16 c 0,-5.504 1.024,-10.336 3.072,-14.496 2.112,-4.16 4.96,-7.36 8.544,-9.6 3.584,-2.24 7.584,-3.36 12,-3.36 3.52,0 6.72,0.736 9.6,2.208 2.944,1.472 5.248,3.456 6.912,5.952 V 39.96 h 16.416 V 111 h -16.416 v -7.68 c -1.536,2.56 -3.744,4.608 -6.624,6.144 -2.816,1.536 -6.112,2.304 -9.888,2.304 -4.416,0 -8.416,-1.12 -12,-3.36 -3.584,-2.304 -6.432,-5.536 -8.544,-9.696 -2.048,-4.224 -3.072,-9.088 -3.072,-14.592 z m 40.128,0.096 c 0,-4.096 -1.152,-7.328 -3.456,-9.696 -2.24,-2.368 -4.992,-3.552 -8.256,-3.552 -3.264,0 -6.048,1.184 -8.352,3.552 -2.24,2.304 -3.36,5.504 -3.36,9.6 0,4.096 1.12,7.36 3.36,9.792 2.304,2.368 5.088,3.552 8.352,3.552 3.264,0 6.016,-1.184 8.256,-3.552 2.304,-2.368 3.456,-5.6 3.456,-9.696 z m 49.892,-43.008 -1.92,45.984 h -13.92 l -1.92,-45.984 z m -8.64,70.56 c -2.88,0 -5.248,-0.832 -7.104,-2.496 -1.792,-1.728 -2.688,-3.84 -2.688,-6.336 0,-2.56 0.896,-4.704 2.688,-6.432 1.856,-1.728 4.224,-2.592 7.104,-2.592 2.816,0 5.12,0.864 6.912,2.592 1.856,1.728 2.784,3.872 2.784,6.432 0,2.496 -0.928,4.608 -2.784,6.336 -1.792,1.664 -4.096,2.496 -6.912,2.496 z"
     id="path2"
     inkscape:connector-curvature="0"
     style="fill:#3d3d3d" />
  <path
     d="m 392.249,21.114 2.928,2.1699 c 0,0 4.003,-3.7237 9.188,-5.974 5.186,-2.2504 9.753,-5.0633 17.84,-5.6794 8.086,-0.6162 12.761,-0.4822 12.761,-0.4822 l -2.499,-3.9113004 1.908,-4.52747 4.782,-1.76812004 c 0,0 4.621,1.66094004 4.755,1.71454004 0.135,0.05352 2.553,3.37545 2.553,3.37545 0,0 -0.43,4.0721004 -0.511,4.1792004 -0.08,0.1072 -3.009,3.5898 -2.901,3.5898 0.107,0 7.415,4.715 7.415,4.715 l 5.427,6.1348 2.122,3.9381 c 0,0 -0.188,7.0992 0.081,7.1796 0.269,0.0804 6.475,1.3663 6.475,1.3663 0,0 7.656,2.3307 7.764,2.3575 0.107,0.0267 4.003,3.1343 4.003,3.1343 l -0.134,4.0453 c 0,0 -3.359,3.3754 -3.385,3.563 -0.027,0.1875 -2.069,0.6965 -2.58,0.4822 -0.51,-0.2143 -3.412,-2.4914 -3.385,-2.679 0.027,-0.1875 -6.555,-7.1796 -9.887,-7.7154 -3.331,-0.5358 -46.274,23.1833 -46.73,24.8502 -0.456,1.667 1.975,3.1825 1.975,3.1825 0,0 7.979,-1.3639 8.359,-1.3639 0.38,0 6.383,0.6819 6.383,0.6819 l 2.28,2.4248 -1.938,5.0009 -7.447,2.5763 -8.055,0.9471 -8.206,0.8335 c 0,0 -1.672,2.2353 -1.9,2.9931 -0.228,0.7577 -0.304,4.3948 -0.152,5.4177 0.152,1.0229 1.368,3.0688 1.368,3.0688 l 9.384,-1.6291 c 0,0 5.32,2.0837 5.472,2.1595 0.152,0.0757 4.027,8.3726 4.065,8.5246 0.038,0.151 -1.026,8.865 -1.026,8.865 0,0 -3.191,7.956 -2.925,8.07 0.265,0.114 3.267,1.061 3.267,1.061 l 2.812,2.728 c 0,0 -2.546,3.599 -2.774,3.788 -0.228,0.19 -6.497,1.023 -6.725,0.872 -0.228,-0.152 -8.929,-7.237 -8.929,-7.237 l -4.787,-3.675 -9.879,-6.137 -9.688,-5.532 -7.941,-10.1531 -2.508,-7.9561 10.981,-0.3032 5.205,12.7674 2.66,2.122 -0.57,-9.9262 1.709,-12.9571 4.255,-12.4216 -2.659,-2.7708 -6.459,-4.8874 -1.102,-7.9182 0.988,-11.2522 2.128,-7.2741 -4.294,0.4546 -3.761,-1.9322 -1.938,-5.001 2.546,-5.6071 3.153,-0.9093 5.282,1.5534 z"
     id="path4"
     inkscape:connector-curvature="0"
     style="fill:#ffa000" />
  <path
     d="m 418.167,47.0208 c 0.076,-0.1515 0.447,-4.5778 1.064,-6.7816 0.816,-2.9185 1.749,-5.9046 3.457,-8.4108 1.304,-1.9133 3.838,-4.2432 5.016,-4.8115 1.177,-0.5683 4.108,-1.5706 6.269,-1.667 2.08,-0.0929 4.204,0.3362 6.155,1.0608 2.715,1.0084 5.232,2.6076 7.447,4.4706 2.491,2.0959 6.383,7.3878 6.383,7.3878 0,0 -29.484,10.8733 -29.826,10.9112 -0.342,0.0379 -5.965,-2.1595 -5.965,-2.1595 z"
     id="path6"
     inkscape:connector-curvature="0"
     style="fill:#ffffff" />
  <path
     d="m 446.252,135.907 c -2.286,-0.117 -2.333,-0.122 -4.962,-0.52 -1.841,-0.279 -2.569,-0.429 -4.628,-0.957 -1.344,-0.345 -2.711,-0.725 -3.037,-0.844 -3.589,-1.315 -3.938,-1.46 -6.236,-2.586 -1.78,-0.873 -2.832,-1.446 -4.147,-2.259 -2.061,-1.273 -1.983,-1.219 -4.28,-2.981 -3.643,-2.796 -6.991,-6.272 -9.765,-10.138 -3.459,-4.82 -6.17,-10.681 -7.559,-16.34 -0.64,-2.611 -0.665,-2.736 -1,-5.132 -1.692,-12.0794 1.33,-24.4645 8.417,-34.49 0.724,-1.0246 1.551,-2.1324 1.837,-2.4616 0.287,-0.3293 1.024,-1.1803 1.638,-1.891 1.556,-1.7987 4.06,-4.1526 6.144,-5.7728 2.176,-1.6924 2.098,-1.6379 4.268,-3.0013 2.744,-1.7242 5.765,-3.2138 8.832,-4.355 3.153,-1.1731 6.03,-1.9323 9.302,-2.4545 2.081,-0.3322 2.597,-0.387 4.917,-0.5221 2.506,-0.1459 2.674,-0.147 5.073,-0.0309 2.239,0.1083 2.718,0.1557 4.924,0.4876 2.157,0.3245 2.731,0.4418 4.888,0.9986 3.496,0.9025 5.965,1.8159 9.246,3.42 1.95,0.9529 2.743,1.3905 4.38,2.4147 10.76,6.731 18.424,17.3124 21.443,29.6032 2.954,12.0248 1.153,24.6531 -5.065,35.5061 -3.098,5.408 -7.314,10.266 -12.193,14.05 -2.113,1.638 -1.943,1.52 -4.333,3.022 -3.923,2.467 -8.449,4.427 -12.959,5.611 -1.182,0.311 -2.265,0.596 -2.407,0.635 -0.143,0.038 -1.309,0.237 -2.592,0.441 -2.076,0.329 -2.61,0.386 -4.851,0.515 -2.809,0.161 -2.77,0.161 -5.295,0.032 z"
     id="path8"
     inkscape:connector-curvature="0"
     style="fill:#f48128;stroke:#3d3d3d;stroke-width:3.79999995" />
  <path
     d="m 448.756,133.98 c 25.72,0 46.569,-20.79 46.569,-46.4362 0,-25.6461 -20.849,-46.4364 -46.569,-46.4364 -25.719,0 -46.569,20.7903 -46.569,46.4364 0,25.6462 20.85,46.4362 46.569,46.4362 z"
     id="path10"
     inkscape:connector-curvature="0"
     style="fill:#ffffff" />
  <path
     d="m 446.252,135.907 c -2.286,-0.117 -2.333,-0.122 -4.962,-0.52 -1.84,-0.279 -2.569,-0.429 -4.628,-0.957 -1.344,-0.345 -2.711,-0.725 -3.037,-0.844 -3.589,-1.315 -3.938,-1.46 -6.236,-2.586 -1.78,-0.873 -2.832,-1.446 -4.147,-2.259 -2.061,-1.273 -1.983,-1.219 -4.28,-2.982 -3.643,-2.795 -6.991,-6.271 -9.765,-10.137 -3.459,-4.82 -6.17,-10.681 -7.559,-16.34 -0.64,-2.611 -0.665,-2.736 -1,-5.132 -1.692,-12.0794 1.33,-24.4646 8.417,-34.49 0.724,-1.0246 1.551,-2.1324 1.837,-2.4617 0.287,-0.3292 1.024,-1.1802 1.638,-1.8909 1.556,-1.7987 4.06,-4.1527 6.144,-5.7728 2.176,-1.6925 2.098,-1.638 4.268,-3.0013 2.744,-1.7243 5.765,-3.2138 8.832,-4.355 3.153,-1.1731 6.03,-1.9323 9.302,-2.4545 2.081,-0.3322 2.597,-0.387 4.917,-0.5221 2.506,-0.146 2.674,-0.147 5.073,-0.031 2.239,0.1083 2.718,0.1557 4.924,0.4877 2.157,0.3245 2.731,0.4417 4.888,0.9986 3.496,0.9025 5.965,1.8158 9.246,3.42 1.95,0.9529 2.743,1.3905 4.381,2.4147 10.759,6.7309 18.423,17.3123 21.442,29.6031 2.954,12.0248 1.153,24.6532 -5.065,35.5062 -3.098,5.408 -7.314,10.266 -12.193,14.05 -2.113,1.638 -1.943,1.52 -4.333,3.022 -3.923,2.467 -8.449,4.427 -12.959,5.611 -1.182,0.31 -2.265,0.596 -2.407,0.635 -0.143,0.038 -1.309,0.237 -2.592,0.441 -2.076,0.329 -2.61,0.386 -4.851,0.515 -2.809,0.161 -2.77,0.161 -5.295,0.032 z m 15.663,-10.997 c 4.265,-0.513 7.849,-1.565 11.57,-3.396 3.28,-1.614 5.931,-3.438 8.64,-5.942 1.154,-1.067 2.745,-2.771 3.673,-3.935 1.272,-1.596 3.282,-4.664 3.382,-5.163 0.029,-0.143 0.01,-0.221 -0.059,-0.243 -0.056,-0.018 -0.992,-0.053 -2.08,-0.078 l -1.978,-0.045 -0.955,1.276 c -3.067,4.101 -6.748,7.169 -11.279,9.4 -3.676,1.809 -7.478,2.782 -11.729,3 -1.874,0.096 -3.343,0.004 -6.035,-0.38 -4.701,-0.671 -9.236,-2.62 -13.414,-5.766 -3.162,-2.381 -5.817,-5.369 -8.047,-9.057 -2.281,-3.77 -3.805,-8.212 -4.378,-12.7572 -0.812,-6.4439 0.228,-12.8526 3.052,-18.808 2.177,-4.5902 5.828,-8.9844 9.901,-11.9167 4.136,-2.9775 8.066,-4.5984 13.406,-5.5288 0.388,-0.0676 0.75,-0.1502 0.804,-0.1836 0.113,-0.0699 0.183,-0.3549 0.681,-2.7682 0.201,-0.9712 0.365,-1.9058 0.365,-2.0771 0,-0.5024 -0.035,-0.5116 -1.539,-0.4114 -4.563,0.3041 -9.005,1.529 -13.162,3.6289 -3.637,1.8374 -6.404,3.8365 -9.297,6.7166 -4.086,4.0673 -7.014,8.7305 -8.972,14.2901 -0.745,2.1148 -1.175,3.8788 -1.572,6.4614 -0.381,2.4733 -0.488,3.475 -0.598,5.6123 -0.039,0.7566 0.067,3.3205 0.189,4.5784 0.597,6.1463 2.739,12.2313 6.118,17.3803 1.725,2.629 4.012,5.274 6.505,7.523 1.398,1.262 4.11,3.193 5.998,4.272 1.784,1.018 4.432,2.178 6.461,2.829 2.435,0.78 5.588,1.392 8.202,1.591 1.288,0.098 4.991,0.036 6.147,-0.103 z m 0.926,-6.618 c 7.198,-0.632 14.134,-4.185 19.089,-9.779 0.961,-1.085 1.675,-1.993 1.748,-2.224 0.077,-0.24 -0.077,-0.306 -0.842,-0.359 -1.179,-0.082 -4.308,-0.405 -6.134,-0.634 -1.281,-0.16 -1.766,-0.195 -1.875,-0.137 -0.081,0.043 -0.47,0.303 -0.864,0.577 -2.352,1.635 -4.72,2.736 -7.135,3.319 -2.39,0.577 -4.303,0.719 -6.66,0.493 -1.319,-0.126 -2.183,-0.267 -3.189,-0.521 -3.083,-0.779 -6.259,-2.463 -8.683,-4.604 -0.297,-0.263 -0.579,-0.452 -0.674,-0.452 -0.09,0 -0.71,0.287 -1.378,0.636 -1.447,0.758 -5.363,2.706 -6.639,3.302 -1.234,0.576 -1.248,0.489 0.334,2.045 3.342,3.288 7.123,5.604 11.55,7.076 1.561,0.519 3.079,0.846 5.359,1.156 1.859,0.252 3.909,0.288 5.993,0.106 z m -24.878,-11.707 c 2.762,-1.116 7.489,-3.219 11.006,-4.898 l 1.273,-0.607 0.688,0.605 c 2.48,2.182 5.513,3.617 8.824,4.174 0.954,0.16 3.232,0.221 4.275,0.114 4.042,-0.417 7.588,-2.088 10.562,-4.978 3.406,-3.31 5.335,-7.5713 5.653,-12.4903 0.075,-1.1533 -0.01,-3.013 -0.187,-4.0667 l -0.111,-0.6633 0.205,-0.1641 c 0.569,-0.4574 2.257,-1.6537 2.288,-1.6223 0.147,0.1463 0.51,2.4437 0.627,3.9648 0.195,2.527 -0.167,5.7004 -0.941,8.2514 -0.286,0.9435 -0.315,1.2475 -0.122,1.3005 0.767,0.214 5.553,1.102 5.98,1.11 l 0.444,0.009 0.16,-0.48 c 0.484,-1.4545 1.007,-4.7069 1.142,-7.0972 0.339,-5.9995 -1.204,-12.3249 -4.304,-17.6421 -3.964,-6.7996 -10.328,-11.7335 -17.77,-13.7758 -1.114,-0.3058 -1.456,-0.3251 -1.553,-0.0877 -0.037,0.0914 -0.17,0.9138 -0.296,1.8277 -0.126,0.9138 -0.377,2.5587 -0.559,3.6553 -0.348,2.0989 -0.364,2.2374 -0.275,2.3756 0.03,0.0475 0.704,0.2531 1.498,0.4569 3.212,0.8244 5.365,1.819 7.692,3.5525 1.007,0.7498 2.342,1.9268 2.342,2.0644 0,0.0526 -0.539,0.4606 -1.197,0.9066 l -1.197,0.8108 -0.802,-0.6488 c -2.582,-2.0864 -5.25,-3.2415 -8.801,-3.8092 -0.351,-0.0562 -1.226,-0.0937 -2.148,-0.0921 -1.762,0.0031 -2.658,0.1117 -4.229,0.5132 -4.931,1.2601 -9.166,4.6795 -11.523,9.3037 -1.035,2.0308 -1.592,3.7626 -1.962,6.1068 -0.191,1.2165 -0.186,4.2653 0.011,5.45 0.23,1.3862 0.409,1.1282 -1.551,2.2325 -2.221,1.2505 -6.358,3.5189 -8.184,4.4879 -2.513,1.333 -2.553,1.357 -2.578,1.53 -0.04,0.28 4.148,7.755 4.677,8.346 0.192,0.214 0.361,0.21 0.943,-0.026 z m 24.581,-9.824 c -3.711,-0.344 -6.856,-2.9279 -7.953,-6.5321 -0.336,-1.1061 -0.434,-1.8971 -0.396,-3.205 0.047,-1.6322 0.332,-2.8102 1.005,-4.1552 1.56,-3.1174 4.585,-5.0395 7.928,-5.0382 4.311,0.0016 7.891,2.9402 8.907,7.3103 0.188,0.8099 0.26,2.5358 0.143,3.4338 -0.596,4.5763 -4.166,8.0044 -8.523,8.1854 -0.427,0.018 -0.927,0.018 -1.111,10e-4 z m -28.948,-1.586 c 1.779,-0.9241 4.854,-2.5478 6.298,-3.3244 0.597,-0.321 1.103,-0.6287 1.124,-0.6838 0.021,-0.0552 -0.014,-0.4616 -0.078,-0.9031 -0.151,-1.0437 -0.171,-4.3421 -0.032,-5.3444 0.267,-1.9295 0.618,-3.4565 1.128,-4.9129 1.189,-3.3934 2.892,-6.1182 5.356,-8.5689 1.546,-1.5381 2.847,-2.5189 4.748,-3.5796 1.368,-0.7634 1.344,-0.7415 1.554,-1.434 0.452,-1.492 2.02,-7.5809 2.259,-8.7756 0.142,-0.7023 0.007,-0.7552 -1.241,-0.4886 -4.267,0.9109 -8.142,2.6384 -11.533,5.1418 -5.441,4.0161 -9.32,9.7122 -11.328,16.6324 -0.393,1.3533 -0.84,3.9665 -1.073,6.2701 -0.162,1.599 -0.083,4.3391 0.188,6.5091 0.157,1.2573 0.6,3.5119 0.809,4.1169 0.068,0.198 0.437,0.065 1.821,-0.655 z"
     id="path12"
     inkscape:connector-curvature="0"
     style="fill:#ff8c63" />
  <path
     d="m 466.471,46.6081 1.671,3.0309 c 0,0 2.204,0.985 2.356,1.0229 0.152,0.0379 1.824,-0.5304 2.052,-0.6061 0.228,-0.0758 3.656,-3.3845 3.656,-3.3845 0,0 0.675,-2.8668 0.637,-3.0183 -0.038,-0.1516 -3.381,-4.3569 -6.003,-4.7358 -2.622,-0.3788 -8.568,-2.5725 -8.568,-2.5725 l -1.28,-0.1083 c 0,0 -2.244,0.9993 -0.8,1.9086 4.319,1.1162 6.195,2.8553 6.811,4.7483 0.387,1.1898 -0.532,3.7148 -0.532,3.7148 z"
     id="path14"
     inkscape:connector-curvature="0"
     style="fill:#ffa000" />
  <path
     d="m 398.878,94.0416 c 0,0 0.304,-1.7427 4.028,-3.1066 3.723,-1.3639 9.878,-1.5155 10.182,-1.4397 0.304,0.0758 5.737,2.8794 5.737,2.8794 l 3.154,7.2363 -1.862,11.479 -3.381,6.252 3.115,0.113 2.394,1.137 0.646,2.69 c 0,0 -1.9,2.614 -2.052,2.766 -0.152,0.151 -4.483,0.833 -4.483,0.833 l -6.307,-2.69 -12.653,-21.936 z"
     id="path16"
     inkscape:connector-curvature="0"
     style="fill:#ffa000" />
  <path
     d="m 399.676,67.938 c 0.532,0.1137 3.306,1.8186 9.043,1.1745 5.737,-0.6441 10.79,-2.0459 12.424,-1.9701 1.634,0.0758 4.369,-0.5304 5.813,0.5304 1.444,1.0608 2.356,3.4098 2.356,3.4098 l -1.444,3.4476 c 0,0 -6.193,3.7508 -7.105,3.4477 -0.912,-0.3031 -19.871,1.5912 -20.099,1.5912 -0.228,0 -4.027,-0.3789 -4.027,-0.3789 z"
     id="path18"
     inkscape:connector-curvature="0"
     style="fill:#ffa000" />
  <path
     d="m 414.935,125.989 c -0.91,-0.127 -2.129,-0.472 -2.708,-0.766 -3.038,-1.543 -6.89,-4.982 -8.954,-7.995 -0.856,-1.25 -1.093,-1.404 -2.429,-1.581 -1.736,-0.229 -3.336,-1.286 -5.81,-3.836 -0.934,-0.962 -1.949,-1.754 -2.257,-1.76 -1.127,-0.021 -4.893,-1.733 -7.407,-3.366 -8.03,-5.22 -15.378,-15.9908 -17.101,-25.0672 -0.436,-2.2978 -0.206,-5.9698 0.5,-7.9795 1.381,-3.9333 5.994,-5.5356 9.843,-3.4187 2.264,1.2453 3.062,3.303 4.407,11.3511 1.01,6.0522 2.145,9.8338 4.09,13.6383 1.615,3.158 2.011,3.664 1.614,2.062 -0.158,-0.639 -0.37,-3.0602 -0.47,-5.3807 -0.397,-9.1895 1.355,-17.6985 5.128,-24.9014 l 1.583,-3.0238 -2.125,-1.1207 c -2.496,-1.3156 -5.514,-3.6856 -7.133,-5.6007 -1.112,-1.3158 -1.158,-1.4626 -1.42,-4.5006 -0.574,-6.6823 0.613,-16.518 2.561,-21.2205 0.12,-0.2901 -0.028,-0.3074 -0.641,-0.075 -2.253,0.8539 -5.347,-0.0276 -7.104,-2.0236 -1.469,-1.6676 -2.067,-3.2528 -2.067,-5.4751 0,-4.0109 2.757,-7.372 6.541,-7.9755 1.414,-0.2254 4.13,0.4842 5.745,1.5008 1.593,1.0029 3.348,3.0508 3.348,3.9075 0,1.2584 -0.613,1.1914 -1.911,-0.2089 -2.189,-2.3624 -5.642,-3.6576 -7.831,-2.9372 -1.434,0.472 -3.34,2.6711 -3.762,4.3395 -0.567,2.2486 0.08,4.2241 1.909,5.8256 1.356,1.1868 2.132,1.3765 4.6,1.1243 1.598,-0.1633 2.177,-0.3739 2.994,-1.089 1.235,-1.0814 2.34,-1.2138 2.031,-0.2435 -0.112,0.3537 -0.596,1.2585 -1.074,2.0107 -1.691,2.658 -3.023,7.631 -3.462,12.9224 l -0.209,2.5242 1.974,-1.4048 c 2.132,-1.5171 4.899,-2.8669 8.138,-3.9701 2.068,-0.7046 2.751,-0.7 3.028,0.0204 0.199,0.5161 -0.232,1.0514 -2.016,2.5024 -2.235,1.8193 -7.283,7.4339 -9.017,10.0304 -0.855,1.2789 -1.661,2.3253 -1.793,2.3253 -0.132,0 0.228,0.4095 0.799,0.9099 l 1.039,0.9099 2.206,-2.1978 c 2.081,-2.0732 5.929,-5.1435 7.375,-5.8849 0.814,-0.4173 1.601,-0.1456 1.601,0.5526 0,0.2896 -0.677,1.5505 -1.504,2.8021 -0.828,1.2517 -2.251,3.6816 -3.163,5.3998 l -1.658,3.1242 1.733,0.7664 c 0.954,0.4216 2.225,0.967 2.826,1.2121 1.344,0.5487 1.59,0.9145 1.158,1.7196 -0.236,0.4396 -0.571,0.5973 -1.129,0.5313 -0.722,-0.0851 -0.925,0.1533 -2.224,2.6066 -2.395,4.5229 -4.235,10.8962 -4.872,16.8775 l -0.136,1.2752 h 1.933 c 1.762,0 1.964,0.0655 2.271,0.7378 0.269,0.5886 0.238,0.8884 -0.152,1.4826 -0.583,0.8879 -2.969,2.5803 -3.637,2.5803 -0.37,0 -0.473,0.3456 -0.473,1.5943 v 1.5944 l 1.807,-0.1303 c 2.029,-0.1463 2.707,0.1924 2.707,1.3515 0,0.9285 -2.337,4.8915 -2.884,4.8915 -0.305,0 -0.173,0.668 0.52,2.625 2.009,5.68 5.026,10.051 7.616,11.038 0.76,0.289 1.45,0.457 1.533,0.374 0.084,-0.084 0.013,-0.517 -0.157,-0.963 -0.45,-1.18 -0.392,-2.573 0.107,-2.573 0.338,0 1.991,2.889 1.991,3.48 0,0.42 2.104,3.162 3.744,4.881 2.971,3.112 5.092,4.457 7.875,4.992 1.363,0.262 2.921,0.376 3.66,0.268 2.62,-0.385 4.282,-2.327 3.367,-3.935 -0.67,-1.178 -1.882,-1.934 -3.368,-2.101 -1.098,-0.123 -1.574,-0.005 -2.621,0.655 -0.704,0.443 -1.326,0.759 -1.383,0.702 -0.056,-0.056 1.013,-2.335 2.376,-5.064 3.942,-7.892 4.57,-10.657 3.481,-15.319 -0.789,-3.372 -1.368,-4.5888 -2.887,-6.0603 -1.866,-1.8064 -3.862,-2.3879 -7.624,-2.2211 -5.547,0.2459 -9.178,2.1025 -12.605,6.4464 -2.025,2.566 -2.978,3.17 -2.603,1.65 0.518,-2.099 3.537,-5.8809 6.03,-7.5558 2.867,-1.9252 7.878,-3.2167 11.354,-2.9261 2.15,0.1798 4.718,1.155 6.387,2.4265 1.314,1.0006 3.378,5.2344 3.965,8.1304 1.009,4.985 0.125,8.91 -3.696,16.398 -0.56,1.097 -0.533,1.154 0.526,1.154 2.426,0 4.478,2.239 4.532,4.947 0.069,3.417 -3.805,5.415 -9.076,4.68 z m -22.969,-18.703 c -0.091,-0.206 -0.526,-1.253 -0.967,-2.325 -0.44,-1.073 -1.227,-2.399 -1.747,-2.947 -0.94,-0.989 -0.961,-0.994 -2.984,-0.794 -3.173,0.315 -3.624,-0.438 -1.991,-3.324 l 0.937,-1.655 -0.572,-1.3888 -0.572,-1.3892 -2.34,0.0682 c -2.534,0.0738 -3.204,-0.2023 -3.204,-1.3209 0,-0.6465 1.881,-2.6606 3.142,-3.3643 0.447,-0.2493 0.512,-0.517 0.342,-1.4171 l -0.208,-1.1096 -1.22,1.0986 c -1.677,1.511 -3.046,2.02 -5.445,2.0247 l -2.034,0.0045 0.946,1.6812 c 2.543,4.5177 7.024,9.8477 10.568,12.5717 1.711,1.314 6.441,3.948 7.106,3.957 0.224,0.002 0.334,-0.164 0.243,-0.371 z m 1.792,-26.8712 c -0.284,-0.4579 0.536,-1.1435 1.989,-1.6636 0.976,-0.3491 3.709,-0.5346 11.365,-0.7715 11.281,-0.3492 13.438,-0.6619 17.468,-2.5323 2.591,-1.2022 3.769,-2.2328 4.059,-3.5494 0.447,-2.0291 -1.809,-3.5252 -5.675,-3.7632 -2.368,-0.1457 -7.814,0.5323 -8.923,1.1109 -0.253,0.1318 -1.88,0.4755 -3.616,0.7637 -3.353,0.5568 -6.784,0.4817 -9.06,-0.1982 -1.435,-0.4286 -2.678,-1.7809 -2.678,-2.9123 0,-1.1419 0.815,-2.1989 1.608,-2.0861 0.562,0.0798 0.636,0.2568 0.557,1.3322 -0.085,1.1478 -0.023,1.2641 0.834,1.5619 2.908,1.0109 10.339,0.6737 15.844,-0.7187 5.852,-1.4801 10.673,-0.5692 12.461,2.3543 0.813,1.3295 0.741,2.2607 -0.302,3.901 -1.527,2.4007 -6.909,5.3749 -10.391,5.7422 -2.029,0.2141 -5.043,0.4849 -6.497,0.5837 -0.76,0.0518 -1.505,0.1654 -1.655,0.2525 -0.15,0.0871 -3.455,0.2491 -7.344,0.3597 -3.889,0.1107 -7.697,0.2781 -8.462,0.372 -0.82,0.1006 -1.469,0.0436 -1.582,-0.1388 z m 75.49,-28.9843 c -1.191,-0.5264 -2.379,-1.6634 -3.011,-2.8824 -0.383,-0.7372 -0.482,-1.516 -0.394,-3.0778 0.099,-1.7488 0.234,-2.1838 0.823,-2.6593 1.158,-0.9349 1.564,-0.2923 1.339,2.1187 -0.219,2.3559 0.277,3.6418 1.685,4.3678 1.303,0.6722 1.97,0.5642 3.21,-0.52 2.814,-2.46 3.574,-4.7896 2.057,-6.302 -1.588,-1.5839 -7.177,-3.9481 -11.877,-5.0243 -2.807,-0.6427 -3.163,-1.5006 -0.623,-1.5006 3.627,0 11.034,2.7092 13.512,4.9424 2.341,2.1089 2.337,4.7377 -0.012,7.7016 -2.345,2.9571 -4.435,3.8408 -6.709,2.8359 z M 457.187,36.1096 c -0.108,-0.4296 -0.114,-1.1896 -0.014,-1.6888 0.168,-0.8402 0.087,-0.9493 -1.093,-1.4689 -0.701,-0.3087 -2.223,-0.7261 -3.382,-0.9277 -1.178,-0.205 -2.363,-0.6058 -2.689,-0.9098 -0.562,-0.5238 -0.563,-0.5648 -0.041,-1.1398 0.674,-0.7429 3.309,-1.3103 5.463,-1.1764 1.764,0.1096 2.116,-0.1795 0.818,-0.6715 -1.112,-0.4216 -7.41,-1.4774 -8.813,-1.4774 -0.669,0 -1.43,-0.2339 -1.841,-0.5657 -0.6,-0.4845 -0.643,-0.6351 -0.298,-1.0492 0.54,-0.6489 3.946,-1.6753 6.293,-1.8968 l 1.901,-0.1794 -1.6,-1.6201 c -1.673,-1.6946 -5.446,-4.389 -8.521,-6.085 -2.287,-1.2622 -3.761,-2.344 -3.761,-2.7619 0,-0.2137 0.47,-0.2614 1.367,-0.1388 1.245,0.1701 1.462,0.1003 2.438,-0.7844 1.427,-1.2935 1.912,-2.3072004 1.912,-3.9907004 0,-4.07614 -4.705,-6.79961004 -8.545,-4.94598 -1.996,0.96328 -3.19,2.44548 -3.19,3.95968 0,1.8108 1.006,3.4011 2.362,3.7352004 0.899,0.2215 1.099,0.4071 1.099,1.0209 0,0.7315 -0.061,0.7522 -2.449,0.8367 l -2.449,0.0866 -0.214,1.9989 c -0.297,2.767 -0.573,3.3787 -1.52,3.3787 -0.676,0 -0.911,-0.2889 -1.769,-2.1753 -0.545,-1.1964 -1.073,-2.4116 -1.175,-2.7004 -0.194,-0.552 -1.831,-0.7555 -2.135,-0.2654 -0.088,0.1428 0.317,1.9151 0.902,3.9384 1.109,3.8427 1.225,5.4832 0.398,5.6391 -0.306,0.0576 -1.841,-1.4982 -4.213,-4.269 -3.708,-4.3324 -3.738,-4.3585 -4.785,-4.174 -0.579,0.1021 -1.088,0.2142 -1.131,0.249 -0.043,0.0348 0.605,1.7209 1.44,3.7469 1.435,3.481 1.493,3.7228 1.049,4.3975 -0.258,0.3927 -0.658,0.714 -0.89,0.714 -0.232,0 -2.063,-1.5947 -4.07,-3.5437 l -3.648,-3.5436 -2.046,0.7939 c -3.464,1.344 -7.072,3.2957 -10.117,5.4727 -3.021,2.1602 -4.074,2.3742 -2.728,0.5543 2.2,-2.973 7.904,-6.4075 14.492,-8.7263 6.008,-2.1144 14.112,-3.6053 19.61,-3.6078 1.697,-8e-4 3.08,-0.1026 3.075,-0.2264004 -0.006,-0.1238 -0.199,-0.4738 -0.43,-0.7778 -1.286,-1.6925 -0.755,-4.72331 1.163,-6.63576 2.306,-2.29890004 5.715,-3.09931004 8.774,-2.05994004 1.904,0.64678004 4.458,3.12823004 4.917,4.77630004 0.784,2.817 -0.127,6.2320004 -2.039,7.6419004 l -0.92,0.6778 2.411,1.3575 c 5.268,2.9668 9.061,6.7736 11.543,11.584 1.14,2.2094 1.169,2.3431 1.158,5.3695 -0.012,3.2745 -0.42,4.7564 -1.359,4.9367 -0.344,0.0661 -0.578,-0.1592 -0.71,-0.6825 z m -26.686,0.0189 c -0.482,-0.3645 -0.376,-0.4667 1.106,-1.0666 1.245,-0.504 1.753,-0.9025 2.113,-1.658 0.835,-1.7561 0.77,-1.8039 -2.461,-1.8041 -2.386,-2e-4 -3.201,-0.1233 -4.366,-0.6598 -1.765,-0.8124 -1.971,-1.2853 -1.082,-2.484 2.256,-3.043 11.032,-4.4772 11.992,-1.9598 0.376,0.9874 -0.134,2.7982 -1.061,3.7627 -0.924,0.9614 -0.797,1.3741 0.601,1.9567 0.821,0.342 1.222,0.3378 2.597,-0.0271 0.894,-0.2373 1.865,-0.433 2.159,-0.435 0.495,-0.0034 0.499,0.0489 0.057,0.7207 -1.04,1.5837 -3.988,2.1667 -5.703,1.1281 l -0.9,-0.5448 -0.512,1.1403 c -0.856,1.9067 -3.235,2.9182 -4.54,1.9306 z m -20.867,-4.2463 c -1.691,-0.845 -2.11,-2.8308 -0.893,-4.241 0.603,-0.6989 1.532,-1.0665 2.416,-1.0882 0.79,-0.0194 1.651,0.305 2.207,0.8663 0.443,0.4479 0.669,1.5314 0.669,1.7656 0,2.1357 -2.479,3.656 -4.399,2.6973 z m -25.071,-4.881 c -1.163,-0.622 -2.125,-2.1818 -2.125,-3.4458 0,-0.5502 0.325,-1.1768 0.916,-1.766 0.85,-0.8483 1.036,-0.9032 2.608,-0.7731 1.384,0.1144 1.825,0.293 2.415,0.9762 0.971,1.1264 0.526,1.5849 -1.075,1.1066 -2.226,-0.6652 -2.98,-0.3748 -2.631,1.0132 0.113,0.448 0.639,0.9607 1.362,1.3289 1.421,0.7226 1.689,1.0938 1.208,1.6713 -0.49,0.5895 -1.442,0.5499 -2.678,-0.1114 z m 55.498,-4.9111 c -0.825,-0.4663 -1.044,-0.849 -1.049,-1.8365 -0.007,-1.1895 0.43,-1.8635 1.488,-2.3008 2.601,-1.0741 4.39,2.3957 2.07,4.0155 -0.8,0.5593 -1.662,0.6011 -2.509,0.1218 z m 0.451,-12.0827 c 0,-0.0768 0.212,-0.7615004 0.47,-1.5215004 0.367,-1.0751 0.392,-1.4771 0.114,-1.8108 -0.846,-1.0168 -2.988,-0.0779 -2.996,1.3135 -0.01,1.7519 -1.305,2.1186004 -1.552,0.4395 -0.349,-2.3728 1.017,-3.98204 3.38,-3.98204 2.066,0 3.292,1.05674 3.292,2.83664 0,1.5557 -0.903,2.8642004 -1.978,2.8642004 -0.401,0 -0.73,-0.0628 -0.73,-0.1395 z"
     id="path20"
     inkscape:connector-curvature="0"
     style="fill:#3d3d3d" />
</svg>
