<svg width="256" height="329" viewBox="0 0 256 329" fill="none" xmlns="http://www.w3.org/2000/svg">
<path d="M148.95 128.48C148.664 129.083 148.275 129.632 147.8 130.1C143.989 134.126 139.055 136.913 133.64 138.1C131.728 138.54 129.772 138.762 127.81 138.76C126.66 131.34 125.49 123.91 124.59 116.46C123.88 110.64 123.35 104.83 123.1 98.99C122.93 95.33 115 82.57 116.62 79.15C118.41 75.39 131.3 88.26 132.75 90.71C140.8 104.21 143.69 114.65 149.21 126.26C149.419 127.005 149.326 127.803 148.95 128.48Z" fill="#FD9E82"/>
<path d="M134.94 136.74C134.554 137.242 134.118 137.705 133.64 138.12C131.728 138.56 129.772 138.782 127.81 138.78C126.66 131.36 125.49 123.93 124.59 116.48C124.93 110.627 125.547 104.797 126.44 98.99C126.06 101.42 129.05 106.72 129.86 109.1L133.37 119.47C135.2 124.88 139.11 131.46 134.94 136.74Z" fill="url(#paint0_linear)"/>
<path d="M130.63 149.43C131.43 154.31 132.45 159.25 134.86 163.57C136.1 165.79 137.95 167.97 140.46 168.36C141.856 168.492 143.263 168.283 144.56 167.75C147.248 166.825 149.783 165.504 152.08 163.83C154.275 162.147 156.344 160.305 158.27 158.32C161.135 155.616 163.786 152.694 166.2 149.58C167.31 148.08 168.32 146.5 169.53 145.07C174.53 139.12 182.53 136.45 188.2 131.14C189.73 129.72 192.83 123.22 192.6 121.14C190.52 119.94 186.25 124.77 183.95 125.47C181.65 126.17 179.5 127.31 177.19 127.96C174.424 128.731 171.505 128.769 168.72 128.07C167.78 127.83 166.66 113 165.72 113.34C165.247 113.538 164.823 113.839 164.48 114.22C162.54 116.22 161.48 133.29 159.87 135.51C157.66 138.51 154.6 140.79 151.57 142.97C151.3 143.16 150.96 143.36 150.66 143.21C150.561 143.136 150.478 143.044 150.416 142.937C150.354 142.83 150.315 142.712 150.3 142.59C149.51 139.66 148.62 136.75 147.65 133.88C146.97 131.88 146.01 129.68 144 129.08C142.21 128.55 140.35 129.56 138.75 130.53C136.69 131.79 134.61 133.03 132.56 134.3C131.42 135 130.04 135.68 129.5 136.97C128.84 138.52 129.4 140.66 129.59 142.25C129.89 144.66 130.24 147.05 130.63 149.43Z" fill="url(#paint1_linear)"/>
<path d="M148.88 285.44C148.88 288.5 148.73 291.51 148.46 294.5C146.127 320.088 134.055 343.802 114.737 360.743C95.4191 377.684 70.3321 386.558 44.6588 385.531C18.9855 384.504 -5.31258 373.655 -23.2155 355.225C-41.1183 336.795 -51.2581 312.192 -51.54 286.5C-51.54 286.16 -51.54 285.83 -51.54 285.5C-51.6723 272.255 -49.1779 259.116 -44.2009 246.841C-39.224 234.566 -31.8632 223.4 -22.5443 213.988C-13.2253 204.575 -2.13301 197.103 10.0914 192.004C22.3158 186.904 35.4297 184.279 48.675 184.279C61.9203 184.279 75.0343 186.904 87.2587 192.004C99.483 197.103 110.575 204.575 119.894 213.988C129.213 223.4 136.574 234.566 141.551 246.841C146.528 259.116 149.022 272.255 148.89 285.5L148.88 285.44Z" fill="#FFDED5"/>
<path d="M148.88 285.44C148.88 288.5 148.73 291.51 148.46 294.5C125.4 310.19 91.46 320.09 53.61 320.09C9.61002 320.09 -29.05 306.72 -51.54 286.45C-51.54 286.11 -51.54 285.78 -51.54 285.45C-51.6723 272.205 -49.1779 259.066 -44.2009 246.791C-39.224 234.516 -31.8632 223.35 -22.5443 213.938C-13.2253 204.525 -2.13301 197.053 10.0914 191.954C22.3158 186.854 35.4297 184.229 48.675 184.229C61.9203 184.229 75.0343 186.854 87.2587 191.954C99.483 197.053 110.575 204.525 119.894 213.938C129.213 223.35 136.574 234.516 141.551 246.791C146.528 259.066 149.022 272.205 148.89 285.45L148.88 285.44Z" fill="url(#paint2_linear)"/>
<path d="M94.62 246.26C98.62 247.7 102.97 248.73 106.25 251.46C109.16 253.87 110.93 257.36 112.36 260.85C117.128 272.562 118.848 285.292 117.36 297.85C116.96 301.19 116.36 304.63 117.23 307.85C118.1 311.07 121.07 314.09 124.41 313.69C129.04 304.49 129.14 293.75 129.15 283.45C129.15 275.93 129.15 268.25 126.63 261.16C124.57 255.32 120.93 250.16 117.17 245.25C103.46 227.25 86.87 210.46 65.75 202.37C64.8743 201.922 63.8683 201.798 62.91 202.02C58.56 203.61 59.27 211.35 60.96 214.46C63.3599 218.756 66.032 222.895 68.96 226.85C75.3834 235.737 84.3205 242.497 94.62 246.26Z" fill="url(#paint3_linear)"/>
<path d="M55.07 223.66C55.1294 222.314 55.3033 220.976 55.59 219.66C55.7439 219.007 56.0743 218.409 56.5452 217.931C57.0161 217.453 57.6093 217.114 58.26 216.95C58.8093 216.935 59.3571 216.885 59.9 216.8C61.01 216.46 61.48 215.17 61.8 214.06L65.35 201.66C66.03 199.26 66.72 196.74 66.2 194.31C65.38 190.51 61.89 187.94 58.49 186.08C56.02 184.72 53.24 183.51 50.49 184.02C46.23 184.81 43.76 189.21 42.17 193.24C40.3195 197.558 39.1814 202.148 38.8 206.83C38.52 212.24 38.06 225.49 41.41 230.22C46.05 236.86 54.33 229.66 55.07 223.66Z" fill="url(#paint4_linear)"/>
<path d="M109.01 208.01C118.08 211.08 127.75 212.37 136.49 216.28C136.772 216.365 137.032 216.508 137.256 216.699C137.48 216.89 137.662 217.125 137.79 217.39C137.866 217.823 137.811 218.269 137.63 218.67C130.249 240.621 126.086 263.526 125.27 286.67C130.499 287.611 135.844 287.729 141.11 287.02C141.702 286.983 142.275 286.801 142.78 286.49C143.265 286.065 143.631 285.52 143.84 284.91C152.3 265.917 159.893 246.567 166.62 226.86C167.81 223.37 168.99 219.72 168.51 216.06C167.82 210.73 163.81 206.53 160 202.74L130.31 173.12C129.555 172.269 128.628 171.587 127.59 171.12C126.396 170.765 125.133 170.703 123.91 170.94C112.2 172.39 96.21 172.84 74.69 171.94C71.9 171.82 85.69 187.71 86.84 190.76C87.76 193.18 90.67 196.3 92.45 198.18C96.91 202.86 102.93 205.95 109.01 208.01Z" fill="#525263"/>
<path d="M109.01 208.01C118.08 211.08 127.75 212.37 136.49 216.28C136.772 216.365 137.032 216.508 137.256 216.699C137.48 216.89 137.662 217.125 137.79 217.39C137.866 217.823 137.811 218.269 137.63 218.67C130.249 240.621 126.086 263.526 125.27 286.67C130.499 287.611 135.844 287.729 141.11 287.02C141.702 286.983 142.275 286.801 142.78 286.49C143.265 286.065 143.631 285.52 143.84 284.91C152.3 265.917 159.893 246.567 166.62 226.86C167.81 223.37 168.99 219.72 168.51 216.06C167.82 210.73 163.81 206.53 160 202.74L130.31 173.12C129.555 172.269 128.628 171.587 127.59 171.12C126.396 170.765 125.133 170.703 123.91 170.94C112.2 172.39 96.21 172.84 74.69 171.94C71.9 171.82 85.69 187.71 86.84 190.76C87.76 193.18 90.67 196.3 92.45 198.18C96.91 202.86 102.93 205.95 109.01 208.01Z" fill="url(#paint5_linear)"/>
<path d="M123.75 299.8C123.022 300.934 122.528 302.202 122.3 303.53C121.767 305.854 121.373 308.209 121.12 310.58C120.92 312.42 120.85 314.42 121.9 315.93C122.95 317.44 124.68 317.99 126.3 318.62C130.378 320.298 134.34 322.246 138.16 324.45C140.74 325.87 143.43 327.34 146.37 327.45C149.31 327.56 152.56 325.95 153.23 323.09C153.462 321.713 153.345 320.3 152.89 318.98C151.285 313.242 148.137 308.054 143.79 303.98C143.028 303.236 142.178 302.588 141.26 302.05C140.379 301.595 139.458 301.22 138.51 300.93C135.839 299.953 133.102 299.168 130.32 298.58C127.89 298.19 125.43 297.47 123.75 299.8Z" fill="#2E2E3F"/>
<path d="M123.75 299.8C123.022 300.934 122.528 302.202 122.3 303.53C121.767 305.854 121.373 308.209 121.12 310.58C120.92 312.42 120.85 314.42 121.9 315.93C122.95 317.44 124.68 317.99 126.3 318.62C130.378 320.298 134.34 322.246 138.16 324.45C140.74 325.87 143.43 327.34 146.37 327.45C149.31 327.56 152.56 325.95 153.23 323.09C153.462 321.713 153.345 320.3 152.89 318.98C151.285 313.242 148.137 308.054 143.79 303.98C143.028 303.236 142.178 302.588 141.26 302.05C140.379 301.595 139.458 301.22 138.51 300.93C135.839 299.953 133.102 299.168 130.32 298.58C127.89 298.19 125.43 297.47 123.75 299.8Z" fill="url(#paint6_linear)"/>
<path d="M126.72 287.42C125.962 291.376 125.567 295.392 125.54 299.42C125.54 301.19 125.66 303.15 126.93 304.42C128.132 305.375 129.664 305.814 131.19 305.64C133.029 305.572 134.844 305.197 136.56 304.53C136.941 304.411 137.285 304.198 137.56 303.91C137.763 303.626 137.903 303.302 137.97 302.96C139.496 297.236 140.306 291.344 140.38 285.42C140.477 284.491 140.285 283.555 139.83 282.74C138.88 281.41 136.91 281.47 135.31 281.79C133.262 282.229 131.254 282.841 129.31 283.62C127.47 284.26 127.09 285.52 126.72 287.42Z" fill="url(#paint7_linear)"/>
<path d="M146.44 306.22C147.163 307.997 147.751 309.825 148.2 311.69C148.51 313.14 148.69 314.69 149.62 315.85C150.8 317.3 152.85 317.67 154.72 317.7C156.261 317.787 157.802 317.527 159.23 316.94C159.973 316.649 160.594 316.112 160.99 315.42C161.268 314.736 161.364 313.992 161.27 313.26C161.124 308.179 159.857 303.194 157.56 298.66C156.243 296.317 154.759 294.071 153.12 291.94C152.602 290.982 151.73 290.264 150.69 289.94C150.155 289.921 149.622 290.009 149.122 290.2C148.623 290.391 148.166 290.68 147.78 291.05C146.13 292.29 142.5 294.36 142.88 296.71C143.36 299.84 145.32 303.25 146.44 306.22Z" fill="url(#paint8_linear)"/>
<path d="M158.56 309.91C157.428 310.543 156.33 311.234 155.27 311.98C153.62 312.89 151.68 313.07 149.87 313.59C149.392 313.682 148.953 313.915 148.61 314.26C148.361 314.597 148.205 314.994 148.16 315.41C147.82 318.14 147.932 320.907 148.49 323.6C149.41 329.427 150.483 335.23 151.71 341.01C152.22 343.39 152.83 345.9 154.56 347.61C156.29 349.32 158.92 349.91 161.38 349.98C163.682 350.112 165.981 349.683 168.08 348.73C169.75 347.836 171.196 346.577 172.311 345.046C173.426 343.516 174.181 341.753 174.52 339.89C175.171 336.144 174.712 332.289 173.2 328.8C172.173 326.414 170.977 324.105 169.62 321.89C167.82 318.797 166.027 315.703 164.24 312.61C162.88 310.25 161.64 308.6 158.56 309.91Z" fill="#2E2E3F"/>
<path d="M158.56 309.91C157.428 310.543 156.33 311.234 155.27 311.98C153.62 312.89 151.68 313.07 149.87 313.59C149.392 313.682 148.953 313.915 148.61 314.26C148.361 314.597 148.205 314.994 148.16 315.41C147.82 318.14 147.932 320.907 148.49 323.6C149.41 329.427 150.483 335.23 151.71 341.01C152.22 343.39 152.83 345.9 154.56 347.61C156.29 349.32 158.92 349.91 161.38 349.98C163.682 350.112 165.981 349.683 168.08 348.73C169.75 347.836 171.196 346.577 172.311 345.046C173.426 343.516 174.181 341.753 174.52 339.89C175.171 336.144 174.712 332.289 173.2 328.8C172.173 326.414 170.977 324.105 169.62 321.89C167.82 318.797 166.027 315.703 164.24 312.61C162.88 310.25 161.64 308.6 158.56 309.91Z" fill="url(#paint9_linear)"/>
<path d="M37.4 126.87C36.525 129.072 35.9401 131.378 35.66 133.73C34.7087 139.821 34.1011 145.961 33.84 152.12C33.34 163.88 34.1 175.66 33.77 187.42C33.43 199.65 31.99 212.33 36.39 223.74C37.0752 225.811 38.2323 227.693 39.77 229.24C40.5481 230.001 41.5075 230.551 42.5574 230.838C43.6072 231.125 44.713 231.139 45.77 230.88C46.7265 230.512 47.5851 229.927 48.2789 229.173C48.9727 228.418 49.483 227.514 49.77 226.53C50.3213 224.559 50.5641 222.515 50.49 220.47L50.65 209.29C50.65 209.06 50.65 208.79 50.88 208.69C50.9763 208.657 51.0797 208.649 51.1798 208.669C51.2798 208.688 51.373 208.733 51.45 208.8C52.3104 209.543 53.1284 210.335 53.9 211.17C54.79 211.89 56.21 212.24 57 211.41C57.2187 211.119 57.3736 210.785 57.4546 210.43C57.5356 210.075 57.5408 209.707 57.47 209.35C56.99 204.51 52.77 201.02 50.26 196.85C46.64 190.85 46.64 183.29 47.55 176.31C48.68 167.57 51.04 159.04 53.39 150.54L55.39 143.35C56.9 137.89 58.39 131.93 56.19 126.7C55.3067 124.691 53.9614 122.92 52.2636 121.529C50.5657 120.139 48.5635 119.17 46.42 118.7C42.24 117.93 38.91 123.47 37.4 126.87Z" fill="url(#paint10_linear)"/>
<path d="M130.24 172.34C128.95 175.81 121.67 171.76 117.51 173.84C109.57 177.84 100.51 173.73 91.66 173.84C82.24 174.01 75.74 183.29 66.39 184.47C65.7105 184.61 65.0095 184.61 64.33 184.47C63.04 184.09 62.28 182.8 61.73 181.59C60.9231 179.723 60.3455 177.766 60.01 175.76C58.85 169.12 60.01 162 61.25 155.25C62.29 149.53 63.3267 143.807 64.36 138.08C65.56 131.413 66.77 124.707 67.99 117.96C68.7015 113.509 69.7036 109.11 70.99 104.79C71.23 104.04 71.48 103.31 71.75 102.59C74.0761 96.7254 76.8823 91.0629 80.14 85.66C82.14 82.19 84.14 78.66 87.23 76.03C90.68 73.12 95.13 71.67 99.6 70.97C103.62 70.2123 107.765 70.4527 111.67 71.67C113.9 72.45 114.74 74.81 116.51 76.26C118.754 77.9223 120.756 79.8877 122.46 82.1C124.191 84.771 125.427 87.7314 126.11 90.84C132.38 115.22 123.31 141.52 129.27 165.97C129.95 168.84 131.27 169.6 130.24 172.34Z" fill="#FD9E82"/>
<path d="M121.72 86.7L122.5 91.81L119.5 90.14V103.68L116.08 88.64L119.39 83.82L121.72 86.7Z" fill="url(#paint11_linear)"/>
<path d="M96.32 86.37L98.21 87.37L101.21 89.98L93.21 111.44C93.21 111.44 104.83 93.56 105.21 84.44C105.445 78.8302 104.746 73.2203 103.14 67.84L96.32 86.37Z" fill="url(#paint12_linear)"/>
<path d="M70.7 147.88C70.065 152.793 70.065 157.767 70.7 162.68C71.11 165.77 71.77 168.85 71.56 171.95C71.5696 172.556 71.376 173.147 71.01 173.63C70.5404 174.012 69.964 174.239 69.36 174.28C66.2333 174.773 63.1034 175.277 59.97 175.79C58.81 169.15 59.97 162.03 61.21 155.28C62.25 149.56 63.2867 143.837 64.32 138.11C65.52 131.443 66.73 124.737 67.95 117.99C68.6615 113.539 69.6636 109.14 70.95 104.82C71.19 104.07 71.44 103.34 71.71 102.62C74.81 100.9 79.12 99.62 81.04 102.4C83.04 105.4 80.41 112.4 79.63 115.4C76.79 126.27 72.13 136.66 70.7 147.88Z" fill="url(#paint13_linear)"/>
<path d="M142.63 61.18C142.734 62.4235 142.697 63.6748 142.52 64.91C142.419 65.5258 142.112 66.089 141.648 66.5069C141.185 66.9249 140.593 67.1728 139.97 67.21C136.85 66.98 134.6 69.97 132.12 71.89C130.174 73.348 127.864 74.2416 125.444 74.4727C123.024 74.7038 120.586 74.2634 118.4 73.2C117.966 73.0438 117.488 73.0605 117.065 73.2466C116.643 73.4327 116.308 73.774 116.13 74.2C115.818 75.0822 115.749 76.032 115.93 76.95L117.08 87.89C117.3 90 117.32 92.58 115.53 93.72C113.74 94.86 111.62 93.87 110.14 92.58C107.814 90.3426 106.131 87.5207 105.27 84.41C103.315 78.1075 103.034 71.4044 104.456 64.9605C105.878 58.5167 108.954 52.5542 113.38 47.66C115.042 45.8026 116.99 44.2226 119.15 42.98C121.411 41.8063 123.84 40.9867 126.35 40.55C128.596 40.0198 130.919 39.8911 133.21 40.17C136.287 40.7294 139.085 42.3116 141.15 44.66C142.67 46.32 144.15 51.27 145.75 52.08C144.56 55.1 142.68 57.77 142.63 61.18Z" fill="url(#paint14_linear)"/>
<path d="M118.83 18.24C117.364 17.897 115.834 17.9418 114.39 18.37C111.57 19.37 109.99 22.32 108.97 25.13C107.95 27.94 107.11 31.01 104.89 33C102.98 34.72 100.27 35.41 98.55 37.31C96.55 39.52 96.36 42.79 96.55 45.76C96.55 47.9883 97.1773 50.1715 98.36 52.06C99.42 53.5 101.05 54.5 101.88 56.06C102.82 57.85 103.14 60.62 105.16 60.74C106.002 60.6974 106.798 60.3406 107.39 59.74C109.432 57.9751 110.971 55.7016 111.85 53.15C112.34 51.73 112.66 50.15 113.74 49.15C114.82 48.15 117.02 48.09 117.51 49.51C117.648 50.4135 117.508 51.3374 117.11 52.16C116.85 53.04 116.96 54.23 117.82 54.53C119.44 52.03 120.35 49.09 122.27 46.82C123.359 45.5433 124.727 44.5329 126.267 43.8661C127.807 43.1993 129.479 42.8937 131.156 42.9729C132.832 43.052 134.469 43.5138 135.939 44.3227C137.41 45.1317 138.676 46.2664 139.64 47.64C140.64 49.07 141.32 50.77 142.72 51.79C144.039 52.5936 145.546 53.0351 147.09 53.07C150.53 53.41 154.17 53.54 157.27 52.01C160.37 50.48 162.66 46.77 161.47 43.52C160.53 40.97 157.85 39.52 155.25 38.7C152.65 37.88 149.87 37.47 147.58 36.01C144.47 34.01 142.81 30.45 141 27.22C139.19 23.99 136.74 20.67 133.12 19.91C131.642 19.68 130.138 19.68 128.66 19.91C127.218 20.2159 125.742 20.3302 124.27 20.25C122.47 19.88 120.73 18.66 118.83 18.24Z" fill="#2E2E3F"/>
<path d="M118.83 100.41C121.114 111.978 121.787 123.807 120.83 135.56C120.04 145.34 118.16 155.05 118.23 164.86C118.377 167.619 118.293 170.385 117.98 173.13C117.54 175.85 99.3 174.81 96.64 174.78C92.16 174.72 97.84 180.78 94.47 177.86C89.18 173.25 86.82 166.06 86.17 159.08C85.24 149.13 87.28 139.17 89.5 129.42C91.04 122.67 92.68 115.9 95.44 109.55C98.86 101.7 104.27 91.71 106.01 83.32C106.26 82.09 102.01 77.62 103.84 77.68C105.03 77.68 104.47 79.53 104.68 80.45C105.055 81.8509 105.773 83.1363 106.77 84.19C108.165 85.8187 110.054 86.9461 112.15 87.4C113.5 87.65 115.04 87.59 116.02 88.55C117.21 89.71 117.02 91.97 117.36 93.55C117.85 95.81 118.37 98.1 118.83 100.41Z" fill="#F2F2F2"/>
<path d="M78.34 70.66C73.5 72.88 69.34 76.32 65.41 79.92C62.1571 82.8513 59.0847 85.977 56.21 89.28C53.67 92.28 51.35 95.39 48.67 98.22C44.97 102.11 40.35 105.87 39.62 111.22C39.3966 114.01 39.8852 116.811 41.04 119.36C41.9917 121.963 43.3967 124.377 45.19 126.49C47.4655 129.007 50.4674 130.755 53.78 131.49C54.8182 131.761 55.902 131.808 56.96 131.63C58.45 131.206 59.8199 130.439 60.96 129.39C63.5668 127.417 66.0359 125.269 68.35 122.96C70.71 120.51 72.71 117.72 75.01 115.21C77.01 113.05 79.14 111.1 81.14 108.98C83.53 106.44 85.66 103.67 87.79 100.9C90.8039 97.1429 93.5665 93.1909 96.06 89.07C98.1426 85.4332 99.797 81.5675 100.99 77.55C101.76 74.93 102.99 71.61 100.33 69.72C94.68 65.74 83.97 68.03 78.34 70.66Z" fill="#FD9E82"/>
<path d="M78.34 70.66C73.5 72.88 69.34 76.32 65.41 79.92C62.1571 82.8513 59.0847 85.977 56.21 89.28C53.67 92.28 51.35 95.39 48.67 98.22C44.97 102.11 40.35 105.87 39.62 111.22C39.3966 114.01 39.8852 116.811 41.04 119.36C41.9917 121.963 43.3967 124.377 45.19 126.49C47.4655 129.007 50.4674 130.755 53.78 131.49C54.8182 131.761 55.902 131.808 56.96 131.63C58.45 131.206 59.8199 130.439 60.96 129.39C63.5668 127.417 66.0359 125.269 68.35 122.96C70.71 120.51 72.71 117.72 75.01 115.21C77.01 113.05 79.14 111.1 81.14 108.98C83.53 106.44 85.66 103.67 87.79 100.9C90.8039 97.1429 93.5665 93.1909 96.06 89.07C98.1426 85.4332 99.797 81.5675 100.99 77.55C101.76 74.93 102.99 71.61 100.33 69.72C94.68 65.74 83.97 68.03 78.34 70.66Z" fill="#FD9E82"/>
<path d="M162.17 116.32C161.089 117.003 160.316 118.08 160.015 119.324C159.715 120.567 159.91 121.878 160.56 122.98C162.239 125.9 164.491 128.452 167.18 130.48C168.78 132.2 172.38 132.48 175.58 130.6C178.78 128.72 194.05 120.41 201.68 114.98C202.24 114.595 202.715 114.1 203.077 113.526C203.44 112.951 203.681 112.309 203.787 111.638C203.892 110.967 203.86 110.282 203.692 109.623C203.525 108.965 203.224 108.348 202.81 107.81L196.42 99.81C195.663 98.8632 194.583 98.2294 193.387 98.0301C192.191 97.8307 190.963 98.08 189.94 98.73L162.17 116.32Z" fill="#3D3D54"/>
<path d="M60.68 202.51C61.8081 206.652 63.8096 210.505 66.55 213.81C69.55 217.31 73.63 219.81 77.55 222.19L94.06 232.24C96.4812 233.632 98.7974 235.2 100.99 236.93C106.4 241.39 109.99 247.61 113.48 253.69L137.56 295.66C138.78 297.81 140.49 300.24 142.96 300.16C144.29 299.987 145.541 299.431 146.56 298.56C149.65 296.39 152.97 293.92 153.89 290.25C154.53 287.69 153.89 285 153.12 282.46C149.42 269.95 143.62 258.17 137.8 246.46C128.553 227.927 119.17 209.43 109.65 190.97C107.12 186.07 104.05 178.44 99.87 174.84C99.87 174.84 61.03 172.48 60.05 176.33C57.8673 184.951 58.0852 194.004 60.68 202.51Z" fill="#525263"/>
<path d="M60.68 202.51C61.8081 206.652 63.8096 210.505 66.55 213.81C69.55 217.31 73.63 219.81 77.55 222.19L94.06 232.24C96.4812 233.632 98.7974 235.2 100.99 236.93C106.4 241.39 109.99 247.61 113.48 253.69L137.56 295.66C138.78 297.81 140.49 300.24 142.96 300.16C144.29 299.987 145.541 299.431 146.56 298.56C149.65 296.39 152.97 293.92 153.89 290.25C154.53 287.69 153.89 285 153.12 282.46C149.42 269.95 143.62 258.17 137.8 246.46C128.553 227.927 119.17 209.43 109.65 190.97C107.12 186.07 104.05 178.44 99.87 174.84C99.87 174.84 61.03 172.48 60.05 176.33C57.8673 184.951 58.0852 194.004 60.68 202.51Z" fill="url(#paint15_linear)"/>
<path d="M104.36 65.18L98.87 67.35L95.54 85.98L106.61 85.48L104.36 65.18Z" fill="#FD9E82"/>
<path d="M115.98 85.03C115.98 85.87 115.98 86.71 115.98 87.55C115.98 87.9142 116 88.2781 116.04 88.64C116.1 89.0075 116.18 89.3714 116.28 89.73L117.66 95.17L118.23 86.33C119.86 87.12 121.53 87.84 123.23 88.47C123.102 87.1452 122.764 85.8491 122.23 84.63C121.23 82.07 120.31 79.5 119.23 76.99C118.978 76.3196 118.612 75.6972 118.15 75.15C117.917 74.8786 117.624 74.6651 117.294 74.5263C116.964 74.3875 116.607 74.3271 116.25 74.35C115.25 74.77 115.88 78.52 115.89 79.35L115.98 85.03Z" fill="#FD9E82"/>
<path d="M196.88 111.94L176.56 124.79C176.204 124.982 175.793 125.047 175.395 124.975C174.997 124.902 174.635 124.696 174.37 124.39L167.91 117.11C167.777 116.986 167.674 116.833 167.609 116.664C167.544 116.494 167.518 116.312 167.533 116.131C167.549 115.95 167.605 115.775 167.698 115.619C167.791 115.463 167.918 115.33 168.07 115.23L188.43 102.39C188.786 102.198 189.197 102.133 189.595 102.205C189.993 102.278 190.355 102.484 190.62 102.79L197.08 110.06C197.211 110.187 197.311 110.342 197.373 110.513C197.435 110.684 197.457 110.868 197.438 111.049C197.419 111.23 197.359 111.404 197.262 111.559C197.165 111.713 197.035 111.844 196.88 111.94Z" fill="#FD9E82"/>
<defs>
<linearGradient id="paint0_linear" x1="106.47" y1="119.2" x2="147.51" y2="118.57" gradientUnits="userSpaceOnUse">
<stop offset="0.01"/>
<stop offset="0.13" stop-opacity="0.69"/>
<stop offset="1" stop-opacity="0"/>
</linearGradient>
<linearGradient id="paint1_linear" x1="116.5" y1="141" x2="177.988" y2="125.859" gradientUnits="userSpaceOnUse">
<stop stop-color="#E5C5D5"/>
<stop offset="0.42" stop-color="#EAD4D1"/>
<stop offset="1" stop-color="#F0E9CB"/>
</linearGradient>
<linearGradient id="paint2_linear" x1="76785.1" y1="11680.8" x2="38005.1" y2="71441.1" gradientUnits="userSpaceOnUse">
<stop offset="0.01" stop-color="#DE708B"/>
<stop offset="0.13" stop-color="#CB5272"/>
<stop offset="1" stop-color="#FDBB9F" stop-opacity="0.33"/>
</linearGradient>
<linearGradient id="paint3_linear" x1="20902.6" y1="23321.6" x2="11738.8" y2="29272.1" gradientUnits="userSpaceOnUse">
<stop offset="0.01"/>
<stop offset="0.13" stop-opacity="0.69"/>
<stop offset="1" stop-opacity="0"/>
</linearGradient>
<linearGradient id="paint4_linear" x1="4739.65" y1="9639.43" x2="8899.12" y2="11117.1" gradientUnits="userSpaceOnUse">
<stop offset="0.01"/>
<stop offset="0.13" stop-opacity="0.69"/>
<stop offset="1" stop-opacity="0"/>
</linearGradient>
<linearGradient id="paint5_linear" x1="21458.1" y1="27524.7" x2="30350.8" y2="27524.7" gradientUnits="userSpaceOnUse">
<stop offset="0.01"/>
<stop offset="0.13" stop-opacity="0.69"/>
<stop offset="1" stop-opacity="0"/>
</linearGradient>
<linearGradient id="paint6_linear" x1="10200.4" y1="9784.23" x2="9372.23" y2="9549.54" gradientUnits="userSpaceOnUse">
<stop offset="0.01"/>
<stop offset="0.13" stop-opacity="0.69"/>
<stop offset="1" stop-opacity="0"/>
</linearGradient>
<linearGradient id="paint7_linear" x1="124" y1="294" x2="135.999" y2="294.114" gradientUnits="userSpaceOnUse">
<stop stop-color="#E5C5D5"/>
<stop offset="0.42" stop-color="#EAD4D1"/>
<stop offset="1" stop-color="#F0E9CB"/>
</linearGradient>
<linearGradient id="paint8_linear" x1="141.5" y1="305.5" x2="158.496" y2="303.954" gradientUnits="userSpaceOnUse">
<stop stop-color="#E5C5D5"/>
<stop offset="0.42" stop-color="#EAD4D1"/>
<stop offset="1" stop-color="#F0E9CB"/>
</linearGradient>
<linearGradient id="paint9_linear" x1="8210.75" y1="13898.3" x2="8932.75" y2="13898.3" gradientUnits="userSpaceOnUse">
<stop offset="0.01"/>
<stop offset="0.13" stop-opacity="0.69"/>
<stop offset="1" stop-opacity="0"/>
</linearGradient>
<linearGradient id="paint10_linear" x1="25" y1="181" x2="56.6149" y2="187.136" gradientUnits="userSpaceOnUse">
<stop stop-color="#E5C5D5"/>
<stop offset="0.42" stop-color="#EAD4D1"/>
<stop offset="1" stop-color="#F0E9CB"/>
</linearGradient>
<linearGradient id="paint11_linear" x1="1401.3" y1="1693.47" x2="1682.23" y2="1769.03" gradientUnits="userSpaceOnUse">
<stop offset="0.01"/>
<stop offset="0.13" stop-opacity="0.69"/>
<stop offset="1" stop-opacity="0"/>
</linearGradient>
<linearGradient id="paint12_linear" x1="3404.11" y1="3790.41" x2="2698.43" y2="3867.62" gradientUnits="userSpaceOnUse">
<stop offset="0.01"/>
<stop offset="0.13" stop-opacity="0.69"/>
<stop offset="1" stop-opacity="0"/>
</linearGradient>
<linearGradient id="paint13_linear" x1="4258.62" y1="10959.6" x2="5675.19" y2="10945" gradientUnits="userSpaceOnUse">
<stop offset="0.01"/>
<stop offset="0.13" stop-opacity="0.69"/>
<stop offset="1" stop-opacity="0"/>
</linearGradient>
<linearGradient id="paint14_linear" x1="107.5" y1="70" x2="138.385" y2="66.0927" gradientUnits="userSpaceOnUse">
<stop stop-color="#E5C5D5"/>
<stop offset="0.42" stop-color="#EAD4D1"/>
<stop offset="1" stop-color="#F0E9CB"/>
</linearGradient>
<linearGradient id="paint15_linear" x1="23144.2" y1="31526" x2="30416.5" y2="29206.6" gradientUnits="userSpaceOnUse">
<stop offset="0.01"/>
<stop offset="0.13" stop-opacity="0.69"/>
<stop offset="1" stop-opacity="0"/>
</linearGradient>
</defs>
</svg>
