<?xml version="1.0" encoding="UTF-8" standalone="no"?>
<!-- Created with Inkscape (http://www.inkscape.org/) -->

<svg
   xmlns:dc="http://purl.org/dc/elements/1.1/"
   xmlns:cc="http://creativecommons.org/ns#"
   xmlns:rdf="http://www.w3.org/1999/02/22-rdf-syntax-ns#"
   xmlns:svg="http://www.w3.org/2000/svg"
   xmlns="http://www.w3.org/2000/svg"
   xmlns:sodipodi="http://sodipodi.sourceforge.net/DTD/sodipodi-0.dtd"
   xmlns:inkscape="http://www.inkscape.org/namespaces/inkscape"
   width="97.466675mm"
   height="97.466675mm"
   viewBox="0 0 345.35436 345.35436"
   id="svg2"
   version="1.1"
   inkscape:version="0.91 r13725"
   sodipodi:docname="favicon.svg"
   inkscape:export-filename="/home/mj/Repositories/cict-online/raw/favicon.png"
   inkscape:export-xdpi="13.030094"
   inkscape:export-ydpi="13.030094">
  <defs
     id="defs4">
    <clipPath
       clipPathUnits="userSpaceOnUse"
       id="clipPath4157">
      <circle
         r="215.21606"
         cy="136.71587"
         cx="-77.617783"
         id="circle4159"
         style="opacity:1;fill:#382cba;fill-opacity:1;stroke:none;stroke-width:10.60000038;stroke-linecap:butt;stroke-linejoin:miter;stroke-miterlimit:4;stroke-dasharray:none;stroke-opacity:1" />
    </clipPath>
    <inkscape:path-effect
       bendpath-nodetypes="cc"
       vertical="false"
       scale_y_rel="false"
       prop_scale="1"
       bendpath="m 3204.1356,-1458.6874 c 40.293,-11.9748 81.2044,-12.8171 122.8747,0"
       is_visible="true"
       id="path-effect6162-3-5-6-7-1-2-5-2"
       effect="bend_path" />
    <inkscape:path-effect
       bendpath-nodetypes="cc"
       vertical="false"
       scale_y_rel="false"
       prop_scale="1"
       bendpath="m 3204.1356,-1458.6874 c 40.293,-11.9748 81.2044,-12.8171 122.8747,0"
       is_visible="true"
       id="path-effect6162-2-4-9-2-4-6-4-2-7"
       effect="bend_path" />
    <inkscape:path-effect
       bendpath-nodetypes="cc"
       vertical="false"
       scale_y_rel="false"
       prop_scale="1"
       bendpath="m 3248.487,-1459.6625 c 9.5663,-1.2251 19.7431,-1.3309 30.6485,0"
       is_visible="true"
       id="path-effect6267-6-4-0-5-6-6-2-5"
       effect="bend_path" />
  </defs>
  <sodipodi:namedview
     id="base"
     pagecolor="#ffffff"
     bordercolor="#666666"
     borderopacity="1.0"
     inkscape:pageopacity="0.0"
     inkscape:pageshadow="2"
     inkscape:zoom="0.50060693"
     inkscape:cx="-124.47667"
     inkscape:cy="41.187908"
     inkscape:document-units="px"
     inkscape:current-layer="layer1"
     showgrid="false"
     inkscape:snap-bbox="true"
     inkscape:bbox-paths="true"
     inkscape:bbox-nodes="true"
     inkscape:snap-bbox-edge-midpoints="true"
     inkscape:snap-bbox-midpoints="true"
     inkscape:object-paths="true"
     inkscape:snap-intersection-paths="true"
     inkscape:object-nodes="true"
     inkscape:snap-smooth-nodes="true"
     inkscape:snap-midpoints="true"
     inkscape:snap-object-midpoints="true"
     inkscape:snap-center="true"
     inkscape:snap-page="true"
     showguides="true"
     inkscape:guide-bbox="true"
     inkscape:snap-global="false"
     fit-margin-top="0"
     fit-margin-left="0"
     fit-margin-right="0"
     fit-margin-bottom="0"
     inkscape:window-width="1301"
     inkscape:window-height="744"
     inkscape:window-x="65"
     inkscape:window-y="24"
     inkscape:window-maximized="1">
    <sodipodi:guide
       position="172.67718,345.35436"
       orientation="1,0"
       id="guide4312" />
  </sodipodi:namedview>
  <metadata
     id="metadata7">
    <rdf:RDF>
      <cc:Work
         rdf:about="">
        <dc:format>image/svg+xml</dc:format>
        <dc:type
           rdf:resource="http://purl.org/dc/dcmitype/StillImage" />
        <dc:title />
      </cc:Work>
    </rdf:RDF>
  </metadata>
  <g
     inkscape:label="Layer 1"
     inkscape:groupmode="layer"
     id="layer1"
     transform="translate(-195.94171,-258.33769)">
    <g
       id="g5724-65-3-3-3-4-9-3"
       transform="matrix(2.1354591,0,0,2.1354591,-6605.7455,3642.8443)"
       style="fill:#f48128;fill-opacity:1"
       inkscape:export-xdpi="8.5671463"
       inkscape:export-ydpi="8.5671463">
      <g
         transform="translate(2.2236827e-7,-10)"
         id="g5398-1-4-8-6-9-8-6"
         style="fill:#f48128;fill-opacity:1">
        <g
           id="g5390-91-8-6-1-8-6-7"
           transform="matrix(0.8530396,0,0,0.8530396,480.07309,-219.49056)"
           style="fill:#f48128;fill-opacity:1">
          <path
             id="path4955-6-0-37-4-4-6-4-7-7-5"
             d="m 3251.0932,-1575.0148 c -32.2087,5.9693 -58.6203,31.2963 -65.349,64.1933 -1.2672,6.1953 -1.4967,8.74 -1.4967,16.5996 0,7.8597 0.2295,10.4023 1.4967,16.5976 7.5096,36.715 39.668,64.1155 76.8727,65.5008 14.7481,0.5491 27.8431,-2.2444 40.62,-8.6678 17.9361,-9.0171 31.7643,-24.1374 39.194,-42.3368 l -2.4944,-0.06 -3.0305,-0.048 c -1.667,-0.026 -4.7323,-0.1021 -6.8116,-0.1683 l -3.7809,-0.1185 -0.8481,1.5506 c -7.2553,13.2619 -18.8643,23.796 -32.7047,29.6782 -5.7504,2.444 -11.4387,3.9809 -18.0879,4.8889 -2.1742,0.2969 -11.1995,0.5481 -13.2427,0.3679 -9.81,-0.8652 -17.81,-3.1445 -26.18,-7.4559 -6.6798,-3.4408 -11.8273,-7.2851 -17.3209,-12.933 -5.0395,-5.181 -8.6402,-10.2407 -11.8294,-16.6288 -7.285,-14.5925 -9.0397,-30.9664 -5.0281,-46.9285 2.4519,-9.756 7.337,-19.1462 14.1178,-27.1361 3.1869,-3.755 8.6705,-8.6718 12.9351,-11.6006 5.3245,-3.6567 11.8184,-6.8216 17.9384,-8.7426 1.2774,-0.401 2.3217,-0.7933 2.3217,-0.8709 0,-0.2537 2.397,-13.1558 2.4549,-13.2137 l 0.2536,-2.4673 z"
             style="fill:#f48128;fill-opacity:1"
             inkscape:connector-curvature="0" />
          <path
             id="path4951-4-1-6-5-5-1-6-2-6-3"
             transform="translate(1611.1882,-1102.9208)"
             d="m 1685.748,-361.33984 -1.2617,1.1289 c -5.207,4.6551 -9.7095,7.37878 -15.4668,9.35938 -4.2225,1.4526 -7.8877,2.11859 -12.5507,2.27929 -3.7653,0.1298 -6.4053,-0.0876 -10.125,-0.83398 -5.1628,-1.03598 -10.6976,-3.35403 -15.0352,-6.24609 l -15.1016,13.22265 c 1.3379,1.03912 3.0219,2.2812 4.2285,3.08203 8.538,5.6664 18.5162,9.20335 28.7344,10.18555 l 0,-0.002 c 2.9702,0.2852 9.1734,0.24482 12.2676,-0.0801 14.4151,-1.5138 27.5875,-7.80897 37.8262,-18.07617 3.6736,-3.6838 6.2983,-7.00466 9.0215,-11.41016 l 1.2597,-2.03515 -1.6328,0 c -0.8976,-0.002 -6.2522,-0.13247 -11.8984,-0.28907 l -10.2657,-0.28515 z"
             style="fill:#f48128;fill-opacity:1"
             inkscape:connector-curvature="0" />
          <path
             sodipodi:nodetypes="ccccccc"
             inkscape:connector-curvature="0"
             style="fill:#f48128;fill-opacity:1"
             d="m 3220.5916,-1452.0176 c -1.5913,-1.9206 -4.3745,-5.3475 -6.1849,-7.6154 -2.7515,-3.4467 -3.3023,-4.1215 -3.3023,-4.1215 l 28.9047,-23.4713 12.7482,16.1309 -29.1799,22.4396 c 0,0 -0.1432,0.069 -2.9858,-3.3623 z"
             id="path4949-6-1-4-9-7-2-1-3-7-5" />
          <path
             id="path4947-4-7-6-5-3-9-4-3-1-6"
             transform="translate(1611.1882,-1102.9208)"
             d="m 1636.1191,-450.84766 c -0.2076,-0.2392 -6.7577,2.44852 -9.6953,3.97852 -18.8023,9.7932 -30.9601,27.50346 -33.5332,48.84766 -0.3784,3.1377 -0.3234,10.99666 0.1,14.23046 0.8356,6.38644 2.55,12.48306 5.0625,18.08204 l 16.1973,-12.4668 c -2.5335,-7.78185 -2.7678,-15.98041 -0.6777,-23.99805 2.5803,-9.8985 8.483,-18.39814 16.8593,-24.27344 0.7918,-0.5553 1.4842,-1.19196 1.5372,-1.41406 0.2005,-0.8397 4.1903,-22.93933 4.1503,-22.98633 z"
             style="fill:#f48128;fill-opacity:1"
             inkscape:connector-curvature="0" />
          <path
             sodipodi:nodetypes="ssccccsccccsccssccs"
             inkscape:connector-curvature="0"
             style="fill:#f48128;fill-opacity:1"
             d="m 3317.7774,-1484.9626 c -5.2659,-0.1508 -9.5899,-0.2946 -9.6089,-0.3196 -0.019,-0.025 0.1298,-0.9794 0.331,-2.1209 0.8128,-4.6149 0.6903,-10.5234 -0.3215,-15.5167 -0.6664,-3.2878 -2.4298,-8.5985 -2.8553,-8.5985 -5.1727,4.0167 -9.5115,7.0996 -14.9174,11.4717 -0.1402,0.1107 -2.2467,-2.5655 -6.7544,-8.1172 -3.7958,-4.6748 -7.0401,-8.674 -7.0693,-8.7599 -0.039,-0.1161 13.3219,-10.9494 14.5835,-11.8423 0.2898,-0.2051 -0.3421,-0.689 -2.9512,-2.2599 -5.9156,-3.562 -12.2376,-5.5128 -19.4271,-5.995 -1.4648,-0.098 -2.6964,-0.2118 -2.7371,-0.2525 -0.1081,-0.1081 3.3922,-19.088 3.5492,-19.245 0.2026,-0.2027 4.848,0.2942 7.8423,0.8389 5.8713,1.0679 10.8999,2.7473 16.5051,5.5121 14.6763,7.2392 25.9444,20.033 31.3006,35.5388 2.5331,7.3333 3.557,14.1814 3.3152,22.1746 -0.1529,5.0572 -0.4652,7.7018 -0.9138,7.7402 -0.1632,0.014 -4.605,-0.098 -9.8709,-0.2488 z"
             id="path4927-9-0-20-0-4-4-3-7-1-2" />
        </g>
      </g>
      <path
         inkscape:connector-curvature="0"
         id="path5510-0-4-9-1-6-0-9"
         d="m 3265.998,-1534.041 c -16.2924,0 -29.6562,13.3638 -29.6562,29.6562 0,16.2925 13.3638,29.6563 29.6562,29.6563 16.2925,0 29.6563,-13.3638 29.6563,-29.6563 0,-16.2924 -13.3638,-29.6562 -29.6563,-29.6562 z m 0,14.5527 c 8.4281,0 15.1036,6.6755 15.1036,15.1035 0,8.4281 -6.6755,15.1055 -15.1036,15.1055 -8.428,0 -15.1035,-6.6774 -15.1035,-15.1055 0,-8.428 6.6755,-15.1035 15.1035,-15.1035 z"
         style="color:#000000;font-style:normal;font-variant:normal;font-weight:normal;font-stretch:normal;font-size:medium;line-height:normal;font-family:sans-serif;text-indent:0;text-align:start;text-decoration:none;text-decoration-line:none;text-decoration-style:solid;text-decoration-color:#000000;letter-spacing:normal;word-spacing:normal;text-transform:none;direction:ltr;block-progression:tb;writing-mode:lr-tb;baseline-shift:baseline;text-anchor:start;white-space:normal;clip-rule:nonzero;display:inline;overflow:visible;visibility:visible;opacity:1;isolation:auto;mix-blend-mode:normal;color-interpolation:sRGB;color-interpolation-filters:linearRGB;solid-color:#000000;solid-opacity:1;fill:#f48128;fill-opacity:1;fill-rule:nonzero;stroke:none;stroke-width:14.55187416;stroke-linecap:round;stroke-linejoin:round;stroke-miterlimit:4;stroke-dasharray:none;stroke-dashoffset:0;stroke-opacity:1;color-rendering:auto;image-rendering:auto;shape-rendering:auto;text-rendering:auto;enable-background:accumulate" />
    </g>
  </g>
</svg>
