<?xml version="1.0" encoding="UTF-8" standalone="no"?>
<svg
   xmlns:dc="http://purl.org/dc/elements/1.1/"
   xmlns:cc="http://creativecommons.org/ns#"
   xmlns:rdf="http://www.w3.org/1999/02/22-rdf-syntax-ns#"
   xmlns:svg="http://www.w3.org/2000/svg"
   xmlns="http://www.w3.org/2000/svg"
   xmlns:sodipodi="http://sodipodi.sourceforge.net/DTD/sodipodi-0.dtd"
   xmlns:inkscape="http://www.inkscape.org/namespaces/inkscape"
   inkscape:version="1.0 (4035a4fb49, 2020-05-01)"
   sodipodi:docname="admission-light.svg"
   height="80"
   width="80"
   id="svg26"
   xml:space="preserve"
   viewBox="0 0 80 80"
   y="0px"
   x="0px"
   version="1.1"><sodipodi:namedview
     inkscape:current-layer="svg26"
     inkscape:window-maximized="1"
     inkscape:window-y="27"
     inkscape:window-x="0"
     inkscape:cy="34.441853"
     inkscape:cx="61.13523"
     inkscape:zoom="5.3875"
     showgrid="false"
     id="namedview6"
     inkscape:window-height="1016"
     inkscape:window-width="1920"
     inkscape:pageshadow="2"
     inkscape:pageopacity="0"
     guidetolerance="10"
     gridtolerance="10"
     objecttolerance="10"
     borderopacity="1"
     bordercolor="#666666"
     pagecolor="#ffffff" /><metadata
     id="metadata32"><rdf:RDF><cc:Work
         rdf:about=""><dc:format>image/svg+xml</dc:format><dc:type
           rdf:resource="http://purl.org/dc/dcmitype/StillImage" /><dc:title></dc:title></cc:Work></rdf:RDF></metadata><defs
     id="defs30" /><path
     style="fill:#ffffff"
     d="M 3.015625 0 C 2.463625 0 2.015625 0.447 2.015625 1 L 2.015625 70.5 L 1 70.5 C 0.448 70.5 0 70.947 0 71.5 L 0 79 C 0 79.553 0.448 80 1 80 L 79 80 C 79.552 80 80 79.553 80 79 L 80 71.5 C 80 70.947 79.552 70.5 79 70.5 L 78 70.5 L 78 1 C 78 0.447 77.552 0 77 0 L 3.015625 0 z M 4.015625 2 L 76 2 L 76 70.5 L 71.419922 70.5 L 71.419922 7.75 C 71.419922 7.197 70.971922 6.75 70.419922 6.75 L 9.5976562 6.75 C 9.0456563 6.75 8.5976562 7.197 8.5976562 7.75 L 8.5976562 70.5 L 4.015625 70.5 L 4.015625 2 z M 10.597656 8.75 L 69.419922 8.75 L 69.419922 70.5 L 65.271484 70.5 C 65.414484 70.14 65.5 69.750844 65.5 69.339844 L 65.5 66.6875 C 65.5 64.9445 64.082844 63.527344 62.339844 63.527344 L 35.285156 63.527344 C 33.542156 63.527344 32.125 64.9455 32.125 66.6875 L 32.125 69.337891 C 32.125 69.748891 32.209516 70.138047 32.353516 70.498047 L 10.597656 70.498047 L 10.597656 8.75 z M 40.001953 16.666016 C 28.99109 16.669116 19.693609 23.659407 18.671875 32.951172 L 18.587891 33.720703 L 61.412109 33.720703 L 61.324219 32.951172 C 60.302817 23.662346 51.009331 16.673485 40.001953 16.666016 z M 40.001953 18.052734 C 40.291192 18.052951 40.575277 18.075598 40.861328 18.085938 C 44.383125 18.510517 47.101562 21.49232 47.101562 25.130859 C 47.101562 29.062014 43.929218 32.236328 39.998047 32.236328 C 36.066891 32.236328 32.896484 29.062014 32.896484 25.130859 C 32.896484 21.493595 35.613201 18.512162 39.132812 18.085938 C 39.423569 18.075377 39.707912 18.052824 40.001953 18.052734 z M 34.558594 18.681641 C 32.723679 20.231631 31.554687 22.546818 31.554688 25.130859 C 31.554688 27.447313 32.493608 29.547164 34.009766 31.074219 L 23.484375 25.423828 C 26.069841 22.197813 29.966067 19.768992 34.558594 18.681641 z M 45.433594 18.681641 C 50.029346 19.768626 53.927828 22.197548 56.513672 25.425781 L 45.974609 31.087891 C 47.497925 29.559836 48.441406 27.453512 48.441406 25.130859 C 48.441406 22.546262 47.269192 20.231634 45.433594 18.681641 z M 22.585938 26.658203 L 33.158203 32.337891 L 20.3125 32.337891 C 20.65967 30.304767 21.446468 28.387331 22.585938 26.658203 z M 57.412109 26.660156 C 58.550698 28.388835 59.336548 30.305398 59.683594 32.337891 L 46.849609 32.337891 L 57.412109 26.660156 z M 18.539062 38.457031 A 1.0001 1.0001 0 1 0 18.539062 40.457031 L 60.861328 40.457031 A 1.0001 1.0001 0 1 0 60.861328 38.457031 L 18.539062 38.457031 z M 20.083984 45.490234 C 19.531984 45.490234 19.083984 45.937234 19.083984 46.490234 L 19.083984 54.333984 C 19.083984 54.886984 19.531984 55.333984 20.083984 55.333984 L 27.927734 55.333984 C 28.479734 55.333984 28.927734 54.886984 28.927734 54.333984 L 28.927734 46.490234 C 28.927734 45.938234 28.479734 45.490234 27.927734 45.490234 L 20.083984 45.490234 z M 36.173828 45.490234 C 35.621828 45.490234 35.173828 45.937234 35.173828 46.490234 L 35.173828 54.333984 C 35.173828 54.886984 35.621828 55.333984 36.173828 55.333984 L 44.015625 55.333984 C 44.567625 55.333984 45.015625 54.886984 45.015625 54.333984 L 45.015625 46.490234 C 45.015625 45.938234 44.567625 45.490234 44.015625 45.490234 L 36.173828 45.490234 z M 52.261719 45.490234 C 51.709719 45.490234 51.261719 45.937234 51.261719 46.490234 L 51.261719 54.333984 C 51.261719 54.886984 51.709719 55.333984 52.261719 55.333984 L 60.105469 55.333984 C 60.657469 55.333984 61.105469 54.886984 61.105469 54.333984 L 61.105469 46.490234 C 61.105469 45.938234 60.657469 45.490234 60.105469 45.490234 L 52.261719 45.490234 z M 21.083984 47.490234 L 26.927734 47.490234 L 26.927734 53.333984 L 21.083984 53.333984 L 21.083984 47.490234 z M 37.173828 47.490234 L 43.015625 47.490234 L 43.015625 53.333984 L 37.173828 53.333984 L 37.173828 47.490234 z M 53.261719 47.490234 L 59.105469 47.490234 L 59.105469 53.333984 L 53.261719 53.333984 L 53.261719 47.490234 z M 35.285156 65.527344 L 62.339844 65.527344 C 62.979844 65.527344 63.501953 66.0485 63.501953 66.6875 L 63.501953 69.339844 C 63.501953 69.980844 62.979844 70.5 62.339844 70.5 L 35.285156 70.5 C 34.645156 70.5 34.125 69.979844 34.125 69.339844 L 34.125 66.6875 C 34.125 66.0475 34.645156 65.527344 35.285156 65.527344 z M 2 72.5 L 78 72.5 L 78 78 L 2 78 L 2 72.5 z "
     id="path20" /></svg>
