<?xml version="1.0" encoding="UTF-8" standalone="no"?>
<!-- Created with Inkscape (http://www.inkscape.org/) -->

<svg
   xmlns:dc="http://purl.org/dc/elements/1.1/"
   xmlns:cc="http://creativecommons.org/ns#"
   xmlns:rdf="http://www.w3.org/1999/02/22-rdf-syntax-ns#"
   xmlns:svg="http://www.w3.org/2000/svg"
   xmlns="http://www.w3.org/2000/svg"
   xmlns:sodipodi="http://sodipodi.sourceforge.net/DTD/sodipodi-0.dtd"
   xmlns:inkscape="http://www.inkscape.org/namespaces/inkscape"
   width="47.813984mm"
   height="47.813984mm"
   viewBox="0 0 47.813984 47.813984"
   version="1.1"
   id="svg3925"
   inkscape:version="0.92.2 (5c3e80d, 2017-08-06)"
   sodipodi:docname="blis-icon.svg">
  <defs
     id="defs3919" />
  <sodipodi:namedview
     id="base"
     pagecolor="#ffffff"
     bordercolor="#666666"
     borderopacity="1.0"
     inkscape:pageopacity="0.0"
     inkscape:pageshadow="2"
     inkscape:zoom="0.49497475"
     inkscape:cx="-58.135289"
     inkscape:cy="-152.342"
     inkscape:document-units="mm"
     inkscape:current-layer="layer1"
     showgrid="false"
     fit-margin-top="0"
     fit-margin-left="0"
     fit-margin-right="0"
     fit-margin-bottom="0"
     inkscape:window-width="1366"
     inkscape:window-height="699"
     inkscape:window-x="0"
     inkscape:window-y="33"
     inkscape:window-maximized="1" />
  <metadata
     id="metadata3922">
    <rdf:RDF>
      <cc:Work
         rdf:about="">
        <dc:format>image/svg+xml</dc:format>
        <dc:type
           rdf:resource="http://purl.org/dc/dcmitype/StillImage" />
        <dc:title></dc:title>
      </cc:Work>
    </rdf:RDF>
  </metadata>
  <g
     inkscape:label="Layer 1"
     inkscape:groupmode="layer"
     id="layer1"
     transform="translate(-118.96801,-43.283485)">
    <g
       transform="translate(2.5227413,-63.731492)"
       id="g1928">
      <g
         transform="translate(75.739851,-87.903417)"
         id="g1224">
        <g
           id="g1182"
           transform="translate(4.543582,-10.557146)">
          <path
             style="stroke:#000000;stroke-width:0.26458332;stroke-opacity:1"
             id="path4-6"
             d="m 70.79494,240.08529 h -0.864923 v -14.5632 c 0,-0.14631 -0.118268,-0.26458 -0.264583,-0.26458 h -2.998258 v -3.21019 c 0,-0.14631 -0.118269,-0.26458 -0.264584,-0.26458 h -3.75285 c -0.146314,0 -0.264583,0.11827 -0.264583,0.26458 v 0.52917 h -4.280694 v -0.52917 c 0,-0.14631 -0.118268,-0.26458 -0.264583,-0.26458 h -3.223683 c -0.146315,0 -0.264584,0.11827 -0.264584,0.26458 v 3.21046 h -2.998258 c -0.146315,0 -0.264583,0.11826 -0.264583,0.26458 v 14.56319 H 50.15744 c -0.146314,0 -0.264583,0.11827 -0.264583,0.26459 v 2.33468 c 0,0.14632 0.118269,0.26458 0.264583,0.26458 h 20.6375 c 0.146315,0 0.264584,-0.11826 0.264584,-0.26458 v -2.33468 c 0,-0.14632 -0.118269,-0.26485 -0.264584,-0.26485 z m -4.127764,0 v -9.83853 h 2.733675 v 9.83879 h -2.733675 z m 2.733675,-10.3677 h -2.733675 v -1.10781 h 2.733675 z m 0,-3.93091 v 2.29393 h -2.733675 v -2.29393 z m -3.262842,-3.47478 v 17.77365 H 62.914326 V 222.3119 Z m -3.75285,0.79375 v 16.9799 h -4.280694 v -16.9799 z m -4.80986,14.9442 h -2.694517 v -1.10781 h 2.694517 z m -2.694517,0.52917 h 2.694517 v 1.50627 h -2.694517 z m 2.694517,-16.26712 v 14.10124 H 54.880782 V 222.3119 Z m -5.957359,3.47478 h 2.733675 v 14.29861 H 51.61794 Z m 18.912417,16.63356 H 50.422024 v -1.80552 h 20.108333 z"
             inkscape:connector-curvature="0" />
          <path
             style="stroke:#000000;stroke-width:0.26458332;stroke-opacity:1"
             id="path6-2"
             d="m 68.681713,238.04985 h -1.293548 c -0.146314,0 -0.264583,0.11827 -0.264583,0.26458 0,0.14632 0.118269,0.26459 0.264583,0.26459 h 1.293548 c 0.146315,0 0.264584,-0.11827 0.264584,-0.26459 0,-0.14631 -0.118534,-0.26458 -0.264584,-0.26458 z"
             inkscape:connector-curvature="0" />
          <path
             style="stroke:#000000;stroke-width:0.26458332;stroke-opacity:1"
             id="path8-61"
             d="m 67.388165,237.56222 h 1.293548 c 0.146315,0 0.264584,-0.11827 0.264584,-0.26458 0,-0.14632 -0.118269,-0.26458 -0.264584,-0.26458 h -1.293548 c -0.146314,0 -0.264583,0.11826 -0.264583,0.26458 0,0.14631 0.118269,0.26458 0.264583,0.26458 z"
             inkscape:connector-curvature="0" />
          <path
             style="stroke:#000000;stroke-width:0.26458332;stroke-opacity:1"
             id="path10-8"
             d="m 64.526167,231.44082 c 0.146315,0 0.264584,-0.11827 0.264584,-0.26458 v -6.59342 c 0,-0.14631 -0.118269,-0.26458 -0.264584,-0.26458 -0.146314,0 -0.264583,0.11827 -0.264583,0.26458 v 6.59342 c 0,0.14605 0.118269,0.26458 0.264583,0.26458 z"
             inkscape:connector-curvature="0" />
          <path
             style="stroke:#000000;stroke-width:0.26458332;stroke-opacity:1"
             id="path12-79"
             d="m 52.964934,227.30591 c -0.146314,0 -0.264583,0.11827 -0.264583,0.26459 v 6.59341 c 0,0.14632 0.118269,0.26459 0.264583,0.26459 0.146315,0 0.264583,-0.11827 0.264583,-0.26459 v -6.59341 c 0,-0.14632 -0.118268,-0.26459 -0.264583,-0.26459 z"
             inkscape:connector-curvature="0" />
          <path
             style="stroke:#000000;stroke-width:0.26458332;stroke-opacity:1"
             id="path14-2"
             d="m 60.878886,231.72737 c 0.146315,0 0.264583,-0.11827 0.264583,-0.26459 v -6.87996 c 0,-0.14631 -0.118268,-0.26458 -0.264583,-0.26458 -0.146314,0 -0.264583,0.11827 -0.264583,0.26458 v 6.87996 c 0,0.14605 0.118533,0.26459 0.264583,0.26459 z"
             inkscape:connector-curvature="0" />
          <path
             style="stroke:#000000;stroke-width:0.26458332;stroke-opacity:1"
             id="path16-02"
             d="m 59.610474,231.72737 c 0.146314,0 0.264583,-0.11827 0.264583,-0.26459 v -6.87996 c 0,-0.14631 -0.118269,-0.26458 -0.264583,-0.26458 -0.146315,0 -0.264584,0.11827 -0.264584,0.26458 v 6.87996 c 0,0.14605 0.118269,0.26459 0.264584,0.26459 z"
             inkscape:connector-curvature="0" />
        </g>
        <path
           style="fill:none;stroke:#000000;stroke-width:1;stroke-linecap:butt;stroke-linejoin:miter;stroke-miterlimit:4;stroke-dasharray:none;stroke-opacity:1"
           d="m 71.210756,213.09527 h 4.626973 v -3.55923"
           id="path1184"
           inkscape:connector-curvature="0" />
        <path
           style="fill:none;stroke:#000000;stroke-width:1;stroke-linecap:butt;stroke-linejoin:miter;stroke-miterlimit:4;stroke-dasharray:none;stroke-opacity:1"
           d="m 74.473598,222.24654 h 4.17046 v 2.59069"
           id="path1186"
           inkscape:connector-curvature="0" />
        <path
           style="fill:none;stroke:#000000;stroke-width:1;stroke-linecap:butt;stroke-linejoin:miter;stroke-miterlimit:4;stroke-dasharray:none;stroke-opacity:1"
           d="m 55.632355,222.24681 h -3.71525"
           id="path1188"
           inkscape:connector-curvature="0" />
        <path
           style="fill:none;stroke:#000000;stroke-width:1;stroke-linecap:butt;stroke-linejoin:miter;stroke-miterlimit:4;stroke-dasharray:none;stroke-opacity:1"
           d="m 60.771621,211.22559 v -2.69181"
           id="path1192"
           inkscape:connector-curvature="0" />
        <circle
           style="opacity:1;fill:none;fill-opacity:1;stroke:#000000;stroke-width:1;stroke-linecap:round;stroke-linejoin:round;stroke-miterlimit:4;stroke-dasharray:none;stroke-dashoffset:0;stroke-opacity:1;paint-order:stroke fill markers"
           id="path1194"
           cx="60.771622"
           cy="207.19743"
           r="1.3363476" />
        <circle
           r="2.1057394"
           cy="207.73196"
           cx="75.83773"
           id="circle1196"
           style="opacity:1;fill:none;fill-opacity:1;stroke:#000000;stroke-width:1;stroke-linecap:round;stroke-linejoin:round;stroke-miterlimit:4;stroke-dasharray:none;stroke-dashoffset:0;stroke-opacity:1;paint-order:stroke fill markers" />
        <circle
           style="opacity:1;fill:none;fill-opacity:1;stroke:#000000;stroke-width:1;stroke-linecap:round;stroke-linejoin:round;stroke-miterlimit:4;stroke-dasharray:none;stroke-dashoffset:0;stroke-opacity:1;paint-order:stroke fill markers"
           id="circle1198"
           cx="78.644058"
           cy="226.17358"
           r="1.3363476" />
        <circle
           r="1.3363476"
           cy="222.24681"
           cx="50.580757"
           id="circle1200"
           style="opacity:1;fill:none;fill-opacity:1;stroke:#000000;stroke-width:1;stroke-linecap:round;stroke-linejoin:round;stroke-miterlimit:4;stroke-dasharray:none;stroke-dashoffset:0;stroke-opacity:1;paint-order:stroke fill markers" />
        <circle
           style="opacity:1;fill:none;fill-opacity:1;stroke:#000000;stroke-width:1;stroke-linecap:round;stroke-linejoin:round;stroke-miterlimit:4;stroke-dasharray:none;stroke-dashoffset:0;stroke-opacity:1;paint-order:stroke fill markers"
           id="circle1202"
           cx="52.451096"
           cy="212.92966"
           r="1.1932395" />
        <circle
           r="0.33166996"
           cy="217.80733"
           cx="76.705803"
           id="circle1204"
           style="opacity:1;fill:#000000;fill-opacity:1;stroke:#000000;stroke-width:0.84147972;stroke-linecap:round;stroke-linejoin:round;stroke-miterlimit:4;stroke-dasharray:none;stroke-dashoffset:0;stroke-opacity:1;paint-order:stroke fill markers" />
      </g>
      <rect
         y="107.01498"
         x="116.44527"
         height="47.813984"
         width="47.813984"
         id="rect1853"
         style="opacity:1;fill:none;fill-opacity:1;stroke:none;stroke-width:1;stroke-linecap:round;stroke-linejoin:round;stroke-miterlimit:4;stroke-dasharray:none;stroke-dashoffset:0;stroke-opacity:1;paint-order:stroke fill markers" />
    </g>
  </g>
</svg>
