<svg xmlns="http://www.w3.org/2000/svg" xmlns:svg="http://www.w3.org/2000/svg" id="svg43" width="216" height="216" fill="none" version="1.1" viewBox="0 0 216 216"><metadata id="metadata47"/><g id="g36" clip-path="url(#clip0)"><path style="stroke:#fff;stroke-opacity:1;fill:#fff;fill-opacity:1" id="path2" fill="#000" stroke="#000" d="M156.455 156.35H152.548V90.5604C152.548 89.8994 152.014 89.3651 151.353 89.3651H137.808V74.8631C137.808 74.2021 137.274 73.6678 136.613 73.6678H119.659C118.998 73.6678 118.464 74.2021 118.464 74.8631V77.2536H99.1258V74.8631C99.1258 74.2021 98.5915 73.6678 97.9305 73.6678H83.3675C82.7065 73.6678 82.1723 74.2021 82.1723 74.8631V89.3663H68.6276C67.9666 89.3663 67.4324 89.9006 67.4324 90.5616V156.351H63.225C62.5641 156.351 62.0298 156.885 62.0298 157.546V168.093C62.0298 168.754 62.5641 169.288 63.225 169.288H156.455C157.116 169.288 157.65 168.754 157.65 168.093V157.546C157.65 156.885 157.116 156.35 156.455 156.35ZM137.808 156.35V111.904H150.157V156.351H137.808V156.35ZM150.157 109.514H137.808V104.509H150.157V109.514ZM150.157 91.7557V102.119H137.808V91.7557H150.157ZM135.417 76.0583V156.351H120.854V76.0583H135.417ZM118.464 79.6441V156.351H99.1258V79.6441H118.464ZM96.7353 147.155H84.5628V142.15H96.7353V147.155ZM84.5628 149.545H96.7353V156.35H84.5628V149.545ZM96.7353 76.0583V139.761H84.5628V76.0583H96.7353ZM69.8229 91.7557H82.1723V156.35H69.8229V91.7557ZM155.26 166.898H64.4203V158.741H155.26V166.898Z"/><path style="fill:#fff;fill-opacity:1;stroke:#fff;stroke-opacity:1" id="path4" fill="#000" stroke="#000" d="M146.909 147.155H141.065C140.404 147.155 139.87 147.689 139.87 148.35C139.87 149.011 140.404 149.545 141.065 149.545H146.909C147.57 149.545 148.104 149.011 148.104 148.35C148.104 147.689 147.568 147.155 146.909 147.155Z"/><path style="fill:#fff;fill-opacity:1;stroke:#fff;stroke-opacity:1" id="path6" fill="#000" stroke="#000" d="M141.065 144.952H146.909C147.57 144.952 148.104 144.417 148.104 143.756C148.104 143.095 147.57 142.561 146.909 142.561H141.065C140.404 142.561 139.87 143.095 139.87 143.756C139.87 144.417 140.404 144.952 141.065 144.952Z"/><path style="fill:#fff;fill-opacity:1;stroke:#fff;stroke-opacity:1" id="path8" fill="#000" stroke="#000" d="M128.137 117.298C128.798 117.298 129.332 116.764 129.332 116.103V86.3171C129.332 85.6561 128.798 85.1218 128.137 85.1218C127.476 85.1218 126.942 85.6561 126.942 86.3171V116.103C126.942 116.763 127.476 117.298 128.137 117.298Z"/><path style="fill:#fff;fill-opacity:1;stroke:#fff;stroke-opacity:1" id="path10" fill="#000" stroke="#000" d="M75.9078 98.6188C75.2468 98.6188 74.7125 99.1531 74.7125 99.8141V129.6C74.7125 130.261 75.2468 130.795 75.9078 130.795C76.5688 130.795 77.103 130.261 77.103 129.6V99.8141C77.103 99.1531 76.5688 98.6188 75.9078 98.6188Z"/><path style="fill:#fff;fill-opacity:1;stroke:#fff;stroke-opacity:1" id="path12" fill="#000" stroke="#000" d="M111.66 118.593C112.321 118.593 112.855 118.058 112.855 117.397V86.3171C112.855 85.6561 112.321 85.1218 111.66 85.1218C110.999 85.1218 110.464 85.6561 110.464 86.3171V117.397C110.464 118.057 111 118.593 111.66 118.593Z"/><path style="fill:#fff;fill-opacity:1;stroke:#fff;stroke-opacity:1" id="path14" fill="#000" stroke="#000" d="M105.93 118.593C106.59 118.593 107.125 118.058 107.125 117.397V86.3171C107.125 85.6561 106.59 85.1218 105.93 85.1218C105.269 85.1218 104.734 85.6561 104.734 86.3171V117.397C104.734 118.057 105.269 118.593 105.93 118.593Z"/><path style="stroke:#fff;stroke-opacity:1" id="path16" stroke="#000" stroke-width="4" d="M137.809 82.1142H158.711V66.0353"/><path style="stroke:#fff;stroke-opacity:1" id="path18" stroke="#000" stroke-width="4" d="M152.548 123.455H171.388V135.158"/><path style="stroke:#fff;stroke-opacity:1" id="path20" stroke="#000" stroke-width="4" d="M67.4328 123.456H50.6492"/><path style="stroke:#fff;stroke-opacity:1" id="path22" stroke="#000" stroke-width="4" d="M90.6501 73.6678V61.5076"/><path style="stroke:#fff;stroke-opacity:1" id="path24" stroke="#000" stroke-linecap="round" stroke-linejoin="round" stroke-width="4" d="M90.6491 61.5075C93.9833 61.5075 96.6861 58.8047 96.6861 55.4706C96.6861 52.1364 93.9833 49.4336 90.6491 49.4336C87.315 49.4336 84.6122 52.1364 84.6122 55.4706C84.6122 58.8047 87.315 61.5075 90.6491 61.5075Z"/><path style="stroke:#fff;stroke-opacity:1" id="path26" stroke="#000" stroke-linecap="round" stroke-linejoin="round" stroke-width="4" d="M158.71 67.398C163.964 67.398 168.223 63.1391 168.223 57.8853C168.223 52.6316 163.964 48.3726 158.71 48.3726C153.457 48.3726 149.198 52.6316 149.198 57.8853C149.198 63.1391 153.457 67.398 158.71 67.398Z"/><path style="stroke:#fff;stroke-opacity:1" id="path28" stroke="#000" stroke-linecap="round" stroke-linejoin="round" stroke-width="4" d="M171.388 147.232C174.722 147.232 177.425 144.53 177.425 141.195C177.425 137.861 174.722 135.158 171.388 135.158C168.054 135.158 165.351 137.861 165.351 141.195C165.351 144.53 168.054 147.232 171.388 147.232Z"/><path style="stroke:#fff;stroke-opacity:1" id="path30" stroke="#000" stroke-linecap="round" stroke-linejoin="round" stroke-width="4" d="M44.612 129.493C47.9462 129.493 50.649 126.79 50.649 123.456C50.649 120.122 47.9462 117.419 44.612 117.419C41.2779 117.419 38.5751 120.122 38.5751 123.456C38.5751 126.79 41.2779 129.493 44.612 129.493Z"/><path style="stroke:#fff;stroke-opacity:1" id="path32" stroke="#000" stroke-linecap="round" stroke-linejoin="round" stroke-width="4" d="M53.0621 86.7564C56.0392 86.7564 58.4526 84.3431 58.4526 81.366C58.4526 78.3889 56.0392 75.9755 53.0621 75.9755C50.085 75.9755 47.6716 78.3889 47.6716 81.366C47.6716 84.3431 50.085 86.7564 53.0621 86.7564Z"/><path style="stroke:#fff;stroke-opacity:1" id="path34" fill="#000" stroke="#000" stroke-linecap="round" stroke-linejoin="round" stroke-width="4" d="M162.632 104.899C163.46 104.899 164.131 104.228 164.131 103.401C164.131 102.573 163.46 101.903 162.632 101.903C161.805 101.903 161.134 102.573 161.134 103.401C161.134 104.228 161.805 104.899 162.632 104.899Z"/></g><defs id="defs41"><clipPath id="clip0"><rect id="rect38" width="216" height="216" fill="#fff"/></clipPath></defs></svg>