<svg xmlns="http://www.w3.org/2000/svg" xmlns:svg="http://www.w3.org/2000/svg" id="svg8" width="190.121" height="63.565" version="1.1" viewBox="0 0 50.303 16.818"><metadata id="metadata5"/><g id="layer1" transform="translate(462.82633,-0.517797)"><g id="layer1-6" transform="translate(-40.821423,58.208332)"><path style="fill:#fff;fill-opacity:1;stroke-width:.16263458" id="path4955-6-0-37-4-4-6-4-7-7-7" d="m -415.10596,-57.690466 c -3.32408,0.61606 -6.04982,3.229699 -6.74426,6.624817 -0.13077,0.639383 -0.15469,0.902235 -0.15469,1.713377 0,0.811161 0.0239,1.073366 0.15469,1.712752 0.77503,3.789142 4.09384,6.617157 7.93353,6.760135 1.52206,0.05664 2.87333,-0.23157 4.19196,-0.894493 1.85108,-0.93061 3.27845,-2.491275 4.04522,-4.369533 l -0.25761,-0.006 -0.31257,-0.0052 c -0.17204,-0.0029 -0.48867,-0.01068 -0.70326,-0.01745 l -0.39007,-0.01207 -0.0874,0.160096 c -0.74877,1.36868 -1.94691,2.455665 -3.3753,3.062739 -0.59346,0.252226 -1.18057,0.411023 -1.8668,0.504736 -0.22438,0.03066 -1.15596,0.05642 -1.36683,0.0378 -1.01244,-0.0893 -1.83807,-0.324386 -2.70189,-0.769337 -0.68939,-0.355107 -1.22043,-0.75186 -1.78739,-1.334749 -0.5201,-0.534706 -0.8919,-1.056962 -1.22103,-1.716236 -0.75185,-1.506017 -0.93305,-3.195789 -0.51904,-4.843149 0.25305,-1.00686 0.75724,-1.976085 1.45704,-2.800679 0.32891,-0.387533 0.89494,-0.894945 1.33507,-1.197208 0.54951,-0.377389 1.21963,-0.703858 1.85124,-0.902111 0.13183,-0.04138 0.23982,-0.08189 0.23982,-0.0899 0,-0.02615 0.24719,-1.357997 0.25316,-1.363974 l 0.0264,-0.254432 z m 2.00148,1.905553 c -0.0527,-0.0029 -0.0866,-0.0022 -0.0918,0.0034 -0.0162,0.01618 -0.3774,1.975081 -0.36624,1.986239 0.004,0.004 0.13121,0.01596 0.28238,0.02604 0.74199,0.04979 1.39447,0.251159 2.00498,0.618777 0.26927,0.162117 0.33453,0.211983 0.30462,0.233149 -0.0535,0.03786 -0.36728,0.290748 -0.66006,0.527295 -0.56254,-0.367215 -1.23226,-0.58193 -1.94939,-0.58193 -1.97113,0 -3.58781,1.616686 -3.58781,3.58781 0,0.457541 0.0881,0.895601 0.24649,1.299169 l -2.31182,1.877285 c 0,0 0.0569,0.06961 0.34083,0.425328 0.18684,0.234057 0.47424,0.587644 0.63847,0.785857 0.29336,0.354128 0.30811,0.347185 0.30811,0.347185 l 2.32644,-1.789297 c 0.58041,0.404175 1.28356,0.6426 2.03929,0.6426 1.97113,0 3.5878,-1.616994 3.5878,-3.588128 0,-0.428371 -0.0765,-0.839722 -0.21632,-1.221662 0.22802,-0.172064 0.45382,-0.340926 0.69915,-0.531428 0.0439,0 0.22599,0.548189 0.29477,0.887506 0.10442,0.515329 0.11692,1.124977 0.033,1.601254 -0.0208,0.117807 -0.036,0.216272 -0.034,0.218854 0.002,0.0022 0.44823,0.01744 0.99169,0.03302 0.54346,0.01556 1.00184,0.02719 1.01869,0.02575 0.0463,-0.004 0.0786,-0.276953 0.0943,-0.798875 0.025,-0.824935 -0.0807,-1.531494 -0.34211,-2.288322 -0.55278,-1.60027 -1.71579,-2.920739 -3.23044,-3.667859 -0.57849,-0.285336 -1.0976,-0.458689 -1.70354,-0.568899 -0.23177,-0.04218 -0.55941,-0.08166 -0.71756,-0.0899 z m -2.39219,0.287153 c -0.0214,-0.02466 -0.69741,0.252497 -1.00058,0.410397 -1.94048,1.0107 -3.19519,2.838541 -3.46075,5.041357 -0.0391,0.323826 -0.0335,1.135052 0.0101,1.468792 0.0862,0.65911 0.26323,1.288326 0.52253,1.86617 l 1.67145,-1.286787 c -0.26146,-0.803116 -0.28559,-1.649223 -0.0699,-2.47668 0.2663,-1.021566 0.87559,-1.8986 1.74007,-2.504958 0.0817,-0.05734 0.15303,-0.123192 0.1585,-0.146117 0.0207,-0.08665 0.43263,-2.36732 0.4285,-2.372174 z m 1.91668,4.286311 c 1.01967,0 1.82742,0.807444 1.82742,1.827098 0,1.019665 -0.80775,1.827732 -1.82742,1.827732 -1.01966,0 -1.82742,-0.808067 -1.82742,-1.827732 0,-1.019654 0.80776,-1.827098 1.82742,-1.827098 z m 3.20504,4.951142 -0.13024,0.116578 c -0.53738,0.480425 -1.00198,0.761556 -1.59616,0.965964 -0.43578,0.149916 -0.81412,0.218782 -1.29537,0.235366 -0.38859,0.01343 -0.66084,-0.009 -1.04473,-0.08608 -0.53282,-0.106914 -1.10404,-0.346347 -1.5517,-0.644816 l -1.55868,1.364605 c 0.13807,0.107241 0.31191,0.235632 0.43644,0.31828 0.88116,0.584795 1.91098,0.949724 2.96554,1.051088 v -2.48e-4 c 0.30654,0.02945 0.9468,0.02525 1.26614,-0.0083 1.4877,-0.156232 2.84718,-0.805914 3.90386,-1.86553 0.37913,-0.380184 0.64998,-0.722844 0.93102,-1.177516 l 0.12992,-0.209963 h -0.16867 c -0.0926,-1.97e-4 -0.64499,-0.01373 -1.22771,-0.02985 l -1.05966,-0.02956 z"/><g id="flowRoot823" aria-label="nline" transform="matrix(0.35408073,0,0,0.35408073,-531.4007,-212.20635)" style="font-style:normal;font-weight:400;font-size:40px;line-height:1.25;font-family:sans-serif;letter-spacing:0;word-spacing:0;fill:#fff;fill-opacity:1;stroke:none"><path id="path831" d="m 377.52734,461.84375 v 13.20312 h -3.59375 v -13.08593 q 0,-3.10547 -1.21093,-4.64844 -1.21094,-1.54297 -3.63282,-1.54297 -2.91015,0 -4.58984,1.85547 -1.67969,1.85547 -1.67969,5.05859 v 12.36328 h -3.61328 v -21.875 h 3.61328 v 3.39844 q 1.28906,-1.97265 3.02735,-2.94922 1.75781,-0.97656 4.04296,-0.97656 3.76954,0 5.70313,2.34375 1.93359,2.32422 1.93359,6.85547 z" style="fill:#fff"/><path id="path833" d="m 384.73437,444.65625 h 3.59375 v 30.39062 h -3.59375 z" style="fill:#fff"/><path id="path835" d="m 395.82812,453.17187 h 3.59375 v 21.875 h -3.59375 z m 0,-8.51562 h 3.59375 v 4.55078 h -3.59375 z" style="fill:#fff"/><path id="path837" d="m 425.10547,461.84375 v 13.20312 h -3.59375 v -13.08593 q 0,-3.10547 -1.21094,-4.64844 -1.21094,-1.54297 -3.63281,-1.54297 -2.91016,0 -4.58985,1.85547 -1.67968,1.85547 -1.67968,5.05859 v 12.36328 h -3.61328 v -21.875 h 3.61328 v 3.39844 q 1.28906,-1.97265 3.02734,-2.94922 1.75781,-0.97656 4.04297,-0.97656 3.76953,0 5.70312,2.34375 1.9336,2.32422 1.9336,6.85547 z" style="fill:#fff"/><path id="path839" d="m 451.02344,463.21094 v 1.75781 H 434.5 q 0.23437,3.71094 2.22656,5.66406 2.01172,1.9336 5.58594,1.9336 2.07031,0 4.00391,-0.50782 1.95312,-0.50781 3.86718,-1.52343 v 3.39843 q -1.93359,0.82032 -3.96484,1.25 -2.03125,0.42969 -4.12109,0.42969 -5.23438,0 -8.30079,-3.04687 -3.04687,-3.04688 -3.04687,-8.24219 0,-5.3711 2.89062,-8.51563 2.91016,-3.16406 7.83204,-3.16406 4.41406,0 6.97265,2.85156 2.57813,2.83203 2.57813,7.71485 z m -3.59375,-1.05469 q -0.0391,-2.94922 -1.66016,-4.70703 -1.60156,-1.75781 -4.25781,-1.75781 -3.00781,0 -4.82422,1.69921 -1.79688,1.69922 -2.07031,4.78516 z" style="fill:#fff"/></g></g></g></svg>