<?xml version="1.0" encoding="UTF-8" standalone="no"?>
<svg
   xmlns:dc="http://purl.org/dc/elements/1.1/"
   xmlns:cc="http://creativecommons.org/ns#"
   xmlns:rdf="http://www.w3.org/1999/02/22-rdf-syntax-ns#"
   xmlns:svg="http://www.w3.org/2000/svg"
   xmlns="http://www.w3.org/2000/svg"
   id="svg846"
   version="1.1"
   viewBox="0 0 604.44849 614.10425"
   height="614.10425mm"
   width="604.44849mm">
  <defs
     id="defs840">
    <style
       type="text/css"
       id="style2">
   
    .fil0 {fill:black;fill-rule:nonzero}
   
  </style>
  </defs>
  <metadata
     id="metadata843">
    <rdf:RDF>
      <cc:Work
         rdf:about="">
        <dc:format>image/svg+xml</dc:format>
        <dc:type
           rdf:resource="http://purl.org/dc/dcmitype/StillImage" />
        <dc:title></dc:title>
      </cc:Work>
    </rdf:RDF>
  </metadata>
  <g
     transform="translate(932.04504,13.393138)"
     id="layer1">
    <path
       id="path6"
       transform="matrix(0.26458333,0,0,0.26458333,-932.04504,-13.393138)"
       d="M 1439.0566 0.015625 C 1424.2708 -0.32498793 1410.5523 4.9731107 1400.0371 14.007812 C 1388.8209 23.644829 1381.2895 37.534041 1380.1152 53.447266 C 1378.941 69.360487 1384.3259 84.219355 1393.9629 95.435547 C 1403.5999 106.65174 1417.4891 114.18316 1433.4023 115.35742 C 1449.3156 116.53168 1464.1764 111.14678 1475.3926 101.50977 C 1486.6088 91.872733 1494.1402 77.983537 1495.3145 62.070312 C 1496.4887 46.157092 1491.1018 31.298223 1481.4648 20.082031 C 1471.8278 8.8658415 1457.9406 1.3344139 1442.0273 0.16015625 C 1441.0328 0.086764915 1440.0424 0.038332529 1439.0566 0.015625 z M 1437.1406 34.152344 C 1437.5135 34.143683 1437.8892 34.143234 1438.2656 34.152344 C 1438.6671 34.162061 1439.0716 34.182522 1439.4766 34.212891 C 1445.9552 34.69879 1451.6641 37.776008 1455.5918 42.351562 C 1459.5195 46.927121 1461.7066 53.001802 1461.2207 59.480469 C 1460.7348 65.959135 1457.6576 71.668012 1453.082 75.595703 C 1448.5065 79.523395 1442.4318 81.71051 1435.9531 81.224609 C 1429.4745 80.73871 1423.7656 77.659543 1419.8379 73.083984 C 1415.9102 68.508426 1413.7231 62.435698 1414.209 55.957031 C 1414.6949 49.478365 1417.7721 43.769488 1422.3477 39.841797 C 1426.3692 36.389724 1431.5468 34.282259 1437.1406 34.152344 z M 775.08984 52.857422 C 757.72907 53.269879 741.7079 59.821101 729.25195 70.533203 C 715.0799 82.721195 705.56457 100.29556 704.06641 120.41992 C 703.58051 127.06056 703.98448 133.57926 705.19922 139.85547 C 570.72639 205.61393 451.68088 299.06898 356.08008 413.37695 C 259.1835 529.22361 186.25817 666.57109 145.68555 818.17188 C 143.29651 827.28246 148.68234 836.59587 157.79297 839.02539 C 166.9036 841.41439 176.21697 836.0286 178.64648 826.91797 C 201.92921 739.90138 236.30559 657.70311 279.99609 581.78125 L 375.27344 628.79297 C 308.82658 742.37208 265.78392 871.90362 253.3125 1011.3164 C 238.16861 1014.1103 224.281 1020.9544 212.94336 1030.7129 C 196.26079 1045.0469 185.08437 1065.7792 183.30273 1089.4668 C 181.56162 1113.1544 189.53954 1135.3018 203.91406 1151.9844 C 218.24811 1168.6669 238.97836 1179.8434 262.66602 1181.625 C 286.35364 1183.3662 308.50298 1175.3902 325.18555 1161.0156 C 341.86812 1146.6816 353.04454 1125.9493 354.82617 1102.2617 C 356.56732 1078.5741 348.58937 1056.4248 334.21484 1039.7422 C 322.35079 1025.975 306.19451 1015.933 287.56836 1011.8438 C 299.91831 877.69466 341.70705 753.10108 406.00781 643.93555 L 489.17773 684.99414 C 459.37586 734.63691 434.79711 787.88441 416.25195 844.00586 C 396.28955 904.45989 383.33257 968.23363 378.39258 1034.4375 C 377.66373 1043.8316 384.74852 1052.0519 394.14258 1052.7402 C 403.53663 1053.4691 411.75695 1046.3823 412.44531 1036.9883 C 417.18284 973.41628 429.57296 912.31535 448.64453 854.57422 C 468.24252 795.21345 494.84509 739.33498 527.40039 687.78906 C 527.88629 687.06022 528.37244 686.24929 528.77734 685.43945 C 532.9075 676.97671 529.42567 666.77273 520.96289 662.64258 L 521.00391 662.64258 L 423.98633 614.74219 C 470.55173 542.30259 527.2382 477.27264 591.98438 421.51562 C 763.95246 273.43764 992.44729 190.95648 1236.6523 209.17773 C 1246.0464 209.90658 1254.2667 202.81985 1254.9551 193.42578 C 1255.6839 184.03172 1248.5991 175.81141 1239.2051 175.12305 C 985.56517 156.21344 748.28255 241.89429 569.67383 395.68164 C 501.48586 454.39456 441.84236 523.06842 393.13086 599.59766 L 297.57031 552.42578 C 323.12056 511.32675 351.46569 472.17113 382.32031 435.2832 C 474.76279 324.82196 589.67684 234.48546 719.41211 170.87305 C 720.10047 171.76387 720.82975 172.65358 721.55859 173.50391 C 733.74659 187.67599 751.36143 197.19126 771.44531 198.68945 C 791.56967 200.18764 810.3572 193.38526 824.5293 181.19727 C 838.70139 169.00928 848.21664 151.39637 849.71484 131.3125 C 851.21305 111.18814 844.41065 92.398644 832.22266 78.226562 C 820.03466 64.054483 802.4603 54.539207 782.33594 53.041016 C 781.07817 52.947379 779.82661 52.886921 778.58008 52.857422 C 777.41145 52.829767 776.24723 52.829925 775.08984 52.857422 z M 1622.4336 59.421875 C 1605.5888 59.81924 1590.0161 66.1746 1577.916 76.566406 C 1564.1489 88.389973 1554.9167 105.47911 1553.459 124.99609 C 1552.0013 144.51308 1558.6022 162.77385 1570.4258 176.54102 C 1582.2494 190.30818 1599.3365 199.54035 1618.8535 200.99805 C 1638.3705 202.45575 1656.6332 195.85482 1670.4004 184.03125 C 1684.1675 172.20768 1693.3997 155.1205 1694.8574 135.60352 C 1696.3151 116.08653 1689.7142 97.825761 1677.8906 84.058594 C 1666.0671 70.291427 1648.9799 61.059263 1629.4629 59.601562 C 1628.2431 59.51046 1627.0276 59.450721 1625.8184 59.421875 C 1624.6847 59.394832 1623.5566 59.395384 1622.4336 59.421875 z M 775.93555 86.912109 C 776.5506 86.897753 777.16816 86.898866 777.78906 86.914062 C 778.45136 86.930275 779.11704 86.963057 779.78516 87.013672 C 790.51546 87.823505 799.86898 92.884546 806.34766 100.41602 C 812.8263 107.94747 816.47195 117.94887 815.66211 128.63867 C 814.85227 139.36897 809.78928 148.72251 802.25781 155.20117 C 794.72635 161.67984 784.72495 165.32546 774.03516 164.51562 C 763.30485 163.70583 753.95133 158.64278 747.47266 151.11133 C 740.99402 143.57988 737.35032 133.57847 738.16016 122.88867 C 738.96996 112.15838 744.03104 102.80484 751.5625 96.326172 C 758.18192 90.632032 766.70973 87.127453 775.93555 86.912109 z M 1623.2656 93.556641 C 1623.8481 93.543276 1624.4335 93.544006 1625.0215 93.558594 C 1625.6487 93.574154 1626.2794 93.606213 1626.9121 93.654297 C 1637.035 94.423639 1645.9034 99.201611 1652.0176 106.32812 C 1658.1318 113.41416 1661.5721 122.8888 1660.8027 133.01172 C 1660.0334 143.13464 1655.2555 152.00295 1648.1289 158.11719 C 1641.0429 164.23143 1631.5682 167.67364 1621.4453 166.9043 C 1611.3224 166.13496 1602.4541 161.357 1596.3398 154.23047 C 1590.2256 147.14443 1586.7853 137.66975 1587.5547 127.54688 C 1588.324 117.42396 1593.102 108.55565 1600.2285 102.44141 C 1606.4565 97.067544 1614.529 93.757105 1623.2656 93.556641 z M 1790.4805 158.32617 C 1769.3063 158.37312 1749.6967 166.1469 1734.5781 179.17383 C 1717.8956 193.50788 1706.7211 214.23816 1704.9395 237.92578 C 1703.1983 261.61341 1711.1743 283.76275 1725.5488 300.44531 C 1739.8829 317.12788 1760.6151 328.3043 1784.3027 330.08594 C 1804.9939 331.62462 1824.551 325.7119 1840.2617 314.61719 C 1921.0426 384.18187 1990.6888 465.97461 2046.4863 556.83789 C 2059.4842 578.05552 2071.7523 599.7598 2083.252 621.94922 L 1988.3809 669.12305 L 1991.9043 676.24805 C 1966.8805 627.13165 1937.5631 580.48543 1904.4004 536.79492 C 1898.6911 529.34445 1888.0417 527.8878 1880.5508 533.55664 C 1873.1003 539.26596 1871.6437 549.9153 1877.3125 557.40625 C 1941.5728 642.03384 1990.8503 738.36346 2021.543 842.22461 C 2051.0614 942.19852 2063.3311 1049.1768 2055.1113 1159.4355 C 2054.3825 1168.8296 2061.4692 1177.05 2070.8633 1177.7383 C 2080.2573 1178.4672 2088.4757 1171.3804 2089.1641 1161.9863 C 2097.7078 1047.6379 2084.9134 936.56903 2054.2207 832.62695 C 2040.2916 785.49462 2022.6773 739.86081 2001.6621 696.04883 L 2003.4434 699.69336 L 2098.3965 652.48047 C 2128.1174 714.83765 2151.6836 780.55617 2168.4062 848.74414 C 2151.0357 855.2633 2135.6485 867.41004 2125.2422 884.45703 C 2112.8518 904.70286 2109.8561 928.06715 2115.0391 949.40625 C 2120.222 970.78583 2133.5437 990.17989 2153.8301 1002.5703 L 2157.4336 1004.7988 L 2157.6758 1004.7988 C 2176.9903 1015.2861 2198.7354 1017.6344 2218.7383 1012.7754 C 2240.1179 1007.5924 2259.5138 994.27068 2271.9043 973.98438 L 2274.1309 970.38086 L 2274.1309 970.13672 C 2284.6182 950.8222 2286.9664 929.07906 2282.1074 909.07617 L 2282.1875 909.03516 C 2277.0046 887.65554 2263.6828 868.2596 2243.3965 855.86914 C 2230.4796 847.97325 2216.3093 843.88525 2202.1777 843.31836 C 2175.8582 734.7602 2132.7342 632.2743 2075.5195 539.0625 C 2018.1429 445.60775 1946.5929 361.46569 1863.666 289.83594 C 1870.833 278.41729 1875.3677 265.0972 1876.4609 250.72266 C 1878.2021 227.03503 1870.2261 204.88569 1855.8516 188.20312 C 1841.5175 171.5206 1820.7853 160.34413 1797.0977 158.5625 C 1794.8769 158.39927 1792.6709 158.32132 1790.4805 158.32617 z M 1791.7578 192.56836 C 1792.643 192.58878 1793.5324 192.63147 1794.4258 192.69727 C 1808.7193 193.75005 1821.1903 200.51275 1829.8555 210.55469 C 1838.5207 220.63711 1843.3399 233.9584 1842.2871 248.25195 C 1841.2343 262.54551 1834.4716 275.01642 1824.4297 283.68164 C 1814.3473 292.34685 1801.026 297.16606 1786.7324 296.11328 C 1772.4389 295.0605 1759.9679 288.29779 1751.3027 278.25586 C 1742.6375 268.17344 1737.8183 254.85215 1738.8711 240.55859 C 1739.9239 226.26504 1746.6866 213.79412 1756.7285 205.12891 C 1766.1808 197.00527 1778.4798 192.262 1791.7578 192.56836 z M 1228.0645 301.28906 C 1219.4184 301.50141 1212.1531 308.28095 1211.5078 317.08789 L 1205.1914 401.67383 C 1174.9846 400.17564 1144.8585 400.6632 1115.0566 403.01172 C 1084.121 405.48171 1053.7126 409.97589 1023.9512 416.41406 C 1020.9548 409.32802 1016.9043 402.80789 1011.9238 397.01758 C 999.73595 382.84549 982.16342 373.33022 962.03906 371.83203 C 941.9147 370.33384 923.12522 377.13623 908.95312 389.32422 C 894.78111 401.51221 885.26578 419.08657 883.76758 439.21094 C 882.26941 459.3353 889.07177 478.12283 901.25977 492.29492 C 913.44776 506.46702 931.0626 515.98226 951.14648 517.48047 C 971.27084 518.97864 990.05825 512.17627 1004.2305 499.98828 C 1018.4026 487.80029 1027.9178 470.18736 1029.416 450.10352 L 1029.416 450.0625 C 1058.2056 443.74581 1087.7242 439.33236 1117.7285 436.94336 C 1145.4248 434.71631 1173.7701 434.31131 1202.6406 435.72852 L 1196.2012 522.13672 C 1195.4723 531.53077 1202.5591 539.75109 1211.9531 540.43945 C 1292.1671 546.4322 1366.9955 569.10864 1433.3613 604.82227 C 1502.3591 641.95314 1562.3273 693.21464 1609.6621 754.47852 C 1615.4119 761.9695 1626.1433 763.30647 1633.5938 757.55664 C 1641.0438 751.80685 1642.3787 741.07547 1636.6289 733.625 C 1586.4598 668.67639 1522.8075 614.2963 1449.5176 574.85742 C 1383.6376 539.38674 1310.0636 516.02356 1231.5098 507.88477 L 1236.6934 438.23828 C 1266.2523 441.19417 1295.0011 446.05361 1322.8594 452.61328 C 1356.9129 460.67112 1389.9552 471.36116 1421.7812 484.48047 C 1430.4869 488.04373 1440.4485 483.87369 1444.0117 475.16797 C 1447.575 466.46228 1443.403 456.50076 1434.6973 452.9375 C 1401.4131 439.21082 1366.6709 427.99348 1330.6738 419.49023 C 1300.7505 412.40419 1270.2217 407.26291 1239.2051 404.18555 L 1244.2246 336.80664 C 1422.9143 354.09658 1581.6431 432.24598 1701.377 549.06445 C 1826.9011 671.51124 1909.543 836.47347 1927.3594 1018.4023 C 1929.4649 1039.9844 1930.6808 1061.8921 1930.9238 1084.041 C 1931.0047 1089.7099 1931.0047 1095.4586 1930.9238 1101.168 L 1863.3828 1098.1309 C 1863.7878 1041.321 1857.2275 985.76784 1844.4727 932.35938 C 1827.6281 861.94436 1800.0551 795.49704 1763.4102 735.04297 C 1758.5107 726.98513 1748.0637 724.43397 1740.0059 729.29297 C 1731.948 734.19245 1729.3969 744.63943 1734.2559 752.69727 C 1769.1597 810.31688 1795.3978 873.44213 1811.3516 940.21289 C 1823.3371 990.42255 1829.5329 1042.8599 1829.209 1096.6328 L 1635.6992 1087.9277 C 1633.7152 1070.4758 1626.4258 1054.4008 1615.4121 1041.6055 C 1605.9543 1030.5981 1593.7095 1021.9904 1579.6699 1016.8945 C 1550.3891 853.55958 1421.9926 728.41846 1252.1113 722.57812 A 19.399403 19.399403 0 0 0 1250.1699 722.57812 A 19.399403 19.399403 0 0 0 1250.7754 761.34961 C 1336.1192 764.28362 1409.0863 800.27105 1461.3008 857.45508 L 1368.209 931.10156 C 1335.0758 899.03669 1289.9852 879.25977 1240.3906 879.25977 C 1139.0138 879.25977 1056.4102 961.86141 1056.4102 1063.2383 C 1056.4102 1098.0672 1066.161 1130.6789 1083.0723 1158.4863 L 989.56055 1230.9355 C 985.55353 1225.7972 981.19658 1220.1994 975.04688 1212.3301 A 19.399403 19.399403 0 0 0 960.01758 1204.6602 A 19.399403 19.399403 0 0 0 944.48633 1236.2188 C 972.69529 1272.3151 972.81148 1272.9086 1000.7734 1306.4727 A 19.399403 19.399403 0 1 0 1030.582 1281.6387 C 1023.3759 1272.9888 1018.1104 1266.6407 1013.7227 1261.2949 L 1106.5996 1189.3301 C 1140.1795 1224.9343 1187.7511 1247.209 1240.3906 1247.209 C 1341.7673 1247.209 1424.3613 1164.615 1424.3613 1063.2383 C 1424.3613 1025.3826 1412.8401 990.14797 1393.1289 960.85156 L 1485.5938 887.69922 C 1511.0983 923.86284 1529.5164 966.17693 1539.3125 1012.5117 C 1522.3125 1014.6963 1506.7297 1021.8782 1494.2207 1032.6562 C 1477.5382 1046.9903 1466.3617 1067.7225 1464.5801 1091.4102 C 1462.8389 1115.0978 1470.8169 1137.2452 1485.1914 1153.9277 C 1499.5255 1170.6103 1520.2557 1181.7867 1543.9434 1183.5684 C 1567.631 1185.3095 1589.7803 1177.3335 1606.4629 1162.959 C 1618.8128 1152.3097 1628.1668 1138.1766 1632.9043 1121.9395 L 1828.2363 1130.7266 C 1828.0339 1134.6543 1827.7503 1138.6236 1827.4668 1142.5918 C 1822.1624 1213.9786 1805.6819 1281.7603 1779.8887 1344.4414 C 1753.1642 1409.3901 1716.4391 1468.9128 1671.7363 1521.1875 C 1665.6221 1528.314 1666.4716 1539.085 1673.6387 1545.1992 C 1680.7652 1551.3135 1691.5361 1550.4639 1697.6504 1543.2969 C 1744.7017 1488.2687 1783.3309 1425.6683 1811.4727 1357.3184 C 1838.6426 1291.317 1855.9727 1220.0111 1861.5605 1145.1016 C 1861.8845 1140.8095 1862.1691 1136.5167 1862.4121 1132.2246 L 1929.8711 1135.2617 C 1929.5877 1140.2422 1929.2628 1145.1816 1928.8984 1150.1621 C 1922.5008 1235.559 1902.2953 1316.5433 1870.6309 1391.1289 C 1870.4283 1391.5338 1870.2262 1391.9394 1870.0645 1392.3848 C 1869.9832 1392.6277 1869.9012 1392.8291 1869.8203 1393.0312 C 1853.0163 1432.3487 1832.9735 1469.9252 1810.0957 1505.3555 C 1741.0169 1612.4154 1645.9838 1700.4848 1534.5508 1761.3438 C 1526.2905 1765.8784 1523.2521 1776.2045 1527.7871 1784.4648 C 1532.3222 1792.7252 1542.6479 1795.7616 1550.9082 1791.2266 C 1667.2408 1727.6951 1766.5274 1635.6993 1838.6836 1523.8613 C 1859.8202 1491.144 1878.6086 1456.6856 1894.8457 1420.7695 L 2110.9902 1507.4609 C 2081.8362 1574.5556 2044.8263 1638.6541 2001.2168 1698.2578 C 1955.7041 1760.453 1903.0248 1817.7483 1844.7168 1868.4844 C 1832.1239 1859.2118 1816.8579 1853.2611 1800.1348 1852.0059 C 1776.4471 1850.2647 1754.2978 1858.2407 1737.6152 1872.6152 C 1720.9327 1886.9493 1709.7582 1907.6815 1707.9766 1931.3691 C 1706.2354 1955.0568 1714.2114 1977.2061 1728.5859 1993.8887 C 1742.92 2010.5712 1763.6522 2021.7457 1787.3398 2023.5273 C 1811.0275 2025.2685 1833.1768 2017.2925 1849.8594 2002.918 C 1866.5419 1988.5839 1877.7164 1967.8517 1879.498 1944.1641 C 1880.8747 1925.8213 1876.38 1908.4094 1867.5938 1893.7109 C 1927.683 1841.3552 1981.8621 1782.3591 2028.7109 1718.3418 C 2077.3009 1651.895 2118.0343 1580.0228 2149.2129 1504.5059 C 2152.7762 1495.8002 2148.6061 1485.8387 2139.9004 1482.2754 L 2139.7793 1482.2344 L 2139.7793 1482.1953 L 1908.207 1389.3066 C 1937.766 1315.5308 1956.6764 1236.0872 1962.9121 1152.7148 C 1963.641 1143.1993 1964.1673 1133.6821 1964.5312 1124.207 C 1964.9767 1122.8303 1965.2199 1121.3732 1965.3008 1119.875 C 1965.3818 1118.2148 1965.2198 1116.5953 1964.8555 1115.0566 C 1965.1389 1104.6503 1965.219 1094.2448 1965.0977 1083.8789 C 1964.8547 1060.8796 1963.6001 1038.001 1961.373 1015.2852 C 1942.7469 825.09565 1856.3381 652.68165 1725.1855 524.6875 C 1596.1386 398.71791 1423.6847 315.79146 1229.8105 301.33594 C 1229.2234 301.29038 1228.6409 301.27491 1228.0645 301.28906 z M 955.55664 405.74414 C 956.17169 405.72978 956.78925 405.73089 957.41016 405.74609 C 958.07246 405.76231 958.73814 405.79509 959.40625 405.8457 C 970.13656 406.65553 979.49007 411.7166 985.96875 419.24805 C 992.44739 426.7795 996.09304 436.78091 995.2832 447.4707 C 994.4734 458.20101 989.41037 467.55453 981.87891 474.0332 C 974.34748 480.51188 964.34604 484.15554 953.65625 483.3457 C 942.92594 482.5359 933.57243 477.47482 927.09375 469.94336 C 920.61511 462.41193 916.97141 452.41049 917.78125 441.7207 C 918.59109 430.9904 923.65213 421.63687 931.18359 415.1582 C 937.80305 409.46406 946.33083 405.95948 955.55664 405.74414 z M 1142.9785 591.75 A 19.399403 19.399403 0 0 0 1137.7812 592.23633 C 920.82224 639.29394 758.33008 832.43409 758.33008 1063.2383 C 758.33008 1322.2476 963.18064 1533.8894 1219.5215 1544.8379 C 1223.2569 1566.4795 1232.8475 1586.2996 1246.7363 1602.4141 C 1266.6582 1625.5753 1295.4475 1641.1238 1328.3672 1643.5938 L 1328.6094 1643.5938 L 1340.959 1964.248 C 1306.2172 1971.1721 1269.6949 1976.0305 1232.0781 1978.541 C 1190.8171 1981.2944 1148.0164 1981.214 1104.6094 1977.9746 C 961.55221 1967.2848 829.06323 1923.3107 714.10742 1854.1914 C 599.59696 1785.3151 502.41822 1691.5368 429.5332 1580.873 L 593.76758 1477.2148 C 609.64031 1501.0644 627.01106 1523.9019 645.67773 1545.6055 C 761.36242 1679.9163 928.30806 1770.1317 1119.0645 1784.3848 C 1128.4585 1785.1136 1136.6789 1778.0269 1137.3672 1768.6328 C 1138.0961 1759.2388 1131.0113 1751.0184 1121.6172 1750.3301 C 940.25501 1736.7654 781.52615 1651.0037 671.55078 1523.293 C 561.57541 1395.5822 500.31173 1225.8817 513.83594 1044.5195 C 514.56478 1035.1255 507.47999 1026.9067 498.08594 1026.2188 C 488.69188 1025.4899 480.47157 1032.5747 479.7832 1041.9688 C 468.76947 1189.7224 504.92797 1330.1081 575.58594 1448.3438 L 396.81641 1561.1934 L 396.73438 1561.3164 C 388.79801 1566.3374 386.40874 1576.8644 391.42969 1584.8008 C 468.08043 1706.1543 572.50867 1808.8806 696.49414 1883.4258 C 816.02552 1955.2985 953.61552 2000.9737 1102.0176 2012.0684 C 1146.7609 2015.4292 1191.1811 2015.4706 1234.3047 2012.5957 C 1278.7646 2009.5993 1321.6855 2003.5259 1362.1367 1994.6582 C 1370.0326 1992.9576 1375.8225 1985.7899 1375.5391 1977.4082 L 1362.623 1641.2051 C 1382.3425 1636.9534 1400.3603 1627.7622 1415.2207 1614.9668 C 1438.382 1595.0449 1453.9304 1566.2557 1456.4004 1533.3359 C 1457.3578 1520.3788 1456.2082 1507.7452 1453.25 1495.7715 C 1553.7018 1446.192 1634.4367 1362.6422 1680.3867 1260.0996 A 19.399403 19.399403 0 0 0 1662.9297 1232.5117 A 19.399403 19.399403 0 0 0 1644.9844 1244.2344 C 1603.0007 1337.9257 1529.5098 1414.4074 1437.9277 1460.1113 C 1434.867 1455.329 1431.4729 1450.7727 1427.7734 1446.4805 C 1407.8515 1423.3193 1379.0623 1407.7708 1346.1426 1405.3008 C 1313.2633 1402.8713 1282.4484 1413.9673 1259.2871 1433.9297 C 1238.3997 1451.8959 1223.7087 1477.0748 1219.2129 1505.9902 C 984.03542 1494.959 797.12891 1301.1735 797.12891 1063.2383 C 797.12891 850.63021 946.59658 673.40141 1146.0059 630.15039 A 19.399403 19.399403 0 0 0 1142.9785 591.75 z M 1112.9316 748.01562 A 19.399403 19.399403 0 0 0 1105.9941 749.66797 C 981.09055 803.18657 899.89132 925.84314 899.21875 1061.627 A 19.399403 19.399403 0 0 0 899.16016 1063.1699 L 899.16016 1063.2285 A 19.399403 19.399403 0 0 0 899.16016 1063.2441 A 19.399403 19.399403 0 0 0 899.16016 1063.2734 C 899.16031 1063.3324 899.16797 1063.3652 899.16797 1063.4238 A 19.399403 19.399403 0 0 0 899.26367 1065.3945 C 899.43715 1104.9999 901.58748 1125.2332 912.86914 1172.1074 A 19.399403 19.399403 0 1 0 950.58203 1163.0273 C 939.34002 1116.3176 938.04996 1103.4353 937.95898 1063.2402 L 937.95898 1063.2246 C 937.95895 1063.2133 937.95898 1063.2047 937.95898 1063.1934 C 938.00774 942.19771 1010.0547 832.98681 1121.2734 785.33203 A 19.399403 19.399403 0 0 0 1112.9473 748.01562 A 19.399403 19.399403 0 0 0 1112.9453 748.01562 A 19.399403 19.399403 0 0 0 1112.9316 748.01562 z M 2198.7148 877.38672 C 2207.9078 877.3989 2217.214 879.86022 2225.6211 884.98242 C 2237.8091 892.43289 2245.8665 904.1359 2248.9844 917.05273 C 2252.1427 929.96957 2250.3216 944.10161 2242.8711 956.33008 L 2242.9121 956.28906 L 2242.9121 956.33008 C 2235.4616 968.55859 2223.7586 976.57548 2210.8418 979.69336 C 2197.925 982.85168 2183.793 981.02859 2171.5645 973.57812 L 2171.5254 973.57812 C 2159.2969 966.1277 2151.278 954.4266 2148.1602 941.50977 C 2145.0018 928.59293 2146.8249 914.46093 2154.2754 902.23242 C 2161.7259 890.04447 2173.4269 881.98699 2186.3438 878.86914 C 2190.3799 877.88215 2194.5362 877.38118 2198.7148 877.38672 z M 1240.3906 918.05859 C 1320.801 918.05859 1385.5703 982.82769 1385.5703 1063.2383 C 1385.5703 1143.6487 1320.801 1208.4179 1240.3906 1208.418 C 1159.9802 1208.418 1095.2032 1143.6487 1095.2031 1063.2383 C 1095.2031 1061.9819 1095.2183 1060.7291 1095.25 1059.4805 C 1097.2308 980.81923 1161.2365 918.05859 1240.3906 918.05859 z M 606.27539 960.85352 C 592.35293 960.54195 579.42255 965.52213 569.55273 974.02539 C 558.98438 983.13602 551.93847 996.21342 550.80469 1011.1953 C 549.71142 1026.1772 554.77364 1040.187 563.84375 1050.7148 C 568.90522 1056.5861 575.22217 1061.4057 582.42969 1064.6855 C 577.16579 1170.4902 600.40795 1271.5161 645.51562 1360.1523 C 694.3486 1456.0771 768.81229 1537.3436 860.56641 1594.2344 C 868.58373 1599.2148 879.07173 1596.7464 884.01172 1588.7695 C 888.99219 1580.7522 886.5218 1570.2642 878.54492 1565.3242 L 878.50391 1565.2832 C 792.01373 1511.6318 721.8423 1435.0635 675.84375 1344.7266 C 633.69193 1261.9616 611.86583 1167.4927 616.44141 1068.3691 C 625.43056 1066.4255 633.69152 1062.2561 640.49414 1056.3848 C 651.06246 1047.3147 658.10844 1034.2358 659.24219 1019.2539 C 660.33545 1004.272 655.27327 990.26217 646.20312 979.73438 C 637.13302 969.16606 624.0542 962.12007 609.07227 960.98633 C 608.1359 960.918 607.20355 960.87429 606.27539 960.85352 z M 605.60742 994.99023 C 605.95136 994.99801 606.29587 995.01376 606.64258 995.03906 C 612.18994 995.444 617.09038 998.07626 620.45117 1002.0039 C 623.812 1005.9316 625.67447 1011.1558 625.26953 1016.7031 C 624.86463 1022.2505 622.23241 1027.149 618.30469 1030.5098 C 615.22732 1033.1417 611.38157 1034.8436 607.21094 1035.2891 C 605.55078 1034.5602 603.68776 1034.1149 601.74414 1033.9531 C 600.44844 1033.8314 599.15228 1033.8716 597.9375 1034.0742 C 594.73866 1032.8595 591.98536 1030.8757 589.79883 1028.3652 C 586.438 1024.4375 584.57553 1019.2133 584.98047 1013.666 C 585.38537 1008.1187 588.01763 1003.2182 591.94531 999.85742 C 595.62752 996.70668 600.44829 994.87355 605.60742 994.99023 z M 270.24219 1043.9863 C 271.12739 1044.0068 272.01681 1044.0494 272.91016 1044.1152 C 287.20372 1045.168 299.67659 1051.9307 308.3418 1061.9727 C 317.00704 1072.0551 321.82427 1085.3764 320.77148 1099.6699 C 319.7187 1113.9635 312.95792 1126.4344 302.91602 1135.0996 C 292.83356 1143.7648 279.51037 1148.584 265.2168 1147.5312 C 250.92323 1146.4789 238.45232 1139.7158 229.78711 1129.6738 C 221.1219 1119.5914 216.30268 1106.2701 217.35547 1091.9766 C 218.40826 1077.683 225.17095 1065.2121 235.21289 1056.5469 C 244.66516 1048.4232 256.96416 1043.68 270.24219 1043.9863 z M 1551.4395 1045.9297 C 1552.3247 1045.9501 1553.2141 1045.9928 1554.1074 1046.0586 C 1568.401 1047.1114 1580.8719 1053.8741 1589.5371 1063.916 C 1598.2023 1073.9984 1603.0211 1087.3198 1601.9688 1101.6133 C 1600.916 1115.9068 1594.1533 1128.3778 1584.1113 1137.043 C 1574.0289 1145.7082 1560.7076 1150.5274 1546.4141 1149.4746 C 1532.1205 1148.4218 1519.6496 1141.6591 1510.9844 1131.6172 C 1502.3192 1121.5348 1497.4999 1108.2135 1498.5527 1093.9199 C 1499.6055 1079.6264 1506.3682 1067.1554 1516.4102 1058.4902 C 1525.8624 1050.3666 1538.1614 1045.6233 1551.4395 1045.9297 z M 2194.3926 1060.1465 C 2188.7039 1060.1326 2183.0503 1060.8061 2177.5586 1062.1348 C 2159.9447 1066.4269 2143.95 1077.4 2133.7461 1094.123 C 2123.5827 1110.8461 2121.1117 1130.079 2125.3633 1147.6523 C 2129.6554 1165.2662 2140.6305 1181.261 2157.3535 1191.4648 C 2174.0766 1201.6283 2193.3094 1204.0973 2210.8828 1199.8457 C 2228.4967 1195.5536 2244.4914 1184.5805 2254.6953 1167.8574 C 2264.8587 1151.1344 2267.3278 1131.9015 2263.0762 1114.3281 C 2258.7841 1096.7142 2247.8109 1080.7195 2231.0879 1070.5156 C 2219.5908 1063.5283 2206.9076 1060.1769 2194.3926 1060.1465 z M 1549.6699 1070.4453 C 1543.2127 1070.5962 1537.2695 1073.0492 1532.6074 1077.0352 L 1532.5254 1077.1172 C 1527.221 1081.6522 1523.6977 1088.2116 1523.1309 1095.6621 C 1522.564 1103.1531 1525.1153 1110.1175 1529.6504 1115.4219 L 1529.6504 1115.502 C 1534.2259 1120.8064 1540.7864 1124.3296 1548.2773 1124.8965 C 1555.7683 1125.4634 1562.7737 1122.912 1568.0781 1118.377 C 1573.3825 1113.8014 1576.9038 1107.2429 1577.4707 1099.752 C 1578.0376 1092.261 1575.4882 1085.2556 1570.9531 1079.9512 L 1570.8711 1079.9512 C 1566.336 1074.6468 1559.7766 1071.1235 1552.3262 1070.5566 L 1552.3672 1070.5156 C 1551.899 1070.4802 1551.4321 1070.4567 1550.9688 1070.4453 C 1550.5339 1070.4347 1550.1004 1070.4353 1549.6699 1070.4453 z M 268.4043 1070.4922 C 262.36566 1070.6361 256.81009 1072.9296 252.50391 1076.6309 C 247.56391 1080.842 244.28419 1086.9554 243.75781 1093.9199 C 243.27192 1100.844 245.6195 1107.3627 249.87109 1112.3027 L 249.83008 1112.3438 C 254.04123 1117.2833 260.15652 1120.5635 267.12109 1121.0898 C 274.00467 1121.6162 280.5229 1119.2267 285.46289 1115.0156 L 285.54492 1114.9355 C 290.48492 1110.6434 293.7646 1104.5691 294.29102 1097.6855 C 294.81739 1090.6805 292.42795 1084.1612 288.2168 1079.2617 L 288.17578 1079.3027 C 283.92415 1074.3627 277.85183 1071.0831 270.92773 1070.5566 C 270.48992 1070.5237 270.05288 1070.5026 269.61914 1070.4922 C 269.21251 1070.4825 268.80687 1070.4826 268.4043 1070.4922 z M 1550.7871 1091.248 C 1551.6374 1091.9364 1554.2299 1093.2316 1555.2422 1093.4746 L 1550.3008 1097.7266 L 1545.3613 1101.9785 L 1545.4023 1101.9375 C 1545.2824 1100.9376 1544.4133 1098.2125 1543.8848 1097.248 L 1543.7832 1097.2402 C 1544.4716 1096.3899 1545.7667 1093.7994 1546.0098 1092.7871 L 1550.1777 1097.6758 L 1550.3008 1097.6855 L 1546.0508 1092.7871 C 1547.1036 1092.6656 1549.8558 1091.7744 1550.7871 1091.248 z M 1550.1777 1097.6758 L 1543.8633 1097.1992 C 1543.8697 1097.2106 1543.8782 1097.2361 1543.8848 1097.248 L 1550.2207 1097.7266 L 1550.1777 1097.6758 z M 2194.3242 1094.207 C 2200.8474 1094.2103 2207.4352 1095.9431 2213.3926 1099.5898 C 2222.0578 1104.8538 2227.728 1113.1536 2229.9551 1122.3047 C 2232.1821 1131.4963 2230.9255 1141.4988 2225.6211 1150.1641 C 2220.3572 1158.8293 2212.0574 1164.4976 2202.9062 1166.7246 C 2193.7151 1168.9517 2183.7121 1167.697 2175.0469 1162.3926 C 2166.3817 1157.1286 2160.7134 1148.8269 2158.4863 1139.6758 C 2156.2593 1130.4842 2157.5139 1120.4836 2162.8184 1111.8184 C 2168.0823 1103.1531 2176.3841 1097.4829 2185.5352 1095.2559 C 2188.4075 1094.5599 2191.3592 1094.2055 2194.3242 1094.207 z M 269.06445 1095.8633 L 268.45703 1104.125 C 267.41659 1103.2446 264.21456 1101.6222 262.84961 1101.2324 L 269.06445 1095.8633 z M 1550.2617 1097.7676 L 1550.2793 1097.7871 L 1550.3008 1097.7676 L 1550.3008 1097.8066 L 1550.3008 1097.8125 L 1554.4727 1102.666 C 1553.472 1102.7461 1550.7819 1103.6542 1549.8203 1104.1836 L 1549.8164 1104.2461 C 1548.9661 1103.5577 1546.4146 1102.2626 1545.4023 1102.0195 L 1550.2598 1097.8047 L 1550.2617 1097.7676 z M 1550.2598 1097.8047 L 1549.7754 1104.2051 C 1549.7861 1104.199 1549.8091 1104.1897 1549.8203 1104.1836 L 1550.3008 1097.8125 L 1550.2793 1097.7871 L 1550.2598 1097.8047 z M 1503.377 1228.5625 A 19.399403 19.399403 0 0 0 1487.4023 1237.0449 C 1430.8675 1317.5483 1338.7666 1365.5004 1240.3965 1365.6602 C 1174.141 1365.4587 1130.6717 1354.7941 1072.3711 1317.0723 A 19.399797 19.399797 0 0 0 1051.2949 1349.6484 C 1114.5639 1390.585 1169.5139 1404.249 1240.3301 1404.459 L 1240.375 1404.459 L 1240.4121 1404.459 C 1351.3742 1404.2923 1455.3757 1350.1449 1519.1465 1259.3379 A 19.399403 19.399403 0 0 0 1503.377 1228.5625 z M 306.95312 1245.6582 C 300.91431 1245.802 295.357 1248.0956 291.05078 1251.7969 C 286.11083 1256.008 282.8311 1262.1233 282.30469 1269.0879 C 281.81879 1276.0119 284.16829 1282.5307 288.41992 1287.4707 L 288.37891 1287.5117 C 292.59002 1292.4517 298.7034 1295.7314 305.66797 1296.2578 C 312.55155 1296.7842 319.07173 1294.3947 324.01172 1290.1836 L 324.0918 1290.1016 C 329.03179 1285.8095 332.31152 1279.7371 332.83789 1272.8535 C 333.3643 1265.8485 330.97677 1259.3292 326.76562 1254.4297 L 326.72461 1254.4688 C 322.47298 1249.5288 316.39867 1246.249 309.47461 1245.7227 C 309.03679 1245.6898 308.60171 1245.6686 308.16797 1245.6582 C 307.76134 1245.6485 307.35571 1245.6486 306.95312 1245.6582 z M 307.61328 1271.0312 L 307.00586 1279.291 C 305.96573 1278.4109 302.76416 1276.7889 301.39844 1276.3984 L 307.61328 1271.0312 z M 2155.6016 1273.7363 C 2150.9704 1273.7255 2146.3642 1274.2751 2141.8848 1275.3633 C 2127.5507 1278.8051 2114.5118 1287.7952 2106.2109 1301.4004 L 2103.9844 1305.0039 L 2103.9434 1305.4082 C 2097.5457 1318.0011 2096.2103 1332.0519 2099.3281 1344.9688 C 2102.7699 1359.3024 2111.7581 1372.3418 2125.3633 1380.6426 L 2128.9688 1382.8691 L 2129.373 1382.9102 C 2141.9659 1389.3078 2156.0168 1390.6433 2168.9336 1387.5254 C 2183.2676 1384.0836 2196.3046 1375.0935 2204.6055 1361.4883 C 2212.9063 1347.8831 2214.9315 1332.254 2211.4492 1317.9199 L 2211.4902 1317.8789 C 2208.0484 1303.5449 2199.0583 1290.5078 2185.4531 1282.207 C 2176.0995 1276.5002 2165.7901 1273.7601 2155.6016 1273.7363 z M 2155.4492 1307.8203 C 2159.6342 1307.8274 2163.8771 1308.9409 2167.7188 1311.2793 C 2173.2657 1314.6806 2176.9109 1320.0252 2178.3281 1325.8965 C 2179.7453 1331.7678 2178.9345 1338.2071 2175.5332 1343.7949 L 2175.6152 1343.7949 C 2172.2139 1349.3423 2166.8674 1352.9851 2160.9961 1354.4023 C 2155.1248 1355.8196 2148.6875 1355.0107 2143.0996 1351.6094 L 2143.0586 1351.6094 C 2137.5112 1348.2486 2133.8684 1342.9025 2132.4512 1337.0312 C 2131.034 1331.1603 2131.8428 1324.7226 2135.2441 1319.1348 L 2135.2441 1319.0938 C 2138.6049 1313.5464 2143.949 1309.9035 2149.8203 1308.4863 C 2151.6551 1308.0435 2153.547 1307.8171 2155.4492 1307.8203 z M 340.84375 1353.5684 C 334.80512 1353.7122 329.24954 1356.0059 324.94336 1359.707 C 320.00337 1363.9182 316.72364 1370.0335 316.19727 1376.998 C 315.71137 1383.9221 318.05892 1390.4409 322.31055 1395.3809 L 322.26953 1395.4219 C 326.48068 1400.3619 332.59597 1403.6416 339.56055 1404.168 C 346.44412 1404.6943 352.96235 1402.3045 357.90234 1398.0938 L 357.98438 1398.0117 C 362.92429 1393.7196 366.20409 1387.6472 366.73047 1380.7637 C 367.25688 1373.7586 364.8674 1367.2393 360.65625 1362.3398 L 360.61523 1362.3809 C 356.32313 1357.4409 350.25023 1354.1592 343.32617 1353.6328 L 343.36719 1353.6328 C 342.92937 1353.5999 342.49234 1353.5787 342.05859 1353.5684 C 341.65196 1353.5586 341.24633 1353.5588 340.84375 1353.5684 z M 341.46289 1378.9414 L 340.85547 1387.2012 C 339.81534 1386.321 336.61573 1384.699 335.25 1384.3086 L 341.46289 1378.9414 z M 1337.0293 1438.9961 C 1339.2015 1438.992 1341.3901 1439.0692 1343.5918 1439.2324 C 1367.077 1440.9736 1387.6473 1452.0698 1401.9004 1468.6309 L 1401.9004 1468.6699 C 1416.1534 1485.231 1424.0888 1507.2179 1422.3477 1530.7031 C 1420.6065 1554.1883 1409.5123 1574.7587 1392.9512 1589.0117 C 1380.2773 1599.9445 1364.4052 1607.1526 1347.1152 1609.1367 C 1346.2244 1609.0154 1345.3337 1608.9752 1344.4023 1609.0156 C 1343.0256 1609.0561 1341.6883 1609.2587 1340.3926 1609.623 C 1337.2747 1609.7039 1334.1168 1609.6629 1330.918 1609.4199 C 1307.4328 1607.6788 1286.8624 1596.5845 1272.6094 1580.0234 C 1258.3563 1563.4623 1250.421 1541.4754 1252.1621 1517.9902 C 1253.9033 1494.5051 1264.9975 1473.9347 1281.5586 1459.6816 C 1296.5671 1446.7648 1316.0317 1439.0358 1337.0293 1438.9961 z M 382.38867 1456.5801 C 376.34982 1456.7239 370.79254 1459.0175 366.48633 1462.7188 C 361.54637 1466.9295 358.26661 1473.0433 357.74023 1480.0078 C 357.2543 1486.9319 359.60384 1493.4506 363.85547 1498.3906 L 363.81445 1498.4316 C 368.02556 1503.3716 374.1409 1506.6513 381.10547 1507.1777 C 387.98905 1507.7041 394.50727 1505.3146 399.44727 1501.1035 L 399.5293 1501.0234 C 404.46925 1496.7313 407.74902 1490.657 408.27539 1483.7734 C 408.8018 1476.7684 406.41232 1470.2491 402.20117 1465.3496 L 402.16016 1465.3906 C 397.90853 1460.4506 391.83425 1457.1709 384.91016 1456.6445 C 384.47234 1456.6116 384.03726 1456.5905 383.60352 1456.5801 C 383.19688 1456.5703 382.79126 1456.5705 382.38867 1456.5801 z M 383.04883 1481.9512 L 382.44141 1490.2129 C 381.40126 1489.3328 378.19971 1487.7107 376.83398 1487.3203 L 383.04883 1481.9512 z M 659.02148 1661.4199 C 654.12256 1661.282 649.2016 1663.2563 645.7168 1667.2422 C 639.52158 1674.3282 640.25184 1685.0587 647.33789 1691.2539 C 710.99077 1747.0514 783.79483 1792.9674 863.48242 1826.373 C 937.82512 1857.5111 1018.0396 1877.7989 1102.3027 1885.0469 C 1104.2464 1894.036 1108.4158 1902.295 1114.2871 1909.0977 C 1123.3573 1919.666 1136.4361 1926.7119 1151.418 1927.8457 C 1166.3999 1928.939 1180.4097 1923.8787 1190.9375 1914.8086 C 1201.5058 1905.7384 1208.5518 1892.6597 1209.6855 1877.6777 C 1210.7788 1862.6958 1205.7166 1848.6841 1196.6465 1838.1562 C 1187.5359 1827.5883 1174.4585 1820.5439 1159.4766 1819.4102 L 1159.5566 1819.4102 C 1144.5747 1818.3169 1130.5649 1823.3772 1120.0371 1832.4473 C 1114.1253 1837.5087 1109.3071 1843.8667 1106.0273 1851.0742 C 1024.882 1844.1906 947.8255 1824.7941 876.68164 1794.9922 C 800.35484 1763.0038 730.66841 1719.0296 669.72852 1665.6211 C 666.62837 1662.9107 662.83176 1661.5272 659.02148 1661.4199 z M 400.0957 1725.123 C 382.73493 1725.5356 366.71376 1732.0868 354.25781 1742.7988 C 340.08572 1754.9868 330.57047 1772.6017 329.07227 1792.6855 C 327.5741 1812.8099 334.37646 1831.5974 346.56445 1845.7695 C 358.75245 1859.9416 376.36729 1869.4569 396.45117 1870.9551 C 411.63554 1872.0889 426.05136 1868.5255 438.32031 1861.4395 C 524.04117 1943.3136 623.69118 2011.137 733.70703 2060.8203 C 843.80388 2110.5846 964.26632 2142.2091 1091.5723 2151.7246 C 1092.5845 2151.8055 1093.5966 2151.7645 1094.5684 2151.6836 C 1096.9978 2164.3575 1102.7465 2175.939 1110.9258 2185.4141 C 1123.1138 2199.5862 1140.7287 2209.1014 1160.8125 2210.5996 C 1180.9369 2212.0978 1199.7244 2205.2954 1213.8965 2193.1074 C 1228.0686 2180.9194 1237.5838 2163.3451 1239.082 2143.2207 C 1240.5802 2123.0963 1233.7778 2104.3088 1221.5898 2090.1367 C 1209.4019 2075.9646 1191.8294 2066.4494 1171.7051 2064.9512 C 1151.5807 2063.453 1132.7912 2070.2554 1118.6191 2082.4434 C 1107.9698 2091.5945 1099.9525 2103.8224 1095.9844 2117.873 C 1095.377 2117.7513 1094.7709 2117.6713 1094.123 2117.6309 C 970.70466 2108.3988 854.12837 2077.8268 747.67578 2029.7227 C 641.66861 1981.8615 545.70404 1916.67 463.06055 1838.0352 C 469.62022 1828.0337 473.78939 1816.333 474.7207 1803.5781 C 476.21887 1783.4538 469.41651 1764.6643 457.22852 1750.4922 C 445.04052 1736.3201 427.46807 1726.8048 407.34375 1725.3066 C 406.08598 1725.213 404.83247 1725.1525 403.58594 1725.123 C 402.41731 1725.0954 401.25309 1725.0955 400.0957 1725.123 z M 400.94336 1759.2578 C 401.55841 1759.2434 402.17597 1759.2446 402.79688 1759.2598 C 403.45913 1759.276 404.12486 1759.3088 404.79297 1759.3594 C 415.52327 1760.1692 424.87683 1765.2322 431.35547 1772.7637 C 437.83415 1780.2951 441.47781 1790.2965 440.66797 1800.9863 C 439.85813 1811.7166 434.79705 1821.0702 427.26562 1827.5488 C 419.7342 1834.0275 409.7328 1837.6712 399.04297 1836.8613 C 388.3127 1836.0515 378.95915 1830.9904 372.48047 1823.459 C 366.00179 1815.9276 362.35621 1805.9261 363.16602 1795.2363 C 363.97585 1784.506 369.03885 1775.1525 376.57031 1768.6738 C 383.18974 1762.9797 391.71755 1759.4734 400.94336 1759.2578 z M 1155.8887 1853.4141 C 1156.2326 1853.4218 1156.5791 1853.4376 1156.9258 1853.4629 C 1162.4731 1853.8678 1167.3716 1856.5 1170.7324 1860.4277 C 1174.0933 1864.3554 1175.9557 1869.5776 1175.5508 1875.125 C 1175.1459 1880.6724 1172.5136 1885.5728 1168.5859 1888.9336 C 1164.6583 1892.2944 1159.436 1894.1569 1153.8887 1893.752 C 1148.3413 1893.3471 1143.4409 1890.7148 1140.0801 1886.7871 C 1136.7193 1882.8594 1134.8568 1877.6372 1135.2617 1872.0898 C 1135.6666 1866.5425 1138.2989 1861.6421 1142.2266 1858.2812 C 1145.9088 1855.1309 1150.7295 1853.2973 1155.8887 1853.4141 z M 1794.7949 1885.8477 C 1795.6801 1885.8681 1796.5695 1885.9127 1797.4629 1885.9785 C 1811.7564 1887.0313 1824.2274 1893.792 1832.8926 1903.834 C 1841.5578 1913.9164 1846.377 1927.2396 1845.3242 1941.5332 C 1844.2714 1955.8267 1837.5087 1968.2977 1827.4668 1976.9629 C 1817.3844 1985.6281 1804.0631 1990.4454 1789.7695 1989.3926 C 1775.476 1988.3398 1763.0051 1981.579 1754.3398 1971.5371 C 1745.6746 1961.4547 1740.8555 1948.1334 1741.9082 1933.8398 C 1742.961 1919.5463 1749.7237 1907.0735 1759.7656 1898.4082 C 1769.2179 1890.2846 1781.5169 1885.5413 1794.7949 1885.8477 z M 1165.3047 2098.8613 C 1165.9197 2098.847 1166.5373 2098.8481 1167.1582 2098.8633 C 1167.8205 2098.8795 1168.4862 2098.9142 1169.1543 2098.9648 C 1179.8846 2099.7747 1189.2382 2104.8358 1195.7168 2112.3672 C 1202.1955 2119.8987 1205.8391 2129.9001 1205.0293 2140.5898 C 1204.2195 2151.3201 1199.1584 2160.6737 1191.627 2167.1523 C 1184.0955 2173.631 1174.0941 2177.2747 1163.4043 2176.4648 C 1152.674 2175.655 1143.3205 2170.5939 1136.8418 2163.0625 C 1130.3631 2155.531 1126.7175 2145.5297 1127.5273 2134.8398 C 1128.3372 2124.1096 1133.4002 2114.756 1140.9316 2108.2773 C 1147.5511 2102.5833 1156.0789 2099.0769 1165.3047 2098.8613 z M 0.70898438 2320.6309 L 0.70898438 2320.6699 L 0.70898438 2320.6875 C 0.70601868 2320.6812 0.7028016 2320.677 0.69726562 2320.6738 C 0.6917956 2320.6707 0.68531334 2320.668 0.67773438 2320.668 C 0.6646194 2320.668 0.65366792 2320.6739 0.64648438 2320.6836 C 0.6393667 2320.6932 0.63671875 2320.7069 0.63671875 2320.7246 C 0.63671875 2320.7421 0.63969622 2320.7539 0.64648438 2320.7637 C 0.65327249 2320.7734 0.66332532 2320.7793 0.67578125 2320.7793 C 0.69258687 2320.7793 0.70298707 2320.7727 0.70898438 2320.7598 C 0.70898437 2320.7624 0.71060798 2320.7655 0.7109375 2320.7695 C 0.71133293 2320.7735 0.71067388 2320.7764 0.7109375 2320.7773 L 0.73828125 2320.7773 C 0.73775401 2320.7684 0.73828125 2320.7605 0.73828125 2320.7539 L 0.73828125 2320.6309 L 0.70898438 2320.6309 z M 0.82226562 2320.6309 L 0.82226562 2320.752 C 0.82226562 2320.7621 0.82083974 2320.7712 0.8203125 2320.7773 L 0.84765625 2320.7773 C 0.84798577 2320.7762 0.84934576 2320.7736 0.84960938 2320.7695 C 0.84993886 2320.7655 0.84960937 2320.7621 0.84960938 2320.7598 C 0.85257503 2320.766 0.85774528 2320.7701 0.86328125 2320.7734 C 0.86881722 2320.7767 0.87523349 2320.7793 0.8828125 2320.7793 C 0.89599338 2320.7793 0.9050576 2320.7734 0.91210938 2320.7637 C 0.91922701 2320.7539 0.92382813 2320.7403 0.92382812 2320.7227 C 0.92382812 2320.7051 0.91889749 2320.6931 0.91210938 2320.6836 C 0.90538713 2320.674 0.89741927 2320.668 0.88476562 2320.668 C 0.86822366 2320.668 0.85587025 2320.6757 0.84960938 2320.6895 L 0.84960938 2320.6719 L 0.84960938 2320.6309 L 0.82226562 2320.6309 z M 1.2714844 2320.6309 L 1.2714844 2320.7773 L 1.2988281 2320.7773 L 1.2988281 2320.6309 L 1.2714844 2320.6309 z M 1.5644531 2320.6309 L 1.5644531 2320.7773 L 1.5917969 2320.7773 L 1.5917969 2320.7363 L 1.6035156 2320.7285 L 1.6328125 2320.7773 L 1.6640625 2320.7773 L 1.6230469 2320.7109 L 1.6601562 2320.6699 L 1.6308594 2320.6699 L 1.5917969 2320.7148 L 1.5917969 2320.6309 L 1.5644531 2320.6309 z M 2.7929688 2320.6309 L 2.7929688 2320.7773 L 2.8203125 2320.7773 L 2.8203125 2320.7363 L 2.8320312 2320.7285 L 2.8613281 2320.7773 L 2.890625 2320.7773 L 2.8515625 2320.7109 L 2.8886719 2320.6699 L 2.8574219 2320.6699 L 2.8203125 2320.7148 L 2.8203125 2320.6309 L 2.7929688 2320.6309 z M 0.07421875 2320.6367 C 0.051811252 2320.6367 0.035234388 2320.642 0.0234375 2320.6543 C 0.011640612 2320.6666 0.005859375 2320.6842 0.005859375 2320.707 C 0.005859375 2320.7298 0.011245185 2320.747 0.0234375 2320.7598 C 0.035695719 2320.7724 0.053764377 2320.7793 0.076171875 2320.7793 C 0.090934462 2320.7793 0.10273655 2320.7761 0.11328125 2320.7695 C 0.12389186 2320.7629 0.13320181 2320.7537 0.13867188 2320.7402 L 0.11328125 2320.7305 C 0.10642719 2320.7481 0.093768351 2320.7559 0.076171875 2320.7559 C 0.06292509 2320.7559 0.051973646 2320.7526 0.044921875 2320.7441 C 0.037936008 2320.7357 0.03515625 2320.723 0.03515625 2320.707 C 0.03515625 2320.6913 0.038133721 2320.68 0.044921875 2320.6719 C 0.051775933 2320.6637 0.061037869 2320.6582 0.07421875 2320.6582 C 0.082852227 2320.6582 0.091329427 2320.6599 0.09765625 2320.6641 C 0.10404898 2320.6681 0.10915332 2320.6747 0.11132812 2320.6816 L 0.13671875 2320.6738 C 0.13256677 2320.6611 0.12551542 2320.653 0.11523438 2320.6465 C 0.10495329 2320.6399 0.090563042 2320.6367 0.07421875 2320.6367 z M 1.1796875 2320.6367 C 1.1576095 2320.6367 1.1393432 2320.6418 1.1269531 2320.6543 C 1.1145631 2320.6668 1.109375 2320.6847 1.109375 2320.707 C 1.109375 2320.7294 1.1145631 2320.7468 1.1269531 2320.7598 C 1.1394091 2320.7726 1.1578072 2320.7793 1.1796875 2320.7793 C 1.1939229 2320.7793 1.2061204 2320.7753 1.2167969 2320.7695 C 1.2274734 2320.7637 1.2345007 2320.7551 1.2402344 2320.7441 C 1.2459681 2320.7331 1.25 2320.7215 1.25 2320.707 C 1.25 2320.685 1.2429243 2320.667 1.2304688 2320.6543 C 1.2180787 2320.6416 1.2017655 2320.6367 1.1796875 2320.6367 z M 1.8457031 2320.6387 L 1.8457031 2320.7773 L 1.875 2320.7773 L 1.875 2320.7285 L 1.9101562 2320.7285 C 1.9206351 2320.7285 1.9279679 2320.7265 1.9355469 2320.7227 C 1.9431918 2320.7188 1.9490389 2320.7121 1.953125 2320.7051 C 1.9572111 2320.698 1.9609375 2320.6906 1.9609375 2320.6816 C 1.9609375 2320.6676 1.9562945 2320.658 1.9472656 2320.6504 C 1.9383026 2320.6427 1.9248769 2320.6387 1.9082031 2320.6387 L 1.8457031 2320.6387 z M 0.47460938 2320.6445 L 0.46484375 2320.6699 L 0.44921875 2320.6699 L 0.44921875 2320.6895 L 0.46289062 2320.6895 L 0.46289062 2320.752 C 0.46289062 2320.761 0.46628757 2320.767 0.47070312 2320.7715 C 0.47511872 2320.7759 0.4801091 2320.7793 0.48828125 2320.7793 C 0.49704654 2320.7793 0.50486469 2320.7776 0.51171875 2320.7754 L 0.51171875 2320.7578 C 0.50769858 2320.7587 0.5060811 2320.7598 0.50390625 2320.7598 C 0.49975427 2320.7598 0.49611776 2320.7583 0.49414062 2320.7559 C 0.49216353 2320.7534 0.49023437 2320.7493 0.49023438 2320.7441 L 0.49023438 2320.6895 L 0.51171875 2320.6895 L 0.51171875 2320.6699 L 0.49023438 2320.6699 L 0.49023438 2320.6445 L 0.47460938 2320.6445 z M 1.1796875 2320.6582 C 1.1925389 2320.6582 1.2018667 2320.6633 1.2089844 2320.6719 C 1.2161021 2320.6804 1.21875 2320.692 1.21875 2320.707 C 1.21875 2320.7228 1.2161021 2320.7356 1.2089844 2320.7441 C 1.2019326 2320.7527 1.1927366 2320.7559 1.1796875 2320.7559 C 1.1670998 2320.7559 1.1557529 2320.751 1.1484375 2320.7422 C 1.141188 2320.7334 1.1386719 2320.7223 1.1386719 2320.707 C 1.1386719 2320.6919 1.1413198 2320.6803 1.1484375 2320.6719 C 1.1555552 2320.6634 1.1666384 2320.6582 1.1796875 2320.6582 z M 1.875 2320.6602 L 1.9042969 2320.6602 C 1.9215638 2320.6602 1.9316406 2320.667 1.9316406 2320.6816 C 1.9316406 2320.6892 1.9281778 2320.6952 1.9238281 2320.6992 C 1.9194784 2320.7032 1.9142903 2320.7051 1.90625 2320.7051 L 1.875 2320.7051 L 1.875 2320.6602 z M 0.2109375 2320.668 C 0.20658781 2320.668 0.20211854 2320.6684 0.19921875 2320.6699 C 0.19631896 2320.6714 0.19351519 2320.6746 0.19140625 2320.6777 C 0.18929731 2320.6808 0.18824892 2320.6858 0.18554688 2320.6934 C 0.18554688 2320.6914 0.18392327 2320.6876 0.18359375 2320.6816 C 0.18326423 2320.6756 0.18379146 2320.6711 0.18359375 2320.6699 L 0.15625 2320.6699 C 0.15644771 2320.673 0.15807136 2320.6757 0.15820312 2320.6797 C 0.15840084 2320.6836 0.15820312 2320.6894 0.15820312 2320.6953 L 0.15820312 2320.7773 L 0.18554688 2320.7773 L 0.18554688 2320.7246 C 0.18554687 2320.7136 0.18758379 2320.7048 0.19140625 2320.6992 C 0.19529461 2320.6936 0.20011129 2320.6914 0.20703125 2320.6914 C 0.21045828 2320.6914 0.2142685 2320.6924 0.21875 2320.6934 L 0.21875 2320.6699 C 0.21657515 2320.6689 0.21449634 2320.668 0.2109375 2320.668 z M 0.28125 2320.668 C 0.26516933 2320.668 0.25290591 2320.6722 0.24414062 2320.6816 C 0.23537538 2320.6911 0.23046875 2320.705 0.23046875 2320.7227 C 0.23046875 2320.7409 0.23355402 2320.7561 0.2421875 2320.7656 C 0.25082098 2320.7751 0.2632162 2320.7793 0.27929688 2320.7793 C 0.30249519 2320.7793 0.31859287 2320.7694 0.32617188 2320.75 L 0.30078125 2320.748 C 0.29821098 2320.7565 0.29106976 2320.7598 0.28125 2320.7598 C 0.27413232 2320.7598 0.26951336 2320.7572 0.265625 2320.752 C 0.26180254 2320.7466 0.25976563 2320.7389 0.25976562 2320.7285 L 0.328125 2320.7285 C 0.328125 2320.7089 0.32451249 2320.6937 0.31640625 2320.6836 C 0.30830001 2320.6734 0.29660573 2320.668 0.28125 2320.668 z M 0.39257812 2320.668 C 0.37919957 2320.668 0.36715172 2320.6704 0.359375 2320.6758 C 0.35166418 2320.6811 0.34748254 2320.6888 0.34570312 2320.6992 L 0.375 2320.7012 C 0.37559314 2320.6958 0.37653369 2320.6918 0.37890625 2320.6895 C 0.38134471 2320.6871 0.38548446 2320.6855 0.390625 2320.6855 C 0.39616097 2320.6855 0.39990529 2320.688 0.40234375 2320.6914 C 0.40478221 2320.6948 0.40625 2320.7 0.40625 2320.707 L 0.40625 2320.7129 L 0.3828125 2320.7129 C 0.36910438 2320.713 0.35881198 2320.7149 0.3515625 2320.7207 C 0.34437892 2320.7265 0.34179686 2320.735 0.34179688 2320.7461 C 0.34179687 2320.7563 0.34380979 2320.7658 0.34960938 2320.7715 C 0.35540892 2320.7771 0.36269988 2320.7793 0.37304688 2320.7793 C 0.38873208 2320.7793 0.40042645 2320.7719 0.40820312 2320.7578 L 0.41015625 2320.7578 C 0.41081529 2320.7645 0.41272044 2320.77 0.41601562 2320.7734 C 0.41937675 2320.7769 0.4246548 2320.7793 0.43164062 2320.7793 C 0.43361776 2320.7793 0.43409698 2320.7775 0.43554688 2320.7773 C 0.43706264 2320.7772 0.43813508 2320.7775 0.43945312 2320.7773 C 0.44077121 2320.7771 0.44399441 2320.7777 0.4453125 2320.7773 C 0.44663059 2320.777 0.44757114 2320.7758 0.44921875 2320.7754 L 0.44921875 2320.7598 C 0.44724162 2320.7602 0.44546828 2320.7617 0.44335938 2320.7617 C 0.44019596 2320.7617 0.43693083 2320.7601 0.43554688 2320.7578 C 0.43422879 2320.7555 0.43359375 2320.7521 0.43359375 2320.7461 L 0.43359375 2320.707 C 0.43359375 2320.6948 0.43114351 2320.6844 0.42382812 2320.6777 C 0.41651278 2320.6711 0.40608853 2320.668 0.39257812 2320.668 z M 0.57421875 2320.668 C 0.55813808 2320.668 0.54587462 2320.6722 0.53710938 2320.6816 C 0.52834409 2320.6911 0.5234375 2320.705 0.5234375 2320.7227 C 0.5234375 2320.7409 0.52652277 2320.7561 0.53515625 2320.7656 C 0.54378973 2320.7751 0.55618499 2320.7793 0.57226562 2320.7793 C 0.59546398 2320.7793 0.61156166 2320.7694 0.61914062 2320.75 L 0.59375 2320.748 C 0.59117973 2320.7565 0.58403851 2320.7598 0.57421875 2320.7598 C 0.56710107 2320.7598 0.56248211 2320.7572 0.55859375 2320.752 C 0.55477129 2320.7466 0.55273437 2320.7389 0.55273438 2320.7285 L 0.62109375 2320.7285 C 0.62109375 2320.7089 0.61748124 2320.6937 0.609375 2320.6836 C 0.60126876 2320.6734 0.58957448 2320.668 0.57421875 2320.668 z M 1.3730469 2320.668 C 1.3569662 2320.668 1.3447028 2320.6722 1.3359375 2320.6816 C 1.3271722 2320.6911 1.3222656 2320.705 1.3222656 2320.7227 C 1.3222656 2320.7409 1.3253509 2320.7561 1.3339844 2320.7656 C 1.3426179 2320.7751 1.3550131 2320.7793 1.3710938 2320.7793 C 1.3942917 2320.7793 1.4103897 2320.7694 1.4179688 2320.75 L 1.3925781 2320.748 C 1.3900079 2320.7565 1.3828666 2320.7598 1.3730469 2320.7598 C 1.3659292 2320.7598 1.3613102 2320.7572 1.3574219 2320.752 C 1.3535994 2320.7466 1.3515625 2320.7389 1.3515625 2320.7285 L 1.4199219 2320.7285 C 1.4199219 2320.7089 1.4163094 2320.6937 1.4082031 2320.6836 C 1.4000969 2320.6734 1.3884026 2320.668 1.3730469 2320.668 z M 1.5019531 2320.668 C 1.4941105 2320.668 1.4880897 2320.6701 1.4824219 2320.6738 C 1.4767541 2320.6775 1.4725066 2320.6832 1.46875 2320.6914 C 1.46875 2320.6894 1.4671264 2320.6851 1.4667969 2320.6797 C 1.4664674 2320.6742 1.4669946 2320.6712 1.4667969 2320.6699 L 1.4394531 2320.6699 C 1.4396508 2320.6728 1.4412748 2320.676 1.4414062 2320.6797 C 1.441604 2320.6833 1.4414062 2320.6876 1.4414062 2320.6934 L 1.4414062 2320.7773 L 1.46875 2320.7773 L 1.46875 2320.7207 C 1.46875 2320.7117 1.4705233 2320.703 1.4746094 2320.6973 C 1.4787614 2320.6915 1.4835121 2320.6895 1.4902344 2320.6895 C 1.5029539 2320.6895 1.5097656 2320.698 1.5097656 2320.7168 L 1.5097656 2320.7773 L 1.5371094 2320.7773 L 1.5371094 2320.709 C 1.5371094 2320.6955 1.5353601 2320.6847 1.5292969 2320.6777 C 1.5232337 2320.6707 1.5132887 2320.668 1.5019531 2320.668 z M 1.7207031 2320.668 C 1.7073245 2320.668 1.6952767 2320.6704 1.6875 2320.6758 C 1.6797892 2320.6811 1.6756075 2320.6888 1.6738281 2320.6992 L 1.703125 2320.7012 C 1.7037181 2320.6958 1.7046591 2320.6918 1.7070312 2320.6895 C 1.7094697 2320.6871 1.7136095 2320.6855 1.71875 2320.6855 C 1.724286 2320.6855 1.7280303 2320.688 1.7304688 2320.6914 C 1.7329068 2320.6948 1.734375 2320.7 1.734375 2320.707 L 1.734375 2320.7129 L 1.7109375 2320.7129 C 1.6972294 2320.713 1.686937 2320.7149 1.6796875 2320.7207 C 1.6725039 2320.7265 1.6699219 2320.735 1.6699219 2320.7461 C 1.6699219 2320.7563 1.6719348 2320.7658 1.6777344 2320.7715 C 1.683534 2320.7771 1.6908249 2320.7793 1.7011719 2320.7793 C 1.7168571 2320.7793 1.7285514 2320.7719 1.7363281 2320.7578 L 1.7382812 2320.7578 C 1.7389403 2320.7645 1.7408454 2320.77 1.7441406 2320.7734 C 1.7475017 2320.7769 1.7527798 2320.7793 1.7597656 2320.7793 C 1.7617428 2320.7793 1.762222 2320.7775 1.7636719 2320.7773 C 1.7651877 2320.7772 1.7682136 2320.7775 1.7695312 2320.7773 C 1.7708493 2320.7771 1.7721194 2320.7777 1.7734375 2320.7773 C 1.7747556 2320.777 1.7756961 2320.7758 1.7773438 2320.7754 L 1.7773438 2320.7598 C 1.7753666 2320.7602 1.7735933 2320.7617 1.7714844 2320.7617 C 1.768321 2320.7617 1.7650559 2320.7601 1.7636719 2320.7578 C 1.7623538 2320.7555 1.7617188 2320.7521 1.7617188 2320.7461 L 1.7617188 2320.707 C 1.7617187 2320.6948 1.7592685 2320.6844 1.7519531 2320.6777 C 1.7446377 2320.6711 1.7342135 2320.668 1.7207031 2320.668 z M 2.0234375 2320.668 C 2.0100589 2320.668 1.9999642 2320.6704 1.9921875 2320.6758 C 1.9844767 2320.6811 1.980295 2320.6888 1.9785156 2320.6992 L 2.0078125 2320.7012 C 2.0084056 2320.6958 2.0093462 2320.6918 2.0117188 2320.6895 C 2.0141568 2320.6871 2.018297 2320.6855 2.0234375 2320.6855 C 2.0289735 2320.6855 2.0327182 2320.688 2.0351562 2320.6914 C 2.0375947 2320.6948 2.0390625 2320.7 2.0390625 2320.707 L 2.0390625 2320.7129 L 2.015625 2320.7129 C 2.0019169 2320.713 1.9916245 2320.7149 1.984375 2320.7207 C 1.9771914 2320.7265 1.9726562 2320.735 1.9726562 2320.7461 C 1.9726562 2320.7563 1.9766223 2320.7658 1.9824219 2320.7715 C 1.9882215 2320.7771 1.9955124 2320.7793 2.0058594 2320.7793 C 2.0215446 2320.7793 2.0332389 2320.7719 2.0410156 2320.7578 C 2.0416747 2320.7645 2.0435798 2320.77 2.046875 2320.7734 C 2.0502361 2320.7769 2.0555141 2320.7793 2.0625 2320.7793 C 2.0644771 2320.7793 2.0669095 2320.7775 2.0683594 2320.7773 C 2.0698752 2320.7772 2.0709475 2320.7775 2.0722656 2320.7773 C 2.0735837 2320.7771 2.0748538 2320.7777 2.0761719 2320.7773 C 2.07749 2320.777 2.080384 2320.7758 2.0820312 2320.7754 L 2.0820312 2320.7598 C 2.0800545 2320.7602 2.0763273 2320.7617 2.0742188 2320.7617 C 2.0710553 2320.7617 2.0697434 2320.7601 2.0683594 2320.7578 C 2.0670413 2320.7555 2.0664062 2320.7521 2.0664062 2320.7461 L 2.0664062 2320.707 C 2.0664062 2320.6948 2.0620029 2320.6844 2.0546875 2320.6777 C 2.0473721 2320.6711 2.0369479 2320.668 2.0234375 2320.668 z M 2.15625 2320.668 C 2.1484074 2320.668 2.1404334 2320.6701 2.1347656 2320.6738 C 2.1290978 2320.6775 2.1248499 2320.6832 2.1210938 2320.6914 C 2.1210938 2320.6894 2.1214229 2320.6851 2.1210938 2320.6797 C 2.1207642 2320.6742 2.1193383 2320.6712 2.1191406 2320.6699 L 2.09375 2320.6699 C 2.0939477 2320.6728 2.0936182 2320.676 2.09375 2320.6797 C 2.0939477 2320.6833 2.09375 2320.6876 2.09375 2320.6934 L 2.09375 2320.7773 L 2.1210938 2320.7773 L 2.1210938 2320.7207 C 2.1210938 2320.7117 2.1248206 2320.703 2.1289062 2320.6973 C 2.1330582 2320.6915 2.1378094 2320.6895 2.1445312 2320.6895 C 2.1572508 2320.6895 2.1640625 2320.698 2.1640625 2320.7168 L 2.1640625 2320.7773 L 2.1914062 2320.7773 L 2.1914062 2320.709 C 2.1914062 2320.6955 2.1877038 2320.6847 2.1816406 2320.6777 C 2.1755774 2320.6707 2.1675856 2320.668 2.15625 2320.668 z M 2.2597656 2320.668 C 2.246387 2320.668 2.2362923 2320.6704 2.2285156 2320.6758 C 2.2208048 2320.6811 2.2166228 2320.6888 2.2148438 2320.6992 L 2.2441406 2320.7012 C 2.2447338 2320.6958 2.2456743 2320.6918 2.2480469 2320.6895 C 2.2504853 2320.6871 2.2546251 2320.6855 2.2597656 2320.6855 C 2.2653016 2320.6855 2.2690459 2320.688 2.2714844 2320.6914 C 2.2739228 2320.6948 2.2753906 2320.7 2.2753906 2320.707 L 2.2753906 2320.7129 L 2.2519531 2320.7129 C 2.238245 2320.713 2.2279526 2320.7149 2.2207031 2320.7207 C 2.2135195 2320.7265 2.2089844 2320.735 2.2089844 2320.7461 C 2.2089844 2320.7563 2.2129504 2320.7658 2.21875 2320.7715 C 2.2245496 2320.7771 2.2318405 2320.7793 2.2421875 2320.7793 C 2.2578727 2320.7793 2.269567 2320.7719 2.2773438 2320.7578 L 2.2792969 2320.7578 C 2.2799559 2320.7645 2.2818614 2320.77 2.2851562 2320.7734 C 2.2885174 2320.7769 2.2918423 2320.7793 2.2988281 2320.7793 C 2.3008053 2320.7793 2.3032376 2320.7775 2.3046875 2320.7773 C 2.3062033 2320.7772 2.3072757 2320.7775 2.3085938 2320.7773 C 2.3099114 2320.7771 2.3111819 2320.7777 2.3125 2320.7773 C 2.3138181 2320.777 2.3167118 2320.7758 2.3183594 2320.7754 L 2.3183594 2320.7598 C 2.3163822 2320.7602 2.3126558 2320.7617 2.3105469 2320.7617 C 2.3073835 2320.7617 2.3060715 2320.7601 2.3046875 2320.7578 C 2.3033694 2320.7555 2.3027344 2320.7521 2.3027344 2320.7461 L 2.3027344 2320.707 C 2.3027344 2320.6948 2.298331 2320.6844 2.2910156 2320.6777 C 2.2837002 2320.6711 2.273276 2320.668 2.2597656 2320.668 z M 2.3730469 2320.668 C 2.3586138 2320.668 2.3477519 2320.67 2.3398438 2320.6758 C 2.3320011 2320.6814 2.328125 2320.691 2.328125 2320.7012 C 2.328125 2320.7074 2.3291978 2320.7125 2.3320312 2320.7168 C 2.334931 2320.721 2.3382799 2320.7239 2.34375 2320.7266 C 2.3492201 2320.7292 2.3612679 2320.7313 2.3769531 2320.7344 C 2.3838072 2320.7358 2.3877911 2320.7382 2.390625 2320.7402 C 2.3935248 2320.7422 2.3945312 2320.7446 2.3945312 2320.748 C 2.3945312 2320.7523 2.3941838 2320.7558 2.390625 2320.7578 C 2.3870662 2320.7598 2.3808236 2320.7598 2.3730469 2320.7598 C 2.3646111 2320.7598 2.3588954 2320.7599 2.3554688 2320.7578 C 2.3521076 2320.7557 2.3490402 2320.7512 2.3476562 2320.7461 L 2.3242188 2320.75 C 2.3267886 2320.7598 2.332067 2320.7668 2.3398438 2320.7715 C 2.347686 2320.7761 2.3583502 2320.7793 2.3730469 2320.7793 C 2.3880072 2320.7793 2.3997674 2320.7754 2.4082031 2320.7695 C 2.4167048 2320.7636 2.4199219 2320.7564 2.4199219 2320.7461 C 2.4199219 2320.74 2.4203409 2320.7344 2.4179688 2320.7305 C 2.4156621 2320.7265 2.4121574 2320.7232 2.4082031 2320.7207 C 2.4043148 2320.7182 2.3991027 2320.7166 2.3925781 2320.7148 C 2.3861195 2320.713 2.3775105 2320.7107 2.3691406 2320.709 C 2.3631433 2320.7078 2.3599921 2320.7069 2.3574219 2320.7051 C 2.3549175 2320.7032 2.3535156 2320.7004 2.3535156 2320.6973 C 2.3535156 2320.6933 2.3541267 2320.6911 2.3574219 2320.6895 C 2.3607171 2320.6877 2.3664564 2320.6875 2.3730469 2320.6875 C 2.3797691 2320.6875 2.3855744 2320.6873 2.3886719 2320.6895 C 2.3917694 2320.6916 2.3937408 2320.6949 2.3945312 2320.6992 L 2.4179688 2320.6973 C 2.4160575 2320.6879 2.4120736 2320.6807 2.4042969 2320.6758 C 2.3965861 2320.6708 2.3857664 2320.668 2.3730469 2320.668 z M 2.4902344 2320.668 C 2.4731651 2320.668 2.4606621 2320.6737 2.4511719 2320.6836 C 2.4416816 2320.6934 2.4375 2320.7055 2.4375 2320.7227 C 2.4375 2320.7399 2.4416816 2320.7538 2.4511719 2320.7637 C 2.4606621 2320.7736 2.4735606 2320.7793 2.4902344 2320.7793 C 2.5072377 2320.7793 2.521628 2320.7735 2.53125 2320.7637 C 2.540872 2320.7538 2.5449219 2320.74 2.5449219 2320.7227 C 2.5449219 2320.7048 2.5404766 2320.6911 2.53125 2320.6816 C 2.5220893 2320.6721 2.507699 2320.668 2.4902344 2320.668 z M 2.7226562 2320.668 C 2.7082236 2320.668 2.6973617 2320.67 2.6894531 2320.6758 C 2.6816105 2320.6814 2.6777344 2320.691 2.6777344 2320.7012 C 2.6777344 2320.7074 2.6788067 2320.7125 2.6816406 2320.7168 C 2.6845404 2320.721 2.6878893 2320.7239 2.6933594 2320.7266 C 2.6988294 2320.7292 2.7089241 2320.7313 2.7246094 2320.7344 C 2.7314634 2320.7358 2.7374005 2320.7382 2.7402344 2320.7402 C 2.7431342 2320.7422 2.7441406 2320.7446 2.7441406 2320.748 C 2.7441406 2320.7523 2.7418401 2320.7558 2.7382812 2320.7578 C 2.7347228 2320.7598 2.730433 2320.7598 2.7226562 2320.7598 C 2.7142209 2320.7598 2.7085052 2320.7599 2.7050781 2320.7578 C 2.701717 2320.7557 2.6986496 2320.7512 2.6972656 2320.7461 L 2.671875 2320.75 C 2.6744453 2320.7598 2.6797233 2320.7668 2.6875 2320.7715 C 2.6953426 2320.7761 2.70796 2320.7793 2.7226562 2320.7793 C 2.7376165 2320.7793 2.7493767 2320.7754 2.7578125 2320.7695 C 2.7663142 2320.7636 2.7695312 2320.7564 2.7695312 2320.7461 C 2.7695312 2320.74 2.7679976 2320.7344 2.765625 2320.7305 C 2.7633183 2320.7265 2.7617668 2320.7232 2.7578125 2320.7207 C 2.7539241 2320.7182 2.748712 2320.7166 2.7421875 2320.7148 C 2.7357289 2320.713 2.7271199 2320.7107 2.71875 2320.709 C 2.7127527 2320.7078 2.7096015 2320.7069 2.7070312 2320.7051 C 2.7045273 2320.7032 2.703125 2320.7004 2.703125 2320.6973 C 2.703125 2320.6933 2.7037364 2320.6911 2.7070312 2320.6895 C 2.7103265 2320.6877 2.7160662 2320.6875 2.7226562 2320.6875 C 2.7293785 2320.6875 2.7332306 2320.6873 2.7363281 2320.6895 C 2.7394256 2320.6916 2.7413966 2320.6949 2.7421875 2320.6992 L 2.7675781 2320.6973 C 2.7656669 2320.6879 2.7597298 2320.6807 2.7519531 2320.6758 C 2.7442423 2320.6708 2.7353758 2320.668 2.7226562 2320.668 z M 2.9472656 2320.668 C 2.933887 2320.668 2.9237923 2320.6704 2.9160156 2320.6758 C 2.9083048 2320.6811 2.9041228 2320.6888 2.9023438 2320.6992 L 2.9316406 2320.7012 C 2.9322338 2320.6958 2.9331743 2320.6918 2.9355469 2320.6895 C 2.9379853 2320.6871 2.9421251 2320.6855 2.9472656 2320.6855 C 2.9528016 2320.6855 2.9565459 2320.688 2.9589844 2320.6914 C 2.9614228 2320.6948 2.9628906 2320.7 2.9628906 2320.707 L 2.9628906 2320.7129 L 2.9394531 2320.7129 C 2.925745 2320.713 2.9154526 2320.7149 2.9082031 2320.7207 C 2.9010195 2320.7265 2.8964844 2320.735 2.8964844 2320.7461 C 2.8964844 2320.7563 2.9004504 2320.7658 2.90625 2320.7715 C 2.9120496 2320.7771 2.9193405 2320.7793 2.9296875 2320.7793 C 2.9453727 2320.7793 2.957067 2320.7719 2.9648438 2320.7578 C 2.9655024 2320.7645 2.9674079 2320.77 2.9707031 2320.7734 C 2.9740642 2320.7769 2.9793423 2320.7793 2.9863281 2320.7793 C 2.9883053 2320.7793 2.9907376 2320.7775 2.9921875 2320.7773 C 2.9937033 2320.7772 2.9947757 2320.7775 2.9960938 2320.7773 C 2.9974114 2320.7771 2.9986819 2320.7777 3 2320.7773 C 3.0013181 2320.777 3.002259 2320.7758 3.0039062 2320.7754 L 3.0039062 2320.7598 C 3.0019295 2320.7602 3.0001558 2320.7617 2.9980469 2320.7617 C 2.9948835 2320.7617 2.9935715 2320.7601 2.9921875 2320.7578 C 2.9908694 2320.7555 2.9902344 2320.7521 2.9902344 2320.7461 L 2.9902344 2320.707 C 2.9902344 2320.6948 2.985831 2320.6844 2.9785156 2320.6777 C 2.9712002 2320.6711 2.960776 2320.668 2.9472656 2320.668 z M 0.93359375 2320.6699 L 0.97460938 2320.7754 C 0.9720391 2320.7823 0.97085894 2320.7881 0.96875 2320.791 C 0.96670696 2320.7939 0.96357368 2320.7956 0.9609375 2320.7969 C 0.95836723 2320.7981 0.9551261 2320.7988 0.95117188 2320.7988 C 0.94827208 2320.7988 0.94489918 2320.7994 0.94140625 2320.7988 L 0.94140625 2320.8184 C 0.94641498 2320.8192 0.95232803 2320.8184 0.95898438 2320.8184 C 0.96860638 2320.8184 0.97635867 2320.8158 0.98242188 2320.8105 C 0.98855094 2320.8053 0.99433222 2320.7969 1 2320.7832 L 1.0429688 2320.6699 L 1.0136719 2320.6699 L 0.99804688 2320.7207 L 0.9921875 2320.7441 L 0.99023438 2320.7539 C 0.98621421 2320.7391 0.9811518 2320.7279 0.97851562 2320.7207 L 0.96289062 2320.6699 L 0.93359375 2320.6699 z M 2.5527344 2320.6699 L 2.5917969 2320.7773 L 2.625 2320.7773 L 2.6640625 2320.6699 L 2.6347656 2320.6699 C 2.6216506 2320.71 2.6153243 2320.7334 2.6132812 2320.7402 C 2.6112386 2320.747 2.610034 2320.7512 2.609375 2320.7539 C 2.6056844 2320.7407 2.6025511 2320.7338 2.6015625 2320.7305 L 2.5839844 2320.6699 L 2.5527344 2320.6699 z M 0.27929688 2320.6855 C 0.28542594 2320.6855 0.29129713 2320.6871 0.29492188 2320.6914 C 0.29854658 2320.6957 0.30025401 2320.7023 0.30078125 2320.7109 L 0.25976562 2320.7109 C 0.25996334 2320.7028 0.26213207 2320.6979 0.265625 2320.6934 C 0.26918384 2320.6888 0.27277234 2320.6855 0.27929688 2320.6855 z M 0.57226562 2320.6855 C 0.57839473 2320.6855 0.58426592 2320.6871 0.58789062 2320.6914 C 0.59151537 2320.6957 0.59322276 2320.7023 0.59375 2320.7109 L 0.55273438 2320.7109 C 0.55293205 2320.7028 0.55510082 2320.6979 0.55859375 2320.6934 C 0.56215259 2320.6888 0.56574113 2320.6855 0.57226562 2320.6855 z M 1.3710938 2320.6855 C 1.3772225 2320.6855 1.383094 2320.6871 1.3867188 2320.6914 C 1.3903431 2320.6957 1.3920509 2320.7023 1.3925781 2320.7109 L 1.3515625 2320.7109 C 1.3517602 2320.7028 1.3539289 2320.6979 1.3574219 2320.6934 C 1.3609807 2320.6888 1.3645692 2320.6855 1.3710938 2320.6855 z M 0.6875 2320.6875 C 0.6950131 2320.6875 0.70125571 2320.691 0.70507812 2320.6973 C 0.70896648 2320.7035 0.7109375 2320.7111 0.7109375 2320.7227 C 0.7109375 2320.7345 0.70714517 2320.7435 0.703125 2320.75 C 0.69910483 2320.7564 0.69481539 2320.7598 0.6875 2320.7598 C 0.67293513 2320.7598 0.66601564 2320.7489 0.66601562 2320.7246 C 0.66601562 2320.7122 0.66629713 2320.7013 0.66992188 2320.6953 C 0.67354658 2320.6892 0.6800528 2320.6875 0.6875 2320.6875 z M 0.87304688 2320.6875 C 0.88049403 2320.6875 0.88511304 2320.6894 0.88867188 2320.6953 C 0.89223067 2320.7012 0.89453125 2320.7105 0.89453125 2320.7227 C 0.89453125 2320.7472 0.88774352 2320.7598 0.87304688 2320.7598 C 0.86553377 2320.7598 0.85935711 2320.7563 0.85546875 2320.75 C 0.85164629 2320.7437 0.84960936 2320.7359 0.84960938 2320.7246 C 0.84960938 2320.7127 0.85158039 2320.7035 0.85546875 2320.6973 C 0.85942301 2320.6909 0.86553377 2320.6875 0.87304688 2320.6875 z M 2.4921875 2320.6875 C 2.500096 2320.6875 2.5056136 2320.6896 2.5097656 2320.6953 C 2.5139176 2320.701 2.515625 2320.7099 2.515625 2320.7227 C 2.515625 2320.747 2.5073036 2320.7598 2.4902344 2320.7598 C 2.4824577 2320.7598 2.4768082 2320.7562 2.4726562 2320.75 C 2.4685706 2320.7437 2.4667969 2320.7346 2.4667969 2320.7227 C 2.4667969 2320.6985 2.475316 2320.6875 2.4921875 2320.6875 z M 0.39257812 2320.7285 L 0.40625 2320.7285 L 0.40625 2320.7324 C 0.40625 2320.7371 0.40438679 2320.7419 0.40234375 2320.7461 C 0.40030071 2320.7502 0.39815599 2320.7535 0.39453125 2320.7559 C 0.39097241 2320.7582 0.38716219 2320.7598 0.3828125 2320.7598 C 0.37892414 2320.7598 0.37541939 2320.7583 0.37304688 2320.7559 C 0.37074022 2320.7534 0.36914062 2320.7492 0.36914062 2320.7441 C 0.36914062 2320.7402 0.36970976 2320.7367 0.37109375 2320.7344 C 0.37254365 2320.732 0.37620417 2320.7316 0.37890625 2320.7305 C 0.38160833 2320.7293 0.38611953 2320.7288 0.39257812 2320.7285 z M 1.7207031 2320.7285 L 1.734375 2320.7285 L 1.734375 2320.7324 C 1.734375 2320.7371 1.7325114 2320.7419 1.7304688 2320.7461 C 1.7284257 2320.7502 1.726281 2320.7535 1.7226562 2320.7559 C 1.7190978 2320.7582 1.7152872 2320.7598 1.7109375 2320.7598 C 1.7070491 2320.7598 1.7035444 2320.7583 1.7011719 2320.7559 C 1.6988652 2320.7534 1.6972656 2320.7492 1.6972656 2320.7441 C 1.6972656 2320.7402 1.6978348 2320.7367 1.6992188 2320.7344 C 1.7006682 2320.732 1.7043296 2320.7316 1.7070312 2320.7305 C 1.7097333 2320.7293 1.7142445 2320.7288 1.7207031 2320.7285 z M 2.0234375 2320.7285 L 2.0390625 2320.7285 L 2.0390625 2320.7324 C 2.0390625 2320.7371 2.0371993 2320.7419 2.0351562 2320.7461 C 2.0331136 2320.7502 2.0309681 2320.7535 2.0273438 2320.7559 C 2.0237849 2320.7582 2.0199747 2320.7598 2.015625 2320.7598 C 2.0117366 2320.7598 2.0082319 2320.7583 2.0058594 2320.7559 C 2.0035527 2320.7534 2.0019531 2320.7492 2.0019531 2320.7441 C 2.0019531 2320.7402 2.0025227 2320.7367 2.0039062 2320.7344 C 2.0053561 2320.732 2.0070635 2320.7316 2.0097656 2320.7305 C 2.0124677 2320.7293 2.0169789 2320.7288 2.0234375 2320.7285 z M 2.2597656 2320.7285 L 2.2753906 2320.7285 L 2.2753906 2320.7324 C 2.2753906 2320.7371 2.2735274 2320.7419 2.2714844 2320.7461 C 2.2694413 2320.7502 2.2672966 2320.7535 2.2636719 2320.7559 C 2.260113 2320.7582 2.2563028 2320.7598 2.2519531 2320.7598 C 2.2480648 2320.7598 2.2445601 2320.7583 2.2421875 2320.7559 C 2.2398808 2320.7534 2.2382813 2320.7492 2.2382812 2320.7441 C 2.2382812 2320.7402 2.2388504 2320.7367 2.2402344 2320.7344 C 2.2416843 2320.732 2.2433917 2320.7316 2.2460938 2320.7305 C 2.2487954 2320.7293 2.253307 2320.7288 2.2597656 2320.7285 z M 2.9472656 2320.7285 L 2.9628906 2320.7285 L 2.9628906 2320.7324 C 2.9628906 2320.7371 2.9610274 2320.7419 2.9589844 2320.7461 C 2.9569413 2320.7502 2.9547966 2320.7535 2.9511719 2320.7559 C 2.947613 2320.7582 2.9438028 2320.7598 2.9394531 2320.7598 C 2.9355648 2320.7598 2.9320601 2320.7583 2.9296875 2320.7559 C 2.9273808 2320.7534 2.9257812 2320.7492 2.9257812 2320.7441 C 2.9257812 2320.7402 2.9263504 2320.7367 2.9277344 2320.7344 C 2.9291843 2320.732 2.9308917 2320.7316 2.9335938 2320.7305 C 2.9362954 2320.7293 2.940807 2320.7288 2.9472656 2320.7285 z M 0.046875 2320.832 C 0.0363962 2320.832 0.028578044 2320.8352 0.0234375 2320.8398 C 0.018296956 2320.8445 0.015625 2320.8516 0.015625 2320.8613 L 0.015625 2320.873 L 0 2320.873 L 0 2320.8906 L 0.015625 2320.8906 L 0.015625 2320.9805 L 0.044921875 2320.9805 L 0.044921875 2320.8906 L 0.064453125 2320.8906 L 0.064453125 2320.873 L 0.044921875 2320.873 L 0.044921875 2320.8652 C 0.044921875 2320.8605 0.044963772 2320.8554 0.046875 2320.8535 C 0.048852132 2320.8516 0.051895508 2320.8516 0.056640625 2320.8516 C 0.059342706 2320.8516 0.061751044 2320.851 0.064453125 2320.8516 L 0.064453125 2320.834 C 0.057928589 2320.8329 0.052081448 2320.832 0.046875 2320.832 z M 0.5859375 2320.832 L 0.5859375 2320.9805 L 0.61328125 2320.9805 L 0.61328125 2320.9219 C 0.61328125 2320.9128 0.61505459 2320.9061 0.61914062 2320.9004 C 0.6232926 2320.8946 0.62804342 2320.8906 0.63476562 2320.8906 C 0.64748518 2320.8906 0.65429688 2320.9011 0.65429688 2320.9199 L 0.65429688 2320.9805 L 0.68164062 2320.9805 L 0.68164062 2320.9121 C 0.68164063 2320.8987 0.67989133 2320.8878 0.67382812 2320.8809 C 0.66776496 2320.8739 0.65781989 2320.8711 0.64648438 2320.8711 C 0.63864175 2320.8711 0.6326209 2320.8733 0.62695312 2320.877 C 0.62128539 2320.8806 0.6170378 2320.8864 0.61328125 2320.8945 L 0.61132812 2320.8945 C 0.61185536 2320.8877 0.61328125 2320.8802 0.61328125 2320.873 L 0.61328125 2320.832 L 0.5859375 2320.832 z M 1.7890625 2320.832 L 1.7890625 2320.8535 L 1.8164062 2320.8535 L 1.8164062 2320.832 L 1.7890625 2320.832 z M 0.87695312 2320.8398 L 0.87695312 2320.9805 L 0.90234375 2320.9805 L 0.90234375 2320.8984 C 0.90234375 2320.8921 0.9015769 2320.8835 0.90039062 2320.873 L 0.96289062 2320.9805 L 0.99609375 2320.9805 L 0.99609375 2320.8398 L 0.97070312 2320.8398 L 0.97070312 2320.9219 C 0.97070312 2320.93 0.97146997 2320.9393 0.97265625 2320.9492 L 0.91015625 2320.8398 L 0.87695312 2320.8398 z M 1.4511719 2320.8398 L 1.4511719 2320.9805 L 1.4804688 2320.9805 L 1.4804688 2320.9297 L 1.515625 2320.9297 C 1.5261038 2320.9297 1.5334366 2320.9296 1.5410156 2320.9258 C 1.5486605 2320.9219 1.5545077 2320.9153 1.5585938 2320.9082 C 1.5626794 2320.9012 1.5664063 2320.8937 1.5664062 2320.8848 C 1.5664062 2320.8707 1.5617633 2320.8592 1.5527344 2320.8516 C 1.5437714 2320.8439 1.5303457 2320.8398 1.5136719 2320.8398 L 1.4511719 2320.8398 z M 0.52929688 2320.8477 L 0.52148438 2320.873 L 0.50585938 2320.873 L 0.50585938 2320.8906 L 0.51953125 2320.8906 L 0.51953125 2320.9551 C 0.51953125 2320.9641 0.52097507 2320.9701 0.52539062 2320.9746 C 0.52980622 2320.979 0.53674973 2320.9824 0.54492188 2320.9824 C 0.55368712 2320.9824 0.56150532 2320.9808 0.56835938 2320.9785 L 0.56835938 2320.9609 C 0.56433921 2320.9619 0.5607686 2320.9629 0.55859375 2320.9629 C 0.55444177 2320.9629 0.55275838 2320.9614 0.55078125 2320.959 C 0.54880412 2320.9565 0.546875 2320.9525 0.546875 2320.9473 L 0.546875 2320.8906 L 0.56640625 2320.8906 L 0.56640625 2320.873 L 0.546875 2320.873 L 0.546875 2320.8477 L 0.52929688 2320.8477 z M 2.0820312 2320.8477 L 2.0742188 2320.873 L 2.0585938 2320.873 L 2.0585938 2320.8906 L 2.0722656 2320.8906 L 2.0722656 2320.9551 C 2.0722656 2320.9641 2.0756625 2320.9701 2.0800781 2320.9746 C 2.0844937 2320.979 2.0894845 2320.9824 2.0976562 2320.9824 C 2.1064215 2320.9824 2.1142397 2320.9808 2.1210938 2320.9785 L 2.1210938 2320.9609 C 2.1170736 2320.9619 2.113503 2320.9629 2.1113281 2320.9629 C 2.1071761 2320.9629 2.1054928 2320.9614 2.1035156 2320.959 C 2.1015385 2320.9565 2.0996094 2320.9525 2.0996094 2320.9473 L 2.0996094 2320.8906 L 2.1210938 2320.8906 L 2.1210938 2320.873 L 2.0996094 2320.873 L 2.0996094 2320.8477 L 2.0820312 2320.8477 z M 1.4804688 2320.8633 L 1.5097656 2320.8633 C 1.5270326 2320.8633 1.5351563 2320.8701 1.5351562 2320.8848 C 1.5351562 2320.8923 1.5336466 2320.8983 1.5292969 2320.9023 C 1.5249472 2320.9063 1.5197587 2320.9082 1.5117188 2320.9082 L 1.4804688 2320.9082 L 1.4804688 2320.8633 z M 0.1328125 2320.8711 C 0.12846281 2320.8711 0.12399354 2320.8715 0.12109375 2320.873 C 0.11819396 2320.8745 0.11539019 2320.8758 0.11328125 2320.8789 C 0.11117231 2320.8819 0.10817083 2320.889 0.10546875 2320.8965 C 0.10546875 2320.8945 0.10579827 2320.8888 0.10546875 2320.8828 C 0.10513923 2320.8767 0.10566646 2320.8742 0.10546875 2320.873 L 0.078125 2320.873 C 0.078322713 2320.8761 0.077993191 2320.8789 0.078125 2320.8828 C 0.078322713 2320.8867 0.078125 2320.8926 0.078125 2320.8984 L 0.078125 2320.9805 L 0.10742188 2320.9805 L 0.10742188 2320.9277 C 0.10742188 2320.9167 0.10945879 2320.9079 0.11328125 2320.9023 C 0.11716961 2320.8967 0.12198629 2320.8945 0.12890625 2320.8945 C 0.13233328 2320.8945 0.1361435 2320.8935 0.140625 2320.8945 L 0.140625 2320.873 C 0.13845015 2320.8721 0.13637134 2320.8711 0.1328125 2320.8711 z M 0.20507812 2320.8711 C 0.18800892 2320.8711 0.17550586 2320.8749 0.16601562 2320.8848 C 0.15652543 2320.8946 0.15234375 2320.9086 0.15234375 2320.9258 C 0.15234375 2320.943 0.15652543 2320.9569 0.16601562 2320.9668 C 0.17550586 2320.9767 0.18840435 2320.9824 0.20507812 2320.9824 C 0.22208146 2320.9824 0.23451862 2320.9766 0.24414062 2320.9668 C 0.25376267 2320.9569 0.25976562 2320.9431 0.25976562 2320.9258 C 0.25976562 2320.9079 0.25532037 2320.8943 0.24609375 2320.8848 C 0.23693304 2320.8752 0.22254279 2320.8711 0.20507812 2320.8711 z M 0.33984375 2320.8711 C 0.33272607 2320.8711 0.32740617 2320.8733 0.32226562 2320.877 C 0.31719103 2320.8806 0.31202078 2320.8864 0.30859375 2320.8945 C 0.30859375 2320.8925 0.30892327 2320.8882 0.30859375 2320.8828 C 0.30826423 2320.8773 0.30683834 2320.8743 0.30664062 2320.873 L 0.28125 2320.873 C 0.28144771 2320.8759 0.28111819 2320.8791 0.28125 2320.8828 C 0.28144771 2320.8864 0.28125 2320.8908 0.28125 2320.8965 L 0.28125 2320.9805 L 0.30859375 2320.9805 L 0.30859375 2320.9219 C 0.30859375 2320.9128 0.31096023 2320.9061 0.31445312 2320.9004 C 0.31801196 2320.8947 0.32252313 2320.8906 0.328125 2320.8906 C 0.33893332 2320.8906 0.34375 2320.9011 0.34375 2320.9199 L 0.34375 2320.9805 L 0.37109375 2320.9805 L 0.37109375 2320.9219 C 0.37142327 2320.9126 0.37352614 2320.9036 0.37695312 2320.8984 C 0.38044606 2320.8932 0.38522084 2320.8906 0.390625 2320.8906 C 0.40143332 2320.8906 0.40625 2320.9011 0.40625 2320.9199 L 0.40625 2320.9805 L 0.43554688 2320.9805 L 0.43554688 2320.9121 C 0.43554687 2320.8989 0.43125132 2320.8879 0.42578125 2320.8809 C 0.42031118 2320.8737 0.41275665 2320.8711 0.40234375 2320.8711 C 0.39450113 2320.8711 0.38788714 2320.8733 0.3828125 2320.877 C 0.37773786 2320.8806 0.37471849 2320.8862 0.37109375 2320.8945 L 0.36914062 2320.8945 C 0.36564773 2320.879 0.35618804 2320.8711 0.33984375 2320.8711 z M 0.75390625 2320.8711 C 0.73782558 2320.8711 0.72360904 2320.8753 0.71484375 2320.8848 C 0.70607846 2320.8943 0.703125 2320.9081 0.703125 2320.9258 C 0.703125 2320.944 0.70621027 2320.9572 0.71484375 2320.9668 C 0.72347723 2320.9763 0.73587249 2320.9824 0.75195312 2320.9824 C 0.77515148 2320.9824 0.79124916 2320.9725 0.79882812 2320.9531 L 0.7734375 2320.9512 C 0.77086723 2320.9597 0.76372601 2320.9629 0.75390625 2320.9629 C 0.74678857 2320.9629 0.74216961 2320.9604 0.73828125 2320.9551 C 0.73445879 2320.9497 0.73242188 2320.9421 0.73242188 2320.9316 L 0.80078125 2320.9316 C 0.80078125 2320.912 0.79716874 2320.8969 0.7890625 2320.8867 C 0.78095626 2320.8765 0.76926198 2320.8711 0.75390625 2320.8711 z M 1.0722656 2320.8711 C 1.0551964 2320.8711 1.0407402 2320.8749 1.03125 2320.8848 C 1.0217598 2320.8946 1.0175781 2320.9086 1.0175781 2320.9258 C 1.0175781 2320.943 1.0217598 2320.9569 1.03125 2320.9668 C 1.0407402 2320.9767 1.0555918 2320.9824 1.0722656 2320.9824 C 1.089269 2320.9824 1.1017061 2320.9766 1.1113281 2320.9668 C 1.1209502 2320.9569 1.125 2320.9431 1.125 2320.9258 C 1.125 2320.9079 1.1205547 2320.8943 1.1113281 2320.8848 C 1.1021674 2320.8752 1.0897303 2320.8711 1.0722656 2320.8711 z M 1.3339844 2320.8711 C 1.3261418 2320.8711 1.3181678 2320.8733 1.3125 2320.877 C 1.3068322 2320.8806 1.3025847 2320.8864 1.2988281 2320.8945 C 1.2988281 2320.8925 1.2991576 2320.8882 1.2988281 2320.8828 C 1.2984986 2320.8773 1.2970727 2320.8743 1.296875 2320.873 L 1.2714844 2320.873 C 1.2716821 2320.8759 1.2713526 2320.8791 1.2714844 2320.8828 C 1.2716821 2320.8864 1.2714844 2320.8908 1.2714844 2320.8965 L 1.2714844 2320.9805 L 1.2988281 2320.9805 L 1.2988281 2320.9219 C 1.2988281 2320.9128 1.3006014 2320.9061 1.3046875 2320.9004 C 1.3088395 2320.8946 1.3155434 2320.8906 1.3222656 2320.8906 C 1.3349852 2320.8906 1.3417969 2320.9011 1.3417969 2320.9199 L 1.3417969 2320.9805 L 1.3691406 2320.9805 L 1.3691406 2320.9121 C 1.3691406 2320.8987 1.3654382 2320.8878 1.359375 2320.8809 C 1.3533118 2320.8739 1.3453199 2320.8711 1.3339844 2320.8711 z M 1.640625 2320.8711 C 1.6362753 2320.8711 1.631806 2320.8715 1.6289062 2320.873 C 1.6260069 2320.8745 1.6232023 2320.8758 1.6210938 2320.8789 C 1.6189848 2320.8819 1.6159833 2320.889 1.6132812 2320.8965 C 1.6132812 2320.8945 1.6136108 2320.8888 1.6132812 2320.8828 C 1.6129521 2320.8767 1.613479 2320.8742 1.6132812 2320.873 L 1.5859375 2320.873 C 1.5861352 2320.8761 1.5858057 2320.8789 1.5859375 2320.8828 C 1.5861352 2320.8867 1.5859375 2320.8926 1.5859375 2320.8984 L 1.5859375 2320.9805 L 1.6152344 2320.9805 L 1.6152344 2320.9277 C 1.6152344 2320.9167 1.6172713 2320.9079 1.6210938 2320.9023 C 1.6249817 2320.8967 1.6297988 2320.8945 1.6367188 2320.8945 C 1.6401454 2320.8945 1.643956 2320.8935 1.6484375 2320.8945 L 1.6484375 2320.873 C 1.6462627 2320.8721 1.6441838 2320.8711 1.640625 2320.8711 z M 1.7128906 2320.8711 C 1.6958214 2320.8711 1.6833184 2320.8749 1.6738281 2320.8848 C 1.6643379 2320.8946 1.6601562 2320.9086 1.6601562 2320.9258 C 1.6601562 2320.943 1.6643379 2320.9569 1.6738281 2320.9668 C 1.6833184 2320.9767 1.6962168 2320.9824 1.7128906 2320.9824 C 1.729894 2320.9824 1.7423311 2320.9766 1.7519531 2320.9668 C 1.7615752 2320.9569 1.7675781 2320.9431 1.7675781 2320.9258 C 1.7675781 2320.9079 1.7631329 2320.8943 1.7539062 2320.8848 C 1.7447459 2320.8752 1.7303553 2320.8711 1.7128906 2320.8711 z M 1.8886719 2320.8711 C 1.8725912 2320.8711 1.8603278 2320.8753 1.8515625 2320.8848 C 1.8427972 2320.8943 1.8398437 2320.9081 1.8398438 2320.9258 C 1.8398438 2320.944 1.842929 2320.9572 1.8515625 2320.9668 C 1.860196 2320.9763 1.8725912 2320.9824 1.8886719 2320.9824 C 1.9118702 2320.9824 1.9279679 2320.9725 1.9355469 2320.9531 L 1.9082031 2320.9512 C 1.9056329 2320.9597 1.9004448 2320.9629 1.890625 2320.9629 C 1.8835073 2320.9629 1.8769352 2320.9604 1.8730469 2320.9551 C 1.8692244 2320.9497 1.8691406 2320.9421 1.8691406 2320.9316 L 1.9375 2320.9316 C 1.9375 2320.912 1.9319344 2320.8969 1.9238281 2320.8867 C 1.9157219 2320.8765 1.9040276 2320.8711 1.8886719 2320.8711 z M 2.0039062 2320.8711 C 1.9875624 2320.8711 1.9737404 2320.8749 1.9648438 2320.8848 C 1.9559467 2320.8946 1.9511719 2320.9101 1.9511719 2320.9277 C 1.9511719 2320.945 1.9560126 2320.9571 1.9648438 2320.9668 C 1.9736745 2320.9764 1.9857406 2320.9824 2.0019531 2320.9824 C 2.0105866 2320.9824 2.0184707 2320.9797 2.0253906 2320.9766 C 2.0323106 2320.9734 2.0387509 2320.9686 2.0429688 2320.9629 C 2.0472521 2320.9572 2.0497931 2320.9507 2.0507812 2320.9434 L 2.0234375 2320.9434 C 2.0225807 2320.9499 2.0191838 2320.9537 2.015625 2320.957 C 2.0120662 2320.9603 2.0072255 2320.9629 2.0019531 2320.9629 C 1.9873883 2320.9629 1.9804687 2320.9504 1.9804688 2320.9258 C 1.9804687 2320.9019 1.9876519 2320.8906 2.0019531 2320.8906 C 2.0077527 2320.8906 2.0124616 2320.8912 2.015625 2320.8945 C 2.0187884 2320.8978 2.0206935 2320.9027 2.0214844 2320.9082 L 2.0488281 2320.9062 C 2.0467192 2320.8955 2.0433943 2320.8872 2.0351562 2320.8809 C 2.0269186 2320.8745 2.016494 2320.8711 2.0039062 2320.8711 z M 1.1464844 2320.873 L 1.1464844 2320.9414 C 1.1464844 2320.9549 1.1501868 2320.9637 1.15625 2320.9707 C 1.1623132 2320.9776 1.1703051 2320.9824 1.1816406 2320.9824 C 1.1894832 2320.9824 1.1955041 2320.9803 1.2011719 2320.9766 C 1.2069056 2320.9729 1.2131062 2320.9671 1.2167969 2320.959 C 1.2167969 2320.9637 1.216006 2320.971 1.2167969 2320.9805 L 1.2441406 2320.9805 C 1.2436134 2320.9736 1.2441406 2320.9642 1.2441406 2320.9551 L 1.2441406 2320.873 L 1.2148438 2320.873 L 1.2148438 2320.9297 C 1.2148438 2320.9387 1.2131364 2320.9473 1.2089844 2320.9531 C 1.2048983 2320.9589 1.2000816 2320.9609 1.1933594 2320.9609 C 1.1807057 2320.9609 1.1738281 2320.9524 1.1738281 2320.9336 L 1.1738281 2320.873 L 1.1464844 2320.873 z M 1.7890625 2320.873 L 1.7890625 2320.9863 C 1.7890625 2320.9929 1.7888888 2320.996 1.7871094 2320.998 C 1.7853959 2321.0002 1.7820885 2321.002 1.7773438 2321.002 L 1.7714844 2321.002 L 1.7714844 2321.0215 C 1.7760977 2321.0221 1.7824721 2321.0215 1.7890625 2321.0215 C 1.7984209 2321.0215 1.8058018 2321.0187 1.8105469 2321.0137 C 1.8153579 2321.0086 1.8164062 2321.0016 1.8164062 2320.9922 L 1.8164062 2320.873 L 1.7890625 2320.873 z M 0.75195312 2320.8887 C 0.75808223 2320.8887 0.76395342 2320.8902 0.76757812 2320.8945 C 0.77120287 2320.8988 0.77291026 2320.9054 0.7734375 2320.9141 L 0.73242188 2320.9141 C 0.73261955 2320.9059 0.73478832 2320.8991 0.73828125 2320.8945 C 0.74184009 2320.89 0.74542863 2320.8887 0.75195312 2320.8887 z M 1.8886719 2320.8887 C 1.894801 2320.8887 1.9006721 2320.8902 1.9042969 2320.8945 C 1.9079216 2320.8988 1.9096294 2320.9054 1.9101562 2320.9141 L 1.8691406 2320.9141 C 1.8693383 2320.9059 1.8695539 2320.8991 1.8730469 2320.8945 C 1.8766057 2320.89 1.8821473 2320.8887 1.8886719 2320.8887 z M 0.20507812 2320.8906 C 0.21298665 2320.8906 0.2204574 2320.8927 0.22460938 2320.8984 C 0.22876131 2320.9042 0.23046875 2320.9131 0.23046875 2320.9258 C 0.23046875 2320.9502 0.22214737 2320.9629 0.20507812 2320.9629 C 0.19730145 2320.9629 0.19165198 2320.9593 0.1875 2320.9531 C 0.18341393 2320.9469 0.1796875 2320.9377 0.1796875 2320.9258 C 0.1796875 2320.9016 0.18820664 2320.8906 0.20507812 2320.8906 z M 1.0722656 2320.8906 C 1.0801742 2320.8906 1.0856918 2320.8927 1.0898438 2320.8984 C 1.0939953 2320.9042 1.0957031 2320.9131 1.0957031 2320.9258 C 1.0957031 2320.9502 1.0873817 2320.9629 1.0703125 2320.9629 C 1.0625358 2320.9629 1.0568864 2320.9593 1.0527344 2320.9531 C 1.0486483 2320.9469 1.046875 2320.9377 1.046875 2320.9258 C 1.046875 2320.9016 1.0553941 2320.8906 1.0722656 2320.8906 z M 1.7128906 2320.8906 C 1.7207992 2320.8906 1.7282699 2320.8927 1.7324219 2320.8984 C 1.7365739 2320.9042 1.7382812 2320.9131 1.7382812 2320.9258 C 1.7382812 2320.9502 1.7299599 2320.9629 1.7128906 2320.9629 C 1.7051139 2320.9629 1.6994645 2320.9593 1.6953125 2320.9531 C 1.6912264 2320.9469 1.6875 2320.9377 1.6875 2320.9258 C 1.6875 2320.9016 1.6960191 2320.8906 1.7128906 2320.8906 z "
       style="clip-rule:evenodd;fill:#000000;fill-rule:nonzero;stroke-width:0.04049167;image-rendering:optimizeQuality;shape-rendering:geometricPrecision;text-rendering:geometricPrecision" />
  </g>
</svg>
