<?xml version="1.0" encoding="UTF-8" standalone="no"?>
<!-- Created with Inkscape (http://www.inkscape.org/) -->

<svg
   xmlns:dc="http://purl.org/dc/elements/1.1/"
   xmlns:cc="http://creativecommons.org/ns#"
   xmlns:rdf="http://www.w3.org/1999/02/22-rdf-syntax-ns#"
   xmlns:svg="http://www.w3.org/2000/svg"
   xmlns="http://www.w3.org/2000/svg"
   xmlns:sodipodi="http://sodipodi.sourceforge.net/DTD/sodipodi-0.dtd"
   xmlns:inkscape="http://www.inkscape.org/namespaces/inkscape"
   width="604.44849mm"
   height="614.10425mm"
   viewBox="0 0 604.44849 614.10425"
   version="1.1"
   id="svg846"
   inkscape:version="0.92.2 (5c3e80d, 2017-08-06)"
   sodipodi:docname="cict-lines.svg">
  <defs
     id="defs840">
    <style
       id="style2"
       type="text/css">
   
    .fil0 {fill:black;fill-rule:nonzero}
   
  </style>
  </defs>
  <sodipodi:namedview
     id="base"
     pagecolor="#ffffff"
     bordercolor="#666666"
     borderopacity="1.0"
     inkscape:pageopacity="0.0"
     inkscape:pageshadow="2"
     inkscape:zoom="0.11313708"
     inkscape:cx="2408.597"
     inkscape:cy="730.94112"
     inkscape:document-units="mm"
     inkscape:current-layer="layer1"
     showgrid="false"
     inkscape:snap-bbox="true"
     inkscape:bbox-nodes="true"
     inkscape:bbox-paths="true"
     inkscape:snap-bbox-edge-midpoints="true"
     inkscape:snap-bbox-midpoints="true"
     inkscape:object-paths="true"
     inkscape:snap-intersection-paths="true"
     inkscape:snap-smooth-nodes="true"
     inkscape:snap-midpoints="true"
     inkscape:snap-object-midpoints="true"
     inkscape:snap-center="true"
     inkscape:snap-global="true"
     inkscape:window-width="1366"
     inkscape:window-height="699"
     inkscape:window-x="0"
     inkscape:window-y="33"
     inkscape:window-maximized="1"
     fit-margin-top="0"
     fit-margin-left="0"
     fit-margin-right="0"
     fit-margin-bottom="0" />
  <metadata
     id="metadata843">
    <rdf:RDF>
      <cc:Work
         rdf:about="">
        <dc:format>image/svg+xml</dc:format>
        <dc:type
           rdf:resource="http://purl.org/dc/dcmitype/StillImage" />
        <dc:title></dc:title>
      </cc:Work>
    </rdf:RDF>
  </metadata>
  <g
     inkscape:label="Layer 1"
     inkscape:groupmode="layer"
     id="layer1"
     transform="translate(932.04504,13.393138)">
    <g
       id="g2362"
       transform="translate(-500.46219,-107.57598)">
      <g
         transform="matrix(0.01071342,0,0,0.01071342,-431.5836,65.255916)"
         id="g2127"
         style="clip-rule:evenodd;fill-rule:evenodd;image-rendering:optimizeQuality;shape-rendering:geometricPrecision;text-rendering:geometricPrecision">
        <g
           id="g8">
          <path
             style="fill:#000000;fill-rule:nonzero"
             inkscape:connector-curvature="0"
             class="fil0"
             d="m 21697,41358 c 197,122 258,381 135,579 -122,197 -381,258 -579,135 -2266,-1405 -4105,-3412 -5311,-5781 -1114,-2189 -1688,-4684 -1558,-7297 -178,-81 -334,-200 -459,-345 -224,-260 -349,-606 -322,-976 28,-370 202,-693 463,-918 260,-224 606,-349 976,-322 370,28 693,202 917,463 224,260 349,606 322,976 -28,370 -202,693 -463,917 -168,145 -372,248 -594,296 -113,2448 426,4781 1467,6825 1136,2231 2869,4122 5005,5447 z M 9506,38674 c 171,13 321,94 426,216 l 1,-1 c 104,121 163,282 150,455 -13,170 -94,320 -216,426 l -2,2 c -122,104 -283,163 -453,150 -172,-13 -323,-94 -427,-216 l 1,-1 c -105,-122 -163,-283 -151,-454 13,-172 94,-323 216,-427 121,-104 282,-163 455,-150 z m -201,757 c 33,9 114,50 140,72 l 15,-204 v 0 l -154,133 z m -826,-3301 c 171,13 321,94 427,216 l 1,-1 c 104,121 163,282 150,455 -13,170 -94,320 -216,426 l -2,2 c -122,104 -283,163 -453,150 -172,-13 -323,-94 -427,-216 l 1,-1 c -105,-122 -163,-283 -151,-454 13,-172 94,-323 216,-427 121,-104 282,-163 455,-150 z m -201,757 c 33,9 114,50 140,72 l 15,-204 v 0 l -154,133 z m -635,-3422 c 171,13 321,94 426,216 l 1,-1 c 104,121 163,282 150,455 -13,170 -94,320 -216,426 l -2,2 c -122,104 -283,163 -453,150 -172,-13 -323,-94 -427,-216 l 1,-1 c -105,-122 -163,-283 -151,-454 13,-172 94,-323 216,-427 121,-104 282,-163 455,-150 z m -201,757 c 33,9 114,50 140,72 l 15,-204 v 0 l -154,133 z m 46286,1665 c 84,-138 104,-297 69,-442 -35,-145 -125,-277 -262,-361 -138,-84 -297,-104 -442,-69 -145,35 -277,125 -360,262 v 1 c -84,138 -104,297 -69,442 35,145 125,277 262,360 h 1 c 138,84 297,104 442,69 145,-35 277,-125 361,-262 z m 887,-639 c 86,354 36,740 -169,1076 -205,336 -527,558 -881,643 -319,77 -666,44 -977,-114 l -10,-1 -89,-55 c -336,-205 -558,-527 -643,-881 -77,-319 -44,-666 114,-977 l 1,-10 55,-89 c 205,-336 527,-558 881,-643 354,-86 740,-36 1076,169 336,205 558,527 643,881 z m 350,-4143 c 131,-214 162,-461 107,-688 -55,-226 -195,-431 -409,-561 -214,-131 -461,-162 -688,-107 -226,55 -431,195 -561,409 -131,214 -162,461 -107,688 55,226 195,431 409,561 214,131 461,162 688,107 226,-55 431,-195 561,-409 z m 925,-885 c 105,434 44,909 -207,1322 -252,413 -647,684 -1082,790 -434,105 -909,44 -1322,-207 -413,-252 -684,-647 -790,-1082 -105,-434 -44,-909 207,-1322 252,-413 647,-684 1082,-790 434,-105 909,-44 1322,207 413,252 684,647 790,1082 z m -499,-3902 c 184,-302 229,-651 151,-970 -77,-319 -276,-608 -577,-792 -302,-184 -651,-229 -970,-151 -319,77 -608,276 -792,577 -184,302 -229,651 -151,970 77,319 275,608 577,792 h 1 c 302,184 651,229 970,151 319,-77 608,-275 792,-577 v -1 z m 969,-1167 c 120,494 62,1031 -197,1508 v 6 l -55,89 c -306,501 -785,830 -1313,958 -494,120 -1031,62 -1508,-197 h -6 l -89,-55 c -501,-306 -830,-785 -958,-1313 -128,-527 -54,-1104 252,-1604 257,-421 637,-721 1066,-882 -413,-1684 -995,-3307 -1729,-4847 l -2345,1166 -44,-90 c 519,1082 954,2209 1298,3373 758,2567 1074,5310 863,8134 -17,232 -220,407 -452,389 -232,-17 -407,-220 -389,-452 203,-2723 -100,-5365 -829,-7834 -758,-2565 -1975,-4944 -3562,-7034 -140,-185 -104,-448 80,-589 185,-140 448,-104 589,80 819,1079 1543,2231 2161,3444 l -87,-176 2343,-1165 c -284,-548 -587,-1084 -908,-1608 -1378,-2244 -3098,-4264 -5093,-5982 -388,274 -871,420 -1382,382 -585,-44 -1097,-320 -1451,-732 -355,-412 -552,-959 -509,-1544 44,-585 320,-1097 732,-1451 412,-355 959,-552 1544,-509 585,44 1097,320 1451,732 355,412 552,959 509,1544 -27,355 -139,684 -316,966 2048,1769 3815,3847 5232,6155 1413,2302 2478,4833 3128,7514 349,14 699,115 1018,310 501,306 830,785 958,1313 z M 35613,2704 c 393,29 736,215 974,492 238,277 371,644 342,1037 -29,393 -215,736 -492,974 -277,238 -644,371 -1037,342 -393,-29 -736,-215 -974,-492 -238,-277 -371,-644 -342,-1037 29,-393 215,-736 492,-974 277,-238 644,-371 1037,-342 z m 335,1042 c -97,-113 -238,-189 -398,-201 -160,-12 -310,42 -423,139 -113,97 -189,238 -201,398 -12,160 42,310 139,423 97,113 238,189 398,201 160,12 310,-42 423,-139 113,-97 189,-238 201,-398 12,-160 -42,-310 -139,-423 z m 4294,426 c 482,36 904,264 1196,604 292,340 455,791 419,1273 -36,482 -264,904 -604,1196 -340,292 -791,455 -1273,419 -482,-36 -904,-264 -1196,-604 -292,-340 -455,-791 -419,-1273 36,-482 264,-904 604,-1196 340,-292 791,-455 1273,-419 z m 557,1154 c -151,-176 -370,-294 -620,-313 -250,-19 -484,66 -659,217 -176,151 -294,370 -313,620 -19,250 66,484 217,659 151,176 370,294 620,313 250,19 484,-66 659,-217 176,-151 294,-370 313,-620 19,-250 -66,-484 -217,-659 z m 4392,2574 c -214,-248 -522,-415 -875,-441 -353,-26 -682,93 -931,307 -248,214 -415,522 -441,875 -26,353 93,682 307,931 214,248 522,415 875,441 353,26 682,-93 931,-307 248,-214 415,-522 441,-875 26,-353 -93,-682 -307,-931 z m -6854,21239 c 184,14 346,101 458,232 h 2 c 112,131 175,304 161,489 -14,185 -101,347 -232,460 -131,112 -304,175 -489,161 -185,-14 -347,-101 -460,-232 v -2 c -112,-131 -175,-303 -161,-488 14,-184 101,-346 232,-458 l 2,-2 c 131,-112 303,-175 488,-161 z m -50,672 -121,105 c 25,6 88,38 109,55 l 12,-159 z m -122,104 v 0 l 122,-105 v -1 l -159,-12 c 13,23 35,92 38,117 z m 122,-106 12,-159 c -23,13 -91,35 -117,38 z m 160,13 -159,-12 121,-104 c 3,25 25,93 38,116 z m -160,-12 122,-105 v 0 c -25,-6 -89,-38 -110,-55 l -12,159 z m -106,-122 c -6,25 -38,89 -55,110 l 159,12 z m 105,123 -12,159 c 23,-13 91,-36 116,-38 z m 158,-2119 c 585,44 1097,320 1451,732 272,316 452,713 501,1144 l 4779,215 c 8,-1328 -145,-2623 -441,-3863 -394,-1649 -1042,-3208 -1904,-4631 -120,-199 -57,-457 142,-578 199,-120 457,-57 578,142 905,1493 1586,3134 2002,4873 315,1319 477,2691 467,4094 l 1668,75 c 2,-141 2,-283 0,-423 -6,-547 -36,-1088 -88,-1621 -440,-4493 -2481,-8567 -5581,-11591 -2957,-2885 -6877,-4815 -11290,-5242 l -124,1664 c 766,76 1520,203 2259,378 889,210 1747,487 2569,826 215,88 318,334 230,549 -88,215 -334,318 -549,230 -786,-324 -1602,-588 -2443,-787 -688,-162 -1398,-282 -2128,-355 l -128,1720 c 1940,201 3757,778 5384,1654 1810,974 3382,2317 4621,3921 142,184 109,449 -75,591 -184,142 -449,109 -591,-76 -1169,-1513 -2650,-2779 -4354,-3696 -1639,-882 -3487,-1442 -5468,-1590 -232,-17 -407,-220 -389,-452 l 159,-2134 c -713,-35 -1413,-25 -2097,30 -741,59 -1470,168 -2181,324 v 1 c -37,496 -272,931 -622,1232 -350,301 -814,469 -1311,432 -496,-37 -931,-272 -1232,-622 -301,-350 -469,-814 -432,-1311 37,-497 272,-931 622,-1232 350,-301 814,-469 1311,-432 497,37 931,272 1232,622 123,143 223,304 297,479 735,-159 1486,-270 2250,-331 736,-58 1480,-70 2226,-33 l 156,-2089 c 17,-232 220,-407 452,-389 4788,357 9047,2405 12234,5516 3239,3161 5373,7419 5833,12116 55,561 86,1126 92,1694 3,256 1,513 -6,770 9,38 13,78 11,119 -2,37 -8,73 -19,107 -9,234 -22,469 -40,704 -154,2059 -621,4021 -1351,5843 l 5719,2294 v 1 l 3,1 c 215,88 318,334 230,549 -770,1865 -1776,3640 -2976,5281 -1157,1581 -2495,3038 -3979,4331 217,363 328,793 294,1246 -44,585 -320,1097 -732,1451 -412,355 -959,552 -1544,509 -585,-44 -1097,-320 -1451,-732 -355,-412 -552,-959 -509,-1544 44,-585 320,-1097 732,-1451 412,-355 959,-552 1544,-509 413,31 790,178 1101,407 1440,-1253 2741,-2668 3865,-4204 1077,-1472 1991,-3055 2711,-4712 l -5338,-2141 c -401,887 -865,1738 -1387,2546 -1782,2762 -4234,5034 -7107,6603 -204,112 -459,37 -571,-167 -112,-204 -37,-459 167,-571 2752,-1503 5099,-3678 6805,-6322 565,-875 1060,-1803 1475,-2774 2,-5 4,-10 6,-16 4,-11 9,-21 14,-31 782,-1842 1281,-3842 1439,-5951 9,-123 17,-245 24,-368 l -1666,-75 c -6,106 -13,212 -21,318 -138,1850 -566,3611 -1237,5241 -695,1688 -1649,3234 -2811,4593 -151,177 -417,198 -593,47 -177,-151 -198,-417 -47,-593 1104,-1291 2011,-2761 2671,-4365 637,-1548 1044,-3222 1175,-4985 7,-98 14,-196 19,-293 l -4824,-217 c -117,401 -348,750 -653,1013 -412,355 -959,552 -1544,509 -585,-44 -1097,-320 -1451,-732 -355,-412 -552,-959 -509,-1544 44,-585 320,-1097 732,-1451 412,-355 959,-552 1544,-509 z m 812,1283 c -214,-248 -522,-415 -875,-441 -353,-26 -682,93 -931,307 -248,214 -415,522 -441,875 -26,353 93,682 307,931 214,248 522,415 875,441 353,26 682,-93 931,-307 248,-214 415,-522 441,-875 26,-353 -93,-682 -307,-931 z M 12866,19065 c 209,102 295,354 193,563 -10,20 -22,40 -34,58 -804,1273 -1461,2653 -1945,4119 -471,1426 -777,2935 -894,4505 -17,232 -220,407 -452,389 -232,-17 -407,-220 -389,-452 122,-1635 442,-3210 935,-4703 458,-1386 1065,-2701 1801,-3927 l -2054,-1014 c -1588,2696 -2620,5773 -2925,9086 460,101 859,349 1152,689 355,412 552,959 509,1544 -44,585 -320,1097 -732,1451 -412,355 -959,552 -1544,509 -585,-44 -1097,-320 -1451,-732 -355,-412 -552,-959 -509,-1544 44,-585 320,-1097 732,-1451 280,-241 623,-410 997,-479 308,-3443 1371,-6642 3012,-9447 L 6915,17068 c -1079,1875 -1928,3905 -2503,6054 -60,225 -290,358 -515,299 -225,-60 -358,-290 -299,-515 1002,-3744 2803,-7136 5196,-9997 2361,-2823 5301,-5131 8622,-6755 -30,-155 -40,-316 -28,-480 37,-497 272,-931 622,-1232 350,-301 814,-469 1311,-432 497,37 931,272 1232,622 301,350 469,814 432,1311 -37,496 -272,931 -622,1232 -350,301 -814,469 -1311,432 -496,-37 -931,-272 -1232,-622 -18,-21 -36,-43 -53,-65 -3204,1571 -6042,3802 -8325,6530 -762,911 -1462,1878 -2093,2893 l 2360,1165 c 1203,-1890 2676,-3586 4360,-5036 4411,-3798 10271,-5914 16535,-5447 232,17 407,220 389,452 -17,232 -220,407 -452,389 -6031,-450 -11674,1587 -15921,5244 -1599,1377 -2999,2983 -4149,4772 l 2396,1183 z m 11484,-6011 c -160,-186 -391,-311 -656,-331 -264,-20 -511,70 -697,230 -186,160 -311,391 -331,656 -20,264 70,511 230,697 160,186 391,311 656,331 264,20 511,-70 697,-230 186,-160 311,-391 331,-656 20,-264 -70,-511 -230,-697 z M 19914,5180 c -160,-186 -391,-311 -656,-331 -264,-20 -511,70 -697,230 -186,160 -311,391 -331,656 -20,264 70,511 230,697 160,186 391,311 656,331 264,20 511,-70 697,-230 186,-160 311,-391 331,-656 20,-264 -70,-511 -230,-697 z M 9800,41256 14215,38469 c -1745,-2920 -2638,-6387 -2366,-10036 17,-232 220,-407 452,-389 232,17 407,220 389,452 -334,4479 1179,8670 3895,11824 2716,3154 6636,5272 11115,5607 232,17 407,220 389,452 -17,232 -220,407 -452,389 -4711,-352 -8834,-2580 -11691,-5897 -461,-536 -890,-1100 -1282,-1689 l -4056,2560 c 1800,2733 4200,5049 7028,6750 2839,1707 6111,2793 9644,3057 1072,80 2129,82 3148,14 929,-62 1831,-182 2689,-353 l -305,-7919 h -6 c -813,-61 -1524,-445 -2016,-1017 -493,-572 -767,-1333 -707,-2145 61,-813 445,-1524 1017,-2016 572,-493 1333,-767 2145,-707 813,61 1524,445 2016,1017 493,572 767,1333 707,2145 -61,813 -445,1524 -1017,2016 -367,316 -812,543 -1299,648 l 319,8303 c 7,207 -136,384 -331,426 -999,219 -2059,369 -3157,443 -1065,71 -2162,70 -3267,-13 -3665,-274 -7063,-1402 -10015,-3177 -3062,-1841 -5641,-4378 -7534,-7375 -124,-196 -65,-456 131,-580 z M 6691,29139 c 171,13 321,94 426,216 l 1,-1 c 104,121 163,282 150,455 -13,170 -94,320 -216,426 l -2,2 c -122,104 -283,163 -453,150 -172,-13 -323,-94 -427,-216 l 1,-1 c -105,-122 -163,-283 -151,-454 13,-172 94,-323 216,-427 121,-104 282,-163 455,-150 z m -201,757 c 33,9 114,50 140,72 l 15,-204 v 0 l -154,133 z m 1125,-969 c -214,-248 -522,-415 -875,-441 -353,-26 -682,93 -931,307 -248,214 -415,522 -441,875 -26,353 93,682 307,931 214,248 522,415 875,441 353,26 682,-93 931,-307 248,-214 415,-522 441,-875 26,-353 -93,-682 -307,-931 z m 7152,-689 c 30,-5 62,-6 94,-3 48,4 94,15 135,33 103,-11 198,-53 274,-118 97,-83 162,-204 172,-341 10,-137 -36,-266 -119,-363 -83,-97 -204,-162 -341,-172 -137,-10 -266,36 -363,119 -97,83 -162,204 -172,341 -10,137 36,266 119,363 54,62 122,111 201,141 z m 13868,19395 c 370,28 693,202 918,463 224,260 349,606 322,976 -28,370 -202,693 -463,917 -260,224 -606,349 -976,322 -370,-28 -693,-202 -917,-463 -145,-168 -248,-372 -296,-594 -2081,-179 -4062,-680 -5898,-1449 -1968,-825 -3766,-1959 -5338,-3337 -175,-153 -193,-418 -40,-593 153,-175 418,-193 593,-40 1505,1319 3226,2405 5111,3195 1757,736 3660,1215 5664,1385 81,-178 200,-335 346,-460 260,-224 606,-349 976,-322 z m 278,1013 c -83,-97 -204,-162 -341,-172 -137,-10 -266,36 -363,119 -97,83 -162,204 -172,341 -10,137 36,266 119,363 83,97 204,162 341,172 137,10 266,-36 363,-119 97,-83 162,-204 172,-341 10,-137 -36,-266 -119,-363 z m 5709,-9676 c -352,-409 -860,-683 -1440,-726 -580,-43 -1123,153 -1532,505 -409,352 -683,860 -726,1440 -43,580 153,1123 505,1532 352,409 860,683 1440,726 79,6 157,7 234,5 32,-9 65,-14 99,-15 23,-1 45,0 67,3 427,-49 819,-227 1132,-497 409,-352 683,-860 726,-1440 43,-580 -153,-1123 -505,-1532 z m -24562,6339 c 497,37 931,272 1232,622 301,350 469,814 432,1311 -23,315 -126,604 -288,851 2041,1942 4411,3552 7029,4734 2629,1188 5508,1943 8556,2171 16,1 31,3 46,6 98,-347 296,-649 559,-875 350,-301 814,-469 1311,-432 497,37 931,272 1232,622 301,350 469,814 432,1311 -37,497 -272,931 -622,1232 -350,301 -814,469 -1311,432 -496,-37 -931,-272 -1232,-622 -202,-234 -344,-520 -404,-833 -24,2 -49,3 -74,1 -3144,-235 -6119,-1016 -8838,-2245 -2717,-1227 -5178,-2902 -7295,-4924 -303,175 -659,263 -1034,235 -496,-37 -931,-272 -1232,-622 -301,-350 -469,-814 -432,-1311 37,-496 272,-931 622,-1232 350,-301 814,-469 1311,-432 z m 593,1172 c -160,-186 -391,-311 -656,-331 -264,-20 -511,70 -697,230 -186,160 -311,391 -331,656 -20,264 70,511 230,697 160,186 391,311 656,331 264,20 511,-70 697,-230 186,-160 311,-391 331,-656 20,-264 -70,-511 -230,-697 z m 18877,8387 c -160,-186 -391,-311 -656,-331 -264,-20 -511,70 -697,230 -186,160 -311,391 -331,656 -20,264 70,511 230,697 160,186 391,311 656,331 264,20 511,-70 697,-230 186,-160 311,-391 331,-656 20,-264 -70,-511 -230,-697 z m 15736,-5150 c -214,-248 -522,-415 -875,-441 -353,-26 -682,93 -931,307 -248,214 -415,522 -441,875 -26,353 93,682 307,931 214,248 522,415 875,441 353,26 682,-93 931,-307 248,-214 415,-522 441,-875 26,-353 -93,-682 -307,-931 z"
             id="path6" />
        </g>
        <text
           style="font-weight:bold;font-size:5px;font-family:'Helvetica Neue', Helvetica, Arial-Unicode, Arial, Sans-serif;fill:#000000"
           x="0"
           y="60015"
           font-size="5px"
           font-weight="bold"
           id="text10">Created by Olenka Panasovska</text>
        <text
           style="font-weight:bold;font-size:5px;font-family:'Helvetica Neue', Helvetica, Arial-Unicode, Arial, Sans-serif;fill:#000000"
           x="0"
           y="60020"
           font-size="5px"
           font-weight="bold"
           id="text12">from the Noun Project</text>
      </g>
      <path
         id="path2129"
         transform="scale(0.26458333)"
         d="m -488.20117,947.7168 a 19.399403,19.399403 0 0 0 -5.19727,0.48632 c -216.95919,47.05762 -379.45117,240.19788 -379.45117,471.00198 0,266.0018 216.05876,482.0527 482.06055,482.0527 3.25785,0 6.50747,-0.037 9.75,-0.1016 a 89.843748,89.843748 0 0 1 -2.39258,-20.1132 89.843748,89.843748 0 0 1 2.00586,-18.6875 c -3.11412,0.065 -6.23347,0.1035 -9.36328,0.1035 -245.0355,0 -443.26172,-198.2183 -443.26172,-443.2539 0,-212.608 149.46783,-389.8369 348.87695,-433.08791 a 19.399403,19.399403 0 0 0 -3.02734,-38.40039 z m 107.1914,130.8281 a 19.399403,19.399403 0 0 0 0.60547,38.7715 c 85.34385,2.934 158.31089,38.9215 210.52539,96.1055 l -93.09179,73.6465 c -33.13321,-32.0649 -78.2238,-51.8418 -127.81836,-51.8418 -101.3768,0 -183.98047,82.6017 -183.98047,183.9785 10e-6,34.8289 9.75087,67.4406 26.66211,95.248 l -93.51172,72.4492 c -4.00703,-5.1384 -8.36392,-10.7361 -14.51367,-18.6054 a 19.399403,19.399403 0 0 0 -15.0293,-7.6699 19.399403,19.399403 0 0 0 -15.53125,31.5585 c 28.20896,36.0968 28.32503,36.69 56.28711,70.254 a 19.399403,19.399403 0 1 0 29.80859,-24.834 c -7.20617,-8.6499 -12.47161,-14.998 -16.85937,-20.3438 l 92.87695,-71.9648 c 33.5799,35.6042 81.15146,57.8789 133.79102,57.8789 101.37672,0 183.97067,-82.594 183.9707,-183.9707 0,-37.8557 -11.52119,-73.0903 -31.23242,-102.3867 l 92.46484,-73.1524 c 28.27338,40.089 47.841814,87.7347 56.605471,140.0391 a 19.399403,19.399403 0 1 0 38.259766,-6.4063 C -78.451138,1211.7945 -207.64958,1084.4381 -379.06836,1078.5449 a 19.399403,19.399403 0 0 0 -1.94141,0 z m -137.22265,25.4375 a 19.399403,19.399403 0 0 0 -0.0137,0 19.399403,19.399403 0 0 0 -6.9375,1.6523 c -124.90375,53.5186 -206.10283,176.1754 -206.77539,311.959 a 19.399403,19.399403 0 0 0 -0.0586,1.543 v 0.059 a 19.399403,19.399403 0 0 0 0,0.016 19.399403,19.399403 0 0 0 0,0.029 c 1.5e-4,0.059 0.008,0.09 0.008,0.1484 a 19.399403,19.399403 0 0 0 0.0957,1.9707 c 0.17348,39.6054 2.3238,59.8386 13.60547,106.7129 a 19.399403,19.399403 0 1 0 37.71289,-9.0801 c -11.24202,-46.7097 -12.53208,-59.592 -12.62305,-99.7871 v -0.016 c -4e-5,-0.011 0,-0.02 0,-0.031 0.0488,-120.9955 72.09573,-230.2066 183.31445,-277.8614 a 19.399403,19.399403 0 0 0 -8.32812,-37.3164 z m 127.44336,170.043 c 80.41041,0 145.17968,64.7692 145.17968,145.1797 0,80.4104 -64.76929,145.1796 -145.17968,145.1797 -80.41043,0 -145.18746,-64.7693 -145.1875,-145.1797 0,-1.2564 0.0154,-2.5092 0.0469,-3.7578 1.98083,-78.6611 65.98657,-141.4219 145.14063,-141.4219 z m 262.98633,310.5039 a 19.399403,19.399403 0 0 0 -15.97461,8.4824 c -56.53487,80.5034 -148.63571,128.4555 -247.00586,128.6153 -66.25546,-0.2015 -109.72474,-10.8661 -168.02539,-48.5879 a 19.399792,19.399792 0 0 0 -21.07618,32.5761 c 63.26903,40.9366 118.21902,54.6006 189.03516,54.8106 h 0.0449 0.0371 c 110.96203,-0.1667 214.9636,-54.3141 278.73438,-145.1211 a 19.399403,19.399403 0 0 0 -15.76953,-30.7754 z M 31.75,1588.4785 a 19.399403,19.399403 0 0 0 -17.945312,11.7227 c -46.106959,102.8928 -130.209238,185.037 -234.546878,228.4453 a 89.843748,89.843748 0 0 1 15.34766,35.5957 C -92.222096,1816.9857 -0.86053256,1727.7978 49.207031,1616.0664 A 19.399403,19.399403 0 0 0 31.75,1588.4785 Z"
         style="color:#000000;font-style:normal;font-variant:normal;font-weight:normal;font-stretch:normal;font-size:medium;line-height:normal;font-family:sans-serif;font-variant-ligatures:normal;font-variant-position:normal;font-variant-caps:normal;font-variant-numeric:normal;font-variant-alternates:normal;font-feature-settings:normal;text-indent:0;text-align:start;text-decoration:none;text-decoration-line:none;text-decoration-style:solid;text-decoration-color:#000000;letter-spacing:normal;word-spacing:normal;text-transform:none;writing-mode:lr-tb;direction:ltr;text-orientation:mixed;dominant-baseline:auto;baseline-shift:baseline;text-anchor:start;white-space:normal;shape-padding:0;clip-rule:nonzero;display:inline;overflow:visible;visibility:visible;opacity:1;isolation:auto;mix-blend-mode:normal;color-interpolation:sRGB;color-interpolation-filters:linearRGB;solid-color:#000000;solid-opacity:1;vector-effect:none;fill:#000000;fill-opacity:1;fill-rule:nonzero;stroke:none;stroke-width:38.79492569;stroke-linecap:round;stroke-linejoin:miter;stroke-miterlimit:4;stroke-dasharray:none;stroke-dashoffset:0;stroke-opacity:1;paint-order:stroke markers fill;color-rendering:auto;image-rendering:auto;shape-rendering:auto;text-rendering:auto;enable-background:accumulate"
         inkscape:connector-curvature="0" />
    </g>
  </g>
</svg>
