<svg width="216" height="217" viewBox="0 0 216 217" fill="none" xmlns="http://www.w3.org/2000/svg">
<g clip-path="url(#clip0)">
<path fill-rule="evenodd" clip-rule="evenodd" d="M175.323 154.586C175.323 156.479 173.791 158.018 171.906 158.018H44.0947C42.2097 158.018 40.6781 156.479 40.6781 154.586V148.356H45.4869H90.1745L94.2788 152.479C94.7284 152.931 95.3415 153.187 95.9787 153.187H120.022C120.66 153.187 121.273 152.931 121.722 152.479L125.827 148.356H170.514H175.323V154.586ZM47.8912 61.8906C47.8912 60.2867 48.9828 58.9823 50.3245 58.9823H165.677C167.018 58.9823 168.11 60.2867 168.11 61.8906V143.525H124.831C124.194 143.525 123.581 143.779 123.131 144.233L119.027 148.356H96.9741L92.8698 144.233C92.4202 143.779 91.8071 143.525 91.1699 143.525H47.8912V61.8906ZM177.727 143.525H172.919V61.8906C172.919 57.6224 169.67 54.1513 165.677 54.1513H50.3245C46.3308 54.1513 43.0825 57.6224 43.0825 61.8906V143.525H38.2738C36.9465 143.525 35.8694 144.607 35.8694 145.94V154.586C35.8694 159.144 39.5601 162.849 44.0947 162.849H171.906C176.441 162.849 180.132 159.141 180.132 154.586V145.94C180.132 144.607 179.055 143.525 177.727 143.525Z" fill="black"/>
<path fill-rule="evenodd" clip-rule="evenodd" d="M55.1043 68.6442H74.3393C75.6665 68.6442 76.7437 67.5621 76.7437 66.2287C76.7437 64.8954 75.6665 63.8132 74.3393 63.8132H55.1043C53.7771 63.8132 52.7 64.8954 52.7 66.2287C52.7 67.5621 53.7771 68.6442 55.1043 68.6442Z" fill="black"/>
<path fill-rule="evenodd" clip-rule="evenodd" d="M67.1262 73.4751H55.1043C53.7771 73.4751 52.7 74.5572 52.7 75.8906C52.7 77.224 53.7771 78.3061 55.1043 78.3061H67.1262C68.4534 78.3061 69.5306 77.224 69.5306 75.8906C69.5306 74.5572 68.4534 73.4751 67.1262 73.4751Z" fill="black"/>
<path fill-rule="evenodd" clip-rule="evenodd" d="M100.786 92.7991C102.114 92.7991 103.191 91.717 103.191 90.3836V83.0743L108.969 80.5163C110.185 79.9777 110.736 78.5549 110.2 77.3327C109.666 76.1104 108.245 75.5597 107.031 76.0959L99.8175 79.2868C98.9447 79.6733 98.3821 80.5405 98.3821 81.497V90.3836C98.3821 91.717 99.4592 92.7991 100.786 92.7991Z" fill="black"/>
<path fill-rule="evenodd" clip-rule="evenodd" d="M76.7443 122.8V106.278L91.1705 97.9972L99.8263 102.966L105.597 106.278V122.8L91.1705 131.08L76.7443 122.8ZM108.001 69.0112L122.427 77.2915V93.8135L116.657 97.1252L108.001 102.094L99.3454 97.1252L93.5749 93.8135V77.2915L108.001 69.0112ZM139.258 122.8L124.832 131.08L110.406 122.8V106.278L116.176 102.966L124.832 97.9972L139.258 106.278V122.8ZM92.3631 135.959L108.001 126.983L123.639 135.959C124.009 136.172 124.421 136.278 124.832 136.278C125.243 136.278 125.654 136.172 126.024 135.959L142.855 126.297C143.605 125.87 144.067 125.068 144.067 124.201V104.877C144.067 104.009 143.605 103.21 142.855 102.78L127.236 93.8135V75.8905C127.236 75.0233 126.774 74.2238 126.024 73.7938L109.194 64.1318C108.453 63.7067 107.549 63.7067 106.809 64.1318L89.978 73.7938C89.2278 74.2238 88.7662 75.0233 88.7662 75.8905V93.8135L73.1473 102.78C72.3972 103.21 71.9355 104.009 71.9355 104.877V124.201C71.9355 125.068 72.3972 125.87 73.1473 126.297L89.978 135.959C90.3482 136.172 90.7594 136.278 91.1705 136.278C91.5817 136.278 91.9928 136.172 92.3631 135.959Z" fill="black"/>
<path fill-rule="evenodd" clip-rule="evenodd" d="M93.3691 106.319C92.8354 105.1 91.4168 104.542 90.2002 105.083L82.987 108.274C82.1143 108.66 81.5516 109.527 81.5516 110.484V119.37C81.5516 120.704 82.6288 121.786 83.956 121.786C85.2832 121.786 86.3604 120.704 86.3604 119.37V112.059L92.1381 109.503C93.3547 108.964 93.9053 107.539 93.3691 106.319Z" fill="black"/>
<path fill-rule="evenodd" clip-rule="evenodd" d="M123.863 105.082L116.65 108.273C115.777 108.66 115.214 109.527 115.214 110.483V119.37C115.214 120.703 116.292 121.786 117.619 121.786C118.946 121.786 120.023 120.703 120.023 119.37V112.061L125.801 109.503C127.017 108.964 127.568 107.541 127.032 106.319C126.498 105.099 125.075 104.541 123.863 105.082Z" fill="black"/>
</g>
<defs>
<clipPath id="clip0">
<rect width="216" height="217" fill="white"/>
</clipPath>
</defs>
</svg>
