<svg xmlns="http://www.w3.org/2000/svg" xmlns:svg="http://www.w3.org/2000/svg" id="svg10" width="79.935" height="80.002" x="0" y="0" version="1.1" viewBox="0 0 79.935 80.002" xml:space="preserve"><metadata id="metadata16"/><path id="path2" d="m 20.321,21.599 4.199,3.029 v 6.688 c 0,0.316 0.149,0.613 0.402,0.802 l 14.499,10.811 c 0.177,0.132 0.388,0.198 0.598,0.198 0.21,0 0.421,-0.066 0.598,-0.198 l 8.457,-6.306 v 2.08 c -1.079,0.407 -1.852,1.441 -1.852,2.661 v 3.896 c 0,0.552 0.447,1 1,1 h 3.702 c 0.553,0 1,-0.448 1,-1 v -3.896 c 0,-1.219 -0.772,-2.254 -1.851,-2.661 v -3.571 l 4.042,-3.014 c 0.253,-0.189 0.402,-0.486 0.402,-0.802 v -6.688 l 4.199,-3.029 c 0.261,-0.188 0.415,-0.49 0.415,-0.811 0,-0.321 -0.154,-0.623 -0.415,-0.811 L 40.604,6.192 c -0.35,-0.252 -0.82,-0.252 -1.17,0 L 20.321,19.977 c -0.261,0.188 -0.415,0.49 -0.415,0.811 0,0.321 0.154,0.623 0.415,0.811 z m 30.603,22.66 h -1.702 v -2.896 c 0,-0.469 0.382,-0.851 0.852,-0.851 0.469,0 0.851,0.382 0.851,0.851 v 2.896 z M 40.019,40.879 26.52,30.814 v -4.743 l 12.914,9.314 c 0.175,0.126 0.38,0.189 0.585,0.189 0.205,0 0.41,-0.063 0.585,-0.189 l 8.47,-6.108 v 4.852 z m 13.499,-10.065 -2.444,1.823 v -4.803 l 2.444,-1.763 z M 40.019,8.236 57.422,20.788 50.553,25.742 40.566,19.218 c -0.462,-0.3 -1.082,-0.172 -1.384,0.291 -0.303,0.462 -0.172,1.082 0.29,1.384 l 9.343,6.103 -8.796,6.344 -17.403,-12.552 z"/><path id="path4" d="M 79.935,57.579 V 5.923 C 79.935,2.657 77.278,0 74.011,0 H 5.923 C 2.657,0 0,2.657 0,5.923 v 51.656 c 0,2.752 2.238,4.991 4.99,4.991 h 24.443 c -0.316,5.227 -4.059,8.179 -4.859,8.749 h -8.183 c -3.164,0 -5.738,2.574 -5.738,5.739 v 1.944 c 0,0.552 0.447,1 1,1 h 56.63 c 0.553,0 1,-0.448 1,-1 v -1.944 c 0,-3.165 -2.574,-5.739 -5.738,-5.739 h -8.184 c -0.8,-0.57 -4.544,-3.522 -4.859,-8.749 h 24.443 c 2.751,-10e-4 4.99,-2.239 4.99,-4.991 z M 5.923,2 h 68.088 c 2.164,0 3.924,1.76 3.924,3.923 V 49.419 H 2 V 5.923 C 2,3.76 3.76,2 5.923,2 Z M 2,57.579 v -6.16 h 75.935 v 6.16 c 0,1.649 -1.342,2.991 -2.991,2.991 H 4.991 C 3.342,60.569 2,59.228 2,57.579 Z m 65.283,19.478 v 0.944 h -54.63 v -0.944 c 0,-2.062 1.677,-3.739 3.738,-3.739 h 47.153 c 2.062,0 3.739,1.678 3.739,3.739 z M 52.354,71.318 H 27.58 c 1.63,-1.705 3.642,-4.632 3.853,-8.749 H 48.5 c 0.212,4.118 2.224,7.045 3.854,8.749 z"/></svg>