<?xml version="1.0" encoding="UTF-8" standalone="no"?>
<svg
   xmlns:dc="http://purl.org/dc/elements/1.1/"
   xmlns:cc="http://creativecommons.org/ns#"
   xmlns:rdf="http://www.w3.org/1999/02/22-rdf-syntax-ns#"
   xmlns:svg="http://www.w3.org/2000/svg"
   xmlns="http://www.w3.org/2000/svg"
   xmlns:sodipodi="http://sodipodi.sourceforge.net/DTD/sodipodi-0.dtd"
   xmlns:inkscape="http://www.inkscape.org/namespaces/inkscape"
   width="216"
   height="216"
   viewBox="0 0 216 216"
   fill="none"
   version="1.1"
   id="svg21"
   sodipodi:docname="emc-icon.svg"
   inkscape:version="0.92.4 (5da689c313, 2019-01-14)">
  <metadata
     id="metadata25">
    <rdf:RDF>
      <cc:Work
         rdf:about="">
        <dc:format>image/svg+xml</dc:format>
        <dc:type
           rdf:resource="http://purl.org/dc/dcmitype/StillImage" />
      </cc:Work>
    </rdf:RDF>
  </metadata>
  <sodipodi:namedview
     pagecolor="#ffffff"
     bordercolor="#666666"
     borderopacity="1"
     objecttolerance="10"
     gridtolerance="10"
     guidetolerance="10"
     inkscape:pageopacity="0"
     inkscape:pageshadow="2"
     inkscape:window-width="1920"
     inkscape:window-height="1016"
     id="namedview23"
     showgrid="false"
     inkscape:zoom="4.3703704"
     inkscape:cx="167.79243"
     inkscape:cy="71.158251"
     inkscape:window-x="0"
     inkscape:window-y="27"
     inkscape:window-maximized="1"
     inkscape:current-layer="g14" />
  <g
     clip-path="url(#clip0)"
     id="g14">
    <path
       d="M41.8407 46.1289C40.2 46.129 38.6266 46.7809 37.4664 47.941C36.3063 49.1012 35.6545 50.6746 35.6543 52.3153V143.059C35.6541 143.33 35.7073 143.598 35.8108 143.848C35.9143 144.099 36.0661 144.326 36.2575 144.518C36.4489 144.71 36.6762 144.862 36.9264 144.965C37.1766 145.069 37.4448 145.123 37.7156 145.123H84.6972L81.3962 161.621H76.9C76.3534 161.621 75.8292 161.838 75.4427 162.225C75.0562 162.611 74.8389 163.135 74.8386 163.682V169.871H70.7136V173.996H132.584V169.871H128.459V163.682C128.459 163.411 128.406 163.143 128.302 162.893C128.198 162.643 128.046 162.415 127.855 162.224C127.663 162.032 127.435 161.881 127.185 161.777C126.935 161.674 126.667 161.62 126.396 161.621H121.902L118.601 145.123H138.257C137.569 143.8 136.996 142.419 136.546 140.998H39.777V122.436H137.608C138.257 120.993 139.037 119.612 139.938 118.311H50.0908V60.5653H87.2114V56.4403H48.0271C47.7562 56.4404 47.488 56.4939 47.2379 56.5977C46.9877 56.7015 46.7604 56.8535 46.5689 57.0452C46.3775 57.2368 46.2257 57.4643 46.1222 57.7146C46.0187 57.9649 45.9655 58.2331 45.9657 58.504V118.311H39.777V52.3153C39.7771 52.0444 39.8306 51.7762 39.9344 51.5261C40.0382 51.2759 40.1902 51.0486 40.3819 50.8572C40.5735 50.6657 40.801 50.5139 41.0513 50.4104C41.3016 50.3069 41.5698 50.2537 41.8407 50.2539H81.025V46.1289H41.8407ZM122.273 46.1289V50.2539H161.457C162.004 50.2542 162.528 50.4714 162.915 50.858C163.301 51.2445 163.518 51.7686 163.519 52.3153V107.358C164.912 107.494 166.291 107.743 167.644 108.102V52.3153C167.644 50.6746 166.992 49.1012 165.832 47.941C164.672 46.7809 163.098 46.1291 161.457 46.1289H122.273ZM116.084 56.4403V60.5653H153.207V108.518C154.553 108.081 155.933 107.756 157.332 107.545V58.504C157.333 58.2329 157.279 57.9645 157.176 57.7141C157.072 57.4636 156.92 57.236 156.728 57.0443C156.537 56.8527 156.309 56.7006 156.059 56.597C155.808 56.4934 155.54 56.4401 155.269 56.4403H116.084ZM88.9039 145.123H114.394L117.693 161.621H85.603L88.9039 145.123ZM78.9637 165.746H120.209H124.334V169.871H78.9637V165.746Z"
       fill="black"
       id="path2" />
    <path
       d="M101.648 136.873C102.872 136.873 104.068 136.51 105.086 135.83C106.103 135.15 106.896 134.184 107.364 133.053C107.833 131.923 107.955 130.679 107.717 129.479C107.478 128.278 106.889 127.176 106.023 126.311C105.158 125.445 104.056 124.856 102.855 124.618C101.655 124.379 100.411 124.501 99.2807 124.97C98.1502 125.438 97.1839 126.231 96.504 127.248C95.8242 128.266 95.4613 129.462 95.4613 130.686C95.4613 131.498 95.6213 132.303 95.9322 133.053C96.2432 133.804 96.6989 134.486 97.2734 135.061C97.848 135.635 98.53 136.091 99.2807 136.402C100.031 136.713 100.836 136.873 101.648 136.873ZM101.648 128.623C102.056 128.623 102.455 128.744 102.794 128.971C103.133 129.197 103.398 129.52 103.554 129.896C103.71 130.273 103.751 130.688 103.671 131.088C103.591 131.488 103.395 131.855 103.107 132.144C102.818 132.432 102.451 132.629 102.051 132.708C101.651 132.788 101.236 132.747 100.859 132.591C100.482 132.435 100.16 132.171 99.9336 131.831C99.707 131.492 99.586 131.094 99.586 130.686C99.586 130.415 99.6394 130.147 99.743 129.896C99.8466 129.646 99.9985 129.419 100.19 129.227C100.382 129.036 100.609 128.884 100.859 128.78C101.109 128.677 101.378 128.623 101.648 128.623Z"
       fill="black"
       id="path4" />
    <path
       d="M93.3988 56.4409C93.3988 64.8553 83.087 66.7527 82.757 66.7527C82.4263 66.8089 82.1143 66.945 81.8481 67.1491C81.5818 67.3532 81.3694 67.6192 81.2292 67.924C81.089 68.2287 81.0253 68.5631 81.0435 68.898C81.0618 69.233 81.1615 69.5585 81.334 69.8462L97.9978 97.6879H95.4611C95.1903 97.6879 94.9221 97.7413 94.6719 97.8449C94.4216 97.9486 94.1943 98.1004 94.0028 98.2919C93.8113 98.4835 93.6594 98.7108 93.5557 98.9611C93.4521 99.2113 93.3987 99.4795 93.3988 99.7503V101.421C89.7948 100.635 86.3222 99.336 83.087 97.5642C79.9239 95.9892 77.1827 93.6815 75.0913 90.8333C73 87.9851 71.6191 84.6787 71.0635 81.1892H74.8376C75.1084 81.1892 75.3766 81.1358 75.6268 81.0321C75.8771 80.9285 76.1044 80.7766 76.2959 80.585C76.4874 80.3935 76.6393 80.1662 76.743 79.916C76.8466 79.6658 76.8999 79.3976 76.8999 79.1267V66.7527C76.8999 66.2057 76.6827 65.6811 76.2959 65.2943C75.9091 64.9076 75.3846 64.6903 74.8376 64.6903H62.4635C61.9165 64.6903 61.3919 64.9076 61.0052 65.2943C60.6184 65.6811 60.4011 66.2057 60.4011 66.7527V79.1267C60.4011 79.3976 60.4544 79.6658 60.5581 79.916C60.6617 80.1662 60.8136 80.3935 61.0051 80.585C61.1966 80.7766 61.424 80.9285 61.6742 81.0321C61.9244 81.1358 62.1926 81.1892 62.4635 81.1892H66.8769C67.6901 87.6726 70.9876 93.5874 76.075 97.6879H68.6505C68.3797 97.6879 68.1115 97.7412 67.8613 97.8449C67.6111 97.9485 67.3837 98.1004 67.1922 98.2919C67.0007 98.4835 66.8488 98.7108 66.7451 98.9611C66.6415 99.2113 66.5882 99.4795 66.5882 99.7503V112.124C66.5882 112.671 66.8055 113.196 67.1923 113.583C67.579 113.969 68.1036 114.187 68.6505 114.187H81.0246C81.5716 114.187 82.0962 113.969 82.4829 113.583C82.8697 113.196 83.087 112.671 83.087 112.124V108H93.3988V112.124C93.3988 112.671 93.6161 113.196 94.0028 113.583C94.3896 113.969 94.9141 114.187 95.4611 114.187H107.835C108.382 114.187 108.907 113.969 109.293 113.583C109.68 113.196 109.898 112.671 109.898 112.124V108H120.209V112.124C120.209 112.671 120.427 113.196 120.813 113.583C121.2 113.969 121.725 114.187 122.272 114.187H134.646C135.193 114.187 135.717 113.969 136.104 113.583C136.491 113.196 136.708 112.671 136.708 112.124V99.7503C136.708 99.4795 136.655 99.2113 136.551 98.9611C136.448 98.7108 136.296 98.4835 136.104 98.2919C135.913 98.1004 135.685 97.9486 135.435 97.8449C135.185 97.7413 134.917 97.6879 134.646 97.6879H127.242C132.329 93.5874 135.627 87.6726 136.44 81.1892H140.833C141.104 81.1892 141.372 81.1358 141.622 81.0321C141.872 80.9285 142.1 80.7766 142.291 80.585C142.483 80.3935 142.635 80.1662 142.738 79.916C142.842 79.6658 142.895 79.3976 142.895 79.1267V66.7527C142.895 66.2057 142.678 65.6811 142.291 65.2943C141.904 64.9076 141.38 64.6903 140.833 64.6903H128.459C127.912 64.6903 127.387 64.9076 127 65.2943C126.614 65.6811 126.396 66.2057 126.396 66.7527V79.1267C126.396 79.3976 126.45 79.6658 126.553 79.916C126.657 80.1662 126.809 80.3935 127 80.585C127.192 80.7766 127.419 80.9285 127.669 81.0321C127.92 81.1358 128.188 81.1892 128.459 81.1892H132.233C131.685 84.6542 130.322 87.9397 128.257 90.7756C126.192 93.6116 123.483 95.917 120.354 97.5023C117.075 99.3003 113.553 100.613 109.898 101.4V99.7503C109.898 99.4795 109.844 99.2113 109.741 98.9611C109.637 98.7108 109.485 98.4835 109.294 98.2919C109.102 98.1004 108.875 97.9486 108.624 97.8449C108.374 97.7413 108.106 97.6879 107.835 97.6879H105.299L121.983 69.8668C122.155 69.5791 122.255 69.2536 122.273 68.9186C122.292 68.5837 122.228 68.2493 122.088 67.9446C121.948 67.6398 121.735 67.3738 121.469 67.1697C121.203 66.9656 120.891 66.8295 120.56 66.7733C120.209 66.7507 109.898 64.8553 109.898 56.4409V46.1291H116.085V42.0044H87.2117V46.1291H93.3988V56.4409ZM66.5882 77.0644H64.5258V68.815H72.7752V77.0644H66.5882ZM78.9623 110.062H70.7129V101.813H78.9623V110.062ZM83.087 103.875V102.143C84.4306 102.792 85.8074 103.37 87.2117 103.875H83.087ZM130.521 77.0644V68.815H138.77V77.0644H130.521ZM124.334 101.813H132.583V110.062H124.334V101.813ZM120.209 102.142V103.875H116.085C117.489 103.37 118.866 102.792 120.209 102.142ZM105.773 101.813V110.062H97.5234V101.813H105.773ZM97.5234 46.1291H105.773V54.3785H97.5234V46.1291ZM97.3791 58.5032H105.938C106.928 65.0615 112.537 68.6088 117.033 70.1143L103.711 92.3052V75.0021H99.5858V92.3052L86.2836 70.1143C90.7589 68.6088 96.3891 65.0615 97.3791 58.5032Z"
       fill="black"
       id="path6" />
    <path
       d="M103.711 66.7526H99.5865V70.8773H103.711V66.7526Z"
       fill="black"
       id="path8" />
    <path
       d="M177.24 124.574C175.973 122.16 174.192 120.023 171.976 118.4C171.66 118.163 171.185 118.242 170.947 118.559C170.71 118.875 170.789 119.35 171.106 119.588C173.124 121.091 174.786 123.03 175.934 125.247C177.121 127.582 177.754 130.075 177.754 132.726C177.754 141.749 170.433 149.07 161.41 149.07C152.387 149.07 145.066 141.749 145.066 132.726C145.066 123.703 152.387 116.382 161.41 116.382C161.806 116.382 162.122 116.065 162.122 115.67C162.122 115.274 161.806 114.918 161.41 114.918C151.596 114.918 143.602 122.912 143.602 132.726C143.602 142.541 151.596 150.535 161.41 150.535C171.224 150.535 179.218 142.541 179.218 132.726C179.218 129.877 178.545 127.067 177.24 124.574Z"
       fill="black"
       stroke="black"
       stroke-width="20"
       id="path10"
       style="fill:none;stroke-width:2;stroke-miterlimit:4;stroke-dasharray:none" />
    <path
       d="M156.859 124.455C156.622 124.574 156.503 124.811 156.503 125.088V140.997C156.503 141.393 156.82 141.709 157.216 141.709C157.611 141.709 157.928 141.393 157.928 140.997V126.355L168.652 132.726L160.777 137.831C160.421 138.029 160.342 138.504 160.579 138.82C160.777 139.177 161.252 139.256 161.569 139.018L170.433 133.32C170.631 133.201 170.789 132.963 170.75 132.686C170.75 132.449 170.631 132.212 170.394 132.093L157.572 124.455C157.374 124.336 157.097 124.336 156.859 124.455Z"
       id="path12"
       stroke-width="20"
       stroke="black"
       fill="black"
       style="fill:none;stroke-width:2;stroke-miterlimit:4;stroke-dasharray:none" />
  </g>
  <defs
     id="defs19">
    <clipPath
       id="clip0">
      <rect
         width="216"
         height="216"
         fill="white"
         id="rect16" />
    </clipPath>
  </defs>
</svg>
