<?xml version="1.0" encoding="UTF-8" standalone="no"?>
<!-- Created with Inkscape (http://www.inkscape.org/) -->

<svg
   xmlns:dc="http://purl.org/dc/elements/1.1/"
   xmlns:cc="http://creativecommons.org/ns#"
   xmlns:rdf="http://www.w3.org/1999/02/22-rdf-syntax-ns#"
   xmlns:svg="http://www.w3.org/2000/svg"
   xmlns="http://www.w3.org/2000/svg"
   xmlns:sodipodi="http://sodipodi.sourceforge.net/DTD/sodipodi-0.dtd"
   xmlns:inkscape="http://www.inkscape.org/namespaces/inkscape"
   width="47.813984mm"
   height="47.813984mm"
   viewBox="0 0 47.813984 47.813984"
   version="1.1"
   id="svg3327"
   inkscape:version="0.92.2 (5c3e80d, 2017-08-06)"
   sodipodi:docname="emc-icon.svg">
  <defs
     id="defs3321" />
  <sodipodi:namedview
     id="base"
     pagecolor="#ffffff"
     bordercolor="#666666"
     borderopacity="1.0"
     inkscape:pageopacity="0.0"
     inkscape:pageshadow="2"
     inkscape:zoom="0.98994949"
     inkscape:cx="119.28943"
     inkscape:cy="33.455761"
     inkscape:document-units="mm"
     inkscape:current-layer="layer1"
     showgrid="false"
     fit-margin-top="0"
     fit-margin-left="0"
     fit-margin-right="0"
     fit-margin-bottom="0"
     inkscape:window-width="1366"
     inkscape:window-height="699"
     inkscape:window-x="0"
     inkscape:window-y="33"
     inkscape:window-maximized="1" />
  <metadata
     id="metadata3324">
    <rdf:RDF>
      <cc:Work
         rdf:about="">
        <dc:format>image/svg+xml</dc:format>
        <dc:type
           rdf:resource="http://purl.org/dc/dcmitype/StillImage" />
        <dc:title></dc:title>
      </cc:Work>
    </rdf:RDF>
  </metadata>
  <g
     inkscape:label="Layer 1"
     inkscape:groupmode="layer"
     id="layer1"
     transform="translate(-80.414437,-89.39658)">
    <g
       transform="translate(28.648392,-16.014782)"
       id="g1941">
      <g
         transform="translate(9.0261981,-58.959089)"
         id="g1235">
        <path
           inkscape:connector-curvature="0"
           style="stroke-width:1.72544611"
           d="m 196.54102,659.83594 a 5.1763385,5.1763385 0 0 0 -5.17579,5.17578 v 75.91992 a 1.7254461,1.7254461 0 0 0 1.72461,1.72656 h 39.30664 l -2.76171,13.80274 h -3.76172 a 1.7254461,1.7254461 0 0 0 -1.72461,1.72461 v 5.17773 h -3.45117 v 3.45117 h 51.76367 v -3.45117 h -3.45117 v -5.17773 a 1.7254461,1.7254461 0 0 0 -1.72657,-1.72461 h -3.75976 l -2.76172,-13.80274 h 16.44531 a 21.638366,21.638366 0 0 1 -1.43164,-3.45117 h -80.96094 v -15.5293 h 81.84961 a 21.638366,21.638366 0 0 1 1.94922,-3.45117 h -75.16992 v -48.3125 H 234.5 v -3.45117 h -32.7832 a 1.7254461,1.7254461 0 0 0 -1.72461,1.72656 v 50.03711 h -5.17774 v -55.21484 a 1.7254461,1.7254461 0 0 1 1.72657,-1.72461 h 32.7832 v -3.45117 z m 67.29296,0 v 3.45117 h 32.78321 a 1.7254461,1.7254461 0 0 1 1.72461,1.72461 v 46.05078 a 21.638366,21.638366 0 0 1 3.45117,0.62305 v -46.67383 a 5.1763385,5.1763385 0 0 0 -5.17578,-5.17578 z m -5.17773,8.62695 v 3.45117 h 31.05859 v 40.11914 a 21.638366,21.638366 0 0 1 3.45118,-0.81445 v -41.0293 a 1.7254461,1.7254461 0 0 0 -1.72657,-1.72656 z m -22.74023,74.19531 h 21.32617 l 2.75976,13.80274 H 233.1543 Z m -8.31641,17.25391 h 34.50781 3.45117 v 3.45117 h -37.95898 z"
           id="path4-9"
           transform="scale(0.26458333)" />
        <path
           inkscape:connector-curvature="0"
           d="m 65.240627,194.6687 a 1.3695729,1.3695729 0 1 0 -1.369573,-1.36958 1.3695729,1.3695729 0 0 0 1.369573,1.36958 z m 0,-1.82611 a 0.45652429,0.45652429 0 1 1 -0.456523,0.45653 0.45652429,0.45652429 0 0 1 0.456523,-0.45653 z"
           id="path6-3"
           style="stroke-width:0.45652428" />
        <path
           inkscape:connector-curvature="0"
           d="m 63.41453,176.86425 c 0,1.86262 -2.282622,2.28261 -2.355665,2.28261 a 0.45652429,0.45652429 0 0 0 -0.315003,0.68479 l 3.688718,6.16307 h -0.561526 a 0.45652429,0.45652429 0 0 0 -0.456524,0.45654 v 0.36978 a 8.5415696,8.5415696 0 0 1 -2.282622,-0.8537 4.9122015,4.9122015 0 0 1 -2.661536,-3.6248 h 0.835441 a 0.45652429,0.45652429 0 0 0 0.456523,-0.45654 v -2.73914 a 0.45652429,0.45652429 0 0 0 -0.456523,-0.45652 h -2.739147 a 0.45652429,0.45652429 0 0 0 -0.456525,0.45652 v 2.73914 a 0.45652429,0.45652429 0 0 0 0.456525,0.45654 h 0.976962 a 5.5832922,5.5832922 0 0 0 2.036099,3.65218 h -1.643488 a 0.45652429,0.45652429 0 0 0 -0.456525,0.45654 v 2.73915 a 0.45652429,0.45652429 0 0 0 0.456525,0.45651 h 2.739146 a 0.45652429,0.45652429 0 0 0 0.456523,-0.45651 v -0.91306 h 2.282622 v 0.91306 a 0.45652429,0.45652429 0 0 0 0.456524,0.45651 h 2.739147 a 0.45652429,0.45652429 0 0 0 0.456523,-0.45651 v -0.91306 h 2.282622 v 0.91306 a 0.45652429,0.45652429 0 0 0 0.456524,0.45651 h 2.739145 a 0.45652429,0.45652429 0 0 0 0.456524,-0.45651 v -2.73915 a 0.45652429,0.45652429 0 0 0 -0.456524,-0.45654 h -1.638921 a 5.5832922,5.5832922 0 0 0 2.036097,-3.65218 h 0.972398 a 0.45652429,0.45652429 0 0 0 0.456523,-0.45654 v -2.73914 a 0.45652429,0.45652429 0 0 0 -0.456523,-0.45652 h -2.739146 a 0.45652429,0.45652429 0 0 0 -0.456525,0.45652 v 2.73914 a 0.45652429,0.45652429 0 0 0 0.456525,0.45654 h 0.835438 a 4.9076361,4.9076361 0 0 1 -2.62958,3.6111 8.5598305,8.5598305 0 0 1 -2.314577,0.86283 v -0.36521 a 0.45652429,0.45652429 0 0 0 -0.456523,-0.45654 h -0.561525 l 3.69328,-6.15851 a 0.45652429,0.45652429 0 0 0 -0.315001,-0.68478 c -0.07761,-0.005 -2.360231,-0.42456 -2.360231,-2.28718 v -2.28263 h 1.369572 v -0.91305 h -6.391338 v 0.91305 h 1.369572 z m -5.934816,4.56524 H 57.02319 v -1.8261 h 1.826096 v 1.8261 z m 2.739146,7.30438 h -1.826097 v -1.82609 h 1.826097 z m 0.913048,-1.36958 v -0.38347 a 9.431792,9.431792 0 0 0 0.91305,0.38347 z m 10.500059,-5.9348 v -1.8261 h 1.826098 v 1.8261 z m -1.369574,5.47829 h 1.826099 v 1.82609 h -1.826099 z m -0.913047,0.073 v 0.38348 h -0.91305 a 9.431792,9.431792 0 0 0 0.91305,-0.38348 z m -3.195669,-0.073 v 1.82609 h -1.826098 v -1.82609 z m -1.826098,-12.32616 h 1.826098 v 1.8261 h -1.826098 z m -0.03196,2.73914 h 1.894575 c 0.219132,1.45175 1.460879,2.23698 2.456101,2.57023 l -2.949147,4.91221 v -3.83023 h -0.913047 v 3.83023 l -2.944583,-4.91221 c 0.990658,-0.33325 2.23697,-1.11848 2.456101,-2.57023 z"
           id="path8-6"
           style="stroke-width:0.45652428" />
        <rect
           x="64.784103"
           y="179.14684"
           width="0.91304857"
           height="0.91304857"
           id="rect10"
           style="stroke-width:0.45652428" />
        <g
           id="g1147"
           transform="matrix(0.3310931,0,0,0.3310931,36.701753,133.11341)"
           style="stroke:#000000;stroke-width:1.51014924;stroke-miterlimit:4;stroke-dasharray:none;stroke-opacity:1">
          <g
             transform="matrix(0.26458333,0,0,0.26458333,114.24497,171.23693)"
             id="g4"
             style="stroke:#000000;stroke-width:5.70765066;stroke-miterlimit:4;stroke-dasharray:none;stroke-opacity:1">
            <path
               id="path2"
               d="M 85,24.4 C 81.8,18.3 77.3,12.9 71.7,8.8 c -0.8,-0.6 -2,-0.4 -2.6,0.4 -0.6,0.8 -0.4,2 0.4,2.6 5.1,3.8 9.3,8.7 12.2,14.3 3,5.9 4.6,12.2 4.6,18.9 C 86.3,67.8 67.8,86.3 45,86.3 22.2,86.3 3.7,67.8 3.7,45 3.7,22.2 22.2,3.7 45,3.7 46,3.7 46.8,2.9 46.8,1.9 46.8,0.9 46,0 45,0 20.2,0 0,20.2 0,45 0,69.8 20.2,90 45,90 69.8,90 90,69.8 90,45 90,37.8 88.3,30.7 85,24.4 Z"
               inkscape:connector-curvature="0"
               style="stroke:#000000;stroke-width:5.70765066;stroke-miterlimit:4;stroke-dasharray:none;stroke-opacity:1" />
          </g>
          <g
             transform="matrix(0.26458333,0,0,0.26458333,114.24497,171.23693)"
             id="g8"
             style="stroke:#000000;stroke-width:5.70765066;stroke-miterlimit:4;stroke-dasharray:none;stroke-opacity:1">
            <path
               id="path6-0"
               d="m 33.5,24.1 c -0.6,0.3 -0.9,0.9 -0.9,1.6 v 40.2 c 0,1 0.8,1.8 1.8,1.8 1,0 1.8,-0.8 1.8,-1.8 v -37 L 63.3,45 43.4,57.9 c -0.9,0.5 -1.1,1.7 -0.5,2.5 0.5,0.9 1.7,1.1 2.5,0.5 L 67.8,46.5 c 0.5,-0.3 0.9,-0.9 0.8,-1.6 0,-0.6 -0.3,-1.2 -0.9,-1.5 L 35.3,24.1 c -0.5,-0.3 -1.2,-0.3 -1.8,0 z"
               inkscape:connector-curvature="0"
               style="stroke:#000000;stroke-width:5.70765066;stroke-miterlimit:4;stroke-dasharray:none;stroke-opacity:1" />
          </g>
        </g>
      </g>
      <rect
         style="opacity:1;fill:none;fill-opacity:1;stroke:none;stroke-width:1;stroke-linecap:round;stroke-linejoin:round;stroke-miterlimit:4;stroke-dasharray:none;stroke-dashoffset:0;stroke-opacity:1;paint-order:stroke fill markers"
         id="rect1851"
         width="47.813984"
         height="47.813984"
         x="51.766045"
         y="105.41136" />
    </g>
  </g>
</svg>
