<?xml version="1.0" encoding="UTF-8" standalone="no"?>
<svg
   xmlns:dc="http://purl.org/dc/elements/1.1/"
   xmlns:cc="http://creativecommons.org/ns#"
   xmlns:rdf="http://www.w3.org/1999/02/22-rdf-syntax-ns#"
   xmlns:svg="http://www.w3.org/2000/svg"
   xmlns="http://www.w3.org/2000/svg"
   xmlns:sodipodi="http://sodipodi.sourceforge.net/DTD/sodipodi-0.dtd"
   xmlns:inkscape="http://www.inkscape.org/namespaces/inkscape"
   inkscape:version="1.0 (4035a4fb49, 2020-05-01)"
   height="80"
   width="80"
   sodipodi:docname="faculty-and-staff-light.svg"
   id="svg20"
   xml:space="preserve"
   viewBox="0 0 80 80"
   y="0px"
   x="0px"
   version="1.1"><metadata
     id="metadata26"><rdf:RDF><cc:Work
         rdf:about=""><dc:format>image/svg+xml</dc:format><dc:type
           rdf:resource="http://purl.org/dc/dcmitype/StillImage" /><dc:title></dc:title></cc:Work></rdf:RDF></metadata><defs
     id="defs24" /><sodipodi:namedview
     inkscape:document-rotation="0"
     inkscape:current-layer="svg20"
     inkscape:window-maximized="1"
     inkscape:window-y="27"
     inkscape:window-x="0"
     inkscape:cy="0.099952687"
     inkscape:cx="-13.005406"
     inkscape:zoom="1.888"
     fit-margin-bottom="0"
     fit-margin-right="0"
     fit-margin-left="0"
     fit-margin-top="0"
     showgrid="false"
     id="namedview22"
     inkscape:window-height="1016"
     inkscape:window-width="1920"
     inkscape:pageshadow="2"
     inkscape:pageopacity="0"
     guidetolerance="10"
     gridtolerance="10"
     objecttolerance="10"
     borderopacity="1"
     bordercolor="#666666"
     pagecolor="#ffffff" /><path
     style="fill:#ffffff"
     inkscape:connector-curvature="0"
     id="path2"
     d="M 45.358,45.813 26.245,32.028 c -0.35,-0.252 -0.82,-0.252 -1.17,0 L 5.962,45.813 c -0.261,0.188 -0.415,0.49 -0.415,0.811 0,0.321 0.154,0.623 0.415,0.811 l 4.2,3.029 v 6.687 c 0,0.316 0.149,0.613 0.402,0.802 l 14.498,10.812 c 0.177,0.132 0.388,0.198 0.598,0.198 0.21,0 0.421,-0.066 0.598,-0.198 l 8.457,-6.306 v 2.08 c -1.078,0.407 -1.851,1.441 -1.851,2.661 v 3.896 c 0,0.552 0.447,1 1,1 h 3.702 c 0.553,0 1,-0.448 1,-1 V 67.2 c 0,-1.219 -0.773,-2.254 -1.852,-2.661 v -3.571 l 4.042,-3.014 c 0.253,-0.189 0.402,-0.486 0.402,-0.802 v -6.688 l 4.199,-3.029 c 0.261,-0.188 0.415,-0.49 0.415,-0.811 0,-0.321 -0.153,-0.623 -0.414,-0.811 z m -8.792,24.282 h -1.702 v -2.896 c 0,-0.469 0.382,-0.851 0.851,-0.851 0.47,0 0.852,0.382 0.852,0.851 v 2.896 z M 25.66,66.715 12.162,56.649 v -4.743 l 12.913,9.313 c 0.175,0.126 0.38,0.189 0.585,0.189 0.205,0 0.41,-0.063 0.585,-0.189 l 8.47,-6.108 v 4.852 z m 13.499,-10.066 -2.444,1.823 v -4.803 l 2.444,-1.763 z m -2.965,-5.071 -9.987,-6.524 c -0.462,-0.3 -1.082,-0.171 -1.384,0.291 -0.303,0.462 -0.172,1.082 0.29,1.384 L 34.456,52.832 25.66,59.176 8.257,46.624 25.66,34.072 43.063,46.624 Z" /><path
     style="fill:#ffffff"
     inkscape:connector-curvature="0"
     id="path4"
     d="m 1,80 h 78 c 0.553,0 1,-0.448 1,-1 V 15.241 c 0,-0.552 -0.447,-1 -1,-1 H 45.773 V 1 c 0,-0.552 -0.447,-1 -1,-1 h -9.547 c -0.553,0 -1,0.448 -1,1 V 14.241 H 1 c -0.553,0 -1,0.448 -1,1 V 79 c 0,0.552 0.447,1 1,1 z M 35.227,25.908 h 9.547 c 0.553,0 1,-0.448 1,-1 v -2.833 h 1.215 c 1.654,0 3,1.346 3,3 0,1.654 -1.346,3 -3,3 H 33.012 c -1.654,0 -3,-1.346 -3,-3 0,-1.654 1.346,-3 3,-3 h 1.215 v 2.833 c 0,0.552 0.447,1 1,1 z M 36.227,2 h 7.547 V 23.908 H 36.227 Z M 2,16.241 h 32.227 v 3.833 h -1.215 c -2.757,0 -5,2.243 -5,5 0,2.757 2.243,5 5,5 h 13.977 c 2.757,0 5,-2.243 5,-5 0,-2.757 -2.243,-5 -5,-5 H 45.774 V 16.241 H 78 V 78 H 2 Z" /><path
     style="fill:#ffffff"
     inkscape:connector-curvature="0"
     id="path6"
     d="M 72.036,37.279 H 51.988 c -0.553,0 -1,0.448 -1,1 0,0.552 0.447,1 1,1 h 20.048 c 0.553,0 1,-0.448 1,-1 0,-0.552 -0.447,-1 -1,-1 z" /><path
     style="fill:#ffffff"
     inkscape:connector-curvature="0"
     id="path8"
     d="M 72.036,44.123 H 51.988 c -0.553,0 -1,0.448 -1,1 0,0.552 0.447,1 1,1 h 20.048 c 0.553,0 1,-0.448 1,-1 0,-0.552 -0.447,-1 -1,-1 z" /><path
     style="fill:#ffffff"
     inkscape:connector-curvature="0"
     id="path10"
     d="M 72.036,50.967 H 51.988 c -0.553,0 -1,0.448 -1,1 0,0.552 0.447,1 1,1 h 20.048 c 0.553,0 1,-0.448 1,-1 0,-0.552 -0.447,-1 -1,-1 z" /><path
     style="fill:#ffffff"
     inkscape:connector-curvature="0"
     id="path12"
     d="M 72.036,57.811 H 51.988 c -0.553,0 -1,0.448 -1,1 0,0.552 0.447,1 1,1 h 20.048 c 0.553,0 1,-0.448 1,-1 0,-0.552 -0.447,-1 -1,-1 z" /><path
     style="fill:#ffffff"
     inkscape:connector-curvature="0"
     id="path14"
     d="M 72.036,64.654 H 51.988 c -0.553,0 -1,0.448 -1,1 0,0.552 0.447,1 1,1 h 20.048 c 0.553,0 1,-0.448 1,-1 0,-0.552 -0.447,-1 -1,-1 z" /></svg>
