<?xml version="1.0" encoding="UTF-8" standalone="no"?>
<svg
   xmlns:dc="http://purl.org/dc/elements/1.1/"
   xmlns:cc="http://creativecommons.org/ns#"
   xmlns:rdf="http://www.w3.org/1999/02/22-rdf-syntax-ns#"
   xmlns:svg="http://www.w3.org/2000/svg"
   xmlns="http://www.w3.org/2000/svg"
   xmlns:sodipodi="http://sodipodi.sourceforge.net/DTD/sodipodi-0.dtd"
   xmlns:inkscape="http://www.inkscape.org/namespaces/inkscape"
   width="39.511761"
   height="39.078098"
   viewBox="0 0 39.511761 39.078098"
   version="1.1"
   id="svg18"
   sodipodi:docname="geekmodeicon.svg"
   inkscape:version="0.92.3 (2405546, 2018-03-11)"
   style="fill:none">
  <metadata
     id="metadata24">
    <rdf:RDF>
      <cc:Work
         rdf:about="">
        <dc:format>image/svg+xml</dc:format>
        <dc:type
           rdf:resource="http://purl.org/dc/dcmitype/StillImage" />
      </cc:Work>
    </rdf:RDF>
  </metadata>
  <defs
     id="defs22" />
  <sodipodi:namedview
     pagecolor="#ffffff"
     bordercolor="#666666"
     borderopacity="1"
     objecttolerance="10"
     gridtolerance="10"
     guidetolerance="10"
     inkscape:pageopacity="0"
     inkscape:pageshadow="2"
     inkscape:window-width="1366"
     inkscape:window-height="700"
     id="namedview20"
     showgrid="false"
     inkscape:zoom="3.5505787"
     inkscape:cx="20.01454"
     inkscape:cy="-1.7892084"
     inkscape:window-x="0"
     inkscape:window-y="32"
     inkscape:window-maximized="1"
     inkscape:current-layer="svg18" />
  <g
     id="g16"
     style="opacity:1"
     transform="translate(-7.83594)">
    <path
       d="M 44.9978,0 H 10.0022 C 9.73638,0 9.48147,0.10638 9.29353,0.295737 9.10559,0.485094 9,0.741917 9,1.00971 V 24.9903 c 0,0.2678 0.10559,0.5246 0.29353,0.714 C 9.48147,25.8936 9.73638,26 10.0022,26 h 34.9956 c 0.2658,0 0.5207,-0.1064 0.7087,-0.2957 C 45.8944,25.5149 46,25.2581 46,24.9903 V 1.00971 C 46,0.741917 45.8944,0.485094 45.7065,0.295737 45.5185,0.10638 45.2636,0 44.9978,0 Z M 43.9957,23.9806 H 11.0043 V 2.01942 h 32.9914 z"
       id="path8"
       inkscape:connector-curvature="0"
       style="fill:#000000" />
    <path
       d="m 16.4461,17.7456 c 0.0931,0.0939 0.2036,0.1684 0.3253,0.2192 0.1216,0.0508 0.252,0.077 0.3837,0.077 0.1317,0 0.2621,-0.0262 0.3838,-0.077 0.1217,-0.0508 0.2322,-0.1253 0.3253,-0.2192 l 4.0086,-4.0388 c 0.0932,-0.0938 0.1671,-0.2051 0.2176,-0.3277 0.0504,-0.1226 0.0764,-0.254 0.0764,-0.3867 0,-0.1327 -0.026,-0.2641 -0.0764,-0.3866 -0.0505,-0.1226 -0.1244,-0.234 -0.2176,-0.3277 L 17.8642,8.23922 C 17.6761,8.04979 17.4211,7.94338 17.1551,7.94339 c -0.2659,10e-6 -0.5209,0.10645 -0.7089,0.2959 -0.1881,0.18945 -0.2937,0.4464 -0.2937,0.71432 0,0.26793 0.1056,0.52488 0.2936,0.71435 L 19.7332,13 16.4411,16.3169 c -0.0929,0.0941 -0.1664,0.2057 -0.2164,0.3285 -0.05,0.1227 -0.0755,0.2542 -0.075,0.3869 4e-4,0.1327 0.0268,0.264 0.0777,0.3864 0.0509,0.1224 0.1252,0.2335 0.2187,0.3269 z"
       id="path10"
       inkscape:connector-curvature="0"
       style="fill:#000000" />
    <path
       d="m 23.6816,18.0485 h 7.8269 c 0.2658,0 0.5207,-0.1063 0.7087,-0.2957 0.1879,-0.1894 0.2935,-0.4462 0.2935,-0.714 0,-0.2678 -0.1056,-0.5246 -0.2935,-0.714 -0.188,-0.1893 -0.4429,-0.2957 -0.7087,-0.2957 h -7.8269 c -0.2658,0 -0.5207,0.1064 -0.7086,0.2957 -0.188,0.1894 -0.2936,0.4462 -0.2936,0.714 0,0.2678 0.1056,0.5246 0.2936,0.714 0.1879,0.1894 0.4428,0.2957 0.7086,0.2957 z"
       id="path12"
       inkscape:connector-curvature="0"
       style="fill:#000000" />
    <path
       d="m 12.2188,38.2539 c -0.1928,0.276 -0.4623,0.4831 -0.8086,0.6211 -0.3438,0.1354 -0.7448,0.2031 -1.2032,0.2031 -0.46351,0 -0.87497,-0.108 -1.23434,-0.3242 C 8.61328,38.5352 8.33464,38.2253 8.13672,37.8242 7.94141,37.4232 7.84115,36.9583 7.83594,36.4297 v -0.4961 c 0,-0.8568 0.19922,-1.5208 0.59765,-1.9922 0.40105,-0.4713 0.96355,-0.707 1.68751,-0.707 0.5937,0 1.0716,0.1523 1.4336,0.457 0.362,0.3021 0.5833,0.7318 0.6641,1.2891 h -0.75 c -0.1407,-0.7526 -0.5886,-1.1289 -1.3438,-1.1289 -0.5026,0 -0.88411,0.177 -1.14453,0.5312 -0.25781,0.3516 -0.38802,0.862 -0.39063,1.5313 v 0.4648 c 0,0.638 0.14584,1.1458 0.4375,1.5234 0.29167,0.375 0.6862,0.5625 1.18356,0.5625 0.2813,0 0.5274,-0.0312 0.7383,-0.0937 0.211,-0.0625 0.3854,-0.168 0.5235,-0.3164 V 36.7773 H 10.1562 V 36.168 h 2.0626 z m 2.8945,0.8242 c -0.5729,0 -1.0391,-0.1875 -1.3985,-0.5625 -0.3593,-0.3776 -0.539,-0.8815 -0.539,-1.5117 v -0.1328 c 0,-0.4193 0.0794,-0.793 0.2383,-1.1211 0.1614,-0.3307 0.3854,-0.5885 0.6718,-0.7734 0.2891,-0.1875 0.6016,-0.2813 0.9375,-0.2813 0.5495,0 0.9766,0.181 1.2813,0.543 0.3047,0.362 0.457,0.8802 0.457,1.5547 v 0.3008 h -2.8633 c 0.0105,0.4166 0.1315,0.7539 0.3633,1.0117 0.2344,0.2552 0.5313,0.3828 0.8906,0.3828 0.2553,0 0.4714,-0.0521 0.6485,-0.1563 0.1771,-0.1041 0.332,-0.2422 0.4648,-0.414 l 0.4414,0.3437 c -0.3541,0.5443 -0.8854,0.8164 -1.5937,0.8164 z m -0.0899,-3.789 c -0.2916,0 -0.5364,0.1067 -0.7343,0.3203 -0.198,0.2109 -0.3203,0.5078 -0.3672,0.8906 h 2.1172 v -0.0547 c -0.0209,-0.3672 -0.1198,-0.651 -0.2969,-0.8515 -0.1771,-0.2032 -0.4167,-0.3047 -0.7188,-0.3047 z m 4.3321,3.789 c -0.5729,0 -1.0391,-0.1875 -1.3985,-0.5625 -0.3593,-0.3776 -0.539,-0.8815 -0.539,-1.5117 v -0.1328 c 0,-0.4193 0.0794,-0.793 0.2382,-1.1211 0.1615,-0.3307 0.3855,-0.5885 0.6719,-0.7734 0.2891,-0.1875 0.6016,-0.2813 0.9375,-0.2813 0.5495,0 0.9766,0.181 1.2813,0.543 0.3047,0.362 0.457,0.8802 0.457,1.5547 v 0.3008 h -2.8633 c 0.0104,0.4166 0.1315,0.7539 0.3633,1.0117 0.2344,0.2552 0.5313,0.3828 0.8906,0.3828 0.2552,0 0.4714,-0.0521 0.6485,-0.1563 0.1771,-0.1041 0.332,-0.2422 0.4648,-0.414 l 0.4414,0.3437 c -0.3541,0.5443 -0.8854,0.8164 -1.5937,0.8164 z m -0.0899,-3.789 c -0.2916,0 -0.5364,0.1067 -0.7344,0.3203 -0.1979,0.2109 -0.3203,0.5078 -0.3671,0.8906 h 2.1171 v -0.0547 c -0.0208,-0.3672 -0.1197,-0.651 -0.2968,-0.8515 -0.1771,-0.2032 -0.4167,-0.3047 -0.7188,-0.3047 z m 3.7578,1.7539 -0.4531,0.4726 V 39 h -0.7226 v -6 h 0.7226 v 3.6289 l 0.3867,-0.4648 1.3164,-1.3907 h 0.8789 L 23.5078,36.5391 25.3438,39 h -0.8477 z m 5.9414,-3.7305 1.8594,4.6406 1.8594,-4.6406 h 0.9726 V 39 h -0.75 V 36.7852 L 32.9766,34.3945 31.1094,39 h -0.5742 l -1.8633,-4.5938 0.0742,2.379 V 39 h -0.75 v -5.6875 z m 5.711,3.5352 c 0,-0.4141 0.0807,-0.7865 0.2422,-1.1172 0.164,-0.3308 0.3906,-0.586 0.6797,-0.7657 0.2916,-0.1796 0.6237,-0.2695 0.9961,-0.2695 0.5755,0 1.0403,0.1992 1.3945,0.5977 0.3568,0.3984 0.5351,0.9284 0.5351,1.5898 v 0.0508 c 0,0.4115 -0.0794,0.7812 -0.2382,1.1094 -0.1563,0.3255 -0.3816,0.5794 -0.6758,0.7617 -0.2917,0.1823 -0.6276,0.2734 -1.0078,0.2734 -0.573,0 -1.0378,-0.1992 -1.3946,-0.5976 -0.3541,-0.3985 -0.5312,-0.9258 -0.5312,-1.5821 z m 0.7265,0.0859 c 0,0.4687 0.1081,0.845 0.3243,1.1289 0.2187,0.2839 0.5104,0.4258 0.875,0.4258 0.3672,0 0.6588,-0.1432 0.875,-0.4297 0.2161,-0.2891 0.3242,-0.6927 0.3242,-1.2109 0,-0.4636 -0.1107,-0.8386 -0.332,-1.125 -0.2188,-0.2891 -0.5105,-0.4336 -0.875,-0.4336 -0.3568,0 -0.6446,0.1419 -0.8633,0.4257 -0.2188,0.2839 -0.3282,0.6901 -0.3282,1.2188 z m 3.8516,-0.082 c 0,-0.6485 0.1537,-1.1693 0.4609,-1.5625 0.3073,-0.3959 0.7097,-0.5938 1.2071,-0.5938 0.4948,0 0.8867,0.1693 1.1758,0.5078 V 33 h 0.7226 v 6 h -0.6641 l -0.0351,-0.4531 c -0.2891,0.3541 -0.6914,0.5312 -1.207,0.5312 -0.4896,0 -0.8894,-0.2005 -1.1993,-0.6015 -0.3072,-0.4011 -0.4609,-0.9245 -0.4609,-1.5704 z m 0.7227,0.082 c 0,0.4792 0.0989,0.8542 0.2968,1.125 0.198,0.2708 0.4714,0.4062 0.8204,0.4062 0.4583,0 0.7929,-0.2057 1.0039,-0.6171 v -1.9415 c -0.2162,-0.3984 -0.5482,-0.5976 -0.9961,-0.5976 -0.3542,0 -0.6302,0.1367 -0.8282,0.4102 -0.1979,0.2734 -0.2968,0.6783 -0.2968,1.2148 z m 5.7226,2.1445 c -0.5729,0 -1.039,-0.1875 -1.3984,-0.5625 -0.3594,-0.3776 -0.5391,-0.8815 -0.5391,-1.5117 v -0.1328 c 0,-0.4193 0.0794,-0.793 0.2383,-1.1211 0.1615,-0.3307 0.3854,-0.5885 0.6719,-0.7734 0.289,-0.1875 0.6015,-0.2813 0.9375,-0.2813 0.5495,0 0.9765,0.181 1.2812,0.543 0.3047,0.362 0.4571,0.8802 0.4571,1.5547 v 0.3008 h -2.8633 c 0.0104,0.4166 0.1315,0.7539 0.3633,1.0117 0.2343,0.2552 0.5312,0.3828 0.8906,0.3828 0.2552,0 0.4713,-0.0521 0.6484,-0.1563 0.1771,-0.1041 0.3321,-0.2422 0.4649,-0.414 l 0.4414,0.3437 c -0.3542,0.5443 -0.8854,0.8164 -1.5938,0.8164 z m -0.0898,-3.789 c -0.2917,0 -0.5365,0.1067 -0.7344,0.3203 -0.1979,0.2109 -0.3203,0.5078 -0.3672,0.8906 h 2.1172 v -0.0547 c -0.0208,-0.3672 -0.1198,-0.651 -0.2969,-0.8515 -0.1771,-0.2032 -0.4166,-0.3047 -0.7187,-0.3047 z"
       id="path14"
       inkscape:connector-curvature="0"
       style="fill:#000000" />
  </g>
</svg>
