<?xml version="1.0" encoding="UTF-8" standalone="no"?>
<!-- Created with Inkscape (http://www.inkscape.org/) -->

<svg
   xmlns:dc="http://purl.org/dc/elements/1.1/"
   xmlns:cc="http://creativecommons.org/ns#"
   xmlns:rdf="http://www.w3.org/1999/02/22-rdf-syntax-ns#"
   xmlns:svg="http://www.w3.org/2000/svg"
   xmlns="http://www.w3.org/2000/svg"
   xmlns:sodipodi="http://sodipodi.sourceforge.net/DTD/sodipodi-0.dtd"
   xmlns:inkscape="http://www.inkscape.org/namespaces/inkscape"
   version="1.1"
   id="svg976"
   width="1189.4399"
   height="1191.36"
   viewBox="0 0 1189.4399 1191.36"
   sodipodi:docname="ict.svg"
   inkscape:version="0.92.4 (5da689c313, 2019-01-14)">
  <metadata
     id="metadata982">
    <rdf:RDF>
      <cc:Work
         rdf:about="">
        <dc:format>image/svg+xml</dc:format>
        <dc:type
           rdf:resource="http://purl.org/dc/dcmitype/StillImage" />
        <dc:title />
      </cc:Work>
    </rdf:RDF>
  </metadata>
  <defs
     id="defs980" />
  <sodipodi:namedview
     pagecolor="#ffffff"
     bordercolor="#666666"
     borderopacity="1"
     objecttolerance="10"
     gridtolerance="10"
     guidetolerance="10"
     inkscape:pageopacity="0"
     inkscape:pageshadow="2"
     inkscape:window-width="1920"
     inkscape:window-height="1016"
     id="namedview978"
     showgrid="false"
     inkscape:zoom="0.39618588"
     inkscape:cx="-298.71637"
     inkscape:cy="595.08712"
     inkscape:window-x="0"
     inkscape:window-y="27"
     inkscape:window-maximized="1"
     inkscape:current-layer="svg976" />
  <path
     style="fill:#1a1a1a;stroke-width:0.31999999;fill-opacity:1"
     d="m 952.95992,1190.3432 c -2.26813,-1.057 -2.29197,-1.0637 -35.36,-9.8588 -42.4143,-11.281 -89.92229,-23.7736 -109.67999,-28.8413 l -1.2,-0.3078 0.005,-51.2676 c 0.005,-51.0418 -0.49545,-117.60011 -0.90835,-120.77474 l -0.2168,-1.66701 -4.7911,5.98701 c -2.63511,3.29287 -13.49059,17.00304 -24.1233,30.46704 -23.60176,29.8865 -24.49542,30.9801 -25.52886,31.2395 -1.14515,0.2874 -3.83216,-0.036 -10.96601,-1.3212 -3.41508,-0.6151 -6.59936,-1.1183 -7.07616,-1.1183 -0.75767,0 -2.63588,2.1674 -14.90531,17.2 -33.22311,40.7052 -38.83069,47.5489 -47.77088,58.301 -11.29578,13.5851 -14.27392,17.0048 -15.28611,17.5523 -0.89981,0.4868 -5.44003,-0.3784 -25.06329,-4.7757 l -11.94861,-2.6776 0.20966,-32.8 c 0.1153,-18.04 0.20973,-72.2167 0.20983,-120.39264 l 1.6e-4,-87.59261 41.94873,-36.35968 41.94873,-36.35971 3.57126,0.49664 c 1.9642,0.27315 4.29127,0.53968 5.17127,0.59229 l 1.6,0.0957 0.21552,-2.24 c 0.37158,-3.86192 1.74038,-37.95782 2.03619,-50.72 l 0.18912,-8.16 -2.41475,2.49824 c -2.23421,2.31142 -10.32995,11.67446 -47.64371,55.10176 -7.71238,8.976 -14.37705,16.60278 -14.81037,16.94838 -0.60902,0.48576 -1.20361,0.61178 -2.6199,0.55517 -4.52387,-0.18073 -23.48873,-3.21459 -96.55209,-15.44563 -47.33881,-7.92467 -59.30828,-10.05952 -59.93945,-10.69069 -0.27446,-0.27449 0.73811,-21.7968 3.30499,-70.24723 2.70285,-51.01741 4.01802,-76.50035 4.93802,-95.68 0.35033,-7.304 0.72941,-15.116 0.8424,-17.36 0.13824,-2.7456 0.0965,-4.08 -0.12771,-4.08 -0.18324,0 -10.3873,6.35734 -22.67571,14.12746 -42.87267,27.10892 -50.49206,31.78934 -53.76144,33.02444 -6.02621,2.27655 -10.23888,2.9328 -18.66109,2.90708 -8.37977,-0.0256 -12.75599,-0.67245 -21.63247,-3.19748 -0.65479,-0.18627 -0.67837,-0.0666 -0.89776,4.5536 -0.48973,10.3138 -2.04989,17.30544 -5.70023,25.5449 -0.70176,1.584 -1.83757,4.38595 -2.524,6.22653 -1.92861,5.17139 -2.97331,6.69072 -7.58448,11.03024 -0.92153,0.86723 -1.56425,1.68755 -1.42828,1.82288 0.13596,0.13536 2.83923,1.73401 6.00723,3.55254 6.73113,3.86387 9.44028,5.58954 13.6,8.66275 12.86281,9.50317 22.83308,21.52656 29.40367,35.4585 2.31597,4.91066 2.43869,5.6551 2.4208,14.68656 -0.0211,10.69968 -0.8328,15.22672 -3.06704,17.10672 -2.80966,2.36416 -4.68784,-0.93914 -3.8656,-6.79875 0.2018,-1.43821 0.22356,-2.69927 0.0542,-3.14461 -0.62899,-1.65437 -7.1248,-4.02208 -16.5607,-6.03642 -2.16403,-0.46195 -4.70403,-1.13436 -5.64445,-1.49424 -2.05846,-0.78774 -4.02092,-2.33238 -4.02092,-3.16486 0,-1.01491 1.79667,-2.72509 3.81398,-3.6304 3.54733,-1.59197 6.92102,-2.15251 13.94601,-2.31715 3.52,-0.0825 6.724,-0.21808 7.12,-0.30125 1.82634,-0.38362 0.0728,-1.81616 -3.44963,-2.81814 -5.1103,-1.4537 -20.99206,-4.0681 -28.38563,-4.67274 -2.42717,-0.1985 -4.09065,-0.51283 -5.12,-0.96749 -1.72873,-0.76355 -3.60473,-2.43078 -3.60473,-3.20358 0,-2.78173 12.65478,-6.92282 24.56406,-8.03824 2.32976,-0.21821 4.23593,-0.5192 4.23593,-0.6689 0,-0.54637 -5.69875,-6.17456 -9.37651,-9.26041 -7.01801,-5.88855 -14.58691,-11.12256 -24.22348,-16.75104 -10.01389,-5.8488 -14.08,-8.78064 -14.08,-10.15223 0,-0.64416 0.0991,-0.65421 4.30038,-0.43632 4.03098,0.20909 4.38682,0.17923 5.68,-0.47667 0.75879,-0.38486 2.63552,-1.95277 4.17056,-3.48419 2.17856,-2.17354 3.04023,-3.30941 3.9272,-5.17715 1.83936,-3.87316 2.11507,-9.21639 0.68477,-13.27031 -2.87798,-8.15709 -10.7953,-13.56163 -19.86688,-13.56163 -3.6992,0 -5.95958,0.57158 -9.77603,2.47206 -2.43181,1.21095 -3.55808,2.0274 -5.62957,4.08087 -3.28118,3.25264 -4.34301,5.30278 -4.53849,8.76269 -0.37248,6.59212 3.25324,12.28707 8.76809,13.77206 0.72403,0.19498 1.69523,0.65245 2.15821,1.01664 0.70035,0.55091 0.84176,0.92042 0.84176,2.19971 0,0.94765 -0.17674,1.68429 -0.46064,1.91991 -0.56429,0.46832 -5.3465,0.95571 -9.49242,0.96739 -1.69017,0.005 -3.94345,0.0996 -5.00723,0.21085 l -1.93417,0.20214 -0.20765,2.11786 c -0.79802,8.13977 -1.63645,12.93728 -2.57971,14.76134 -0.92362,1.78608 -3.95294,2.18467 -5.44554,0.71648 -0.94196,-0.92656 -3.88564,-6.79642 -6.37896,-12.72 -0.81489,-1.936 -1.76783,-3.76272 -2.11764,-4.05939 -0.985,-0.83533 -3.8451,-1.32362 -5.36142,-0.91533 -0.69785,0.18794 -1.34672,0.5447 -1.44194,0.79283 -0.25774,0.67165 0.75014,5.23136 2.94025,13.30189 2.48826,9.16918 3.24707,12.89984 3.24707,15.96403 0,2.64 -0.50586,3.87597 -1.58638,3.87597 -1.42331,0 -5.57235,-4.26406 -16.65817,-17.12 -7.69061,-8.91859 -10.66832,-11.8721 -12.2728,-12.17312 -0.61871,-0.11606 -2.18033,0.0166 -3.56593,0.3033 -1.35584,0.28041 -2.53738,0.50982 -2.62563,0.50982 -0.35567,0 0.45713,2.22589 4.58437,12.55459 4.17997,10.46061 4.93794,12.95347 4.48604,14.75399 -0.26474,1.05484 -1.64814,2.67568 -2.78582,3.264 -0.88143,0.4558 -0.96254,0.42576 -2.76189,-1.02381 -2.99538,-2.41309 -7.37797,-6.47104 -16.18785,-14.98877 -4.55092,-4.4 -8.40206,-8.04618 -8.5581,-8.10266 -0.54971,-0.19888 -12.06042,4.54304 -18.06884,7.44362 -9.4161,4.54563 -14.09508,7.32458 -26.39899,15.67891 -6.31997,4.29123 -8.96,5.49037 -8.96,4.06973 0,-0.97389 2.37215,-4.34 4.9879,-7.07786 l 2.45702,-2.57174 h -8.06402 -8.06403 l 0.20696,0.72 c 0.11382,0.396 0.27499,0.96493 0.35813,1.26426 0.0831,0.29936 -0.006,1.12736 -0.19772,1.84 -0.30488,1.13225 -0.46477,1.29574 -1.26724,1.29574 -1.04884,0 -3.15861,-1.62829 -6.40146,-4.94054 -3.8765,-3.95949 -9.89693,-7.42266 -15.3755,-8.84455 -3.72225,-0.96608 -8.08521,-0.96285 -10.63362,0.008 -5.24154,1.99651 -11.5562,9.57501 -13.07944,15.69722 -0.7278,2.92515 -0.53303,7.74973 0.42212,10.45635 1.71873,4.87043 6.18042,9.91328 10.79527,12.20144 l 2.38434,1.18221 4.49566,-0.0272 c 5.06759,-0.0307 9.73318,-0.73418 11.79486,-1.77853 0.73744,-0.37354 2.44273,-1.50678 3.78952,-2.51827 3.87662,-2.91159 6.32998,-3.552 6.60144,-1.7233 0.10442,0.70346 -1.87952,4.92535 -3.51844,7.48733 -4.51834,7.0631 -8.38989,18.73984 -10.6542,32.13341 -0.73125,4.32537 -1.67401,12.62169 -2.23585,19.67549 l -0.21418,2.68886 1.54626,-1.10829 c 9.26238,-6.63897 13.63506,-9.28729 20.56739,-12.4567 5.10319,-2.33315 13.34662,-5.44912 16.79913,-6.34995 3.59316,-0.93754 4.80984,-0.88196 5.96435,0.27257 0.51446,0.51447 0.93538,1.1696 0.93538,1.45587 0,1.42637 -1.98199,3.57847 -8.2226,8.92839 -8.15522,6.99123 -23.29781,24.0224 -30.39038,34.18067 -1.68211,2.40915 -3.74665,5.23443 -4.58788,6.2784 l -1.5295,1.89808 0.68518,0.83238 c 0.37685,0.45783 1.83098,1.83354 3.23139,3.05712 l 2.5462,2.22474 6.10071,-5.97552 c 6.13713,-6.0112 12.95818,-11.93658 18.88688,-16.40691 8.19717,-6.18074 10.71879,-7.30851 12.75685,-5.70538 0.58631,0.46119 0.84315,0.96483 0.84315,1.65338 0,1.06931 -2.1414,5.30995 -4.65797,9.22425 -4.46033,6.93764 -9.40999,15.57709 -14.50605,25.31981 -2.38087,4.55181 -2.57242,5.04915 -2.05105,5.32554 0.31629,0.16765 4.46149,1.99104 9.21156,4.052 4.75007,2.06093 9.03372,4.02998 9.51923,4.37571 1.1974,0.85261 1.41318,1.93837 0.69969,3.52061 -0.78409,1.73881 -1.72701,2.29197 -3.99906,2.34605 -1.35549,0.0322 -2.07357,0.21676 -2.57668,0.66208 -1.19331,1.05619 -3.09208,4.23852 -6.01801,10.08614 -6.68671,13.36374 -11.78025,29.58003 -14.7175,46.85616 -0.81947,4.81984 -1.94694,14.29165 -1.74089,14.62506 0.085,0.13747 2.71652,0.24998 5.84787,0.24998 6.57133,0 7.47856,0.20461 8.31497,1.87533 0.99558,1.98864 1.06682,2.82752 0.37329,4.39536 -1.38836,3.13862 -9.31189,9.26537 -12.97615,10.03363 -1.51144,0.3169 -1.75324,1.20979 -1.75853,6.49382 l -0.005,4.71815 5.7432,-0.20803 c 5.02298,-0.18196 5.92674,-0.13796 7.20681,0.35091 3.14556,1.20131 3.25378,4.14342 0.36368,9.88748 -2.89817,5.7602 -6.63675,11.0934 -7.77647,11.0934 -2.57464,0 6.17611,22.1211 12.84856,32.48 4.02315,6.2458 8.92711,11.5818 12.73783,13.8598 2.15377,1.2875 5.77954,2.6042 7.19638,2.6134 1.29224,0.01 1.30913,-0.2613 0.24,-3.8332 -1.20121,-4.0133 -1.04385,-8.32 0.30401,-8.32 1.00203,0 5.15439,6.8599 6.56229,10.8412 0.92913,2.6274 1.69822,3.902 4.94722,8.1988 6.28352,8.3098 15.13058,17.1697 21.14648,21.1772 6.73633,4.4874 13.42595,6.5853 22.45132,7.0409 4.63011,0.2337 6.96505,-0.1442 10.25178,-1.6593 4.27634,-1.9712 7.1269,-5.5242 7.13377,-8.8916 0.008,-3.8685 -3.92486,-8.0874 -9.19168,-9.8606 -1.62277,-0.5463 -2.92677,-0.7336 -5.20519,-0.7478 -3.35627,-0.021 -2.38146,-0.3888 -9.699,3.661 -1.02246,0.5659 -1.93051,0.9573 -2.0179,0.8699 -0.18245,-0.1824 2.56183,-6.0914 9.39521,-20.2297 7.03335,-14.5521 9.66678,-21.2093 11.33031,-28.6426 0.64379,-2.8767 0.74981,-4.2051 0.74044,-9.2774 -0.008,-4.2369 -0.16194,-6.6479 -0.54205,-8.48 -2.93386,-14.14146 -5.45132,-19.8844 -11.01508,-25.12811 -3.90492,-3.68032 -7.25295,-5.54112 -12.24094,-6.8034 -2.44987,-0.62 -3.60914,-0.69686 -10.59099,-0.70236 -8.2363,-0.006 -11.03625,0.26041 -16.8,1.60153 -8.0737,1.87859 -14.7923,5.35632 -21.58514,11.17309 -2.70512,2.31642 -5.37626,5.17674 -9.13245,9.77925 -4.55257,5.5782 -7.32467,8.32 -8.41221,8.32 -0.83125,0 -0.26382,-3.2612 1.04978,-6.0334 2.09423,-4.4196 4.05706,-7.25225 9.99101,-14.4183 l 0.71098,-0.85859 -0.50499,-4.9449 c -1.0186,-9.97427 -0.63417,-27.98028 0.81612,-38.22486 0.14949,-1.056 0.21898,-2.01056 0.15441,-2.12125 -0.0646,-0.11072 -0.73167,-0.15248 -1.48245,-0.0929 -7.85177,0.62365 -13.64192,0.81971 -14.27066,0.48323 -2.75268,-1.47318 2.87842,-5.53242 9.11221,-6.56861 4.97733,-0.82736 11.78226,-1.19587 41.87339,-2.26765 27.98722,-0.99686 36.79873,-1.94483 45.92084,-4.94025 4.47719,-1.47018 11.24957,-4.50295 14.84091,-6.64599 3.22504,-1.92448 6.54519,-5.00928 7.55417,-7.01875 1.0181,-2.02758 1.23908,-5.05545 0.50856,-6.96829 -0.69831,-1.82851 -3.30597,-4.26838 -5.94448,-5.56198 -4.42162,-2.16784 -12.53016,-3.49446 -19.01254,-3.11062 -9.02716,0.53452 -18.6163,1.83718 -22.80426,3.09792 -7.24502,2.18099 -15.91655,3.80534 -23.7832,4.455 -9.45156,0.78058 -20.1998,-0.35299 -24.89407,-2.62544 -2.02513,-0.98035 -5.01246,-3.88124 -5.96467,-5.79209 -1.13902,-2.2857 -1.13415,-4.9288 0.0133,-7.23149 1.34309,-2.69523 4.05813,-4.0296 5.72262,-2.81248 0.53083,0.38813 0.59191,0.84131 0.53298,3.95443 -0.078,4.11911 0.12936,4.5432 2.69359,5.50976 l 1.62377,0.61207 1.22695,-2.77732 c 6.71166,-15.19244 16.61745,-30.8407 27.38676,-43.26307 7.43513,-8.57638 15.69211,-16.73072 23.06385,-22.77715 2.17123,-1.78086 3.08807,-2.73878 3.09509,-3.23379 0.0105,-0.74234 0.98551,-8.21978 1.84415,-14.14333 0.81833,-5.64547 1.62835,-9.21085 3.52599,-15.52 3.87393,-12.87978 7.88387,-21.19619 13.406,-27.80336 2.98848,-3.57571 9.03033,-9.40102 11.80121,-11.37827 3.60584,-2.57309 9.80546,-4.94391 17.64245,-6.74679 13.91807,-3.20176 30.2711,0.83988 46.07999,11.38868 9.26099,6.17955 14.61776,11.34064 24.43158,23.539 l 3.63159,4.51399 2.60841,0.2127 c 3.55779,0.29015 10.70365,1.3416 15.72842,2.31437 3.51814,0.68109 4.30813,0.94483 5.12,1.70941 0.528,0.49725 1.464,1.00937 2.08,1.13808 2.08528,0.43561 7.45232,2.43149 10.05299,3.7384 3.46374,1.7407 5.95158,3.46512 7.96201,5.51888 1.53242,1.56544 4.00036,5.17065 3.70944,5.41885 -0.0684,0.0584 -1.85244,-0.53642 -3.96444,-1.3218 -8.61927,-3.20521 -20.41655,-6.43411 -28.8,-7.88256 -19.96323,-3.44915 -38.14224,-3.55302 -57.44,-0.32816 -31.07679,5.19322 -60.04543,18.97952 -83.72966,39.84736 -13.63625,12.01472 -25.62694,26.70868 -34.684,42.5034 -2.78971,4.86502 -8.47085,16.27996 -8.22485,16.52598 0.0793,0.0793 2.64938,0.2319 5.71134,0.33917 11.67448,0.40902 26.32168,-1.18775 40.12718,-4.37443 8.31369,-1.91904 11.69642,-2.36052 18.08,-2.35972 6.60713,0 10.16051,0.54724 14.51081,2.2314 1.61106,0.62371 3.14519,1.19459 3.40919,1.2687 0.32418,0.0909 1.13987,-0.90166 2.51279,-3.05782 8.46881,-13.30032 22.06688,-27.21005 35.2472,-36.05508 18.20007,-12.21366 38.65232,-19.26588 60.19798,-20.75715 3.86403,-0.26745 4.44256,-0.10611 4.44026,1.23834 -0.003,1.40665 -2.79299,15.15475 -3.28154,16.16691 -0.36509,0.75632 -0.80477,0.90333 -5.5167,1.84454 -16.14714,3.22532 -27.59536,7.79837 -39.68,15.85031 -6.90217,4.59891 -11.26662,8.15821 -16.80492,13.7048 -12.80621,12.82541 -21.50163,27.01027 -27.36323,44.63782 -6.80059,20.45133 -7.79573,42.0328 -2.92223,63.37405 4.95213,21.68559 17.50005,43.28229 33.57678,57.79009 8.44615,7.622 18.85299,14.4602 28.63568,18.8163 24.66643,10.9835 54.11587,11.634 78.95791,1.744 19.71866,-7.8503 35.27306,-20.0962 48.62787,-38.2845 l 1.57555,-2.1458 h 4.69002 c 2.57949,0 5.80182,0.094 7.1607,0.2088 2.42637,0.2051 2.46717,0.223 2.27325,0.9956 -0.49994,1.992 -7.47417,12.5358 -12.15024,18.3692 -5.12899,6.3984 -13.72416,14.8245 -20.81715,20.4078 -3.56102,2.803 -11.76467,8.1809 -16.16,10.5936 -13.8118,7.5815 -27.91846,12.1798 -43.67999,14.2383 -6.18016,0.8071 -22.49191,0.8345 -28.16,0.047 -9.93162,-1.3795 -20.02138,-3.8108 -27.60685,-6.6525 -9.25724,-3.4679 -16.47833,-7.1266 -24.23315,-12.2779 -9.05036,-6.012 -13.37241,-9.5768 -20.68918,-17.0643 -17.02116,-17.4186 -28.12622,-37.421 -34.03008,-61.2951 -3.1077,-12.56695 -4.51134,-27.19501 -3.70491,-38.61079 0.43863,-6.20922 1.94857,-17.15034 3.21769,-23.31558 0.49413,-2.40042 0.85312,-4.41303 0.79776,-4.47245 -0.0554,-0.0594 -1.37205,0.39321 -2.92597,1.00582 -3.08148,1.21485 -6.3294,2.20749 -9.04452,2.76423 -1.62887,0.33401 -18.11229,1.96819 -24.50078,2.42902 -1.584,0.11427 -3.888,0.40595 -5.12,0.64822 -2.97626,0.58522 -9.89338,0.98903 -24.8,1.44778 -6.776,0.20851 -12.4473,0.49424 -12.60289,0.63494 -0.43399,0.39245 -1.38834,8.56189 -1.82118,15.58973 -0.37578,6.10138 -0.24238,19.86381 0.21842,22.53341 l 0.20457,1.18515 1.80054,-1.21325 c 8.04093,-5.41817 20.11587,-9.32035 31.87023,-10.29926 7.29132,-0.60726 13.54631,0.36947 20.46465,3.19552 9.06204,3.70176 12.18913,6.8089 17.10409,16.99498 3.81676,7.91013 5.58053,13.44133 6.60922,20.72643 0.79815,5.6524 0.52533,14.3898 -0.61816,19.7976 -1.63913,7.7518 -4.94497,16.4305 -11.24124,29.5112 -2.97771,6.1863 -3.10914,6.546 -2.54296,6.96 0.32837,0.2401 1.35442,0.4366 2.28012,0.4366 8.85505,0 16.08178,7.8445 16.10903,17.4863 0.0202,7.1435 -5.43797,12.8369 -14.51683,15.1425 l -2.20661,0.5604 3.21725,2.4364 c 6.4808,4.908 15.03982,10.0923 24.3917,14.7743 10.31722,5.1654 20.26654,8.9686 30.56004,11.6818 8.96823,2.3639 11.8217,2.973 19.41968,4.1458 8.16717,1.2607 11.80138,1.5855 20.42032,1.825 21.71248,0.6036 43.7696,-3.1052 63.95747,-10.754 28.36576,-10.7474 53.14527,-28.7875 72.18703,-52.5541 17.44179,-21.7697 29.64557,-48.822 34.40416,-76.26449 5.33005,-30.73789 2.04448,-62.04096 -9.56656,-91.14454 -11.45613,-28.71536 -30.67942,-53.74205 -55.69075,-72.50349 -2.36973,-1.77757 -4.38573,-3.22311 -4.48,-3.21226 -0.0942,0.0109 -0.89136,1.02659 -1.77136,2.25719 -0.88,1.23062 -2.97901,3.56176 -4.66445,5.18028 -4.80748,4.61668 -8.09945,6.27357 -12.50185,6.29239 -5.8959,0.0253 -11.67741,-3.55891 -15.68883,-9.72586 -1.85798,-2.85635 -2.21501,-4.42432 -2.20714,-9.69376 0.008,-5.11392 0.4306,-8.43017 1.25568,-9.84525 0.8122,-1.39305 3.11652,-3.0447 4.24781,-3.0447 0.79667,0 1.03328,0.1952 1.45459,1.2 0.42477,1.01309 0.46829,2.07587 0.2793,6.82314 -0.24967,6.271 0.0341,8.74803 1.28509,11.21667 1.03689,2.04627 2.71801,3.61152 5.18128,4.82419 2.71696,1.33754 4.87737,1.52067 6.87305,0.58256 3.13783,-1.47494 8.75789,-7.03107 11.1903,-11.06298 1.6297,-2.70134 2.26922,-4.75078 2.29152,-7.34358 0.042,-4.88688 -2.89392,-7.77347 -13.03852,-12.81933 -8.30931,-4.13299 -18.96749,-7.97673 -29.63782,-10.68851 -5.9602,-1.51472 -8.74599,-2.69139 -8.89959,-3.75904 -0.13888,-0.96544 1.49587,-1.36957 5.53959,-1.36944 4.01696,1.3e-4 8.07132,0.60707 13.6,2.03597 10.89059,2.81469 22.89558,7.80077 29.62716,12.30521 7.01974,4.69725 10.47376,10.78522 9.49901,16.74279 -0.18288,1.11779 -0.31309,2.04336 -0.28935,2.0568 0.87453,0.49504 8.4425,6.32173 11.24317,8.65625 13.5609,11.30384 24.36586,23.47866 34.52598,38.90314 15.20074,23.07686 24.46522,47.1224 28.33267,73.53616 2.25565,15.4056 2.25565,34.1944 0,49.6 -5.51795,37.68629 -22.75478,72.23799 -49.41865,99.06109 -13.42297,13.5031 -28.25152,24.2826 -45.28,32.916 -20.70659,10.4981 -42.97378,16.7129 -66.23999,18.4876 -6.52502,0.4977 -21.0343,0.4845 -27.04,-0.025 -15.93053,-1.3503 -33.32499,-5.2651 -47.51999,-10.6946 -18.90289,-7.2303 -33.8455,-15.8234 -49.65075,-28.5527 -2.43426,-1.9606 -2.47085,-1.9766 -5.44,-2.3797 -5.95862,-0.809 -9.94478,-2.358 -15.46925,-6.0114 -9.37052,-6.1967 -18.08125,-14.5222 -25.18892,-24.0747 -1.63409,-2.1962 -3.42194,-4.2514 -3.97299,-4.5672 -0.55106,-0.3158 -2.68441,-0.9231 -4.74079,-1.3495 -6.58496,-1.3655 -10.12822,-3.6485 -19.27261,-12.4177 -3.02242,-2.8984 -5.99426,-5.5782 -6.60409,-5.9551 -0.60983,-0.3769 -2.24094,-0.9714 -3.62469,-1.3211 -6.93556,-1.7527 -18.9714,-7.7487 -27.05268,-13.4771 -26.14244,-18.5308 -48.9336,-52.39676 -55.85704,-82.99929 -0.82074,-3.6278 -0.86841,-4.28204 -0.8626,-11.84 0.007,-8.94432 0.39341,-12.08908 2.13898,-17.40236 1.90424,-5.79629 5.84004,-10.34679 11.26527,-13.02474 3.90835,-1.92918 6.67,-2.47533 11.53217,-2.28051 4.44182,0.17798 7.52428,1.02409 11.20619,3.07603 7.68404,4.2823 10.29314,10.89382 15.02925,38.08438 3.20043,18.37408 5.503,27.51664 9.49593,37.70448 2.89928,7.39744 9.95499,21.20281 10.83645,21.20281 0.40277,0 0.39867,-1.1434 -0.009,-2.5621 -1.10544,-3.84535 -2.05884,-20.73264 -1.81553,-32.15799 0.3958,-18.58572 2.99779,-34.52796 8.2782,-50.72 3.03146,-9.29574 5.97469,-16.11273 11.49734,-26.62963 1.91472,-3.64633 3.48133,-6.70473 3.48133,-6.79648 0,-0.0917 -1.188,-0.76371 -2.64,-1.49328 -10.08952,-5.0695 -18.88023,-11.27795 -25.99748,-18.36067 -5.8979,-5.86931 -7.13437,-8.06966 -7.82222,-13.92 -2.69234,-22.89888 0.7251,-57.94714 7.466,-76.56918 0.61597,-1.70167 1.01671,-3.1577 0.89053,-3.23568 -0.12617,-0.078 -1.45057,0.21769 -2.94311,0.65708 -4.86398,1.43191 -10.68888,0.96106 -15.72971,-1.27148 -6.67442,-2.95604 -12.39815,-9.75943 -14.41775,-17.13732 -1.00469,-3.67033 -0.99057,-11.30768 0.0278,-15.068 0.40288,-1.48752 0.86233,-2.94716 1.02101,-3.24368 0.26947,-0.50348 -2.04041,-0.54963 -34.983297,-0.69888 -23.539632,-0.1061 -35.963295,-0.27676 -37.351461,-0.51256 C 48.134114,734.36519 38.374864,730.26106 28.383239,722.64359 14.993073,712.43511 5.1177932,696.5673 1.4048914,679.29421 c -0.7449575,-3.46566 -0.86404789,-4.868 -0.99991361,-11.77424 -0.0924152,-4.6976 -0.003708,-9.60909 0.22131451,-12.2537 0.6530734,-7.67536 2.829702,-15.07769 6.8884082,-23.4263 8.0155635,-16.48774 21.4317555,-28.90346 38.4032025,-35.53942 4.091491,-1.59981 11.001558,-3.44996 15.103196,-4.04381 l 2.6211,-0.37952 0.195252,-2.09863 c 1.33022,-14.29756 5.164191,-25.78176 12.192555,-36.52124 9.536521,-14.57204 24.614134,-25.51693 41.191734,-29.90122 9.31373,-2.46323 22.38854,-2.71702 32.71692,-0.6351 9.33473,1.88163 19.61717,6.74326 27.98133,13.22976 5.3271,4.13126 11.4081,10.48848 14.94788,15.62684 l 1.56731,2.27514 2.36277,-1.09443 c 9.54599,-4.4216 16.79132,-6.10087 27.68203,-6.41587 9.68135,-0.28004 16.20168,0.64329 24.43145,3.45971 4.5722,1.5647 11.70703,5.02627 15.56855,7.55328 10.61226,6.94477 19.52276,16.90957 25.20993,28.19273 l 1.99007,3.94826 0.0751,-2.34826 c 0.0413,-1.29152 0.2951,-13.14822 0.56402,-26.34822 1.1483,-56.36346 2.25727,-99.90317 2.59659,-101.94541 0.18693,-1.12509 0.24792,-1.16617 3.4373,-2.31641 1.78584,-0.64407 14.33498,-4.6121 27.88698,-8.81786 64.05136,-19.87782 83.9214,-25.96026 84.80387,-25.95936 1.58013,0 20.9798,2.51098 22.87612,2.9591 l 1.76,0.41591 v 4.15203 c 0,2.28358 -0.12947,7.86 -0.28643,12.392 -0.15699,4.532 -0.20758,8.24 -0.11245,8.24 0.26532,0 13.35331,-4.54291 27.91987,-9.69114 19.32858,-6.83126 25.59562,-8.76243 30.37248,-9.35926 0.97914,-0.12234 1.71123,-0.33414 1.62688,-0.47066 -0.0844,-0.13651 -2.06275,-1.55072 -4.39638,-3.14265 -6.90195,-4.70835 -12.48186,-9.38947 -19.31386,-16.20288 -12.25132,-12.21799 -19.72499,-22.43898 -27.03529,-36.97341 -10.68541,-21.2448 -16.59574,-45.1769 -16.61101,-67.26111 0,-2.23362 -0.13414,-4.14229 -0.29465,-4.24149 -0.47892,-0.29598 -6.98852,-0.73956 -30.74816,-2.09527 -33.92237,-1.93557 -36.73481,-2.09836 -74.72,-4.32474 -33.89173,-1.98647 -48.00928,-2.82386 -64.79999,-3.84367 -4.312,-0.26189 -10.432,-0.62335 -13.6,-0.80322 -3.168,-0.17989 -7.86533,-0.55697 -10.43851,-0.83797 l -4.67851,-0.51091 -0.19967,-1.91032 c -0.36527,-3.48527 -0.54457,-17.67636 -1.18069,-93.3713 -0.34684,-41.272 -0.77375,-85.408 -0.94868,-98.080005 -0.17494,-12.672 -0.41293,-39.039584 -0.52886,-58.59463 l -0.21078,-35.5546277 2.85236,-0.2075087 c 1.56879,-0.1141297 8.10835,-0.5705601 14.53235,-1.0142897 6.424,-0.44372967 13.264,-0.9196282 15.2,-1.05755236 l 3.52,-0.25077119 7.2,2.15237725 c 11.89243,3.5551396 113.60818,33.8743404 149.11998,44.4493514 32.30016,9.618617 47.08749,13.981542 49.83456,14.70343 0.80592,0.211783 1.51878,0.643181 1.76,1.065088 0.31453,0.550115 0.42893,6.019245 0.51011,24.389133 0.10679,24.155315 -0.41769,95.300155 -0.79849,108.313475 l -0.2105,7.19347 1.72227,-1.43347 c 0.94723,-0.78841 3.38272,-2.93005 5.41216,-4.75919 21.28954,-19.18839 44.38841,-30.66169 73.44988,-36.48286 12.21936,-2.4476 19.26243,-3.0259 34.24,-2.81137 14.11658,0.20219 21.4872,0.87059 32.8,2.97445 18.79731,3.49576 35.58265,9.35365 59.67999,20.82763 14.82368,7.05832 18.94925,9.55859 19.48951,11.81156 0.32848,1.36977 4.99494,16.01477 10.0503,31.54134 l 4.44598,13.65504 -1.94957,19.24224 c -1.8311,18.07329 -1.98553,19.23283 -2.54233,19.08722 -0.55911,-0.14621 -0.56205,-0.12106 -0.052,0.44256 0.61056,0.67465 0.40051,1.27791 -0.44493,1.27791 -0.31088,0 -3.43328,-1.88929 -6.93865,-4.19843 -20.87411,-13.75064 -35.25399,-20.64592 -51.66736,-24.77497 -17.96553,-4.51952 -36.56633,-4.80214 -52.43091,-0.79663 -8.49776,2.14552 -17.23824,5.8769 -24.28553,10.36767 -10.70727,6.82304 -20.64659,16.91684 -26.73891,27.15451 -9.67056,16.25062 -13.88947,36.74481 -11.71088,56.88785 1.6769,15.50406 7.95763,30.55027 17.49869,41.92 8.99747,10.72192 19.99462,18.6129 33.39299,23.96102 10.08294,4.02474 13.17315,4.48096 23.00361,3.39607 16.28937,-1.7977 35.54803,-6.86778 50.95999,-13.41584 l 1.2,-0.50983 0.003,-4.55571 c 0.006,-9.91549 0.83834,-19.22665 2.24279,-25.09705 8.07645,-33.75831 31.49228,-60.21347 63.51436,-71.75842 l 3.2,-1.1537 0.0905,-1.59327 c 0.44422,-7.82392 5.57267,-120.96573 5.7215,-126.23327 l 0.1944,-6.88 -6.84339,-2.04769 c -9.08886,-2.71957 -23.04736,-6.86539 -57.72339,-17.14441 -36.70947,-10.88181 -36.57519,-10.83836 -36.84799,-11.92525 -0.37968,-1.51278 0.35235,-26.19258 1.16518,-39.282655 0.35491,-5.715654 0.37037,-5.739562 3.9104,-6.041267 5.67386,-0.483565 88.70623,-1.461885 206.1724,-2.429203 21.472,-0.17682 42.10412,-0.386647 45.84921,-0.466285 l 6.80918,-0.144794 41.35082,23.619834 c 47.86739,27.34216 48.49564,27.71061 48.94963,28.70698 0.24179,0.53065 0.22652,3.17894 -0.0526,9.15075 -0.50944,10.89724 -1.74461,29.90905 -1.9569,30.12135 -0.0908,0.0908 -10.67357,0.0342 -23.51721,-0.1257 -12.84365,-0.15994 -33.01603,-0.29549 -44.82752,-0.30123 l -21.47542,-0.0104 -0.1746,1.52 c -0.096,0.836 -0.57987,8.1334 -1.07526,16.21643 -0.716,11.6826 -0.81766,14.72412 -0.49574,14.83142 0.22275,0.0743 2.73856,1.68758 5.59072,3.58519 10.97033,7.29884 21.11644,17.19471 27.89497,27.20696 1.01283,1.496 1.88384,2.76625 1.93558,2.82279 0.0517,0.0565 2.01581,-0.78695 4.36461,-1.8744 5.58963,-2.58789 8.19658,-3.61098 12.53411,-4.91897 8.72851,-2.63209 15.32247,-3.64522 25.49645,-3.91741 13.11974,-0.35099 21.67641,0.83174 32.82267,4.53687 14.173,4.71122 26.6526,12.36093 37.5335,23.00715 10.4581,10.23256 17.9512,21.37789 23.2509,34.58397 0.8476,2.112 1.639,3.95505 1.7586,4.09566 0.1197,0.14061 2.2194,-0.18005 4.666,-0.71257 12.1361,-2.64153 21.8451,-3.16218 33.0652,-1.77311 36.2158,4.4836 66.1147,27.98214 79.7904,62.71002 2.682,6.81059 4.5021,13.39322 5.884,21.28 0.8338,4.75894 0.8417,24.51027 0.012,31.23466 -2.6224,21.2655 -14.6067,43.9944 -31.2637,59.29363 -13.9967,12.85577 -26.9548,19.56742 -47.36,24.53005 l -4.96,1.2063 -105.27997,0.29478 c -67.63641,0.18938 -131.93942,0.1808 -179.83999,-0.024 -71.99314,-0.3078 -74.69218,-0.3406 -78.39999,-0.95257 -21.45274,-3.54077 -39.27232,-12.5985 -54.24835,-27.5745 -5.53366,-5.53369 -9.90697,-11.01321 -14.26045,-17.86761 -0.0347,-0.0546 -1.9864,0.4088 -4.33712,1.02976 -10.66816,2.81801 -23.33526,4.70067 -53.07407,7.88809 -8.08615,0.86669 -21.11658,1.11815 -34.24,0.66077 -11.04976,-0.38512 -13.98457,-0.6833 -25.52771,-2.59376 -9.61881,-1.59197 -9.35021,-1.58493 -9.35955,-0.2456 -0.004,0.572 -0.13891,2.768 -0.29984,4.88 -0.16093,2.112 -0.53126,7.944 -0.82294,12.96 -0.29172,5.016 -0.56455,9.15578 -0.60634,9.19952 -0.0418,0.0437 -7.40819,3.44502 -16.36979,7.5584 -17.81507,8.17718 -26.14525,12.04442 -26.33942,12.22794 -0.26995,0.25507 0.90269,1.2535 7.54432,6.42355 8.63561,6.72221 12.34924,9.82157 17.29148,14.43145 l 3.91021,3.64724 46.97805,-22.27226 46.97804,-22.27229 10.07174,1.13443 c 10.93175,1.23127 22.07664,2.63072 23.20419,2.91373 1.30103,0.32653 1.43069,1.25837 1.09683,7.88154 -0.63504,12.59801 -2.16512,35.30739 -7.18537,106.64675 -4.85667,69.01475 -5.2839,75.27456 -5.2839,77.42179 v 1.69447 l 1.2,0.20028 c 2.45721,0.41012 39.16418,5.70592 53.63055,7.73741 8.2448,1.15783 15.34618,2.24032 15.78083,2.4056 0.43466,0.16525 0.8529,0.30045 0.92944,0.30045 0.0765,0 0.1393,-1.404 0.13949,-3.12 1.6e-4,-1.716 0.28646,-10.32 0.63622,-19.12 0.34973,-8.8 1.14042,-29.464 1.75706,-45.92 1.73059,-46.18506 2.11658,-54.20877 2.70493,-56.23334 0.48665,-1.6746 2.56153,-3.49338 5.14147,-4.50695 3.69465,-1.45149 20.4271,-6.90294 47.67999,-15.53424 l 24.8,-7.85443 16.64,0.77882 c 9.152,0.42835 17.49085,0.78137 18.53075,0.78448 l 1.89072,0.006 -0.21481,6.96 c -0.23828,7.71862 -0.67962,18.35772 -3.25552,78.48 -4.88938,114.11894 -6.70784,151.44739 -7.5314,154.60044 -0.2262,0.86599 -3.68899,5.0074 -13.64582,16.32 -30.7734,34.96372 -29.38092,33.33367 -28.71065,33.60778 0.3392,0.13872 8.10473,1.34346 17.25673,2.67718 17.35648,2.52935 23.82195,3.54989 24.07162,3.79952 0.0813,0.0814 -0.0761,7.44916 -0.34976,16.3729 -0.3937,12.836 -0.59053,16.33331 -0.9424,16.74358 -0.24464,0.28522 -9.07008,10.16864 -19.61213,21.96314 -23.36953,26.14598 -24.94013,27.95469 -24.57488,28.30096 0.36407,0.34518 23.60342,4.4945 25.17261,4.4945 0.39913,0 0.50041,-2.16884 0.69846,-14.96 0.12739,-8.228 0.3272,-15.05175 0.44403,-15.16391 0.11687,-0.11213 20.22845,-14.93027 44.69245,-32.92918 24.464,-17.99891 46.07433,-33.90723 48.02294,-35.35178 l 3.54294,-2.62649 58.85705,9.19932 c 62.52283,9.77226 75.72363,11.85764 80.24523,12.67661 l 2.8282,0.51226 -0.1865,3.2416 c -0.1025,1.78285 -0.3442,9.72157 -0.5371,17.64157 l -0.3506,14.4 -1.8158,1.76 c -0.9987,0.968 -7.5017,7.22252 -14.4511,13.89894 -24.8464,23.87037 -44.55479,43.08822 -44.37374,43.26925 0.19172,0.19174 13.27248,2.7376 34.07844,6.63254 11.6709,2.18487 21.2623,4.02349 21.3141,4.08586 0.052,0.0624 -0.1241,7.88941 -0.3908,17.39341 l -0.485,17.28 -1.3091,1.4558 c -0.7201,0.80068 -7.0002,7.71268 -13.9558,15.36 -15.9834,17.57296 -35.80374,39.49756 -36.95945,40.88356 -0.50784,0.609 -0.76231,1.1757 -0.59863,1.333 0.30144,0.2899 10.48723,2.5639 40.36978,9.0129 l 18.3251,3.9548 -0.1613,0.8 c -0.4986,2.4741 -0.8089,10.4411 -0.8089,20.7694 v 11.7164 l -19.7197,24.9571 c -56.03909,70.9224 -61.18875,77.2286 -64.25169,78.6821 -1.57728,0.7484 -3.2696,0.5976 -5.62858,-0.5018 z m 3.02784,-9.3032 c 0.11517,-1.804 0.16502,-7.951 0.11078,-13.66 l -0.0986,-10.38 -3.36,-0.8547 c -1.848,-0.47 -15.96,-4.0537 -31.36,-7.9638 -79.69532,-20.2347 -78.60149,-19.9471 -79.43381,-20.8898 -0.50906,-0.5766 -0.51341,-0.7055 -0.0541,-1.5937 0.684,-1.3227 0.77597,-5.2143 1.06128,-44.898 0.13568,-18.8706 0.36644,-33.5817 0.53296,-33.9767 0.16154,-0.3833 0.85559,-1.0778 1.54231,-1.5434 1.0974,-0.7441 1.44617,-0.8206 2.88,-0.6322 3.97891,0.5229 18.44678,3.6726 53.79138,11.7106 11.616,2.6417 26.952,6.0909 34.08,7.6649 7.128,1.574 13.19757,2.9155 13.4879,2.981 0.75712,0.1708 0.85418,-1.1982 1.10077,-15.528 l 0.21274,-12.3638 -2.85997,-0.6714 c -1.57296,-0.3693 -14.01126,-3.1269 -27.6407,-6.1279 -48.47865,-10.6745 -65.83737,-14.551 -72.62073,-16.2175 -1.144,-0.281 -2.62528,-0.7832 -3.29174,-1.1158 l -1.21175,-0.6048 0.0917,-39.90751 c 0.0979,-42.584 0.0355,-40.98982 1.63119,-41.68208 0.38532,-0.16714 0.94445,-0.4784 1.24256,-0.69168 1.02138,-0.73075 9.13466,0.66096 53.53798,9.18352 38.59712,7.40813 55.8031,10.5463 56.11478,10.23459 0.0913,-0.0913 0.22938,-6.62733 0.30682,-14.52448 l 0.14077,-14.35846 -0.92119,-0.18605 c -0.50665,-0.10234 -6.82518,-1.26672 -14.04118,-2.58755 -57.16838,-10.464 -73.35679,-13.42211 -91.99999,-16.81117 -36.62157,-6.65722 -36.37587,-6.61494 -36.68211,-6.3087 -0.45366,0.45366 -0.50269,39.40032 -0.15392,122.30457 0.43424,103.2332 0.64915,127.5415 1.1288,127.6831 2.32854,0.6872 68.56883,18.369 98.74722,26.359 38.33421,10.1494 42.34112,11.1923 43.08922,11.216 0.64912,0.021 0.70137,-0.1688 0.89862,-3.2581 z m 21.37382,-20.72 c 27.02092,-34.0799 43.29962,-54.8323 53.38952,-68.0616 l 5.6604,-7.4217 0.2349,-4.6988 c 0.1292,-2.5844 0.1086,-6.9953 -0.046,-9.802 l -0.2807,-5.103 -11.2,13.6913 c -56.72696,69.3451 -60.36027,73.877 -62.15172,77.5218 l -0.84832,1.7259 -0.11495,10.7541 -0.11494,10.754 0.82201,-0.96 c 0.4521,-0.528 7.04442,-8.808 14.6496,-18.4 z m -17.30051,-11.6 c 5.81021,-6.4455 20.39994,-24.0414 46.36643,-55.92 21.9268,-26.9192 27.7882,-34.4053 27.2977,-34.8646 -0.1569,-0.1469 -1.0053,-0.421 -1.8853,-0.6091 -0.88,-0.1881 -7.432,-1.6473 -14.56,-3.2426 -18.47445,-4.1347 -36.28398,-8.0037 -36.84251,-8.0037 -0.56419,0 -4.54349,4.0459 -11.80227,12 -11.44749,12.5439 -14.52218,15.52 -16.0343,15.52 -0.53776,0 -9.06496,-1.7926 -18.94935,-3.9836 -9.88435,-2.191 -19.30947,-4.2361 -20.94467,-4.5446 l -2.97315,-0.5609 -8.33568,8.3045 c -18.80262,18.7324 -50.08575,50.9235 -49.7822,51.2271 0.36333,0.3633 12.79776,3.6514 45.18415,11.948 30.26951,7.7544 59.11379,15.0425 60.68067,15.3324 0.11037,0.021 1.27159,-1.1509 2.58048,-2.6029 z m -308.42848,-20.48 c 0.11097,-0.924 0.21808,-13.776 0.23798,-28.56 0.0198,-14.784 0.13658,-37.464 0.2593,-50.4 0.23708,-24.9923 0.2384,-25.0112 1.75865,-25.4706 0.36928,-0.1116 0.99619,-0.5002 1.39315,-0.8636 0.68653,-0.6284 0.85965,-0.6422 3.55223,-0.2837 4.0663,0.5414 18.88134,3.2774 42.76604,7.898 26.26793,5.0817 44.28934,8.4799 44.97046,8.4799 0.46576,0 0.55299,-0.7428 0.73882,-6.2915 0.28006,-8.3619 0.26822,-18.9885 -0.0211,-18.9885 -0.67399,0 -59.47699,-11.1751 -75.12816,-14.2776 -13.01475,-2.57987 -15.5472,-3.15363 -17.68,-4.00563 l -1.67999,-0.67114 v -34.38054 -34.38051 l 1.80441,-0.82611 c 2.97504,-1.36202 2.20816,-1.4665 54.51558,7.42736 20.152,3.42646 37.36,6.26688 38.24,6.31203 l 1.6,0.0821 0.21264,-2.56 c 0.29056,-3.49827 0.47696,-22.77363 0.22268,-23.02979 -0.35564,-0.35834 -35.69564,-6.34698 -92.59532,-15.69101 -5.98399,-0.98269 -15.66095,-2.57251 -21.50438,-3.53296 -5.84342,-0.96042 -10.70342,-1.74624 -10.8,-1.74624 -0.0966,0 -0.17561,52.09725 -0.17561,115.77174 v 115.7716 l 12.88,2.8183 c 7.084,1.55 13.024,2.8654 13.2,2.923 0.84736,0.2777 1.04563,0.032 1.23264,-1.5246 z m 12.92204,-11.52 c 30.51312,-37.1704 61.05251,-75.0595 60.74633,-75.3656 -0.29596,-0.296 -24.96431,-5.229 -48.98102,-9.7948 -13.52099,-2.5705 -17.67593,-3.2704 -17.92684,-3.0194 -0.29674,0.2967 -0.90071,87.41 -0.63767,91.9705 0.12592,2.1831 0.27399,3.9693 0.32899,3.9693 0.055,0 2.96663,-3.492 6.47021,-7.76 z m 189.96658,-4.3133 c 3.01331,-3.1203 12.99613,-13.4158 22.18406,-22.8788 16.15158,-16.6352 25.37465,-26.3718 25.37465,-26.7874 0,-0.272 -5.59734,-1.6379 -24.47999,-5.9737 -8.8,-2.0206 -18.79104,-4.3294 -22.20231,-5.1307 -4.44476,-1.0441 -6.26646,-1.3532 -6.42867,-1.0907 -0.29107,0.471 -0.64902,17.5974 -0.64902,31.0543 0,12.8936 0.37069,36.4803 0.57331,36.4803 0.0821,0 2.61469,-2.553 5.62797,-5.6733 z m 107.58172,-55.7683 c 8.9319,-9.7176 22.368,-24.5236 47.28387,-52.1047 l 22.9331,-25.38637 v -7.92451 c 0,-4.3585 0.09,-9.27866 0.2004,-10.9337 l 0.2004,-3.00915 -1.5136,1.44 c -2.1281,2.02451 -25.835,26.97632 -52.0827,54.81743 l -22.2657,23.6175 -0.19523,1.8225 c -0.66288,6.1883 -1.0839,24.2215 -0.56054,24.0093 0.14467,-0.059 2.84467,-2.9154 6,-6.3483 z m -778.23421,-17.7179 c 0.19172,-0.4996 -2.81973,-8.0315 -4.7501,-11.8805 -1.79078,-3.5707 -3.21891,-5.726 -5.13986,-7.7571 -2.56806,-2.7153 -2.76977,-2.7756 -8.20612,-2.4521 -9.57556,0.5697 -11.66403,0 -11.61125,-3.152 0.0314,-1.8788 0.94797,-4.1448 3.75378,-9.2806 1.32265,-2.421 2.40471,-4.58108 2.40459,-4.80005 -1.3e-4,-0.21901 -0.83817,-2.41418 -1.86233,-4.87818 l -1.8621,-4.48 -8.13767,-0.16 c -7.06408,-0.13888 -8.2782,-0.23667 -9.20288,-0.74125 -1.29128,-0.70461 -2.1081,-2.44781 -1.83333,-3.91251 0.40801,-2.17488 5.44415,-7.69459 9.78008,-10.71917 1.18437,-0.82617 2.19387,-1.79907 2.36159,-2.27597 0.20197,-0.5743 0.10413,-1.85276 -0.3151,-4.11699 l -0.60803,-3.284 -2.56,2.32768 c -7.71128,7.01152 -10.88928,8.2849 -21.36,8.55866 -3.476,0.0909 -6.32,0.20237 -6.32,0.24774 0,0.16976 4.13169,7.45827 5.43514,9.58787 8.68965,14.19722 22.62897,30.54587 33.312,39.06967 4.38095,3.4955 13.77637,9.1801 20.93286,12.6652 3.82432,1.8625 5.46796,2.2695 5.78873,1.4336 z M 762.97981,1022.24 c 3.88854,-4.928 15.17683,-19.2184 25.08508,-31.75654 l 18.01504,-22.79655 v -9.28345 c 0,-5.10592 -0.108,-9.2753 -0.24,-9.26531 -0.132,0.01 -0.96,0.89788 -1.84,1.97312 -0.88,1.07523 -12.49379,15.26608 -25.80841,31.53523 l -24.20838,29.5803 -0.1848,4.5266 c -0.10164,2.4896 -0.26202,7.4066 -0.35642,10.9266 l -0.17165,6.4 1.31975,-1.44 c 0.72585,-0.792 4.50124,-5.472 8.38979,-10.4 z m 197.35902,2.4811 c 8.09395,-8.1532 18.67914,-19.2531 41.42787,-43.44225 21.1632,-22.50314 27.5411,-29.5496 27.1124,-29.95434 -0.1994,-0.18835 -37.96798,-7.35244 -48.14222,-9.1318 l -3.10304,-0.54269 -3.11555,2.85497 c -1.71354,1.57024 -5.37072,5.02535 -8.12704,7.67802 -2.75629,2.65267 -5.54039,5.14992 -6.18682,5.54944 l -1.17536,0.72643 -3.91459,-0.66208 c -2.15299,-0.36413 -10.75456,-1.97993 -19.11456,-3.59069 -8.36,-1.61075 -15.78765,-2.94608 -16.50585,-2.96739 -1.29172,-0.0383 -1.5208,0.15571 -21.11184,17.88125 -26.92131,24.35782 -42.50653,38.40743 -44.70595,40.30103 -1.00998,0.8696 -1.83635,1.6729 -1.83635,1.7851 0,0.2653 -2.65229,-0.3337 43.35999,9.7915 54.31213,11.9517 55.6129,12.2357 56.16,12.2618 0.264,0.012 4.30451,-3.8296 8.97891,-8.5383 z m -206.9836,-21.0059 c 4.53472,-5.35158 22.31741,-26.90896 39.88317,-48.34918 l 12.84153,-15.67392 -0.004,-5.76608 c -0.003,-3.17133 -0.0822,-6.05555 -0.17725,-6.40938 -0.15728,-0.58521 -1.53084,-0.86918 -15.19814,-3.14227 l -15.02521,-2.49894 -0.93652,0.74227 c -0.51507,0.40825 -3.50051,3.55027 -6.63427,6.98227 -8.12988,8.90349 -14.83254,15.66989 -15.75056,15.90032 -0.44284,0.11114 -9.4886,-1.26227 -20.59606,-3.12704 l -19.8064,-3.32522 -5.984,6.07597 c -3.29116,3.34179 -12.67619,13.05568 -20.85558,21.58647 -8.17939,8.53075 -17.06633,17.70832 -19.74876,20.39459 -4.27284,4.27894 -4.78829,4.90429 -4.16,5.04669 0.39443,0.0894 2.94915,0.52857 5.67715,0.9759 8.53165,1.39901 32.16339,5.75894 57.11999,10.53835 13.2,2.5279 24.35751,4.5732 24.79443,4.5451 0.59952,-0.039 1.71856,-1.1417 4.56087,-4.4959 z M 878.6445,979.2353 c 16.49747,-14.94058 30.5599,-27.75171 31.24979,-28.46919 0.89376,-0.92947 1.12375,-1.34566 0.8,-1.44771 -0.24989,-0.0788 -3.26237,-0.66653 -6.69437,-1.30614 -7.963,-1.484 -54.00409,-10.3816 -54.95999,-10.62119 l -0.72,-0.18048 v 34.59469 c 0,19.02707 0.0741,34.59472 0.16457,34.59472 0.0905,0 13.6625,-12.22413 30.16,-27.1647 z m -214.42504,0.84467 c 14.31869,-14.56858 40.21843,-41.8287 39.97376,-42.07338 -0.55782,-0.55782 -40.30348,-7.39609 -43.82012,-7.53929 l -1.65316,-0.0673 -0.27788,14.72 c -0.22672,12.01078 -0.0351,40.48 0.27254,40.48 0.0437,0 2.52093,-2.484 5.50486,-5.52 z m 342.98044,-75.11808 30.72,-29.53722 0.2038,-4.03235 c 0.5093,-10.07737 0.6714,-19.63069 0.3311,-19.51248 -0.6252,0.21709 -7.1611,6.11949 -42.05488,37.97879 l -34.48,31.4815 v 13.6079 13.60791 l 7.28,-7.02842 c 4.004,-3.86566 21.104,-20.32019 37.99998,-36.56563 z m -229.40496,4.9569 c 10.22723,-11.43933 23.77965,-26.61741 30.11645,-33.72903 l 11.5215,-12.93017 0.23341,-9.89325 c 0.12842,-5.44128 0.184,-9.93981 0.12355,-9.99674 -0.17517,-0.16499 -58.50275,62.00352 -63.01417,67.16371 l -1.09574,1.25332 -0.21588,7.70668 c -0.11872,4.23866 -0.28505,9.50628 -0.3696,11.70583 l -0.15376,3.99913 2.12964,-2.24032 c 1.17126,-1.23216 10.49734,-11.5998 20.7246,-23.03916 z m 181.92591,5.64937 c 0.9455,-0.8535 4.81507,-4.33939 8.59907,-7.74646 29.25545,-26.34112 66.33608,-60.78192 65.90878,-61.21661 -0.667,-0.67853 -125.43687,-20.04512 -129.14138,-20.04512 -0.78439,0 -8.1833,5.21286 -33.08739,23.31158 -30.37021,22.07111 -55.85379,40.94128 -55.61389,41.18119 0.13882,0.13881 21.21085,4.06605 71.93389,13.4064 19.62399,3.61366 43.02399,7.92502 51.99999,9.58083 8.976,1.65581 16.62643,3.02618 17.00093,3.04528 0.39817,0.0202 1.39472,-0.60963 2.4,-1.51709 z M 753.37286,905.03997 c 1.33639,-1.188 4.56644,-4.392 7.17786,-7.12 12.63392,-13.19792 52.01097,-55.54102 55.26614,-59.42906 l 0.86157,-1.02908 -0.73923,-0.17757 c -1.17792,-0.28298 -35.17379,-5.28429 -35.91923,-5.28429 -0.87341,0 -4.38234,3.58707 -12.6777,12.96 -7.74166,8.74736 -10.22905,11.26806 -11.41763,11.57072 -0.48659,0.12387 -5.4927,-0.22854 -11.1247,-0.78317 -5.632,-0.55465 -15.33767,-1.48073 -21.56816,-2.05798 l -11.32816,-1.04957 0.20618,-7.04 c 0.1134,-3.872 0.30124,-10.71818 0.41744,-15.21373 l 0.21126,-8.17376 -3.6543,-0.54624 c -2.00986,-0.30045 -3.97376,-0.54627 -4.36426,-0.54627 -0.66301,0 -15.9008,13.04486 -49.68,42.53027 -21.44095,18.71555 -26.34665,23.19037 -25.71036,23.45219 0.96579,0.39738 48.83151,8.46663 93.39036,15.74381 10.208,1.66714 20.288,3.31504 22.4,3.66202 5.80032,0.95293 5.46144,1.01321 8.25292,-1.46829 z m -0.73273,-54.88 c 9e-5,-0.22 0.14214,-2.992 0.31565,-6.16 0.59148,-10.79923 6.58972,-162.03421 9.91862,-250.08 0.356,-9.416 0.80682,-19.25206 1.00179,-21.85795 0.19498,-2.60586 0.27485,-4.8176 0.17747,-4.91501 -0.34217,-0.34214 -35.26931,-2.30982 -35.52188,-2.00118 -0.12755,0.1559 -0.68234,14.21104 -3.73142,94.53414 -2.65111,69.83971 -5.53693,148.21971 -6.2385,169.44 -0.27642,8.36 -0.61699,15.86285 -0.7569,16.67302 l -0.25436,1.47303 3.38467,0.37312 c 2.96176,0.32653 23.26643,2.37229 26.74467,2.69462 3.10768,0.288 4.96,0.22311 4.96019,-0.17379 z m 37.13062,-39.32909 c 16.80205,-19.03501 30.79264,-34.98317 31.0902,-35.44038 1.21751,-1.87075 1.35076,-4.43239 7.28512,-140.03053 1.57901,-36.08 3.01789,-69.488 3.19754,-74.24 0.17962,-4.752 0.40608,-10.476 0.50323,-12.72 0.14925,-3.44797 0.1041,-4.08 -0.29155,-4.08 -0.85306,0 -19.29616,6.47581 -52.67536,18.49555 l -8.79999,3.16883 -0.2354,1.40781 c -0.22579,1.35027 -1.03776,21.18829 -4.88396,119.32781 -1.69981,43.3721 -4.93149,128.28051 -5.59645,147.04 -0.1809,5.104 -0.40157,9.82 -0.49034,10.48 -0.0888,0.66 -0.0468,1.2 0.0932,1.2 0.14004,0 14.00173,-15.57408 30.80381,-34.60909 z m -508.81077,13.30909 c 19.55472,-14.09824 44.55046,-24.64774 68.95999,-29.10467 11.2785,-2.05936 20.87955,-2.82029 33.65305,-2.6672 6.18717,0.0742 9.25203,0.004 9.09274,-0.20813 -3.52336,-4.69162 -10.6889,-12.98378 -13.99683,-16.1975 -8.89827,-8.64484 -22.03923,-16.40045 -33.04445,-19.50237 -4.26214,-1.20131 -4.3159,-1.19943 -3.53529,0.12361 1.87184,3.17255 0.38841,9.65309 -3.12602,13.65626 -0.69529,0.792 -1.43046,1.75453 -1.63369,2.13898 -0.99088,1.87433 0.10105,3.379 3.48262,4.7991 2.76026,1.15914 5.05113,1.11744 10.22787,-0.18624 4.7031,-1.18438 7.68,-1.58406 7.68,-1.03107 0,0.66617 -1.4791,2.73552 -2.82314,3.94979 -3.55494,3.21168 -9.62812,4.5713 -14.62963,3.2752 -1.04899,-0.27184 -2.86841,-1.06384 -4.04316,-1.76 -1.17479,-0.69616 -2.20282,-1.26576 -2.28458,-1.26576 -0.0817,0 -0.87642,1.49011 -1.76598,3.31136 -1.27472,2.60989 -1.99421,3.65581 -3.3962,4.93712 -4.06476,3.71501 -9.41116,4.63846 -12.51688,2.16205 -1.19332,-0.95152 -0.86316,-1.3728 2.01856,-2.57575 6.21343,-2.59366 7.81535,-3.80332 9.51084,-7.18182 1.46566,-2.92064 1.65353,-3.9696 0.85408,-4.76906 -0.82186,-0.82185 -1.90986,-0.93939 -10.60391,-1.14566 -8.61987,-0.20448 -10.52993,-0.55379 -14.93819,-2.73197 -3.51144,-1.73501 -4.57322,-2.72579 -4.59691,-4.28944 -0.0146,-0.96409 -0.12093,-0.88646 -3.23731,2.36317 -6.83743,7.12979 -11.49063,16.20582 -15.74987,30.72 -2.08732,7.11293 -2.76648,10.61942 -4.02681,20.7905 -0.83233,6.71692 -0.86069,6.32524 0.3891,5.37334 0.572,-0.43565 2.408,-1.77837 4.08,-2.98384 z m 364.28361,-0.06 c 0.52372,-1.75846 1.78954,-18.56493 1.79367,-23.81456 l 0.003,-3.41459 -0.88,-0.18419 c -1.87498,-0.39242 -19.1695,-3.2785 -50.96,-8.50407 -29.77193,-4.89379 -54.64383,-9.11936 -58.55999,-9.94893 -0.792,-0.16777 -2.7,-0.68518 -4.24,-1.14979 l -2.8,-0.84473 v -1.17546 c 0,-1.32339 1.94601,-36.24176 4.7975,-86.08368 2.92675,-51.15821 6.30806,-111.38918 7.03309,-125.28 0.35827,-6.864 0.77177,-13.848 0.91894,-15.52 0.14714,-1.672 0.22823,-3.09046 0.18019,-3.15213 -0.23526,-0.30211 -28.70649,-3.88835 -30.8671,-3.88803 l -1.13737,1.6e-4 -0.86826,15.92 c -2.21891,40.68618 -6.65789,125.38451 -11.8696,226.48 -0.42646,8.272 -0.86461,15.328 -0.97366,15.68 -0.1897,0.61226 0.7007,0.7905 20.53398,4.11053 16.62173,2.78243 112.68681,18.82265 124.41228,20.77341 1.584,0.26352 2.9783,0.49644 3.09843,0.5176 0.12013,0.0211 0.2935,-0.21354 0.38522,-0.52154 z m 11.60288,-10.8 c 12.01792,-13.78902 45.76838,-53.02608 55.18841,-64.16 1.86132,-2.2 3.4721,-4.36 3.57946,-4.8 0.29958,-1.22752 0.93539,-17.31763 0.69366,-17.55286 -0.11708,-0.11392 -0.7383,0.38611 -1.38048,1.1112 -0.64217,0.72505 -7.508,8.21305 -15.2574,16.64 -23.20173,25.23017 -44.53427,48.79145 -45.47546,50.22652 -0.67055,1.02237 -1.01302,3.44765 -1.71155,12.1202 -0.69033,8.57084 -0.80809,12.32723 -0.3711,11.83894 0.14963,-0.1672 2.28016,-2.608 4.73446,-5.424 z m -4.03673,-26.24 c 6.60643,-7.02643 22.0095,-23.80074 37.90547,-41.28 23.94374,-26.32854 25.42246,-28.00893 25.76387,-29.27677 0.60636,-2.2519 1.35958,-23.36323 0.83356,-23.36323 -0.07,0 -2.26601,-0.35437 -4.88,-0.78746 -20.63094,-3.41827 -63.75385,-9.45254 -67.55113,-9.45254 h -1.73113 l -5.6552,4.87322 c -3.11037,2.68028 -17.46323,15.09804 -31.89523,27.595 -26.80509,23.21114 -56.74028,48.94362 -63.75001,54.79991 l -3.90999,3.26662 1.02999,0.17703 c 0.56653,0.0973 4.05401,0.61347 7.75001,1.14694 10.87981,1.57037 67.30445,10.55946 96.96,15.44682 2.64,0.4351 4.96185,0.76934 5.15964,0.74278 0.19783,-0.0266 1.98439,-1.77632 3.97015,-3.88832 z M 544.33323,760.94061 c 4.12871,-3.61862 21.69072,-18.87491 39.02672,-33.90285 47.1151,-40.8423 54.61696,-47.50541 56.15712,-49.8783 0.71337,-1.09911 0.81232,-1.95095 1.9007,-16.35949 4.12979,-54.67302 11.96989,-169.11898 11.61008,-169.47878 -0.47494,-0.47492 -102.52041,51.57235 -104.13234,53.11168 -0.40596,0.38764 -0.81709,6.84627 -4.72906,74.2871 -3.55114,61.2207 -8.4865,148.03507 -8.4865,149.28016 0,0.50966 0.24874,0.30672 8.65328,-7.05952 z m -404.2421,-32.24867 c 3.56033,-3.60519 6.2195,-5.31213 10.51667,-6.75079 3.84658,-1.2878 6.27611,-1.49184 10.03219,-0.84256 7.9644,1.3768 14.45912,4.45997 18.86906,8.95754 l 1.74907,1.78384 h 13.67634 13.67633 l 3.1346,-2.03373 c 19.56005,-12.69065 44.81137,-21.69997 74.49459,-26.57859 10.20938,-1.67798 17.1607,-2.31827 29.4735,-2.71482 4.59443,-0.14796 8.59193,-0.40246 8.88336,-0.56553 0.46748,-0.26163 0.37171,-0.55853 -0.81357,-2.52195 -2.10042,-3.47924 -2.57584,-5.00439 -2.58903,-8.30538 -0.0266,-6.68947 2.9802,-12.60618 8.75421,-17.22598 7.24618,-5.79764 16.68678,-7.88541 25.48346,-5.63562 1.33686,0.34192 3.18784,0.96829 4.11324,1.39197 5.33252,2.44131 12.22231,9.07648 14.48493,13.94963 l 0.81718,1.76 0.5921,-1.92 c 0.96438,-3.12717 1.51648,-7.61386 1.73251,-14.08 l 0.20317,-6.08 -1.24755,-0.43126 c -3.03258,-1.04839 -10.81168,-5.19156 -15.1151,-8.05037 -4.88365,-3.24423 -12.26506,-9.22074 -13.9001,-11.25447 -0.62928,-0.78272 -1.00141,-1.67158 -1.11251,-2.6575 -0.13463,-1.19424 -0.26711,-1.44378 -0.68339,-1.28723 -0.28404,0.10678 -5.41242,2.76841 -11.39642,5.91472 -5.984,3.14627 -12.104,6.25923 -13.6,6.91763 l -2.72,1.19709 -4.47497,-0.55757 c -5.14908,-0.6416 -16.2782,-2.47798 -19.61063,-3.23594 l -2.26781,-0.5158 -0.23018,-2.13965 c -0.1266,-1.1768 -0.0601,-12.00199 0.1478,-24.05594 0.30743,-17.82569 0.30125,-21.94153 -0.0331,-22.05145 -1.04032,-0.34196 -2.45357,-2.32512 -3.44361,-4.83226 -7.49576,-18.98224 -22.67468,-33.49306 -41.4795,-39.65379 -7.20169,-2.35936 -9.98172,-2.74707 -19.64798,-2.74007 -9.05947,0.006 -10.70316,0.19261 -17.25378,1.95319 -3.69667,0.99357 -6.49388,2.09289 -12.2639,4.81981 -2.46229,1.16371 -4.56247,1.97712 -4.70352,1.82166 -0.14015,-0.15443 -1.30574,-1.8648 -2.59019,-3.8008 -3.17702,-4.78858 -5.33667,-7.37322 -9.62676,-11.52122 -10.76567,-10.40905 -23.42332,-16.56246 -37.14923,-18.0598 -3.91538,-0.42711 -12.31793,-0.43357 -16.09261,-0.0125 -13.76037,1.53555 -27.476952,8.3206 -37.767105,18.68188 -7.566649,7.61895 -12.775227,16.085 -16.279576,26.46087 -2.19208,6.49043 -3.261385,12.4751 -3.896998,21.81062 l -0.212426,3.12 h -1.85879 c -2.802556,0 -6.372716,0.57296 -11.344124,1.82058 -21.197921,5.31981 -38.063334,20.58109 -45.9510646,41.58048 -3.0515889,8.12419 -3.8765872,13.44445 -3.8889347,25.07894 -0.0069,6.49763 0.087669,7.99367 0.6955798,11.0041 3.8384255,19.00819 13.9921545,34.48566 29.2420665,44.57411 8.56286,5.66467 19.620491,9.57565 29.181377,10.32118 1.759999,0.13722 18.721012,0.27002 37.691145,0.29508 l 34.49114,0.0455 3.10885,-3.14803 z M 412.22742,660.7672 c 5.44717,-0.58361 11.59971,-2.89017 16.40064,-6.14854 2.70794,-1.83786 6.98806,-6.02227 9.21181,-9.00576 3.61888,-4.8553 6.77193,-12.41645 7.55984,-18.12877 0.57987,-4.20429 0.77392,-11.77853 0.39667,-15.48416 -0.81069,-7.96349 -4.3521,-17.6113 -9.21434,-25.10243 -5.8822,-9.06263 -14.19497,-16.8952 -34.82207,-32.81053 -17.44387,-13.45926 -24.67104,-21.39411 -27.30819,-29.98224 -3.2112,-10.45754 -1.7858,-17.75088 4.74227,-24.2648 3.87456,-3.86614 7.92976,-6.07853 12.44009,-6.78691 3.01379,-0.47335 16.5337,-0.10352 19.32771,0.5287 5.2497,1.18784 13.37674,4.8616 18.97066,8.57546 3.88493,2.57929 6.69712,4.82166 10.76025,8.58 l 3.09277,2.8608 0.18637,-2.31901 c 0.24099,-2.99942 0.82806,-16.32061 0.82806,-18.79027 v -1.90359 l -2.48,-1.83526 c -11.24489,-8.3216 -21.59708,-12.8416 -33.71078,-14.71891 -4.34192,-0.6729 -14.63545,-0.74976 -18.81075,-0.14045 -6.3727,0.92998 -12.86806,3.22112 -17.15846,6.05235 -2.71347,1.79059 -7.96902,6.80903 -10.11341,9.65709 -3.07443,4.0833 -5.28358,9.28266 -6.7631,15.91728 -0.95498,4.2824 -1.03648,15.41482 -0.14352,19.60272 2.11091,9.90022 6.78345,18.32528 15.07264,27.17754 5.93827,6.3416 11.11062,10.93708 29.46739,26.18076 4.224,3.50768 9.13968,7.76813 10.92374,9.46772 9.09795,8.6671 14.49513,17.52918 16.11965,26.46812 0.52681,2.89888 0.44432,8.69981 -0.1568,11.02586 -1.16925,4.52432 -3.79703,8.36355 -7.81229,11.41398 -2.98656,2.26893 -8.61827,4.94922 -11.38426,5.41808 -2.8598,0.48477 -11.41097,0.19661 -15.53004,-0.52332 -12.74938,-2.22836 -25.55117,-10.40378 -37.19389,-23.75261 -1.42176,-1.63011 -2.62381,-2.92512 -2.67117,-2.87773 -0.0474,0.0474 -0.24214,4.18909 -0.43283,9.20384 -0.19069,5.01478 -0.39696,10.17581 -0.45837,11.46896 l -0.11161,2.3512 2.91392,2.4271 c 18.36294,15.29504 38.38559,22.28439 57.8614,20.19773 z m -97.21053,-18.60723 c 0.3739,-6.17814 2.39773,-81.69702 4.34908,-162.28541 0.18279,-7.54896 0.40935,-13.84998 0.50346,-14.00224 0.25534,-0.41315 -0.17886,-0.50713 -6.26946,-1.35737 -7.34017,-1.02464 -12.75854,-1.62311 -12.95121,-1.43044 -0.33112,0.33114 -2.23954,77.5642 -4.01179,162.35546 -0.18393,8.8 -0.40603,16.23258 -0.49356,16.51683 -0.12687,0.41197 0.24813,0.59882 1.84871,0.92106 3.43457,0.69152 14.75555,2.50563 15.81706,2.53459 l 1.00921,0.0275 z m 19.70308,-5.59104 c 5.72,-3.07152 10.57216,-5.75206 10.78256,-5.95677 0.50714,-0.49334 1.05693,-8.98819 1.0593,-16.36672 0.003,-6.40944 0.34329,-9.3056 1.19193,-10.11593 0.79392,-0.75812 6.21648,-3.65264 21.20621,-11.31965 14.9359,-7.63949 24.0006,-12.42023 23.98544,-12.64989 -0.006,-0.088 -2.12007,-1.888 -4.69834,-4 -7.54016,-6.17654 -13.28496,-11.16406 -17.25277,-14.9785 -12.84297,-12.34649 -19.24444,-23.65155 -21.41641,-37.8215 -0.7401,-4.82861 -0.48736,-14.56211 0.49859,-19.2 1.75338,-8.24794 5.06314,-15.33674 9.50365,-20.35488 4.02016,-4.5431 10.52637,-9.54288 14.65984,-11.26554 4.24483,-1.76905 14.01795,-5.42921 31.52,-11.80454 10.12,-3.68634 19.43388,-7.08333 20.69753,-7.54886 2.75187,-1.01383 2.51526,-0.25613 2.96864,-9.50618 0.18115,-3.696 0.4008,-7.98 0.4881,-9.52 0.0873,-1.54 0.0754,-2.8 -0.0262,-2.8 -0.43616,0 -79.01472,25.40342 -98.04793,31.69763 l -5.92,1.9577 -0.0832,3.09235 c -0.0458,1.70077 -0.2249,7.12432 -0.39808,12.05232 -0.87946,25.02803 -4.47872,153.19261 -4.47872,159.48128 v 4.2095 l 1.68,-0.8486 c 0.924,-0.46672 6.36,-3.36167 12.08,-6.43322 z m 124.38482,-0.9247 c 26.61987,-16.69901 41.10003,-25.94116 41.4113,-26.43124 0.49296,-0.77619 1.36534,-14.14614 3.16841,-48.55795 0.71424,-13.63171 1.32941,-24.80589 1.36704,-24.83155 0.0376,-0.0256 4.41479,-2.17622 9.72701,-4.77901 l 9.65859,-4.73238 -0.51776,-0.79018 c -1.1337,-1.73024 -12.93152,-11.50301 -23.43942,-19.41609 -4.03968,-3.04215 -5.11293,-3.70634 -5.78419,-3.57968 -0.87293,0.1647 -15.41671,6.66304 -35.80483,15.99798 -6.76995,3.09971 -12.44663,5.63584 -12.61479,5.63584 -0.16816,0 -2.83708,-2.48845 -5.93097,-5.52992 -3.09386,-3.04144 -6.73862,-6.43258 -8.09946,-7.53584 -7.75993,-6.2912 -16.11007,-10.42522 -24.47939,-12.11926 -3.51657,-0.71181 -13.05961,-0.78676 -15.76636,-0.12381 -6.53271,1.59993 -11.83635,6.64707 -13.07709,12.44457 -1.64269,7.67572 2.55008,17.23082 11.19536,25.51354 3.46608,3.32077 8.95427,7.87853 15.96173,13.25571 12.84057,9.85325 20.56556,16.3793 25.43999,21.49152 9.61146,10.08042 15.34474,19.79703 18.22883,30.8936 1.42906,5.49827 1.8929,9.61565 1.90506,16.90989 0.015,8.9688 -0.92368,13.73555 -4.14691,21.05939 -0.85514,1.94307 -1.21712,3.08855 -0.94275,2.98327 0.24499,-0.094 5.88825,-3.58528 12.5406,-7.7584 z m -50.84866,0.48243 c 5.50009,-1.38618 9.76515,-4.73021 12.20159,-9.56669 l 1.37024,-2.72 -0.17171,-4.48 c -0.20621,-5.38029 -0.91062,-8.38134 -2.92931,-12.48 -0.78016,-1.584 -2.17466,-3.888 -3.09885,-5.12 -1.75897,-2.34474 -14.75267,-15.55606 -16.44755,-16.72298 l -0.97942,-0.67433 -21.90058,11.16301 c -12.04531,6.13964 -21.93958,11.35004 -21.98726,11.57865 -0.16013,0.76781 5.14999,7.41997 9.0361,11.31991 7.28499,7.31081 14.56889,12.4216 21.788,15.28764 7.80399,3.09824 16.71417,4.02893 23.11875,2.41479 z M 766.61178,560.4801 c 1.37948,-0.26394 3.80416,-0.8593 5.38816,-1.32307 2.6999,-0.79047 47.78985,-16.92026 48.06287,-17.19328 0.18999,-0.18999 -3.77753,-0.48973 -11.37824,-0.85959 l -6.83536,-0.33264 -10.76464,3.39706 c -29.94828,9.45091 -48.25311,15.29331 -48.68463,15.53881 -0.33917,0.193 -0.15136,0.28346 0.64,0.30839 0.616,0.0192 3.64,0.22025 6.72,0.44637 7.96953,0.58505 13.85494,0.59132 16.85184,0.0179 z M 549.43995,536.64387 c 4.69472,-2.14217 36.052,-17.87097 58.24,-29.21312 9.416,-4.81334 21.98915,-11.24118 27.94032,-14.28416 5.95116,-3.04297 10.74057,-5.61238 10.64313,-5.70982 -0.0974,-0.0975 -4.75059,-0.70778 -10.34032,-1.35622 l -10.16313,-1.17904 -26.88,12.7088 c -61.45488,29.05574 -80.05929,37.96633 -79.79279,38.21673 0.27609,0.25943 19.59302,2.86759 23.15279,3.12608 1.59248,0.11562 2.57959,-0.20096 7.2,-2.30925 z m -89.14236,-25.26054 c 10.69104,-4.79226 30.1392,-13.65635 60.05753,-27.37309 l 18.7552,-8.59872 0.20029,-3.38576 c 0.53635,-9.06573 0.89402,-17.04777 0.76954,-17.17225 -0.1272,-0.12724 -9.94375,3.80742 -26.00019,10.42137 -23.43507,9.65331 -62.75501,26.02138 -62.92806,26.19562 -0.17859,0.17977 -0.62487,6.72301 -1.42752,20.92947 -0.15229,2.6952 -0.10503,3.44 0.21824,3.44 0.22694,0 4.88669,-2.0055 10.35497,-4.45664 z m 647.54231,-26.06374 c 17.6475,-4.15472 29.5008,-9.78093 41.323,-19.61415 11.8933,-9.89232 20.9528,-21.88221 26.9609,-35.68141 3.397,-7.80236 5.8609,-16.15654 6.7414,-22.8584 0.7116,-5.41609 1.2135,-16.78672 0.973,-22.04566 -1.0411,-22.76765 -11.4582,-45.79251 -28.3039,-62.56 -7.0254,-6.99277 -14.6261,-12.4192 -23.5344,-16.80207 -8.0236,-3.94761 -14.989,-6.32998 -23.3511,-7.98669 -6.4976,-1.28732 -10.1513,-1.61221 -17.9289,-1.59423 -7.8712,0.0182 -11.9188,0.43825 -18.534,1.9235 -9.8972,2.2221 -10.7038,1.92156 -13.4418,-5.00834 -12.056,-30.5146 -37.7299,-52.40949 -68.82418,-58.6938 -5.19607,-1.05014 -9.74135,-1.43778 -16.86256,-1.4381 -7.47642,-3.2e-4 -13.02877,0.44991 -18.17744,1.47402 -8.62573,1.71572 -12.88134,3.16018 -22.58147,7.66471 -3.53181,1.64009 -6.58045,3.02676 -6.77478,3.08149 -0.19431,0.0547 -1.45015,-1.61056 -2.79072,-3.70065 -6.35546,-9.9087 -14.7824,-18.85907 -24.49303,-26.01437 -3.47385,-2.55973 -6.58668,-4.58547 -7.0462,-4.58547 -0.17258,0 -0.31379,0.45132 -0.31379,1.00292 0,1.75969 -6.741,115.2903 -9.27911,156.27708 -1.38688,22.396 -1.56963,25.00365 -1.95696,27.92227 -0.30454,2.29469 -0.44102,2.66272 -1.03731,2.79757 -2.6311,0.59504 -4.59264,0.9127 -12.69219,2.05552 -14.61763,2.0625 -54.48515,7.50982 -69.11443,9.44352 -27.58953,3.64675 -32.99753,3.92646 -53.03602,2.7431 -13.0626,-0.77142 -18.74458,-1.22595 -20.27315,-1.62172 -2.30109,-0.59581 -2.24551,-0.21789 -1.693,-11.51152 1.13143,-23.12698 4.50346,-98.71822 4.40871,-98.83021 -0.1474,-0.17418 -3.89207,1.24952 -7.83498,2.97881 -16.82896,7.38087 -31.89036,20.7241 -41.74473,36.98266 -5.81459,9.59331 -11.08483,23.45363 -12.43965,32.7152 -0.94144,6.43581 -1.54537,21.3648 -0.86425,21.3648 0.15558,0 3.04652,-1.30445 6.42432,-2.89878 l 6.14144,-2.89876 6.77567,2.93703 c 10.41604,4.51501 12.58922,5.58371 13.03031,6.4079 0.28595,0.53431 0.34454,1.89943 0.21097,4.91616 -0.17193,3.88304 -2.57833,30.73101 -2.96304,33.05811 -0.15744,0.95232 -0.4248,1.16135 -3.1174,2.43735 -1.61984,0.76765 -4.88919,2.08419 -7.26519,2.92569 -2.376,0.84151 -4.37293,1.57364 -4.43763,1.62698 -0.0647,0.0533 0.71606,1.292 1.73501,2.75261 14.69529,21.06499 35.70156,34.44195 61.29356,39.03232 3.82903,0.68678 4.92861,0.71897 31.16906,0.91267 14.95999,0.1104 95.45599,0.17315 178.87998,0.13939 l 151.67998,-0.0613 z m -642.12874,-6.27981 c 51.2422,-21.20989 71.32927,-29.63303 71.35129,-29.91981 0.0134,-0.176 -3.56803,-1.55821 -7.95897,-3.07155 -8.96727,-3.09063 -13.38007,-4.81632 -17.10535,-6.68938 -4.30601,-2.16502 -7.05408,-2.93904 -11.08761,-3.12291 -8.19501,-0.3736 -12.86378,1.08493 -74.51024,23.27709 -11.7918,4.24496 -21.55868,7.83712 -21.70412,7.98256 -0.14547,0.14547 0.8624,0.36646 2.23968,0.49113 6.1896,0.56023 13.81075,2.62589 20.89772,5.66413 6.5568,2.81095 11.06928,5.43101 17.7664,10.31552 1.584,1.1553 2.93005,2.10343 2.9912,2.10698 0.0611,0.004 7.76512,-3.16167 17.12,-7.03376 z M 331.83997,456.58717 c 17.452,-5.36461 51.98681,-16.43818 82.32204,-26.39654 2.42115,-0.79482 4.33552,-1.55277 4.25421,-1.68439 -0.0813,-0.13158 -1.77427,-0.4183 -3.76208,-0.63712 l -3.61417,-0.39789 -49.28,15.22519 c -27.104,8.37385 -49.496,15.31997 -49.76,15.43581 -0.51181,0.2246 3.06917,0.89257 7.04,1.31321 2.68762,0.28467 2.27776,0.37619 12.8,-2.85827 z m 268.63998,-7.31395 c 16.05366,-0.50512 20.46569,-0.99773 32.96,-3.68003 11.03734,-2.36951 28.00316,-7.60295 33.43999,-10.3152 l 1.76,-0.87802 0.38356,-3.52 c 0.69072,-6.33875 2.64089,-26.80883 2.85891,-30.00832 0.20323,-2.9824 0.18483,-3.11805 -0.39466,-2.90851 -0.3343,0.12086 -3.41581,1.47584 -6.84781,3.01104 -8.06028,3.60553 -12.55756,5.38678 -19.49091,7.71977 -34.89167,11.74074 -70.71506,12.57316 -101.3028,2.35389 -10.73443,-3.58633 -22.60227,-9.46675 -30.46336,-15.09437 -6.27386,-4.49132 -16.99245,-14.69123 -21.97699,-20.9135 -17.82368,-22.24944 -25.48758,-54.20653 -20.67005,-86.19025 1.68992,-11.2194 5.10643,-22.40115 9.91363,-32.44583 5.37348,-11.22787 11.80903,-20.25321 20.93962,-29.36609 24.57091,-24.52326 57.56466,-35.24555 96.49087,-31.35753 26.82976,2.6798 53.09936,12.75061 81.07929,31.08281 3.3216,2.17629 6.14211,3.95689 6.26781,3.95689 0.30611,0 3.8512,-33.35161 3.85251,-36.24357 0,-0.83975 -0.46387,-1.11199 -9.35962,-5.48874 -36.07043,-17.74683 -57.88233,-24.37683 -85.98777,-26.13708 -7.81894,-0.4897 -24.59385,-0.2119 -30.57222,0.5063 -49.32191,5.92515 -88.82751,31.89473 -111.43128,73.25098 -8.99776,16.4624 -14.46947,34.41228 -17.37309,56.99211 -3.67786,28.60058 4.40576,62.13638 21.55469,89.42202 20.99263,33.40128 54.43666,55.06524 97.80968,63.35795 15.82685,3.02598 24.73959,3.57984 46.56,2.89328 z m 84.61058,-15.67815 c 0.8082,-0.003 1.63501,-0.11068 1.83741,-0.24 0.21914,-0.14003 0.76855,-3.79404 1.35843,-9.0351 0.87108,-7.73952 2.27357,-21.3768 2.27357,-22.10739 0,-0.30576 -1.14806,-0.82941 -7.32557,-3.34112 -2.49177,-1.01312 -4.60576,-1.76682 -4.69776,-1.67485 -0.32057,0.32061 -0.79295,4.34877 -2.37001,20.20941 -0.87312,8.78134 -1.49814,16.11062 -1.38896,16.28729 0.12742,0.20618 1.74707,0.24701 4.52102,0.11396 2.37735,-0.11402 4.98371,-0.20951 5.79187,-0.2122 z M 575.67995,411.9113 c 0,-0.1368 -1.26,-0.87306 -2.8,-1.63616 -8.88528,-4.40288 -16.38284,-9.92595 -23.78028,-17.5177 -11.15485,-11.44784 -17.55818,-23.07651 -21.42355,-38.90582 -1.7017,-6.96867 -2.07709,-11.11047 -2.06756,-22.81165 0.008,-9.56947 0.0781,-10.96246 0.74996,-14.85073 3.10864,-17.99162 9.2815,-31.75562 19.9615,-44.50927 14.39411,-17.18892 33.48889,-27.79548 56.13734,-31.18255 17.36812,-2.59741 39.17929,-0.23515 57.34034,6.21026 10.54938,3.74399 19.95696,8.3367 31.66429,15.45828 2.87213,1.74712 5.2791,3.11951 5.34886,3.04977 0.13837,-0.13836 -2.43369,-6.54708 -7.60185,-18.94135 l -3.32151,-7.96559 -7.50377,-4.93745 c -10.93466,-7.19496 -17.67334,-11.14017 -26.86377,-15.72761 -24.82957,-12.39376 -47.0105,-17.56346 -72.48,-16.89288 -11.01709,0.29007 -18.4823,1.33064 -27.73088,3.86539 -13.05462,3.57787 -26.70851,10.50382 -37.2351,18.88753 -4.21948,3.36053 -12.50444,11.65345 -15.84102,15.8562 -11.16957,14.0693 -18.71437,31.13353 -21.71795,49.12 -1.26045,7.54794 -1.47526,10.41896 -1.46048,19.52 0.016,9.89699 0.43648,14.4575 2.07968,22.56 6.78576,33.46026 29.62947,59.94061 63.02575,73.05933 8.13511,3.19561 17.56724,5.64377 28.48858,7.3944 4.76525,0.76384 6.27689,1.00928 6.79142,1.10269 0.132,0.024 0.24,-0.0683 0.24,-0.20509 z m 189.12031,-5.11133 c 0,-2.2655 2.75776,-58.69488 8.80694,-180.24 1.95021,-39.18477 4.27366,-85.37585 4.70819,-93.6 l 0.0845,-1.6 -19.25247,-0.0825 -19.25245,-0.0825 -0.1783,2.32249 c -0.0981,1.27737 -0.40471,7.79449 -0.68148,14.48249 -0.27673,6.688 -2.14908,48.088 -4.1607,92 -4.04218,88.23619 -5.57974,122.7329 -6.53958,146.72 -0.35213,8.8 -0.71517,16.74192 -0.80676,17.64867 l -0.16649,1.64871 1.83913,0.1984 c 2.62429,0.28316 13.29738,1.05046 20.23911,1.45504 3.256,0.18976 6.496,0.38924 7.2,0.44329 0.704,0.0541 2.828,0.1225 4.72,0.1521 l 3.44,0.0538 v -1.52 z m 14.07967,0.25098 c 3.784,-0.52932 22.3449,-3.05732 41.24643,-5.61776 46.21981,-6.26106 52.62445,-7.21178 53.64109,-7.96263 0.37785,-0.27907 0.63635,-2.76614 1.267,-12.19059 2.38778,-35.68218 8.85335,-143.91205 11.19274,-187.36 0.44064,-8.184 0.89325,-16.55454 1.00576,-18.6012 0.1879,-3.41818 0.15373,-3.77204 -0.41978,-4.34554 -0.34787,-0.34787 -11.73673,-4.77429 -25.71878,-9.9959 -29.74118,-11.10688 -70.47215,-26.4261 -73.98278,-27.82548 -1.36857,-0.54553 -2.54512,-0.99188 -2.61452,-0.99188 -0.22804,0 -0.49575,3.83102 -1.14042,16.32 -1.7816,34.51359 -9.67997,192.13318 -11.99174,239.30646 -0.44275,9.03456 -0.80499,17.35332 -0.80499,18.48612 0,1.96979 0.0314,2.05267 0.72,1.90019 0.396,-0.0877 3.81599,-0.59248 7.59999,-1.12179 z M 428.47996,294.87062 c 0,-1.16401 2.22768,-14.68186 3.06964,-18.62685 5.0518,-23.67053 15.30278,-46.20036 28.535,-62.71486 l 2.87735,-3.59106 0.20876,-3.92894 c 0.52298,-9.84254 1.82871,-138.876155 1.40957,-139.295294 C 464.41324,66.546583 452.42156,62.963319 326.87997,25.567003 293.79198,15.710755 266.30249,7.5100709 265.79223,7.3432593 c -0.51027,-0.1668115 -1.07374,-0.3032934 -1.25217,-0.3032934 -0.50676,0 0.32927,154.3701041 1.35589,250.3591541 0.16164,15.11353 0.23202,27.64153 0.1564,27.84 -0.0907,0.23797 0.48993,0.38148 1.70506,0.42144 1.01341,0.0333 14.58657,0.85897 30.16256,1.83477 37.32352,2.33822 88.27424,5.39929 116.96,7.02683 8.42812,0.47819 13.59999,0.6107 13.59999,0.34846 z M 260.01734,265.03997 c -0.11207,-11.22 -0.41296,-54.456 -0.66864,-96.08 -0.40435,-65.82685 -0.94478,-136.773979 -1.19134,-156.398767 l -0.0774,-6.1587609 -1.36507,-0.00125 c -2.27892,-0.00208 -17.58027,0.9771001 -21.67493,1.3870262 -2.36119,0.2363843 -3.81582,0.5161274 -3.77723,0.7264042 0.10327,0.5625542 0.41176,34.8227255 0.75463,83.8053305 0.30034,42.908027 0.95995,119.264047 1.46741,169.868397 0.2401,23.94282 0.10171,22.57888 2.29805,22.64941 0.64742,0.0208 3.12114,0.14011 5.49714,0.26514 2.376,0.12503 7.60976,0.25202 11.63057,0.2822 l 7.31056,0.0549 z m 443.97863,11.04 c -0.004,-0.40724 -1.97616,-1.84 -2.53267,-1.84 -0.84627,0 -0.51379,0.66517 0.6975,1.39554 1.5514,0.93542 1.84074,1.00549 1.83517,0.44446 z m -0.50886,-27.08048 1.08371,-10.36048 -4.27536,-13.15952 c -5.67885,-17.47943 -6.00214,-18.43952 -6.20886,-18.43952 -0.0977,0 -0.82541,6.50452 -1.61725,14.45449 l -1.43974,14.4545 3.7646,8.9855 c 2.07053,4.94203 4.51757,10.70452 5.43789,12.80554 1.63747,3.73831 1.67859,3.79649 1.9223,2.72 0.13696,-0.60502 0.73668,-5.76224 1.33271,-11.46051 z m 259.07281,-84.40745 c -8.38925,-4.05641 -16.76486,-7.99982 -43.73504,-20.5914 l -27.25507,-12.72458 -45.96089,0.17001 c -25.27846,0.0935 -45.84569,0.27709 -45.70492,0.40797 0.14076,0.13087 20.77593,7.92125 45.85593,17.31194 l 45.6,17.07399 20.95999,0.16456 c 11.528,0.0905 28.52,0.18971 37.76,0.22045 l 16.8,0.0559 z m 15.96941,-4.27207 c 0.58268,-6.59858 1.31059,-18.49732 1.31059,-21.42423 v -2.74043 l -1.52,-0.92022 c -5.32407,-3.22323 -61.98899,-35.536808 -77.4079,-44.142405 -3.21843,-1.796278 -3.9521,-2.079677 -3.9521,-1.526624 0,0.15735 -0.13996,1.70535 -0.311,3.44 -0.38282,3.881824 -1.18948,18.580689 -1.48196,27.003529 l -0.21702,6.24962 4.12499,1.95331 c 29.68326,14.05589 76.49667,36.00206 78.04499,36.58755 0.38416,0.14526 0.7232,0.0977 0.84809,-0.11905 0.11444,-0.19858 0.36704,-2.16105 0.56132,-4.36105 z m -245.12514,-13.6 c 0.1825,-3.696 0.42394,-8.7 0.53658,-11.12 l 0.20474,-4.4 -15.9528,2.5e-4 c -24.36141,3.2e-4 -61.5431,0.39652 -61.38397,0.65401 0.078,0.12613 0.46788,0.29805 0.86647,0.38205 0.39862,0.084 10.30073,2.99323 22.00473,6.46495 36.76118,10.90436 52.72125,15.39105 53.17622,14.94887 0.11891,-0.11557 0.36554,-3.23413 0.54803,-6.93013 z m 144.57836,-21.48161 10.62262,-0.19171 0.16708,-0.84334 c 0.42297,-2.13511 1.68985,-21.70379 1.99644,-30.838142 l 0.21197,-6.3148 -16.61037,0.161715 c -9.13571,0.08894 -37.20236,0.307149 -62.37036,0.484903 -54.50902,0.384982 -138.15583,1.153661 -158.66347,1.458045 -10.98192,0.162998 -14.76295,0.317081 -15.05955,0.613702 -0.38157,0.381565 -0.54906,3.929126 -1.37063,29.031237 -0.11376,3.476 -0.14822,6.34742 -0.0766,6.38092 0.8278,0.38723 219.98817,0.43945 241.15284,0.0575 z M 415.19997,1076.4615 c -8.64871,-0.4873 -19.04884,-2.4921 -26.56,-5.1198 -11.05629,-3.8679 -21.21536,-9.4869 -30.38368,-16.8052 -4.08454,-3.2604 -11.90115,-10.7896 -12.20925,-11.7603 -0.14765,-0.4652 -0.0291,-0.7864 0.39047,-1.0581 0.33136,-0.2145 7.1663,-3.6626 15.18876,-7.6623 11.33367,-5.6505 14.75885,-7.2266 15.36,-7.0682 0.42554,0.1121 1.7817,1.0768 3.0137,2.1438 5.30301,4.5927 13.7471,9.5838 21.28,12.5782 11.67363,4.6403 25.88015,5.8856 38.55999,3.38 9.60448,-1.8978 17.62637,-5.3504 27.6073,-11.8819 l 3.92729,-2.57 10.47271,1.1596 c 5.76,0.6379 12.2007,1.307 14.3127,1.4871 4.84573,0.4132 5.28,0.5134 5.28,1.2187 0,1.327 -8.35386,10.8292 -14.05962,15.9924 -16.50505,14.9355 -38.83283,24.642 -59.38038,25.8142 -6.59222,0.3761 -8.4334,0.3979 -12.79999,0.1518 z M 339.9209,1035.44 c -1.30813,-1.4044 -10.89078,-18.15 -14.57504,-25.4697 l -1.66589,-3.3096 0.76058,-0.5304 c 0.41833,-0.2916 4.45033,-2.5243 8.96,-4.9615 11.45763,-6.19209 29.31376,-16.09517 31.29907,-17.35862 2.38742,-1.51936 2.45504,-1.73891 1.83587,-5.96093 -0.41814,-2.85117 -0.49357,-5.1431 -0.36595,-11.12032 0.13961,-6.54086 0.27229,-8.05392 1.01094,-11.52896 5.4551,-25.66467 24.19021,-44.86861 49.03139,-50.25843 4.55017,-0.98723 15.66877,-1.24621 20.29488,-0.47264 11.36697,1.90067 20.60854,6.09568 29.8014,13.52765 l 2.14819,1.73673 3.8473,-2.62845 c 2.116,-1.44563 4.01629,-2.83203 4.22282,-3.08089 0.48185,-0.58061 -0.92602,-2.07386 -5.24922,-5.56755 -8.14173,-6.57956 -15.36483,-10.37796 -25.27155,-13.28951 -2.15914,-0.63456 -5.11373,-1.50333 -6.56573,-1.93062 -2.33606,-0.68743 -2.64,-0.86333 -2.64,-1.52787 0,-0.41306 0.56535,-4.33242 1.25629,-8.70973 0.69098,-4.37728 1.56941,-10.11869 1.95207,-12.75869 0.46159,-3.18445 0.8558,-4.92637 1.17123,-5.17542 0.61728,-0.48736 1.92566,-0.27421 6.66041,1.08502 4.82083,1.38394 11.69475,4.09267 16.48,6.49411 25.13001,12.61127 44.05133,34.98595 52.90121,62.55629 5.23703,16.31507 6.6241,32.8041 4.19933,49.92 -0.68413,4.82899 -1.87008,10.81142 -2.6871,13.55485 -0.6297,2.11438 -0.74628,2.28518 -1.56032,2.28518 -0.99872,0 -11.34387,-1.81181 -17.29712,-3.02934 -2.18023,-0.44589 -4.01623,-0.81069 -4.08,-0.81069 -0.37354,0 0.0374,-2.42496 1.15005,-6.78598 1.99833,-7.83255 2.66092,-12.99572 2.68144,-20.89402 0.0122,-4.74224 -0.14714,-7.89725 -0.5418,-10.72 -0.58844,-4.20906 -1.36508,-8.30605 -1.62348,-8.56445 -0.14509,-0.14512 -6.00781,3.86352 -7.98672,5.46093 l -0.92452,0.74627 0.38983,2.05863 c 0.57862,3.05548 0.8111,14.00067 0.37721,17.76019 -2.01686,17.47673 -9.81868,32.20466 -22.91801,43.26356 -7.70457,6.5044 -16.80342,10.9215 -27.03315,13.1232 -3.71699,0.8 -4.55088,0.8619 -11.52685,0.8558 -6.57737,-0.01 -7.96124,-0.098 -11.04,-0.7381 -10.32726,-2.1463 -20.17353,-6.9468 -28.0533,-13.6772 -1.52532,-1.3028 -2.90327,-2.3688 -3.06212,-2.3688 -0.15881,0 -3.23084,1.3811 -6.82668,3.0692 -15.95927,7.4919 -36.45434,16.4508 -37.63411,16.4508 -0.34771,0 -0.93399,-0.324 -1.30285,-0.72 z m 98.54258,-34.7466 c 13.16147,-3.5197 22.80298,-15.74652 23.51699,-29.82293 0.41578,-8.19636 -1.42982,-15.12471 -5.75136,-21.5905 -1.95036,-2.91808 -6.73385,-7.44086 -9.687,-9.15901 -12.10109,-7.04048 -26.56871,-5.61849 -36.4177,3.57936 -5.12908,4.79002 -8.45238,10.48877 -10.02518,17.19117 -0.81635,3.47882 -0.81171,12.75789 0.008,15.74848 3.56131,12.99478 12.35712,21.64784 24.88902,24.48503 2.96039,0.6703 10.21683,0.4377 13.46736,-0.4316 z m -116.67695,-2.57045 c -0.27088,-0.43831 -2.02555,-9.46266 -2.55936,-13.16298 -0.7506,-5.20301 -1.24637,-14.41302 -1.04214,-19.36 0.19246,-4.66205 1.01342,-11.45408 2.14666,-17.76 3.14191,-17.48301 12.00351,-36.0279 23.85404,-49.92 2.60819,-3.0575 9.53971,-9.94032 12.45424,-12.36672 12.95757,-10.78739 28.788,-18.36243 45.33827,-21.69488 2.99321,-0.60272 3.46173,-0.46742 3.46173,0.99974 0,0.61031 -1.36016,6.46292 -3.02256,13.00576 -3.63962,14.32468 -5.11431,19.60986 -5.65261,20.25847 -0.22224,0.26777 -1.78122,1.28406 -3.46445,2.25843 -7.52297,4.35478 -11.97901,7.68269 -17.11824,12.78448 -8.07171,8.0129 -13.59884,16.3969 -17.72729,26.89024 -2.02087,5.13642 -3.24333,9.48054 -4.39677,15.62448 -0.82096,4.3729 -0.90278,5.46915 -0.91962,12.32 -0.0102,4.136 0.0977,9.032 0.23978,10.88 l 0.25821,3.36 -2.65821,1.48627 c -3.50774,1.96128 -16.75104,8.98416 -22.92025,12.15456 -4.70704,2.41898 -5.89882,2.84506 -6.27143,2.24215 z M 246.5268,776.52669 c -2.95402,-0.97078 -5.59219,-3.56538 -6.52066,-6.41302 -0.55134,-1.69098 -0.25962,-4.84237 0.60518,-6.53754 1.84527,-3.61702 4.88998,-5.51306 9.23636,-5.75181 4.46555,-0.24528 7.39387,1.27347 9.11789,4.72893 0.87551,1.75478 1.03308,2.4184 1.02575,4.32 -0.0108,2.80253 -0.80965,4.68186 -2.86287,6.7351 -0.8155,0.81549 -2.26119,1.83911 -3.21265,2.27469 -2.12491,0.97283 -5.49422,1.26631 -7.389,0.64365 z m -86.24133,-16.6401 c -3.84031,-1.57977 -6.27326,-3.86089 -8.01883,-7.5184 -1.44344,-3.02448 -1.62181,-6.01712 -0.49016,-8.22396 0.93095,-1.81546 4.11099,-5.06692 5.44434,-5.56663 1.9897,-0.74573 8.96491,-0.14112 11.31882,0.98109 2.46265,1.17405 5.10668,4.8615 4.23714,5.90925 -0.56187,0.67699 -2.77793,0.5536 -6.24783,-0.34797 -3.53069,-0.91734 -6.36894,-1.03648 -7.40499,-0.31082 -1.46621,1.02698 -1.18168,4.36816 0.53777,6.31501 0.50314,0.5697 1.75709,1.52573 2.78653,2.12455 5.42139,3.15344 6.13862,3.93673 5.20392,5.68323 -0.98105,1.83309 -4.21307,2.25193 -7.36671,0.95465 z m 191.68541,-17.34374 c -0.808,-0.2489 -2.13053,-1.03478 -2.93901,-1.74643 -1.89776,-1.6705 -2.46348,-3.73635 -1.90921,-6.97213 0.47776,-2.78925 1.63481,-4.41638 4.00083,-5.62643 3.53475,-1.80775 6.76054,-1.44525 9.24458,1.03878 4.09593,4.09594 2.7438,10.48528 -2.76138,13.0489 -1.81354,0.84448 -3.48234,0.92067 -5.63581,0.25731 z m 0.90909,-42.28346 c -0.772,-0.20176 -0.72419,-0.56713 0.61053,-4.66534 1.43603,-4.40944 1.54745,-6.24298 0.4503,-7.41146 -1.69197,-1.80201 -5.07213,-1.73008 -7.68624,0.16359 -1.58332,1.14694 -2.42083,2.76832 -2.69833,5.22368 -0.51021,4.51465 -2.91088,6.07411 -4.58848,2.98064 -0.42989,-0.79274 -0.55981,-1.80589 -0.56304,-4.39053 -0.004,-2.96147 0.0952,-3.57203 0.83385,-5.14768 2.12464,-4.53194 6.77719,-6.68861 12.98397,-6.01869 3.91872,0.42295 6.50922,1.99923 8.03318,4.88807 0.77341,1.46608 0.86381,1.97465 0.86,4.8383 -0.004,2.76947 -0.11606,3.43965 -0.83542,4.98131 -1.6425,3.52003 -4.54099,5.30531 -7.40032,4.55811 z"
     id="path1529"
     inkscape:connector-curvature="0" />
</svg>
