<svg xmlns="http://www.w3.org/2000/svg" xmlns:svg="http://www.w3.org/2000/svg" id="svg26" width="80" height="80" x="0" y="0" version="1.1" viewBox="0 0 80 80" xml:space="preserve"><metadata id="metadata32"/><g style="stroke-width:2;stroke-miterlimit:4;stroke-dasharray:none;stroke:#fff;stroke-opacity:1" id="g1363" transform="translate(-1.4896555,0.03744389)"><g id="g1285" transform="matrix(0.87774004,0,0,0.87774004,98.946661,13.12718)" style="stroke-width:2.27857897;stroke-miterlimit:4;stroke-dasharray:none;stroke:#fff;stroke-opacity:1"><g id="g1224" transform="matrix(1.4025694,0,0,1.4025694,-86.83921,10.025314)" style="fill:none;stroke:#fff;stroke-width:1.62457485;stroke-linecap:round;stroke-linejoin:round;stroke-miterlimit:4;stroke-dasharray:none;stroke-opacity:1"><polygon style="stroke-width:1.62457485;stroke-miterlimit:4;stroke-dasharray:none;stroke:#fff;stroke-opacity:1" id="polygon1210" points="23 7 16 12 23 17"/><rect style="stroke-width:1.62457485;stroke-miterlimit:4;stroke-dasharray:none;stroke:#fff;stroke-opacity:1" id="rect1212" width="15" height="14" x="1" y="5" rx="2" ry="2"/></g><g id="g1252" transform="matrix(1.4025694,0,0,1.4025694,-90.598461,25.738384)" style="fill:none;stroke:#fff;stroke-width:1.62457485;stroke-linecap:round;stroke-linejoin:round;stroke-miterlimit:4;stroke-dasharray:none;stroke-opacity:1"><line style="stroke-width:1.62457485;stroke-miterlimit:4;stroke-dasharray:none;stroke:#fff;stroke-opacity:1" id="line1228" x1="8" x2="21" y1="12" y2="12"/><line style="stroke-width:1.62457485;stroke-miterlimit:4;stroke-dasharray:none;stroke:#fff;stroke-opacity:1" id="line1234" x1="3" x2="3.01" y1="12" y2="12"/></g><path id="path1254" d="m -44.529564,48.606461 v 1.290364 c -0.008,13.966636 -18.19165,19.336755 -25.790309,7.624823 -1.899666,-2.927983 -2.554777,-6.025021 -2.269544,-8.934766" style="fill:none;stroke:#fff;stroke-width:2.27857897;stroke-linecap:round;stroke-linejoin:round;stroke-miterlimit:4;stroke-dasharray:none;stroke-opacity:1"/><polyline id="polyline1256" points="22 4 12 14.01 9 11.01" transform="matrix(1.4025694,0,0,1.4025694,-75.386092,33.065991)" style="fill:none;stroke:#fff;stroke-width:1.62457485;stroke-linecap:round;stroke-linejoin:round;stroke-miterlimit:4;stroke-dasharray:none;stroke-opacity:1"/></g><rect style="fill:none;stroke:#fff;stroke-width:2;stroke-linecap:round;stroke-linejoin:round;stroke-miterlimit:4;stroke-dasharray:none;stroke-opacity:1" id="rect1275" width="57.874" height="66.291" x="12.553" y="8.689" rx="7.482" ry="7.482"/><path style="fill:none;stroke:#fff;stroke-width:2;stroke-linecap:butt;stroke-linejoin:miter;stroke-miterlimit:4;stroke-dasharray:none;stroke-opacity:1" id="path1316" d="M 12.414848,22.280667 H 70.564465"/><g id="g1327" transform="matrix(0.87774004,0,0,0.87774004,113.25395,7.9107551)" style="stroke-width:2.27857897;stroke-miterlimit:4;stroke-dasharray:none;stroke:#fff;stroke-opacity:1"><path style="fill:none;stroke:#fff;stroke-width:2.27857897;stroke-linecap:round;stroke-linejoin:round;stroke-miterlimit:4;stroke-dasharray:none;stroke-opacity:1" id="path1320" d="M -66.857635,-3.3789523 V 5.5700206"/><path id="path1329" d="M -66.857635,-3.3789523 V 5.5700206" style="fill:none;stroke:#fff;stroke-width:2.27857897;stroke-linecap:round;stroke-linejoin:round;stroke-miterlimit:4;stroke-dasharray:none;stroke-opacity:1"/></g><g id="g1335" transform="matrix(0.87774004,0,0,0.87774004,99.776301,7.9107551)" style="stroke-width:2.27857897;stroke-miterlimit:4;stroke-dasharray:none;stroke:#fff;stroke-opacity:1"><path id="path1331" d="M -66.857635,-3.3789523 V 5.5700206" style="fill:none;stroke:#fff;stroke-width:2.27857897;stroke-linecap:round;stroke-linejoin:round;stroke-miterlimit:4;stroke-dasharray:none;stroke-opacity:1"/><path style="fill:none;stroke:#fff;stroke-width:2.27857897;stroke-linecap:round;stroke-linejoin:round;stroke-miterlimit:4;stroke-dasharray:none;stroke-opacity:1" id="path1333" d="M -66.857635,-3.3789523 V 5.5700206"/></g><g id="g1341" transform="matrix(0.87774004,0,0,0.87774004,86.298663,7.9107551)" style="stroke-width:2.27857897;stroke-miterlimit:4;stroke-dasharray:none;stroke:#fff;stroke-opacity:1"><path style="fill:none;stroke:#fff;stroke-width:2.27857897;stroke-linecap:round;stroke-linejoin:round;stroke-miterlimit:4;stroke-dasharray:none;stroke-opacity:1" id="path1337" d="M -66.857635,-3.3789523 V 5.5700206"/><path id="path1339" d="M -66.857635,-3.3789523 V 5.5700206" style="fill:none;stroke:#fff;stroke-width:2.27857897;stroke-linecap:round;stroke-linejoin:round;stroke-miterlimit:4;stroke-dasharray:none;stroke-opacity:1"/></g></g></svg>