<svg width="216" height="216" viewBox="0 0 216 216" fill="none" xmlns="http://www.w3.org/2000/svg">
<g clip-path="url(#clip0)">
<path d="M145.471 36.0535H70.5443V103.671H145.471V36.0535Z" stroke="black" stroke-width="4" stroke-linecap="round" stroke-linejoin="round"/>
<path d="M134.386 67.3094H81.6306V92.8363H134.386V67.3094Z" stroke="black" stroke-width="4" stroke-linecap="round" stroke-linejoin="round"/>
<path d="M70.5443 56.0389L145.471 56.1794" stroke="black" stroke-width="4"/>
<path d="M116.784 103.671H99.2336V119.426H116.784V103.671Z" stroke="black" stroke-width="4" stroke-linecap="round" stroke-linejoin="round"/>
<path d="M108.008 119.426V132.347" stroke="black" stroke-width="4"/>
<path d="M145.472 69.8623H167.552V132.347" stroke="black" stroke-width="4"/>
<path d="M70.5448 69.8623H48.4648V132.347" stroke="black" stroke-width="4"/>
<path d="M39.6741 132.347H57.2247V145.981H39.6741V132.347Z" stroke="black" stroke-width="4" stroke-linecap="round" stroke-linejoin="round"/>
<path d="M31.2855 145.977H65.6136V180.097H31.2855V145.977Z" stroke="black" stroke-width="4" stroke-linecap="round" stroke-linejoin="round"/>
<path d="M57.1294 154.551H39.7716V171.523H57.1294V154.551Z" stroke="black" stroke-width="4" stroke-linecap="round" stroke-linejoin="round"/>
<path d="M99.2318 132.347H116.782V145.981H99.2318V132.347Z" stroke="black" stroke-width="4" stroke-linecap="round" stroke-linejoin="round"/>
<path d="M90.843 145.977H125.171V180.097H90.843V145.977Z" stroke="black" stroke-width="4" stroke-linecap="round" stroke-linejoin="round"/>
<path d="M116.687 154.551H99.3291V171.523H116.687V154.551Z" stroke="black" stroke-width="4" stroke-linecap="round" stroke-linejoin="round"/>
<path d="M158.777 132.347H176.328V145.981H158.777V132.347Z" stroke="black" stroke-width="4" stroke-linecap="round" stroke-linejoin="round"/>
<path d="M150.388 145.977H184.716V180.097H150.388V145.977Z" stroke="black" stroke-width="4" stroke-linecap="round" stroke-linejoin="round"/>
<path d="M176.23 154.551H158.872V171.523H176.23V154.551Z" stroke="black" stroke-width="4" stroke-linecap="round" stroke-linejoin="round"/>
</g>
<defs>
<clipPath id="clip0">
<rect width="216" height="216" fill="white"/>
</clipPath>
</defs>
</svg>
