<svg xmlns="http://www.w3.org/2000/svg" xmlns:svg="http://www.w3.org/2000/svg" id="svg128" width="216" height="216" fill="none" version="1.1" viewBox="0 0 216 216"><metadata id="metadata132"/><g style="stroke:#fff;stroke-opacity:1" id="g121" clip-path="url(#clip0)"><path style="stroke:#fff;stroke-opacity:1" id="path89" stroke="#000" stroke-linecap="round" stroke-linejoin="round" stroke-width="4" d="M145.471 36.0535H70.5443V103.671H145.471V36.0535Z"/><path style="stroke:#fff;stroke-opacity:1" id="path91" stroke="#000" stroke-linecap="round" stroke-linejoin="round" stroke-width="4" d="M134.386 67.3094H81.6306V92.8363H134.386V67.3094Z"/><path style="stroke:#fff;stroke-opacity:1" id="path93" stroke="#000" stroke-width="4" d="M70.5443 56.0389L145.471 56.1794"/><path style="stroke:#fff;stroke-opacity:1" id="path95" stroke="#000" stroke-linecap="round" stroke-linejoin="round" stroke-width="4" d="M116.784 103.671H99.2336V119.426H116.784V103.671Z"/><path style="stroke:#fff;stroke-opacity:1" id="path97" stroke="#000" stroke-width="4" d="M108.008 119.426V132.347"/><path style="stroke:#fff;stroke-opacity:1" id="path99" stroke="#000" stroke-width="4" d="M145.472 69.8623H167.552V132.347"/><path style="stroke:#fff;stroke-opacity:1" id="path101" stroke="#000" stroke-width="4" d="M70.5448 69.8623H48.4648V132.347"/><path style="stroke:#fff;stroke-opacity:1" id="path103" stroke="#000" stroke-linecap="round" stroke-linejoin="round" stroke-width="4" d="M39.6741 132.347H57.2247V145.981H39.6741V132.347Z"/><path style="stroke:#fff;stroke-opacity:1" id="path105" stroke="#000" stroke-linecap="round" stroke-linejoin="round" stroke-width="4" d="M31.2855 145.977H65.6136V180.097H31.2855V145.977Z"/><path style="stroke:#fff;stroke-opacity:1" id="path107" stroke="#000" stroke-linecap="round" stroke-linejoin="round" stroke-width="4" d="M57.1294 154.551H39.7716V171.523H57.1294V154.551Z"/><path style="stroke:#fff;stroke-opacity:1" id="path109" stroke="#000" stroke-linecap="round" stroke-linejoin="round" stroke-width="4" d="M99.2318 132.347H116.782V145.981H99.2318V132.347Z"/><path style="stroke:#fff;stroke-opacity:1" id="path111" stroke="#000" stroke-linecap="round" stroke-linejoin="round" stroke-width="4" d="M90.843 145.977H125.171V180.097H90.843V145.977Z"/><path style="stroke:#fff;stroke-opacity:1" id="path113" stroke="#000" stroke-linecap="round" stroke-linejoin="round" stroke-width="4" d="M116.687 154.551H99.3291V171.523H116.687V154.551Z"/><path style="stroke:#fff;stroke-opacity:1" id="path115" stroke="#000" stroke-linecap="round" stroke-linejoin="round" stroke-width="4" d="M158.777 132.347H176.328V145.981H158.777V132.347Z"/><path style="stroke:#fff;stroke-opacity:1" id="path117" stroke="#000" stroke-linecap="round" stroke-linejoin="round" stroke-width="4" d="M150.388 145.977H184.716V180.097H150.388V145.977Z"/><path style="stroke:#fff;stroke-opacity:1" id="path119" stroke="#000" stroke-linecap="round" stroke-linejoin="round" stroke-width="4" d="M176.23 154.551H158.872V171.523H176.23V154.551Z"/></g><defs id="defs126"><clipPath id="clip0"><rect id="rect123" width="216" height="216" fill="#fff"/></clipPath></defs></svg>