<svg xmlns="http://www.w3.org/2000/svg" xmlns:svg="http://www.w3.org/2000/svg" id="svg162" width="216" height="217" fill="none" version="1.1" viewBox="0 0 216 217"><metadata id="metadata168"/><path style="fill:#fff" id="path134" fill="#000" d="M72.5392 128.156C73.8845 130.546 75.6386 133.058 77.4943 135.72C81.42 141.341 85.789 147.671 86.2648 153.166C85.4462 153.748 84.7817 154.522 84.3293 155.421C83.8769 156.32 83.6503 157.317 83.6694 158.324C83.6754 159.793 84.1805 161.216 85.1012 162.357C84.4674 162.985 83.9652 163.735 83.6242 164.561C83.2832 165.387 83.1103 166.274 83.1157 167.168C83.1157 168.897 83.7993 170.555 85.0161 171.777C86.233 173 87.8834 173.687 89.6043 173.687H126.373C127.237 173.681 128.09 173.504 128.885 173.165C129.68 172.826 130.4 172.332 131.003 171.712C131.607 171.091 132.082 170.357 132.401 169.551C132.72 168.745 132.876 167.883 132.862 167.016C132.861 166.141 132.684 165.276 132.342 164.472C132 163.667 131.5 162.941 130.872 162.335C131.803 161.15 132.309 159.683 132.308 158.172C132.307 157.331 132.136 156.498 131.805 155.725C131.475 154.951 130.992 154.253 130.385 153.672C129.779 153.092 129.062 152.64 128.277 152.346C127.492 152.051 126.656 151.919 125.819 151.958H110.149V110.597H114.475V117.115C114.475 117.401 114.531 117.683 114.64 117.947C114.749 118.211 114.908 118.45 115.109 118.652C115.31 118.854 115.548 119.014 115.81 119.123C116.073 119.232 116.354 119.288 116.638 119.288H123.127V121.861C121.684 122.374 120.467 123.382 119.693 124.709C118.918 126.035 118.636 127.594 118.894 129.109C119.153 130.625 119.937 132 121.107 132.991C122.278 133.982 123.759 134.526 125.29 134.526C126.82 134.526 128.302 133.982 129.472 132.991C130.642 132 131.426 130.625 131.685 129.109C131.944 127.594 131.661 126.035 130.886 124.709C130.112 123.382 128.895 122.374 127.452 121.861V117.115C127.452 116.83 127.397 116.548 127.288 116.284C127.179 116.02 127.02 115.781 126.819 115.579C126.618 115.377 126.38 115.217 126.117 115.108C125.855 114.999 125.574 114.943 125.29 114.943H118.801V110.597H127.452C127.736 110.597 128.018 110.541 128.28 110.431C128.543 110.322 128.781 110.162 128.982 109.96C129.183 109.759 129.342 109.519 129.451 109.255C129.559 108.992 129.615 108.709 129.615 108.424V104.078H142.991C143.501 105.528 144.505 106.75 145.825 107.528C147.145 108.306 148.697 108.59 150.205 108.33C151.714 108.07 153.082 107.283 154.069 106.107C155.056 104.931 155.597 103.443 155.597 101.905C155.597 100.368 155.056 98.8793 154.069 97.7036C153.082 96.528 151.714 95.7405 150.205 95.4805C148.697 95.2204 147.145 95.5046 145.825 96.2826C144.505 97.0607 143.501 98.2826 142.991 99.7324H129.615V91.0408H138.267C138.551 91.0408 138.832 90.9846 139.094 90.8754C139.357 90.7662 139.595 90.6062 139.796 90.4044C139.997 90.2026 140.156 89.9631 140.265 89.6994C140.374 89.4358 140.43 89.1533 140.43 88.8679V79.7766C141.873 79.264 143.089 78.2554 143.863 76.929C144.638 75.6027 144.921 74.044 144.662 72.5284C144.403 71.0128 143.619 69.638 142.449 68.6468C141.279 67.6557 139.797 67.1121 138.267 67.1121C136.736 67.1121 135.255 67.6557 134.085 68.6468C132.914 69.638 132.13 71.0128 131.872 72.5284C131.613 74.044 131.896 75.6027 132.67 76.929C133.445 78.2554 134.661 79.264 136.104 79.7766V86.695H129.615V82.3493C129.615 82.0639 129.559 81.7814 129.451 81.5177C129.342 81.2541 129.183 81.0146 128.982 80.8128C128.781 80.611 128.543 80.451 128.28 80.3418C128.018 80.2326 127.736 80.1764 127.452 80.1764H123.127V68.9121C124.57 68.3996 125.786 67.391 126.561 66.0646C127.335 64.7382 127.618 63.1795 127.359 61.664C127.1 60.1484 126.316 58.7735 125.146 57.7824C123.976 56.7912 122.494 56.2476 120.964 56.2476C119.433 56.2476 117.952 56.7912 116.782 57.7824C115.611 58.7735 114.827 60.1484 114.569 61.664C114.31 63.1795 114.593 64.7382 115.367 66.0646C116.142 67.391 117.358 68.3996 118.801 68.9121V80.1764H110.149V45.4862C110.149 45.2009 110.093 44.9183 109.985 44.6547C109.876 44.391 109.717 44.1515 109.516 43.9498C109.315 43.748 109.077 43.5879 108.814 43.4787C108.552 43.3695 108.271 43.3133 107.987 43.3133C81.3053 43.3133 60.4033 62.7216 60.4033 87.4947C60.4033 99.263 65.0535 114.845 72.5392 128.156ZM125.29 125.807C125.717 125.807 126.136 125.934 126.491 126.173C126.847 126.412 127.124 126.751 127.288 127.148C127.452 127.545 127.494 127.982 127.411 128.404C127.327 128.825 127.121 129.213 126.819 129.516C126.516 129.82 126.131 130.027 125.712 130.111C125.292 130.195 124.857 130.152 124.462 129.987C124.067 129.823 123.729 129.544 123.491 129.187C123.254 128.83 123.127 128.41 123.127 127.98C123.127 127.695 123.183 127.412 123.291 127.148C123.4 126.885 123.559 126.645 123.76 126.443C123.961 126.242 124.199 126.082 124.462 125.972C124.724 125.863 125.006 125.807 125.29 125.807ZM149.081 99.7324C149.509 99.7324 149.927 99.8598 150.283 100.099C150.638 100.337 150.916 100.677 151.079 101.074C151.243 101.471 151.286 101.908 151.202 102.329C151.119 102.751 150.913 103.138 150.611 103.442C150.308 103.746 149.923 103.953 149.503 104.036C149.084 104.12 148.649 104.077 148.253 103.913C147.858 103.748 147.52 103.47 147.283 103.112C147.045 102.755 146.918 102.335 146.918 101.905C146.918 101.62 146.974 101.337 147.083 101.074C147.192 100.81 147.351 100.571 147.552 100.369C147.753 100.167 147.991 100.007 148.253 99.8978C148.516 99.7886 148.797 99.7324 149.081 99.7324ZM138.267 71.4848C138.695 71.4848 139.113 71.6123 139.468 71.851C139.824 72.0898 140.101 72.4291 140.265 72.8262C140.429 73.2232 140.472 73.6601 140.388 74.0816C140.305 74.5031 140.099 74.8903 139.796 75.1942C139.494 75.4981 139.108 75.705 138.689 75.7889C138.269 75.8727 137.834 75.8297 137.439 75.6652C137.044 75.5007 136.706 75.2222 136.468 74.8649C136.231 74.5076 136.104 74.0875 136.104 73.6577C136.104 73.0814 136.332 72.5287 136.737 72.1212C137.143 71.7137 137.693 71.4848 138.267 71.4848ZM120.964 60.6204C121.392 60.6204 121.81 60.7478 122.165 60.9866C122.521 61.2253 122.798 61.5647 122.962 61.9617C123.126 62.3588 123.169 62.7957 123.085 63.2172C123.002 63.6387 122.796 64.0259 122.493 64.3297C122.191 64.6336 121.805 64.8406 121.386 64.9244C120.966 65.0082 120.531 64.9652 120.136 64.8008C119.741 64.6363 119.403 64.3578 119.165 64.0004C118.928 63.6431 118.801 63.223 118.801 62.7933C118.801 62.217 119.029 61.6643 119.434 61.2568C119.84 60.8493 120.39 60.6204 120.964 60.6204ZM110.149 84.5222H125.29V106.251H110.149V84.5222ZM126.371 169.341H89.6021C89.3065 169.336 89.015 169.271 88.7448 169.151C88.4746 169.03 88.2313 168.856 88.0295 168.64C87.8277 168.423 87.6714 168.167 87.57 167.888C87.4686 167.609 87.4241 167.312 87.4393 167.016C87.4393 166.44 87.6671 165.887 88.0727 165.479C88.4783 165.072 89.0285 164.843 89.6021 164.843H126.371C126.667 164.848 126.958 164.912 127.228 165.033C127.498 165.153 127.742 165.327 127.944 165.544C128.145 165.761 128.302 166.017 128.403 166.296C128.505 166.575 128.549 166.871 128.534 167.168C128.534 167.744 128.306 168.297 127.9 168.704C127.495 169.112 126.945 169.341 126.371 169.341ZM125.817 156.304C126.095 156.278 126.375 156.311 126.639 156.402C126.903 156.492 127.144 156.637 127.349 156.828C127.553 157.019 127.715 157.251 127.823 157.508C127.932 157.766 127.986 158.044 127.98 158.324C127.98 158.901 127.752 159.453 127.347 159.861C126.941 160.268 126.391 160.497 125.817 160.497H90.1558C89.8603 160.492 89.5687 160.428 89.2985 160.307C89.0284 160.187 88.7851 160.013 88.5832 159.796C88.3814 159.579 88.2251 159.323 88.1237 159.044C88.0223 158.765 87.9778 158.469 87.993 158.172C88.0032 157.903 88.0685 157.64 88.1848 157.397C88.3011 157.155 88.4659 156.94 88.6689 156.764C88.8719 156.589 89.1087 156.457 89.3645 156.378C89.6204 156.299 89.8898 156.273 90.1558 156.304H125.817ZM92.6129 113.608C91.6159 112.759 90.6899 111.829 89.8444 110.827C89.5654 110.499 89.1955 110.262 88.7818 110.146C88.3681 110.03 87.9293 110.04 87.5215 110.175L84.6643 111.118C83.9537 110.072 83.3149 108.979 82.7523 107.846L85.0211 105.803C85.3418 105.515 85.5695 105.137 85.6751 104.718C85.7806 104.298 85.7593 103.857 85.6138 103.45C85.1724 102.219 84.8331 100.953 84.5994 99.665C84.5225 99.2398 84.3211 98.8472 84.021 98.5376C83.7209 98.2279 83.3356 98.0152 82.9146 97.9267L79.9471 97.2988C79.8956 96.6252 79.8694 95.995 79.8694 95.3931C79.8694 94.7913 79.8956 94.1611 79.9471 93.4875L82.9146 92.8596C83.3356 92.7711 83.7209 92.5584 84.021 92.2487C84.3211 91.9391 84.5225 91.5465 84.5994 91.1213C84.8334 89.833 85.1726 88.5662 85.6138 87.3339C85.7593 86.927 85.7806 86.4857 85.6751 86.0664C85.5695 85.6472 85.3418 85.2692 85.0211 84.9807L82.7523 82.9404C83.3165 81.8081 83.9553 80.7149 84.6643 79.668L87.5214 80.611C87.9298 80.7448 88.3684 80.7543 88.7821 80.6383C89.1958 80.5224 89.5661 80.2861 89.8465 79.9592C90.6933 78.956 91.6199 78.0237 92.6172 77.1714C92.9433 76.8912 93.1792 76.52 93.2947 76.1048C93.4102 75.6896 93.4003 75.2493 93.266 74.8399L92.3295 71.9695C93.367 71.2572 94.4509 70.6155 95.5738 70.0487L97.6069 72.328C97.894 72.6501 98.2703 72.8789 98.6876 72.985C99.1049 73.091 99.5442 73.0696 99.9493 72.9234C101.175 72.4783 102.435 72.1374 103.717 71.9043C104.14 71.8271 104.531 71.6247 104.839 71.3232C105.147 71.0217 105.359 70.6347 105.447 70.2117L105.824 68.4885V75.9588C101.078 76.5075 96.6982 78.7903 93.519 82.3728C90.3399 85.9553 88.5831 90.5871 88.5831 95.3866C88.5831 100.186 90.3399 104.818 93.519 108.4C96.6982 111.983 101.078 114.266 105.824 114.814V122.287L105.465 120.577C105.377 120.153 105.165 119.766 104.857 119.464C104.549 119.162 104.158 118.959 103.734 118.882C102.452 118.648 101.192 118.307 99.9666 117.863C99.7319 117.779 99.4847 117.735 99.2355 117.735C98.9314 117.735 98.6307 117.799 98.3531 117.924C98.0754 118.049 97.827 118.231 97.6242 118.458L95.5911 120.738C94.4635 120.172 93.3753 119.53 92.3338 118.817L93.2725 115.946C93.4069 115.535 93.416 115.093 93.2984 114.676C93.1809 114.26 92.9421 113.888 92.6128 113.608L92.6129 113.608ZM105.824 80.3502V110.423C102.223 109.903 98.9291 108.097 96.5466 105.335C94.1641 102.573 92.8526 99.0413 92.8526 95.3866C92.8526 91.7319 94.1641 88.1997 96.5466 85.4379C98.9291 82.6761 102.223 80.8698 105.824 80.3502ZM105.824 47.7069V62.8867C105.25 62.9302 104.664 62.9823 104.037 63.0583C103.589 63.1129 103.169 63.3069 102.837 63.6132C102.504 63.9195 102.275 64.3226 102.181 64.7662L101.533 67.9147C100.99 68.0452 100.451 68.1907 99.9083 68.3494L97.7454 65.9331C97.444 65.5949 97.0448 65.36 96.6037 65.2614C96.1626 65.1628 95.7019 65.2054 95.2862 65.3834C92.8656 66.4323 90.5808 67.7726 88.4818 69.3749C88.1212 69.648 87.8547 70.0277 87.7197 70.4606C87.5847 70.8935 87.588 71.3581 87.7291 71.789L88.7219 74.8311C88.3124 75.2178 87.9151 75.6169 87.5301 76.0283L84.5021 75.031C84.0735 74.8915 83.6123 74.8891 83.1822 75.0241C82.7522 75.1592 82.3745 75.425 82.1013 75.785C80.5089 77.8957 79.1783 80.1934 78.1389 82.6274C77.9618 83.045 77.9193 83.5079 78.0175 83.951C78.1156 84.3941 78.3495 84.7952 78.6861 85.098L81.0912 87.2709C80.9283 87.8141 80.7841 88.358 80.6586 88.9027L77.5246 89.5545C77.0831 89.6482 76.6818 89.8784 76.3769 90.2127C76.0721 90.547 75.8789 90.9688 75.8246 91.4189C75.4728 94.0522 75.4728 96.7209 75.8246 99.3543C75.8789 99.8043 76.0721 100.226 76.3769 100.56C76.6818 100.895 77.0831 101.125 77.5246 101.219L80.6586 101.871C80.7884 102.417 80.9326 102.961 81.0912 103.502L78.6861 105.675C78.3495 105.978 78.1156 106.379 78.0175 106.822C77.9193 107.265 77.9618 107.728 78.1389 108.146C79.1826 110.58 80.5175 112.877 82.1143 114.986C82.3878 115.346 82.7659 115.612 83.1963 115.747C83.6267 115.882 84.0883 115.88 84.5172 115.74L87.5453 114.743C87.9302 115.154 88.3275 115.553 88.737 115.94L87.7442 118.982C87.6029 119.413 87.5993 119.877 87.7339 120.31C87.8684 120.743 88.1345 121.123 88.4947 121.396C90.5938 123.001 92.8794 124.342 95.3013 125.392C95.717 125.57 96.1777 125.613 96.6188 125.514C97.0599 125.415 97.4591 125.18 97.7605 124.842L99.9234 122.426C100.462 122.591 101.005 122.737 101.548 122.861L102.197 126.007C102.289 126.451 102.518 126.854 102.85 127.161C103.183 127.467 103.602 127.662 104.05 127.717C104.677 127.793 105.263 127.847 105.839 127.889V151.958H90.53C89.6454 145.556 85.0968 139.04 81.0371 133.223C79.2419 130.65 77.5462 128.225 76.3069 126.018C69.2711 113.513 64.729 98.3917 64.729 87.4947C64.729 65.8353 82.6095 48.7108 105.824 47.7069H105.824Z"/><path style="fill:#fff" id="path136" fill="#000" d="M126.826 146.884L130.847 148.485C131.363 147.201 131.96 145.95 132.634 144.742L128.846 142.64C128.084 144.01 127.409 145.428 126.826 146.884Z"/><path style="fill:#fff" id="path138" fill="#000" d="M137.261 137.467L133.712 134.985C132.86 136.211 132.012 137.458 131.201 138.718L134.833 141.078C135.618 139.861 136.44 138.655 137.261 137.467Z"/><path style="fill:#fff" id="path140" fill="#000" d="M142.291 130.068L138.63 127.763C137.901 128.927 137.088 130.129 136.235 131.365L139.789 133.842C140.68 132.543 141.53 131.285 142.291 130.068Z"/><path style="fill:#fff" id="path142" fill="#000" d="M146.594 122.053L142.701 120.182C142.081 121.485 141.432 122.773 140.754 124.045L144.57 126.096C145.268 124.767 145.945 123.417 146.594 122.053Z"/><path style="fill:#fff" id="path144" fill="#000" d="M150.118 113.734L146.069 112.213C145.567 113.556 145.031 114.903 144.464 116.238L148.446 117.939C149.037 116.54 149.594 115.138 150.118 113.734Z"/><path style="fill:#fff" id="path146" fill="#000" d="M155.389 91.6927C155.51 90.2477 155.57 88.8375 155.57 87.5034V87.0688L151.245 87.1032V87.5009C151.245 88.7134 151.188 90.0019 151.076 91.3252L155.389 91.6927Z"/><path style="fill:#fff" id="path148" fill="#000" d="M150.253 78.8011C150.57 80.1625 150.811 81.5408 150.973 82.9296L155.271 82.4146C155.086 80.8697 154.818 79.3363 154.466 77.8211L150.253 78.8011Z"/><path style="fill:#fff" id="path150" fill="#000" d="M147.468 70.9331C148.077 72.1874 148.616 73.475 149.081 74.79L153.156 73.3364C152.637 71.8688 152.036 70.4317 151.357 69.0319L147.468 70.9331Z"/><path style="fill:#fff" id="path152" fill="#000" d="M143.024 63.8667C143.89 64.9611 144.697 66.1013 145.442 67.2825L149.095 64.9662C148.266 63.6539 147.37 62.3861 146.409 61.168L143.024 63.8667Z"/><path style="fill:#fff" id="path154" fill="#000" d="M137.17 57.8803C138.246 58.7738 139.274 59.7224 140.252 60.7224L143.337 57.6804C142.255 56.5747 141.117 55.5252 139.928 54.5362L137.17 57.8803Z"/><path style="fill:#fff" id="path156" fill="#000" d="M136.226 51.7508C134.963 50.8969 133.63 50.0907 132.274 49.3606L130.217 53.1849C131.455 53.8564 132.664 54.5907 133.812 55.3578L136.226 51.7508Z"/><path style="fill:#fff" id="path158" fill="#000" d="M128.12 47.3659C126.728 46.7684 125.272 46.2295 123.795 45.758L122.478 49.8909C123.825 50.3255 125.151 50.81 126.418 51.351L128.12 47.3659Z"/><path style="fill:#fff" id="path160" fill="#000" d="M119.355 44.5408C117.871 44.2105 116.346 43.9433 114.823 43.7434L114.27 48.0566C115.665 48.2369 117.06 48.4803 118.418 48.7845L119.355 44.5408Z"/></svg>