<?xml version="1.0" encoding="UTF-8" standalone="no"?>
<!-- Created with Inkscape (http://www.inkscape.org/) -->

<svg
   xmlns:dc="http://purl.org/dc/elements/1.1/"
   xmlns:cc="http://creativecommons.org/ns#"
   xmlns:rdf="http://www.w3.org/1999/02/22-rdf-syntax-ns#"
   xmlns:svg="http://www.w3.org/2000/svg"
   xmlns="http://www.w3.org/2000/svg"
   xmlns:sodipodi="http://sodipodi.sourceforge.net/DTD/sodipodi-0.dtd"
   xmlns:inkscape="http://www.inkscape.org/namespaces/inkscape"
   width="47.813984mm"
   height="47.813984mm"
   viewBox="0 0 47.813984 47.813984"
   version="1.1"
   id="svg1266"
   inkscape:version="0.92.2 (5c3e80d, 2017-08-06)"
   sodipodi:docname="it-icon.svg">
  <defs
     id="defs1260" />
  <sodipodi:namedview
     id="base"
     pagecolor="#ffffff"
     bordercolor="#666666"
     borderopacity="1.0"
     inkscape:pageopacity="0.0"
     inkscape:pageshadow="2"
     inkscape:zoom="0.35"
     inkscape:cx="24.198639"
     inkscape:cy="74.401978"
     inkscape:document-units="mm"
     inkscape:current-layer="layer1"
     showgrid="false"
     fit-margin-top="0"
     fit-margin-left="0"
     fit-margin-right="0"
     fit-margin-bottom="0"
     inkscape:window-width="1366"
     inkscape:window-height="699"
     inkscape:window-x="0"
     inkscape:window-y="33"
     inkscape:window-maximized="1" />
  <metadata
     id="metadata1263">
    <rdf:RDF>
      <cc:Work
         rdf:about="">
        <dc:format>image/svg+xml</dc:format>
        <dc:type
           rdf:resource="http://purl.org/dc/dcmitype/StillImage" />
        <dc:title></dc:title>
      </cc:Work>
    </rdf:RDF>
  </metadata>
  <g
     inkscape:label="Layer 1"
     inkscape:groupmode="layer"
     id="layer1"
     transform="translate(-70.587056,-89.396579)">
    <g
       transform="translate(28.442708,48.664436)"
       id="g1873">
      <g
         transform="matrix(1.8095482,0,0,1.8095482,-46.119106,-27.534726)"
         id="g1111">
        <path
           inkscape:connector-curvature="0"
           d="m 57.650195,53.330921 c 0.164571,0.291041 0.379148,0.5969 0.60616,0.921014 0.480219,0.684477 1.014678,1.455209 1.072886,2.12434 a 0.75194583,0.75194583 0 0 0 -0.3175,0.628121 0.78501875,0.78501875 0 0 0 0.175154,0.491066 0.815975,0.815975 0 0 0 -0.242887,0.585788 0.79375,0.79375 0 0 0 0.79375,0.79375 h 4.497916 a 0.79877708,0.79877708 0 0 0 0.79375,-0.812271 0.790575,0.790575 0 0 0 -0.243416,-0.569912 0.8175625,0.8175625 0 0 0 0.175683,-0.506942 0.758825,0.758825 0 0 0 -0.79375,-0.756708 h -1.916906 v -5.036344 h 0.529166 v 0.79375 a 0.26458333,0.26458333 0 0 0 0.264584,0.264583 h 0.79375 v 0.313267 a 0.79375,0.79375 0 1 0 0.529166,0 v -0.57785 a 0.26458333,0.26458333 0 0 0 -0.264583,-0.264584 h -0.79375 v -0.529166 h 1.058333 a 0.26458333,0.26458333 0 0 0 0.264584,-0.264584 v -0.529166 h 1.636183 a 0.79375,0.79375 0 1 0 0,-0.529167 h -1.636183 v -1.058333 h 1.058333 a 0.26458333,0.26458333 0 0 0 0.264583,-0.264584 v -1.107016 a 0.79375,0.79375 0 1 0 -0.529166,0 v 0.842433 h -0.79375 v -0.529167 a 0.26458333,0.26458333 0 0 0 -0.264584,-0.264583 h -0.529166 v -1.3716 a 0.79375,0.79375 0 1 0 -0.529167,0 v 1.3716 H 62.251035 V 43.264583 A 0.26458333,0.26458333 0 0 0 61.986451,43 c -3.2639,0 -5.820833,2.363258 -5.820833,5.379773 0,1.432983 0.568854,3.33031 1.484577,4.951148 z m 6.452923,-0.286015 a 0.26458333,0.26458333 0 1 1 -0.264583,0.264584 0.26458333,0.26458333 0 0 1 0.264583,-0.264584 z m 2.910417,-3.175 a 0.26458333,0.26458333 0 1 1 -0.264584,0.264583 0.26458333,0.26458333 0 0 1 0.264584,-0.264583 z m -1.322917,-3.439583 a 0.26458333,0.26458333 0 1 1 -0.264583,0.264583 0.26458333,0.26458333 0 0 1 0.264583,-0.264583 z m -2.116667,-1.322917 a 0.26458333,0.26458333 0 1 1 -0.264583,0.264583 0.26458333,0.26458333 0 0 1 0.264583,-0.264583 z m -1.322916,2.910417 h 1.852083 v 2.645833 h -1.852083 z m 1.984375,10.32801 h -4.497917 a 0.26934583,0.26934583 0 0 1 -0.264583,-0.283104 0.26458333,0.26458333 0 0 1 0.264583,-0.264583 h 4.497917 a 0.26934583,0.26934583 0 0 1 0.264583,0.283104 0.26458333,0.26458333 0 0 1 -0.264583,0.264583 z m -0.06773,-1.5875 a 0.24235833,0.24235833 0 0 1 0.264583,0.246063 0.26458333,0.26458333 0 0 1 -0.264583,0.264583 h -4.36245 a 0.26934583,0.26934583 0 0 1 -0.264584,-0.283104 0.238125,0.238125 0 0 1 0.264583,-0.227542 z m -4.061884,-5.198798 a 2.924175,2.924175 0 0 1 -0.338667,-0.338666 0.26458333,0.26458333 0 0 0 -0.284162,-0.07937 l -0.349515,0.114829 A 3.394075,3.394075 0 0 1 58.899558,50.85786 l 0.277547,-0.248708 a 0.26458333,0.26458333 0 0 0 0.0725,-0.286544 2.8905729,2.8905729 0 0 1 -0.124089,-0.460904 0.26458333,0.26458333 0 0 0 -0.206111,-0.211667 l -0.363008,-0.07646 c -0.0063,-0.08202 -0.0095,-0.15875 -0.0095,-0.23204 0,-0.07329 0.0032,-0.150019 0.0095,-0.232039 l 0.363008,-0.07646 a 0.26458333,0.26458333 0 0 0 0.206111,-0.211667 2.9008917,2.9008917 0 0 1 0.124089,-0.461168 0.26458333,0.26458333 0 0 0 -0.0725,-0.286544 l -0.277547,-0.248444 a 3.4692167,3.4692167 0 0 1 0.233891,-0.398462 l 0.349515,0.114829 a 0.26643542,0.26643542 0 0 0 0.284427,-0.07937 2.9543375,2.9543375 0 0 1 0.338931,-0.339461 0.26458333,0.26458333 0 0 0 0.07937,-0.283898 l -0.114564,-0.349514 a 3.4438167,3.4438167 0 0 1 0.396875,-0.233892 l 0.248708,0.277548 a 0.26458333,0.26458333 0 0 0 0.286544,0.0725 2.8461229,2.8461229 0 0 1 0.460904,-0.12409 0.26458333,0.26458333 0 0 0 0.211666,-0.20611 l 0.04604,-0.209815 v 0.90962 a 2.38125,2.38125 0 0 0 0,4.731279 v 0.909902 l -0.04392,-0.208227 a 0.26458333,0.26458333 0 0 0 -0.211667,-0.206375 2.860675,2.860675 0 0 1 -0.460904,-0.12409 0.26855208,0.26855208 0 0 0 -0.08943,-0.01561 0.26458333,0.26458333 0 0 0 -0.197114,0.08811 l -0.248709,0.277548 a 3.4247667,3.4247667 0 0 1 -0.398462,-0.233891 l 0.114829,-0.349515 a 0.26458333,0.26458333 0 0 0 -0.0807,-0.284692 z m 1.616075,-4.049712 v 3.661833 a 1.8497021,1.8497021 0 0 1 0,-3.661833 z m 0,-3.974836 v 1.84838 c -0.07012,0.0053 -0.141817,0.01164 -0.218546,0.0209 a 0.26458333,0.26458333 0 0 0 -0.227012,0.207962 l -0.07937,0.383381 c -0.06641,0.01588 -0.132292,0.0336 -0.198702,0.05292 l -0.264584,-0.294217 a 0.26458333,0.26458333 0 0 0 -0.300831,-0.06694 3.9838312,3.9838312 0 0 0 -0.832379,0.486039 0.26458333,0.26458333 0 0 0 -0.09208,0.293952 l 0.121444,0.370417 q -0.07514,0.07064 -0.145786,0.145786 l -0.370417,-0.121444 a 0.26617083,0.26617083 0 0 0 -0.293687,0.09181 3.971925,3.971925 0 0 0 -0.484717,0.833173 0.26458333,0.26458333 0 0 0 0.06694,0.300831 l 0.294217,0.264584 q -0.0299,0.09922 -0.05292,0.198702 l -0.383381,0.07937 a 0.26458333,0.26458333 0 0 0 -0.207963,0.227012 3.6316708,3.6316708 0 0 0 0,0.966259 0.26458333,0.26458333 0 0 0 0.207963,0.227012 l 0.383381,0.07938 q 0.02381,0.09975 0.05292,0.198702 l -0.294217,0.264584 a 0.26458333,0.26458333 0 0 0 -0.06694,0.300831 3.9724542,3.9724542 0 0 0 0.486304,0.832908 0.26643542,0.26643542 0 0 0 0.293952,0.09181 l 0.370417,-0.121443 q 0.07064,0.07514 0.145786,0.145785 l -0.121444,0.370417 a 0.26458333,0.26458333 0 0 0 0.09181,0.293952 3.9748354,3.9748354 0 0 0 0.832644,0.486569 0.26458333,0.26458333 0 0 0 0.300831,-0.06694 l 0.264584,-0.294217 c 0.06588,0.02011 0.132291,0.03783 0.198702,0.05292 l 0.07937,0.383117 a 0.26458333,0.26458333 0 0 0 0.226748,0.208227 c 0.07673,0.0093 0.148431,0.01587 0.21881,0.0209 v 2.93079 h -1.872721 c -0.108214,-0.779461 -0.664633,-1.572946 -1.161256,-2.281236 -0.219604,-0.313267 -0.427038,-0.608542 -0.578644,-0.877358 -0.860689,-1.522677 -1.416314,-3.363913 -1.416314,-4.690798 0,-2.637367 2.18731,-4.722548 5.027083,-4.844786 z"
           id="path4"
           style="stroke-width:0.26458332" />
        <path
           inkscape:connector-curvature="0"
           d="m 64.290972,55.611365 0.491861,0.194997 a 4.0028812,4.0028812 0 0 1 0.218545,-0.455877 l -0.463285,-0.255852 a 4.4841583,4.4841583 0 0 0 -0.247121,0.516732 z"
           id="path6"
           style="stroke-width:0.26458332" />
        <path
           inkscape:connector-curvature="0"
           d="m 65.567587,54.46466 -0.434182,-0.302154 c -0.104245,0.149225 -0.207962,0.301096 -0.307181,0.454554 l 0.444236,0.287338 c 0.09604,-0.148167 0.196585,-0.295011 0.297127,-0.439738 z"
           id="path8-2"
           style="stroke-width:0.26458332" />
        <path
           inkscape:connector-curvature="0"
           d="m 66.183008,53.563754 -0.44794,-0.280723 c -0.08916,0.141817 -0.188648,0.288131 -0.292894,0.438679 l 0.434711,0.301625 c 0.109008,-0.15822 0.212989,-0.311414 0.306123,-0.459581 z"
           id="path10"
           style="stroke-width:0.26458332" />
        <path
           inkscape:connector-curvature="0"
           d="M 66.709264,52.587706 66.233014,52.3599 q -0.113771,0.238125 -0.238125,0.470429 l 0.466725,0.249767 c 0.08546,-0.161925 0.168275,-0.326232 0.24765,-0.49239 z"
           id="path12-7"
           style="stroke-width:0.26458332" />
        <path
           inkscape:connector-curvature="0"
           d="m 67.14027,51.574881 -0.4953,-0.185208 c -0.06138,0.163512 -0.127,0.327554 -0.196321,0.490008 l 0.487098,0.207169 q 0.108479,-0.255588 0.204523,-0.511969 z"
           id="path14"
           style="stroke-width:0.26458332" />
        <path
           inkscape:connector-curvature="0"
           d="m 67.78506,48.890948 c 0.01482,-0.175948 0.02222,-0.347663 0.02222,-0.510117 v -0.05292 l -0.529167,0.0042 v 0.04842 c 0,0.147638 -0.0069,0.304535 -0.02064,0.465667 z"
           id="path16-0"
           style="stroke-width:0.26458332" />
        <path
           inkscape:connector-curvature="0"
           d="m 67.156939,47.321175 a 4.4992396,4.4992396 0 0 1 0.08811,0.502708 l 0.525727,-0.06271 a 5.1617562,5.1617562 0 0 0 -0.09843,-0.559329 z"
           id="path18"
           style="stroke-width:0.26458332" />
        <path
           inkscape:connector-curvature="0"
           d="m 66.816155,46.363119 a 4.5360167,4.5360167 0 0 1 0.19738,0.469635 l 0.498475,-0.177006 a 5.0601562,5.0601562 0 0 0 -0.220134,-0.52414 z"
           id="path20"
           style="stroke-width:0.26458332" />
        <path
           inkscape:connector-curvature="0"
           d="m 66.272701,45.502694 a 4.7709667,4.7709667 0 0 1 0.295804,0.415925 l 0.446882,-0.282046 a 5.4279271,5.4279271 0 0 0 -0.328613,-0.462492 z"
           id="path22"
           style="stroke-width:0.26458332" />
        <path
           inkscape:connector-curvature="0"
           d="m 65.556474,44.773767 a 4.9633187,4.9633187 0 0 1 0.377031,0.346075 l 0.377296,-0.370417 a 5.540375,5.540375 0 0 0 -0.416983,-0.382852 z"
           id="path24"
           style="stroke-width:0.26458332" />
        <path
           inkscape:connector-curvature="0"
           d="m 65.440851,44.027377 c -0.154516,-0.103981 -0.3175,-0.202142 -0.483393,-0.291042 l -0.251619,0.465667 c 0.151341,0.08176 0.299244,0.171185 0.439737,0.264583 z"
           id="path26"
           style="stroke-width:0.26458332" />
        <path
           inkscape:connector-curvature="0"
           d="m 64.449458,43.493448 c -0.170392,-0.07276 -0.348457,-0.138377 -0.529167,-0.195792 l -0.161131,0.503238 c 0.164835,0.05292 0.327025,0.111918 0.48207,0.1778 z"
           id="path28"
           style="stroke-width:0.26458332" />
        <path
           inkscape:connector-curvature="0"
           d="m 63.377101,43.149489 c -0.181504,-0.04022 -0.368035,-0.07276 -0.554302,-0.0971 l -0.06773,0.525198 c 0.170656,0.02196 0.341313,0.05159 0.507471,0.08864 z"
           id="path30"
           style="stroke-width:0.26458332" />
      </g>
      <rect
         y="40.732143"
         x="42.144348"
         height="47.813984"
         width="47.813984"
         id="rect1845"
         style="opacity:1;fill:none;fill-opacity:1;stroke:none;stroke-width:1;stroke-linecap:round;stroke-linejoin:round;stroke-miterlimit:4;stroke-dasharray:none;stroke-dashoffset:0;stroke-opacity:1;paint-order:stroke fill markers" />
    </g>
  </g>
</svg>
