<?xml version="1.0" encoding="UTF-8" standalone="no"?>
<svg
   xmlns:dc="http://purl.org/dc/elements/1.1/"
   xmlns:cc="http://creativecommons.org/ns#"
   xmlns:rdf="http://www.w3.org/1999/02/22-rdf-syntax-ns#"
   xmlns:svg="http://www.w3.org/2000/svg"
   xmlns="http://www.w3.org/2000/svg"
   xmlns:sodipodi="http://sodipodi.sourceforge.net/DTD/sodipodi-0.dtd"
   xmlns:inkscape="http://www.inkscape.org/namespaces/inkscape"
   inkscape:version="1.0 (4035a4fb49, 2020-05-01)"
   sodipodi:docname="msit-icon-light.svg"
   id="svg245"
   version="1.1"
   fill="none"
   viewBox="0 0 216 217"
   height="217"
   width="216">
  <metadata
     id="metadata249">
    <rdf:RDF>
      <cc:Work
         rdf:about="">
        <dc:format>image/svg+xml</dc:format>
        <dc:type
           rdf:resource="http://purl.org/dc/dcmitype/StillImage" />
        <dc:title></dc:title>
      </cc:Work>
    </rdf:RDF>
  </metadata>
  <sodipodi:namedview
     inkscape:current-layer="svg245"
     inkscape:window-maximized="1"
     inkscape:window-y="27"
     inkscape:window-x="0"
     inkscape:cy="127.37363"
     inkscape:cx="130.10323"
     inkscape:zoom="2.8088758"
     showgrid="false"
     id="namedview247"
     inkscape:window-height="1016"
     inkscape:window-width="1920"
     inkscape:pageshadow="2"
     inkscape:pageopacity="0"
     guidetolerance="10"
     gridtolerance="10"
     objecttolerance="10"
     borderopacity="1"
     bordercolor="#666666"
     pagecolor="#ffffff" />
  <g
     id="g238"
     clip-path="url(#clip0)">
    <path
       style="fill:#ffffff;fill-opacity:1"
       id="path170"
       fill="black"
       d="M164.119 73.5054H160.249V56.0082C160.249 52.7926 157.644 50.1758 154.443 50.1758H131.221C128.02 50.1758 125.415 52.7926 125.415 56.0082V73.5054H121.545C120.475 73.5054 119.61 74.3745 119.61 75.4496C119.61 80.8096 123.95 85.1702 129.286 85.1702H156.378C161.714 85.1702 166.054 80.8096 166.054 75.4496C166.054 74.3745 165.189 73.5054 164.119 73.5054ZM129.286 56.0082C129.286 54.935 130.153 54.064 131.221 54.064H154.443C155.511 54.064 156.378 54.935 156.378 56.0082V73.5054H129.286V56.0082ZM156.378 81.282H129.286C126.762 81.282 124.61 79.6567 123.811 77.3937H127.351H158.313H161.853C161.054 79.6567 158.902 81.282 156.378 81.282Z" />
    <path
       style="fill:#ffffff;fill-opacity:1"
       id="path172"
       fill="black"
       d="M150.573 57.9524H135.092C134.021 57.9524 133.156 58.8215 133.156 59.8966V67.6731C133.156 68.7482 134.021 69.6172 135.092 69.6172H150.573C151.643 69.6172 152.508 68.7482 152.508 67.6731V59.8966C152.508 58.8215 151.643 57.9524 150.573 57.9524ZM148.638 65.7289H137.027V61.8407H148.638V65.7289Z" />
    <path
       style="fill:#ffffff;fill-opacity:1"
       id="path174"
       fill="black"
       d="M88.6472 156.17V145.438C88.6472 140.078 84.3066 135.718 78.9713 135.718H59.6195C54.2842 135.718 49.9436 140.078 49.9436 145.438V157.103C49.9436 162.463 54.2842 166.824 59.6195 166.824H96.3879C97.2104 166.824 97.9418 166.301 98.2127 165.523C98.4841 164.746 98.2348 163.877 97.5977 163.362L88.6472 156.17ZM59.6195 162.936C56.4188 162.936 53.814 160.319 53.814 157.103V145.438C53.814 142.223 56.4188 139.606 59.6195 139.606H78.9713C82.172 139.606 84.7769 142.223 84.7769 145.438V157.103C84.7769 157.694 85.0438 158.252 85.5024 158.622L90.8707 162.936H59.6195Z" />
    <path
       style="fill:#ffffff;fill-opacity:1"
       id="path176"
       fill="black"
       d="M63.4907 149.327H59.6202V153.215H63.4907V149.327Z" />
    <path
       style="fill:#ffffff;fill-opacity:1"
       id="path178"
       fill="black"
       d="M71.2304 149.327H67.3601V153.215H71.2304V149.327Z" />
    <path
       style="fill:#ffffff;fill-opacity:1"
       id="path180"
       fill="black"
       d="M78.9721 149.327H75.1017V153.215H78.9721V149.327Z" />
    <path
       style="fill:#ffffff;fill-opacity:1"
       id="path182"
       fill="black"
       d="M59.6194 98.7792H71.2306C71.8632 98.7792 72.4593 98.4683 72.8192 97.9432C73.1813 97.42 73.2647 96.7534 73.0438 96.1566L68.5794 84.1204C70.1721 83.0783 71.2306 81.2839 71.2306 79.2368C71.2306 76.0212 68.6258 73.4043 65.425 73.4043C62.2243 73.4043 59.6195 76.0212 59.6195 79.2368C59.6195 81.282 60.6781 83.0783 62.2688 84.1204L57.8043 96.1566C57.5834 96.7532 57.669 97.4202 58.0288 97.9432C58.3909 98.4678 58.9868 98.7792 59.6196 98.7792H59.6194ZM62.4042 94.8909L65.4249 86.7489L68.4457 94.8909H62.4042ZM65.4249 77.2925C66.4932 77.2925 67.3601 78.1636 67.3601 79.2368C67.3601 80.2438 66.588 81.0447 65.6127 81.1419C65.489 81.1566 65.3632 81.1566 65.2389 81.1419C64.2616 81.045 63.4895 80.2438 63.4895 79.2368C63.4895 78.1636 64.3565 77.2925 65.4247 77.2925H65.4249Z" />
    <path
       style="fill:#ffffff;fill-opacity:1"
       id="path184"
       fill="black"
       d="M60.9471 71.468C63.4184 69.1292 67.4339 69.1292 69.9051 71.468L72.5581 68.6392C68.6278 64.9142 62.2243 64.9142 58.2939 68.6392L60.9471 71.468Z" />
    <path
       style="fill:#ffffff;fill-opacity:1"
       id="path186"
       fill="black"
       d="M73.5378 65.2604L76.2742 62.5115C70.2384 56.4477 60.4173 56.4477 54.3815 62.5115L57.1179 65.2604C61.6443 60.7111 69.0114 60.7111 73.5378 65.2604Z" />
    <path
       style="fill:#ffffff;fill-opacity:1"
       id="path188"
       fill="black"
       d="M77.603 59.1946L80.3394 56.4457C76.3162 52.4038 70.9711 50.1758 65.2875 50.1758C59.6039 50.1758 54.257 52.4018 50.2338 56.4457L52.9702 59.1946C56.2658 55.8857 60.6373 54.064 65.2875 54.064C69.9378 54.064 74.3113 55.8857 77.603 59.1946Z" />
    <path
       style="fill:#ffffff;fill-opacity:1"
       id="path190"
       fill="black"
       d="M164.119 139.606H137.027C135.956 139.606 135.091 140.475 135.091 141.55V149.327V157.103V164.88C135.091 165.955 135.956 166.824 137.027 166.824H164.119C165.189 166.824 166.054 165.955 166.054 164.88V157.103V149.327V141.55C166.054 140.475 165.189 139.606 164.119 139.606ZM138.962 151.271H162.184V155.159H138.962V151.271ZM138.962 143.494H162.184V147.383H138.962V143.494ZM162.184 162.936H138.962V159.047H162.184V162.936Z" />
    <path
       style="fill:#ffffff;fill-opacity:1"
       id="path192"
       fill="black"
       d="M102.194 114.332C106.463 114.332 109.935 110.844 109.935 106.556C109.935 102.267 106.463 98.7792 102.194 98.7792C97.9251 98.7792 94.4534 102.267 94.4534 106.556C94.4534 110.844 97.9251 114.332 102.194 114.332ZM102.194 102.668C104.329 102.668 106.065 104.411 106.065 106.556C106.065 108.7 104.329 110.444 102.194 110.444C100.06 110.444 98.3238 108.7 98.3238 106.556C98.3238 104.411 100.06 102.668 102.194 102.668Z" />
    <path
       style="fill:#ffffff;fill-opacity:1"
       id="path194"
       fill="black"
       d="M86.7121 112.388H87.8422C87.8714 112.468 87.9079 112.548 87.9408 112.626L87.1416 113.428C86.7781 113.794 86.5748 114.286 86.5748 114.803C86.5748 115.318 86.7781 115.814 87.1416 116.178L92.6162 121.678C93.3418 122.406 94.6268 122.406 95.3525 121.678L96.1517 120.875C96.2293 120.911 96.3083 120.941 96.388 120.974V122.109C96.388 123.184 97.253 124.053 98.3232 124.053H106.064C107.134 124.053 107.999 123.184 107.999 122.109V120.974C108.078 120.944 108.158 120.908 108.235 120.875L109.035 121.678C109.398 122.043 109.888 122.247 110.403 122.247C110.918 122.247 111.409 122.043 111.771 121.678L117.246 116.178C117.609 115.812 117.812 115.318 117.812 114.803C117.812 114.286 117.609 113.792 117.246 113.428L116.446 112.626C116.483 112.548 116.512 112.468 116.545 112.388H117.675C118.745 112.388 119.61 111.519 119.61 110.444V102.668C119.61 101.592 118.745 100.723 117.675 100.723H116.545C116.509 100.643 116.479 100.564 116.446 100.486L117.246 99.6832C117.609 99.318 117.812 98.8259 117.812 98.3087C117.812 97.7936 117.609 97.2978 117.246 96.9343L111.771 91.4342C111.045 90.7031 109.76 90.7067 109.035 91.4342L108.235 92.2372C108.158 92.2005 108.079 92.171 107.999 92.138V91.0026C107.999 89.9275 107.134 89.0585 106.064 89.0585H98.3232C97.253 89.0585 96.388 89.9275 96.388 91.0026V92.138C96.3083 92.1747 96.2293 92.2041 96.1517 92.2372L95.3525 91.4342C94.989 91.069 94.4991 90.8647 93.9844 90.8647C93.4695 90.8647 92.9781 91.069 92.6162 91.4342L87.1416 96.9343C86.7781 97.2994 86.5748 97.7936 86.5748 98.3087C86.5748 98.826 86.7781 99.3196 87.1416 99.6832L87.9408 100.486C87.9043 100.564 87.8751 100.643 87.8422 100.723H86.7121C85.6419 100.723 84.7769 101.592 84.7769 102.668V110.444C84.7769 111.519 85.6419 112.388 86.7121 112.388ZM88.6472 104.612H89.2162C90.0715 104.612 90.8262 104.048 91.0701 103.224C91.3063 102.432 91.6099 101.688 91.9778 101.009C92.3859 100.251 92.2527 99.314 91.6449 98.7055L91.2485 98.3073L93.9848 95.5582L94.3812 95.9564C94.9869 96.5671 95.9236 96.7011 96.6745 96.2908C97.3496 95.9234 98.0891 95.6162 98.8787 95.3789C99.6972 95.1357 100.258 94.3778 100.258 93.5185V92.9468H104.129V93.5185C104.129 94.3778 104.69 95.136 105.51 95.3809C106.298 95.6183 107.039 95.9232 107.715 96.2927C108.467 96.7012 109.4 96.569 110.008 95.9584L110.404 95.5601L113.141 98.3092L112.744 98.7074C112.139 99.3144 112.003 100.253 112.411 101.011C112.777 101.689 113.083 102.432 113.319 103.226C113.561 104.048 114.316 104.612 115.171 104.612H115.74V108.5H115.171C114.316 108.5 113.561 109.064 113.317 109.888C113.081 110.679 112.777 111.424 112.409 112.103C112.001 112.861 112.134 113.798 112.742 114.406L113.139 114.805L110.402 117.554L110.006 117.155C109.4 116.547 108.467 116.415 107.713 116.821C107.038 117.188 106.298 117.496 105.508 117.733C104.69 117.976 104.129 118.734 104.129 119.593V120.165H100.258V119.593C100.258 118.734 99.6975 117.976 98.8768 117.731C98.0891 117.494 97.348 117.189 96.6726 116.819C95.9197 116.411 94.9869 116.543 94.3792 117.153L93.9828 117.552L91.2465 114.803L91.6429 114.404C92.2485 113.798 92.3842 112.859 91.9757 112.101C91.61 111.422 91.3044 110.679 91.0682 109.886C90.8261 109.064 90.0715 108.5 89.2162 108.5H88.6472V104.612Z" />
    <path
       style="fill:#ffffff;fill-opacity:1"
       id="path196"
       fill="black"
       d="M88.6473 59.8965H84.7769V63.7848H88.6473V59.8965Z" />
    <path
       style="fill:#ffffff;fill-opacity:1"
       id="path198"
       fill="black"
       d="M96.3869 59.8965H92.5166V63.7848H96.3869V59.8965Z" />
    <path
       style="fill:#ffffff;fill-opacity:1"
       id="path200"
       fill="black"
       d="M104.129 59.8965H100.258V63.7848H104.129V59.8965Z" />
    <path
       style="fill:#ffffff;fill-opacity:1"
       id="path202"
       fill="black"
       d="M111.87 59.8965H108V63.7848H111.87V59.8965Z" />
    <path
       style="fill:#ffffff;fill-opacity:1"
       id="path204"
       fill="black"
       d="M119.61 59.8965H115.74V63.7848H119.61V59.8965Z" />
    <path
       style="fill:#ffffff;fill-opacity:1"
       id="path206"
       fill="black"
       d="M162.183 91.0026H158.313V94.8909H162.183V91.0026Z" />
    <path
       style="fill:#ffffff;fill-opacity:1"
       id="path208"
       fill="black"
       d="M162.183 98.7792H158.313V102.667H162.183V98.7792Z" />
    <path
       style="fill:#ffffff;fill-opacity:1"
       id="path210"
       fill="black"
       d="M162.183 129.885H158.313V133.774H162.183V129.885Z" />
    <path
       style="fill:#ffffff;fill-opacity:1"
       id="path212"
       fill="black"
       d="M129.287 151.271H125.417V155.159H129.287V151.271Z" />
    <path
       style="fill:#ffffff;fill-opacity:1"
       id="path214"
       fill="black"
       d="M121.545 151.271H117.675V155.159H121.545V151.271Z" />
    <path
       style="fill:#ffffff;fill-opacity:1"
       id="path216"
       fill="black"
       d="M113.805 151.271H109.935V155.159H113.805V151.271Z" />
    <path
       style="fill:#ffffff;fill-opacity:1"
       id="path218"
       fill="black"
       d="M106.064 151.271H102.193V155.159H106.064V151.271Z" />
    <path
       style="fill:#ffffff;fill-opacity:1"
       id="path220"
       fill="black"
       d="M98.3237 151.271H94.4534V155.159H98.3237V151.271Z" />
    <path
       style="fill:#ffffff;fill-opacity:1"
       id="path222"
       fill="black"
       d="M57.684 127.941H53.8136V131.829H57.684V127.941Z" />
    <path
       style="fill:#ffffff;fill-opacity:1"
       id="path224"
       fill="black"
       d="M57.684 120.165H53.8136V124.053H57.684V120.165Z" />
    <path
       style="fill:#ffffff;fill-opacity:1"
       id="path226"
       fill="black"
       d="M57.684 112.388H53.8136V116.277H57.684V112.388Z" />
    <path
       style="fill:#ffffff;fill-opacity:1"
       id="path228"
       fill="black"
       d="M57.684 104.612H53.8136V108.5H57.684V104.612Z" />
    <path
       style="fill:#ffffff;fill-opacity:1"
       id="path230"
       fill="black"
       d="M162.183 122.109H158.313V125.997H162.183V122.109Z" />
    <path
       style="fill:#ffffff;fill-opacity:1"
       id="path232"
       fill="black"
       d="M162.183 114.332H158.313V118.221H162.183V114.332Z" />
    <path
       style="fill:#ffffff;fill-opacity:1"
       id="path234"
       fill="black"
       d="M162.183 106.556H158.313V110.444H162.183V106.556Z" />
    <path
       style="fill:#ffffff;fill-opacity:1"
       id="path236"
       fill="black"
       d="M77.0365 131.829H140.897C141.224 131.829 141.536 131.723 141.813 131.547C149.06 130.188 154.444 123.742 154.444 116.276C154.444 107.7 147.498 100.723 138.962 100.723C138.962 94.9956 134.867 90.1664 129.296 89.2546C126.976 88.7902 124.578 89.159 122.476 90.1625C119.589 80.3582 110.654 73.5051 100.259 73.5051C87.4536 73.5051 77.0365 83.9704 77.0365 96.8348C77.0365 98.1374 77.1469 99.438 77.3656 100.727C68.7173 100.558 61.5552 107.59 61.5552 116.276C61.5552 124.852 68.5005 131.829 77.0366 131.829L77.0365 131.829ZM77.0365 104.612C77.8396 104.612 78.6582 104.699 79.469 104.874C80.1404 105.018 80.8314 104.796 81.2938 104.289C81.7561 103.786 81.9207 103.072 81.7254 102.415C81.1834 100.589 80.9069 98.7112 80.9069 96.8351C80.9069 86.1151 89.5881 77.3937 100.259 77.3937C109.718 77.3937 117.724 84.208 119.299 93.5943C119.415 94.2806 119.885 94.8502 120.533 95.0932C121.184 95.3364 121.911 95.2115 122.443 94.7662C123.872 93.5763 125.569 92.9465 127.351 92.9465C127.744 92.9465 128.139 92.9906 128.601 93.0788C132.361 93.6967 135.092 96.9107 135.092 100.723C135.092 101.258 135.026 101.823 134.883 102.449C134.742 103.084 134.926 103.746 135.366 104.217C135.809 104.685 136.452 104.905 137.098 104.794C137.82 104.67 138.414 104.611 138.962 104.611C145.365 104.611 150.573 109.843 150.573 116.276C150.573 122.046 146.282 127.004 140.597 127.811C140.446 127.833 140.301 127.877 140.162 127.941H77.0362C70.6326 127.941 65.4251 122.709 65.4251 116.276C65.4251 109.843 70.6326 104.611 77.0362 104.611L77.0365 104.612Z" />
  </g>
  <defs
     id="defs243">
    <clipPath
       id="clip0">
      <rect
         id="rect240"
         fill="white"
         height="217"
         width="216" />
    </clipPath>
  </defs>
</svg>
