<?xml version="1.0" encoding="UTF-8" standalone="no"?>
<!-- Created with Inkscape (http://www.inkscape.org/) -->

<svg
   xmlns:dc="http://purl.org/dc/elements/1.1/"
   xmlns:cc="http://creativecommons.org/ns#"
   xmlns:rdf="http://www.w3.org/1999/02/22-rdf-syntax-ns#"
   xmlns:svg="http://www.w3.org/2000/svg"
   xmlns="http://www.w3.org/2000/svg"
   xmlns:sodipodi="http://sodipodi.sourceforge.net/DTD/sodipodi-0.dtd"
   xmlns:inkscape="http://www.inkscape.org/namespaces/inkscape"
   width="47.813988mm"
   height="47.813988mm"
   viewBox="0 0 47.813988 47.813988"
   version="1.1"
   id="svg4796"
   inkscape:version="0.92.2 (5c3e80d, 2017-08-06)"
   sodipodi:docname="msit-icon.svg">
  <defs
     id="defs4790" />
  <sodipodi:namedview
     id="base"
     pagecolor="#ffffff"
     bordercolor="#666666"
     borderopacity="1.0"
     inkscape:pageopacity="0.0"
     inkscape:pageshadow="2"
     inkscape:zoom="0.35"
     inkscape:cx="-273.92858"
     inkscape:cy="238.92857"
     inkscape:document-units="mm"
     inkscape:current-layer="layer1"
     showgrid="false"
     fit-margin-top="0"
     fit-margin-left="0"
     fit-margin-right="0"
     fit-margin-bottom="0"
     inkscape:window-width="1366"
     inkscape:window-height="699"
     inkscape:window-x="0"
     inkscape:window-y="33"
     inkscape:window-maximized="1" />
  <metadata
     id="metadata4793">
    <rdf:RDF>
      <cc:Work
         rdf:about="">
        <dc:format>image/svg+xml</dc:format>
        <dc:type
           rdf:resource="http://purl.org/dc/dcmitype/StillImage" />
        <dc:title></dc:title>
      </cc:Work>
    </rdf:RDF>
  </metadata>
  <g
     inkscape:label="Layer 1"
     inkscape:groupmode="layer"
     id="layer1"
     transform="translate(-0.28348389,-164.23586)">
    <g
       transform="translate(-192.59263,48.002976)"
       id="g4743">
      <rect
         y="116.23289"
         x="192.87611"
         height="47.813988"
         width="47.813988"
         id="rect1853"
         style="opacity:1;fill:none;fill-opacity:1;stroke:none;stroke-width:1;stroke-linecap:round;stroke-linejoin:round;stroke-miterlimit:4;stroke-dasharray:none;stroke-dashoffset:0;stroke-opacity:1;paint-order:stroke fill markers" />
      <g
         transform="matrix(1.6190476,0,0,1.6190476,-162.02102,-84.305417)"
         id="g4670">
        <path
           inkscape:connector-curvature="0"
           d="m 241.64018,133.86548 h -0.52917 v -2.38125 c 0,-0.43762 -0.35613,-0.79375 -0.79375,-0.79375 h -3.175 c -0.43762,0 -0.79375,0.35613 -0.79375,0.79375 v 2.38125 h -0.52916 c -0.14632,0 -0.26459,0.11826 -0.26459,0.26458 0,0.72946 0.59346,1.32292 1.32292,1.32292 h 3.70417 c 0.72945,0 1.32291,-0.59346 1.32291,-1.32292 0,-0.14632 -0.11827,-0.26458 -0.26458,-0.26458 z m -4.7625,-2.38125 c 0,-0.14605 0.11853,-0.26459 0.26458,-0.26459 h 3.175 c 0.14605,0 0.26459,0.11854 0.26459,0.26459 v 2.38125 h -3.70417 z m 3.70417,3.43958 h -3.70417 c -0.34502,0 -0.63923,-0.22119 -0.74851,-0.52917 h 0.48393 4.23333 0.48392 c -0.10927,0.30798 -0.40349,0.52917 -0.7485,0.52917 z"
           id="path2-3"
           style="stroke-width:0.26458332" />
        <path
           inkscape:connector-curvature="0"
           d="m 239.7881,131.74881 h -2.11667 c -0.14632,0 -0.26458,0.11827 -0.26458,0.26458 v 1.05834 c 0,0.14631 0.11826,0.26458 0.26458,0.26458 h 2.11667 c 0.14631,0 0.26458,-0.11827 0.26458,-0.26458 v -1.05834 c 0,-0.14631 -0.11827,-0.26458 -0.26458,-0.26458 z m -0.26459,1.05833 h -1.5875 v -0.52916 h 1.5875 z"
           id="path4-7"
           style="stroke-width:0.26458332" />
        <path
           inkscape:connector-curvature="0"
           d="m 231.32143,145.11556 v -1.4605 c 0,-0.72946 -0.59346,-1.32292 -1.32292,-1.32292 h -2.64583 c -0.72946,0 -1.32292,0.59346 -1.32292,1.32292 v 1.5875 c 0,0.72946 0.59346,1.32292 1.32292,1.32292 h 5.02708 c 0.11245,0 0.21246,-0.0712 0.2495,-0.17701 0.0371,-0.10583 0.003,-0.2241 -0.0841,-0.29422 z m -3.96875,0.92075 c -0.43762,0 -0.79375,-0.35613 -0.79375,-0.79375 v -1.5875 c 0,-0.43762 0.35613,-0.79375 0.79375,-0.79375 h 2.64583 c 0.43762,0 0.79375,0.35613 0.79375,0.79375 v 1.5875 c 0,0.0804 0.0365,0.15637 0.0992,0.20664 l 0.73396,0.58711 z"
           id="path6-5"
           style="stroke-width:0.26458332" />
        <rect
           x="227.35268"
           y="144.18422"
           width="0.52916664"
           height="0.52916664"
           id="rect8"
           style="stroke-width:0.26458332" />
        <rect
           x="228.41101"
           y="144.18422"
           width="0.52916664"
           height="0.52916664"
           id="rect10-9"
           style="stroke-width:0.26458332" />
        <rect
           x="229.46935"
           y="144.18422"
           width="0.52916664"
           height="0.52916664"
           id="rect12"
           style="stroke-width:0.26458332" />
        <path
           inkscape:connector-curvature="0"
           d="m 227.35268,137.30506 h 1.5875 c 0.0865,0 0.16801,-0.0423 0.21722,-0.11377 0.0495,-0.0712 0.0609,-0.16193 0.0307,-0.24315 l -0.61039,-1.63804 c 0.21775,-0.14182 0.36248,-0.38603 0.36248,-0.66463 0,-0.43762 -0.35613,-0.79375 -0.79375,-0.79375 -0.43762,0 -0.79375,0.35613 -0.79375,0.79375 0,0.27834 0.14473,0.52281 0.36221,0.66463 l -0.61039,1.63804 c -0.0302,0.0812 -0.0185,0.17198 0.0307,0.24315 0.0495,0.0714 0.13097,0.11377 0.21749,0.11377 z m 0.38073,-0.52917 0.41302,-1.10807 0.41301,1.10807 z m 0.41302,-2.39501 c 0.14605,0 0.26458,0.11854 0.26458,0.26459 0,0.13705 -0.10557,0.24606 -0.23892,0.25929 -0.0169,0.002 -0.0341,0.002 -0.0511,0 -0.13362,-0.0132 -0.23918,-0.12224 -0.23918,-0.25929 0,-0.14605 0.11853,-0.26459 0.26458,-0.26459 z"
           id="path14-22"
           style="stroke-width:0.26458332" />
        <path
           inkscape:connector-curvature="0"
           d="m 227.53418,133.58819 c 0.33788,-0.31829 0.88689,-0.31829 1.22476,0 l 0.36274,-0.38497 c -0.53737,-0.50694 -1.41287,-0.50694 -1.95024,0 z"
           id="path16-8"
           style="stroke-width:0.26458332" />
        <path
           inkscape:connector-curvature="0"
           d="m 229.25556,132.74338 0.37412,-0.37412 c -0.82523,-0.82524 -2.16799,-0.82524 -2.99323,0 l 0.37412,0.37412 c 0.61886,-0.61913 1.62613,-0.61913 2.24499,0 z"
           id="path18-9"
           style="stroke-width:0.26458332" />
        <path
           inkscape:connector-curvature="0"
           d="m 229.81145,131.91788 0.37412,-0.37412 c -0.55007,-0.55007 -1.28085,-0.85328 -2.05793,-0.85328 -0.77708,0 -1.50812,0.30294 -2.05819,0.85328 l 0.37412,0.37412 c 0.45059,-0.45032 1.04828,-0.69824 1.68407,-0.69824 0.6358,0 1.23376,0.24792 1.68381,0.69824 z"
           id="path20-7"
           style="stroke-width:0.26458332" />
        <path
           inkscape:connector-curvature="0"
           d="m 241.64018,142.86131 h -3.70417 c -0.14631,0 -0.26458,0.11827 -0.26458,0.26458 v 1.05834 1.05833 1.05833 c 0,0.14632 0.11827,0.26459 0.26458,0.26459 h 3.70417 c 0.14631,0 0.26458,-0.11827 0.26458,-0.26459 v -1.05833 -1.05833 -1.05834 c 0,-0.14631 -0.11827,-0.26458 -0.26458,-0.26458 z m -3.43958,1.5875 h 3.175 v 0.52917 h -3.175 z m 0,-1.05833 h 3.175 v 0.52916 h -3.175 z m 3.175,2.64583 h -3.175 v -0.52917 h 3.175 z"
           id="path22-3"
           style="stroke-width:0.26458332" />
        <path
           inkscape:connector-curvature="0"
           d="m 233.17351,139.42173 c 0.58367,0 1.05834,-0.47467 1.05834,-1.05834 0,-0.58367 -0.47467,-1.05833 -1.05834,-1.05833 -0.58367,0 -1.05833,0.47466 -1.05833,1.05833 0,0.58367 0.47466,1.05834 1.05833,1.05834 z m 0,-1.5875 c 0.29184,0 0.52917,0.23733 0.52917,0.52916 0,0.29184 -0.23733,0.52917 -0.52917,0.52917 -0.29183,0 -0.52916,-0.23733 -0.52916,-0.52917 0,-0.29183 0.23733,-0.52916 0.52916,-0.52916 z"
           id="path24-6"
           style="stroke-width:0.26458332" />
        <path
           inkscape:connector-curvature="0"
           d="m 231.05685,139.15714 h 0.15451 c 0.004,0.0109 0.009,0.0217 0.0135,0.0323 l -0.10928,0.10927 c -0.0497,0.0498 -0.0775,0.11669 -0.0775,0.18707 0,0.0701 0.0278,0.13758 0.0775,0.18706 l 0.74851,0.7485 c 0.0992,0.0992 0.2749,0.0992 0.37412,0 l 0.10927,-0.10927 c 0.0106,0.005 0.0214,0.009 0.0323,0.0135 v 0.15452 c 0,0.14631 0.11827,0.26458 0.26459,0.26458 h 1.05833 c 0.14631,0 0.26458,-0.11827 0.26458,-0.26458 v -0.15452 c 0.0108,-0.004 0.0217,-0.009 0.0323,-0.0135 l 0.10927,0.10927 c 0.0497,0.0497 0.11669,0.0775 0.18706,0.0775 0.0704,0 0.13759,-0.0278 0.18706,-0.0775 l 0.74851,-0.7485 c 0.0497,-0.0497 0.0775,-0.11695 0.0775,-0.18706 0,-0.0704 -0.0278,-0.13759 -0.0775,-0.18707 l -0.10927,-0.10927 c 0.005,-0.0106 0.009,-0.0214 0.0135,-0.0323 h 0.15452 c 0.14631,0 0.26458,-0.11827 0.26458,-0.26458 v -1.05833 c 0,-0.14632 -0.11827,-0.26459 -0.26458,-0.26459 h -0.15452 c -0.005,-0.0109 -0.009,-0.0217 -0.0135,-0.0323 l 0.10927,-0.10927 c 0.0497,-0.0497 0.0775,-0.11668 0.0775,-0.18706 0,-0.0701 -0.0278,-0.13758 -0.0775,-0.18706 l -0.74851,-0.74851 c -0.0992,-0.0995 -0.2749,-0.099 -0.37412,0 l -0.10927,0.10928 c -0.0106,-0.005 -0.0214,-0.009 -0.0323,-0.0135 v -0.15451 c 0,-0.14632 -0.11827,-0.26459 -0.26458,-0.26459 h -1.05833 c -0.14632,0 -0.26459,0.11827 -0.26459,0.26459 v 0.15451 c -0.0109,0.005 -0.0217,0.009 -0.0323,0.0135 l -0.10927,-0.10928 c -0.0497,-0.0497 -0.11668,-0.0775 -0.18706,-0.0775 -0.0704,0 -0.13758,0.0278 -0.18706,0.0775 l -0.74851,0.74851 c -0.0497,0.0497 -0.0775,0.11695 -0.0775,0.18706 0,0.0704 0.0278,0.13758 0.0775,0.18706 l 0.10928,0.10927 c -0.005,0.0106 -0.009,0.0214 -0.0135,0.0323 h -0.15451 c -0.14632,0 -0.26459,0.11827 -0.26459,0.26459 v 1.05833 c 0,0.14631 0.11827,0.26458 0.26459,0.26458 z m 0.26458,-1.05833 h 0.0778 c 0.11694,0 0.22013,-0.0767 0.25347,-0.18891 0.0323,-0.10769 0.0738,-0.20902 0.12409,-0.30136 0.0558,-0.10319 0.0376,-0.23072 -0.0455,-0.31353 l -0.0542,-0.0542 0.37412,-0.37413 0.0542,0.0542 c 0.0828,0.0831 0.21087,0.10134 0.31353,0.0455 0.0923,-0.05 0.19341,-0.0918 0.30136,-0.12409 0.11192,-0.0331 0.18865,-0.13626 0.18865,-0.2532 v -0.0778 h 0.52917 v 0.0778 c 0,0.11694 0.0767,0.22013 0.18891,0.25347 0.10768,0.0323 0.20902,0.0738 0.30136,0.12409 0.10292,0.0556 0.23045,0.0376 0.31353,-0.0455 l 0.0542,-0.0542 0.37412,0.37412 -0.0542,0.0542 c -0.0828,0.0826 -0.10133,0.21034 -0.0455,0.31353 0.05,0.0923 0.0918,0.19341 0.12409,0.30136 0.0331,0.11192 0.13626,0.18865 0.25321,0.18865 h 0.0778 v 0.52917 h -0.0778 c -0.11695,0 -0.22014,0.0767 -0.25347,0.18891 -0.0323,0.10768 -0.0738,0.20902 -0.12409,0.30136 -0.0558,0.10319 -0.0376,0.23072 0.0455,0.31353 l 0.0542,0.0542 -0.37413,0.37412 -0.0542,-0.0542 c -0.0828,-0.0828 -0.21034,-0.10081 -0.31353,-0.0455 -0.0923,0.05 -0.19341,0.0918 -0.30136,0.12409 -0.11192,0.0331 -0.18864,0.13626 -0.18864,0.25321 v 0.0778 h -0.52917 v -0.0778 c 0,-0.11695 -0.0767,-0.22014 -0.18891,-0.25347 -0.10769,-0.0323 -0.20902,-0.0738 -0.30136,-0.12409 -0.10293,-0.0556 -0.23046,-0.0376 -0.31354,0.0455 l -0.0542,0.0542 -0.37412,-0.37412 0.0542,-0.0542 c 0.0828,-0.0825 0.10134,-0.21035 0.0455,-0.31354 -0.05,-0.0923 -0.0918,-0.19341 -0.12409,-0.30136 -0.0331,-0.11191 -0.13626,-0.18864 -0.2532,-0.18864 h -0.0778 z"
           id="path26-1"
           style="stroke-width:0.26458332" />
        <rect
           x="230.79227"
           y="132.0134"
           width="0.52916664"
           height="0.52916664"
           id="rect28"
           style="stroke-width:0.26458332" />
        <rect
           x="231.8506"
           y="132.0134"
           width="0.52916664"
           height="0.52916664"
           id="rect30"
           style="stroke-width:0.26458332" />
        <rect
           x="232.90894"
           y="132.0134"
           width="0.52916664"
           height="0.52916664"
           id="rect32"
           style="stroke-width:0.26458332" />
        <rect
           x="233.96725"
           y="132.0134"
           width="0.52916664"
           height="0.52916664"
           id="rect34"
           style="stroke-width:0.26458332" />
        <rect
           x="235.02559"
           y="132.0134"
           width="0.52916664"
           height="0.52916664"
           id="rect36"
           style="stroke-width:0.26458332" />
        <rect
           x="240.84644"
           y="136.24672"
           width="0.52916664"
           height="0.52916664"
           id="rect38"
           style="stroke-width:0.26458332" />
        <rect
           x="240.84644"
           y="137.30505"
           width="0.52916664"
           height="0.52916664"
           id="rect40"
           style="stroke-width:0.26458332" />
        <rect
           x="240.84644"
           y="141.53839"
           width="0.52916664"
           height="0.52916664"
           id="rect42"
           style="stroke-width:0.26458332" />
        <rect
           x="236.34851"
           y="144.44881"
           width="0.52916664"
           height="0.52916664"
           id="rect44"
           style="stroke-width:0.26458332" />
        <rect
           x="235.29018"
           y="144.44881"
           width="0.52916664"
           height="0.52916664"
           id="rect46"
           style="stroke-width:0.26458332" />
        <rect
           x="234.23184"
           y="144.44881"
           width="0.52916664"
           height="0.52916664"
           id="rect48"
           style="stroke-width:0.26458332" />
        <rect
           x="233.17351"
           y="144.44881"
           width="0.52916664"
           height="0.52916664"
           id="rect50"
           style="stroke-width:0.26458332" />
        <rect
           x="232.11517"
           y="144.44881"
           width="0.52916664"
           height="0.52916664"
           id="rect52"
           style="stroke-width:0.26458332" />
        <rect
           x="226.55893"
           y="141.2738"
           width="0.52916664"
           height="0.52916664"
           id="rect54"
           style="stroke-width:0.26458332" />
        <rect
           x="226.55893"
           y="140.21547"
           width="0.52916664"
           height="0.52916664"
           id="rect56"
           style="stroke-width:0.26458332" />
        <rect
           x="226.55893"
           y="139.15714"
           width="0.52916664"
           height="0.52916664"
           id="rect58"
           style="stroke-width:0.26458332" />
        <rect
           x="226.55893"
           y="138.09882"
           width="0.52916664"
           height="0.52916664"
           id="rect60"
           style="stroke-width:0.26458332" />
        <rect
           x="240.84644"
           y="140.48006"
           width="0.52916664"
           height="0.52916664"
           id="rect62"
           style="stroke-width:0.26458332" />
        <rect
           x="240.84644"
           y="139.42172"
           width="0.52916664"
           height="0.52916664"
           id="rect64"
           style="stroke-width:0.26458332" />
        <rect
           x="240.84644"
           y="138.36339"
           width="0.52916664"
           height="0.52916664"
           id="rect66"
           style="stroke-width:0.26458332" />
        <path
           inkscape:connector-curvature="0"
           d="m 229.73393,141.80298 h 8.73125 c 0.0447,0 0.0873,-0.0145 0.12515,-0.0384 0.99086,-0.18495 1.72693,-1.06231 1.72693,-2.07831 0,-1.16707 -0.94959,-2.11666 -2.11666,-2.11666 0,-0.77946 -0.55986,-1.43669 -1.3216,-1.56078 -0.31723,-0.0632 -0.64505,-0.013 -0.93239,0.12357 -0.39476,-1.3343 -1.61634,-2.26695 -3.03768,-2.26695 -1.75075,0 -3.175,1.42425 -3.175,3.175 0,0.17727 0.0151,0.35427 0.045,0.52969 -1.18243,-0.023 -2.16165,0.93398 -2.16165,2.11614 0,1.16708 0.94959,2.11667 2.11667,2.11667 z m 0,-3.70417 c 0.1098,0 0.22172,0.0119 0.33258,0.0357 0.0918,0.0196 0.18627,-0.0106 0.2495,-0.0796 0.0632,-0.0685 0.0857,-0.16563 0.059,-0.25506 -0.0741,-0.24844 -0.11191,-0.50403 -0.11191,-0.75935 0,-1.45892 1.18692,-2.64584 2.64583,-2.64584 1.29328,0 2.38786,0.92737 2.60323,2.20478 0.0159,0.0934 0.0802,0.17092 0.16881,0.20399 0.0889,0.0331 0.18838,0.0161 0.26114,-0.0445 0.19526,-0.16193 0.4273,-0.24765 0.67099,-0.24765 0.0537,0 0.10768,0.006 0.17092,0.018 0.51408,0.0841 0.88741,0.5215 0.88741,1.04034 0,0.0728 -0.009,0.14976 -0.0286,0.23495 -0.0193,0.0863 0.006,0.17648 0.0661,0.24051 0.0606,0.0638 0.14843,0.0937 0.2368,0.0786 0.0987,-0.0169 0.17992,-0.0249 0.2548,-0.0249 0.8755,0 1.5875,0.71199 1.5875,1.5875 0,0.78528 -0.58659,1.45997 -1.36393,1.56977 -0.0206,0.003 -0.0405,0.009 -0.0595,0.0177 h -8.63071 c -0.87551,0 -1.5875,-0.71199 -1.5875,-1.5875 0,-0.8755 0.71199,-1.5875 1.5875,-1.5875 z"
           id="path68"
           style="stroke-width:0.26458332" />
      </g>
    </g>
  </g>
</svg>
