<?xml version="1.0" encoding="UTF-8" standalone="no"?>
<svg
   xmlns:dc="http://purl.org/dc/elements/1.1/"
   xmlns:cc="http://creativecommons.org/ns#"
   xmlns:rdf="http://www.w3.org/1999/02/22-rdf-syntax-ns#"
   xmlns:svg="http://www.w3.org/2000/svg"
   xmlns="http://www.w3.org/2000/svg"
   xmlns:sodipodi="http://sodipodi.sourceforge.net/DTD/sodipodi-0.dtd"
   xmlns:inkscape="http://www.inkscape.org/namespaces/inkscape"
   data-name="Layer 1"
   viewBox="0 0 80.000001 80"
   x="0px"
   y="0px"
   version="1.1"
   id="svg22"
   sodipodi:docname="noun_1544052_cc.svg"
   width="80"
   height="80"
   inkscape:version="0.92.2 (5c3e80d, 2017-08-06)">
  <metadata
     id="metadata28">
    <rdf:RDF>
      <cc:Work
         rdf:about="">
        <dc:format>image/svg+xml</dc:format>
        <dc:type
           rdf:resource="http://purl.org/dc/dcmitype/StillImage" />
        <dc:title>tools-utensil-machine-instrument-gadget-stationery</dc:title>
      </cc:Work>
    </rdf:RDF>
  </metadata>
  <defs
     id="defs26" />
  <sodipodi:namedview
     pagecolor="#ffffff"
     bordercolor="#666666"
     borderopacity="1"
     objecttolerance="10"
     gridtolerance="10"
     guidetolerance="10"
     inkscape:pageopacity="0"
     inkscape:pageshadow="2"
     inkscape:window-width="1366"
     inkscape:window-height="699"
     id="namedview24"
     showgrid="false"
     fit-margin-top="0"
     fit-margin-left="0"
     fit-margin-right="0"
     fit-margin-bottom="0"
     inkscape:zoom="2.085965"
     inkscape:cx="108.84679"
     inkscape:cy="47.58043"
     inkscape:window-x="0"
     inkscape:window-y="33"
     inkscape:window-maximized="1"
     inkscape:current-layer="svg22" />
  <title
     id="title2">tools-utensil-machine-instrument-gadget-stationery</title>
  <path
     d="m 55.511771,19.81356 a 9,9 0 1 0 9,9 9.011,9.011 0 0 0 -9,-9 z m 0,16 a 7,7 0 1 1 7,-7 7.008,7.008 0 0 1 -7,7 z"
     id="path4"
     inkscape:connector-curvature="0"
     style="fill:#000000" />
  <path
     d="m 12.532771,24.44156 a 12.746,12.746 0 0 0 0.921,2.741 1,1 0 0 0 0.816,0.575 l 1.942,0.178 c 0.158,0.232 0.323,0.456 0.494,0.67 l -0.42,1.836 a 1,1 0 0 0 0.308,0.968 13.248,13.248 0 0 0 2.377,1.7 1,1 0 0 0 0.989,-0.007 l 1.671,-0.969 c 0.268,0.095 0.546,0.181 0.838,0.26 l 0.77,1.745 a 1,1 0 0 0 0.807,0.591 12.988,12.988 0 0 0 2.932,0 1,1 0 0 0 0.807,-0.591 l 0.77,-1.745 c 0.292,-0.079 0.57,-0.165 0.837,-0.26 l 1.672,0.969 a 1,1 0 0 0 0.989,0.007 13.278,13.278 0 0 0 2.377,-1.7 1,1 0 0 0 0.308,-0.969 l -0.42,-1.836 q 0.256,-0.322 0.494,-0.67 l 1.942,-0.178 a 1,1 0 0 0 0.816,-0.574 12.773,12.773 0 0 0 0.921,-2.742 1,1 0 0 0 -0.326,-0.961 l -1.453,-1.254 c 0.007,-0.137 0.01,-0.274 0.01,-0.412 0,-0.138 0,-0.275 -0.01,-0.412 l 1.455,-1.255 a 1,1 0 0 0 0.326,-0.961 12.779,12.779 0 0 0 -0.92,-2.741 1,1 0 0 0 -0.816,-0.575 l -1.945,-0.178 q -0.237,-0.348 -0.494,-0.67 l 0.42,-1.836 a 1,1 0 0 0 -0.308,-0.968 13.248,13.248 0 0 0 -2.377,-1.7 1,1 0 0 0 -0.989,0.007 l -1.671,0.969 c -0.268,-0.1 -0.546,-0.181 -0.838,-0.26 l -0.77,-1.7449996 a 1,1 0 0 0 -0.807,-0.591 12.835,12.835 0 0 0 -2.932,0 1,1 0 0 0 -0.807,0.591 l -0.77,1.7449996 c -0.292,0.079 -0.57,0.165 -0.837,0.26 l -1.672,-0.97 a 1,1 0 0 0 -0.989,-0.007 13.278,13.278 0 0 0 -2.377,1.697 1,1 0 0 0 -0.308,0.969 l 0.42,1.836 q -0.257,0.322 -0.494,0.67 l -1.942,0.178 a 1,1 0 0 0 -0.816,0.574 12.773,12.773 0 0 0 -0.921,2.742 1,1 0 0 0 0.326,0.961 l 1.453,1.258 c -0.007,0.137 -0.01,0.274 -0.01,0.412 0,0.138 0,0.275 0.01,0.412 l -1.453,1.255 a 1,1 0 0 0 -0.326,0.961 z m 3.771,-2.628 c 0,-0.255 0.018,-0.507 0.039,-0.757 a 1,1 0 0 0 -0.343,-0.843 l -1.373,-1.183 a 10.571,10.571 0 0 1 0.415,-1.224 l 1.835,-0.167 a 1,1 0 0 0 0.76,-0.471 9.013,9.013 0 0 1 0.9,-1.224 1,1 0 0 0 0.225,-0.885 l -0.4,-1.729 a 11.256,11.256 0 0 1 1.093,-0.783 l 1.578,0.915 a 1,1 0 0 0 0.885,0.059 9.112,9.112 0 0 1 1.494,-0.462 1,1 0 0 0 0.692,-0.571 l 0.729,-1.653 a 10.347,10.347 0 0 1 1.364,0 l 0.729,1.653 a 1,1 0 0 0 0.693,0.571 9.174,9.174 0 0 1 1.482,0.462 1,1 0 0 0 0.884,-0.059 l 1.578,-0.914 a 11.246,11.246 0 0 1 1.093,0.782 l -0.4,1.729 a 1,1 0 0 0 0.225,0.885 9.051,9.051 0 0 1 0.906,1.225 1,1 0 0 0 0.759,0.469 l 1.836,0.169 a 10.742,10.742 0 0 1 0.414,1.223 l -1.372,1.183 a 1,1 0 0 0 -0.343,0.843 c 0.021,0.25 0.039,0.5 0.039,0.757 0,0.257 -0.018,0.507 -0.039,0.757 a 1,1 0 0 0 0.343,0.843 l 1.373,1.183 a 10.571,10.571 0 0 1 -0.415,1.224 l -1.835,0.167 a 1,1 0 0 0 -0.76,0.471 9.013,9.013 0 0 1 -0.905,1.224 1,1 0 0 0 -0.225,0.885 l 0.4,1.729 a 11.256,11.256 0 0 1 -1.093,0.783 l -1.578,-0.915 a 1,1 0 0 0 -0.885,-0.059 9.192,9.192 0 0 1 -1.481,0.462 1,1 0 0 0 -0.693,0.571 l -0.729,1.653 a 10.347,10.347 0 0 1 -1.364,0 l -0.729,-1.653 a 1,1 0 0 0 -0.693,-0.571 9.174,9.174 0 0 1 -1.482,-0.462 1,1 0 0 0 -0.884,0.059 l -1.578,0.914 a 11.246,11.246 0 0 1 -1.093,-0.782 l 0.4,-1.729 a 1,1 0 0 0 -0.225,-0.885 9.01,9.01 0 0 1 -0.906,-1.225 1,1 0 0 0 -0.759,-0.469 l -1.843,-0.169 a 10.684,10.684 0 0 1 -0.415,-1.223 l 1.373,-1.183 a 1,1 0 0 0 0.343,-0.843 c -0.021,-0.25 -0.039,-0.502 -0.039,-0.757 z"
     id="path6"
     inkscape:connector-curvature="0"
     style="fill:#000000" />
  <path
     d="m 25.511771,28.81356 a 7,7 0 1 0 -7,-7 7.008,7.008 0 0 0 7,7 z m 0,-12 a 5,5 0 1 1 -5,5 5.006,5.006 0 0 1 5,-5 z"
     id="path8"
     inkscape:connector-curvature="0"
     style="fill:#000000" />
  <path
     d="m 69.602771,26.12956 -1.448,-0.3 q -0.09,-0.377 -0.2,-0.751 l 1.112,-1 a 1,1 0 0 0 0.253,-1.136 14.98,14.98 0 0 0 -1.839,-3.147 1,1 0 0 0 -1.11,-0.348 l -1.4,0.459 q -0.267,-0.284 -0.551,-0.551 l 0.459,-1.4 a 1,1 0 0 0 -0.347,-1.11 15.023,15.023 0 0 0 -3.147,-1.832 1,1 0 0 0 -1.137,0.253 l -1,1.112 q -0.375,-0.113 -0.751,-0.2 l -0.3,-1.448 a 1,1 0 0 0 -0.857,-0.787 13.63,13.63 0 0 0 -3.654,0 1,1 0 0 0 -0.857,0.787 l -0.3,1.448 q -0.376,0.09 -0.751,0.2 l -1,-1.112 a 1,1 0 0 0 -1.138,-0.253 14.98,14.98 0 0 0 -3.147,1.839 1,1 0 0 0 -0.348,1.11 l 0.459,1.4 q -0.284,0.267 -0.551,0.551 l -1.4,-0.459 a 1,1 0 0 0 -1.11,0.347 15.023,15.023 0 0 0 -1.831,3.139 1,1 0 0 0 0.253,1.137 l 1.112,1 c -0.075,0.249 -0.143,0.5 -0.2,0.75 l -1.448,0.3 a 1,1 0 0 0 -0.787,0.857 13.734,13.734 0 0 0 0,3.653 1,1 0 0 0 0.787,0.858 l 1.448,0.3 q 0.09,0.377 0.2,0.751 l -1.112,1 a 1,1 0 0 0 -0.253,1.136 14.98,14.98 0 0 0 1.839,3.147 1,1 0 0 0 1.11,0.348 l 1.4,-0.459 q 0.267,0.284 0.551,0.551 l -0.459,1.4 a 1,1 0 0 0 0.347,1.11 15.023,15.023 0 0 0 3.147,1.839 1,1 0 0 0 1.137,-0.253 l 1,-1.112 q 0.375,0.113 0.751,0.2 l 0.3,1.448 a 1,1 0 0 0 0.857,0.787 13.741,13.741 0 0 0 3.654,0 1,1 0 0 0 0.857,-0.787 l 0.3,-1.448 q 0.376,-0.09 0.751,-0.2 l 1,1.112 a 1,1 0 0 0 1.136,0.253 14.98,14.98 0 0 0 3.147,-1.839 1,1 0 0 0 0.348,-1.11 l -0.459,-1.4 q 0.284,-0.267 0.551,-0.551 l 1.4,0.459 a 1,1 0 0 0 1.11,-0.347 15.023,15.023 0 0 0 1.839,-3.147 1,1 0 0 0 -0.253,-1.137 l -1.112,-1 q 0.113,-0.375 0.2,-0.751 l 1.448,-0.3 a 1,1 0 0 0 0.787,-0.857 13.734,13.734 0 0 0 0,-3.653 1,1 0 0 0 -0.793,-0.856 z m -1.126,3.561 -1.373,0.289 a 1,1 0 0 0 -0.779,0.8 10.953,10.953 0 0 1 -0.469,1.742 1,1 0 0 0 0.274,1.083 l 1.049,0.94 a 12.944,12.944 0 0 1 -0.884,1.506 l -1.321,-0.437 a 1,1 0 0 0 -1.075,0.3 11.069,11.069 0 0 1 -1.281,1.281 1,1 0 0 0 -0.3,1.074 l 0.434,1.322 a 13.018,13.018 0 0 1 -1.506,0.883 l -0.94,-1.049 a 1,1 0 0 0 -1.083,-0.274 10.925,10.925 0 0 1 -1.742,0.469 1,1 0 0 0 -0.8,0.779 l -0.289,1.373 a 10.7,10.7 0 0 1 -1.754,0 l -0.289,-1.373 a 1,1 0 0 0 -0.8,-0.779 10.925,10.925 0 0 1 -1.742,-0.469 1,1 0 0 0 -1.083,0.274 l -0.94,1.049 a 12.944,12.944 0 0 1 -1.506,-0.884 l 0.434,-1.321 a 1,1 0 0 0 -0.3,-1.075 11.069,11.069 0 0 1 -1.281,-1.281 1,1 0 0 0 -1.074,-0.3 l -1.322,0.434 a 13.018,13.018 0 0 1 -0.883,-1.506 l 1.049,-0.94 a 1,1 0 0 0 0.274,-1.083 10.925,10.925 0 0 1 -0.469,-1.742 1,1 0 0 0 -0.779,-0.8 l -1.372,-0.289 c -0.024,-0.31 -0.036,-0.6 -0.036,-0.877 0,-0.277 0.011,-0.568 0.035,-0.877 l 1.373,-0.289 a 1,1 0 0 0 0.779,-0.8 10.925,10.925 0 0 1 0.469,-1.742 1,1 0 0 0 -0.274,-1.083 l -1.049,-0.94 a 12.944,12.944 0 0 1 0.884,-1.506 l 1.321,0.434 a 1,1 0 0 0 1.075,-0.3 11.069,11.069 0 0 1 1.281,-1.281 1,1 0 0 0 0.3,-1.074 l -0.434,-1.322 a 13.018,13.018 0 0 1 1.506,-0.883 l 0.94,1.049 a 1,1 0 0 0 1.083,0.274 10.925,10.925 0 0 1 1.742,-0.469 1,1 0 0 0 0.8,-0.779 l 0.289,-1.373 a 10.7,10.7 0 0 1 1.754,0 l 0.289,1.373 a 1,1 0 0 0 0.8,0.779 10.925,10.925 0 0 1 1.742,0.469 1,1 0 0 0 1.083,-0.274 l 0.94,-1.049 a 12.944,12.944 0 0 1 1.506,0.884 l -0.441,1.321 a 1,1 0 0 0 0.3,1.075 11.069,11.069 0 0 1 1.281,1.281 1,1 0 0 0 1.074,0.3 l 1.322,-0.434 a 13.018,13.018 0 0 1 0.883,1.506 l -1.049,0.94 a 1,1 0 0 0 -0.274,1.083 10.925,10.925 0 0 1 0.469,1.742 1,1 0 0 0 0.779,0.8 l 1.372,0.289 c 0.024,0.31 0.036,0.6 0.036,0.877 0,0.277 -0.004,0.571 -0.028,0.88 z"
     id="path10"
     inkscape:connector-curvature="0"
     style="fill:#000000" />
  <path
     d="m 14.511771,59.04956 v 8.764 a 1,1 0 0 0 1,1 h 10 a 1,1 0 0 0 1,-1 v -8.764 l 3.9,-7.789 a 1,1 0 0 0 -0.1,-1.047 l -9,-12 a 1.036,1.036 0 0 0 -1.6,0 l -9,12 a 1,1 0 0 0 -0.1,1.047 z m 10,7.764 h -8 v -7 h 8 z m -5,-25 v 6.278 a 2,2 0 1 0 2,0 v -6.278 l 6.829,9.1 -3.447,6.9 h -8.764 l -3.447,-6.9 z"
     id="path12"
     inkscape:connector-curvature="0"
     style="fill:#000000" />
  <path
     d="m 37.859771,45.32856 -4.222,7.6 a 1,1 0 0 0 -0.126,0.485 v 14.4 a 1,1 0 0 0 1,1 h 14 a 1,1 0 0 0 1,-1 v -14.4 a 1,1 0 0 0 -0.126,-0.486 l -4.222,-7.6 v 0 l -2.778,-5 a 1.04,1.04 0 0 0 -1.748,0 l -2.778,5 z m 0.652,21.485 h -3 v -12 h 3 z m 4,0 h -2 v -12 h 2 z m 5,0 h -3 v -12 h 3 z m -6,-23.941 1.078,1.941 h -2.156 z m 2.189,3.941 3.334,6 h -11.046 l 3.334,-6 z"
     id="path14"
     inkscape:connector-curvature="0"
     style="fill:#000000" />
  <path
     d="m 69.511771,46.81356 h -14 a 1,1 0 0 0 -1,1 v 20 a 1,1 0 0 0 1,1 h 14 a 1,1 0 0 0 1,-1 v -20 a 1,1 0 0 0 -1,-1 z m -1,4.054 h -3 v 2 h 3 v 1.946 h -5 v 2 h 5 v 2 h -3 v 2 h 3 v 2 h -5 v 2 h 5 v 2 h -12 v -18 h 12 z"
     id="path16"
     inkscape:connector-curvature="0"
     style="fill:#000000" />
</svg>
