<?xml version="1.0" encoding="UTF-8" standalone="no"?>
<svg
   xmlns:dc="http://purl.org/dc/elements/1.1/"
   xmlns:cc="http://creativecommons.org/ns#"
   xmlns:rdf="http://www.w3.org/1999/02/22-rdf-syntax-ns#"
   xmlns:svg="http://www.w3.org/2000/svg"
   xmlns="http://www.w3.org/2000/svg"
   xmlns:sodipodi="http://sodipodi.sourceforge.net/DTD/sodipodi-0.dtd"
   xmlns:inkscape="http://www.inkscape.org/namespaces/inkscape"
   version="1.1"
   x="0px"
   y="0px"
   viewBox="0 0 80 80"
   xml:space="preserve"
   id="svg10"
   sodipodi:docname="noun_776665_cc.svg"
   width="80"
   height="80"
   inkscape:version="0.92.2 (5c3e80d, 2017-08-06)"><metadata
     id="metadata16"><rdf:RDF><cc:Work
         rdf:about=""><dc:format>image/svg+xml</dc:format><dc:type
           rdf:resource="http://purl.org/dc/dcmitype/StillImage" /><dc:title></dc:title></cc:Work></rdf:RDF></metadata><defs
     id="defs14" /><sodipodi:namedview
     pagecolor="#ffffff"
     bordercolor="#666666"
     borderopacity="1"
     objecttolerance="10"
     gridtolerance="10"
     guidetolerance="10"
     inkscape:pageopacity="0"
     inkscape:pageshadow="2"
     inkscape:window-width="1366"
     inkscape:window-height="699"
     id="namedview12"
     showgrid="false"
     fit-margin-top="0"
     fit-margin-left="0"
     fit-margin-right="0"
     fit-margin-bottom="0"
     inkscape:zoom="3.776"
     inkscape:cx="25.299005"
     inkscape:cy="31.704062"
     inkscape:window-x="0"
     inkscape:window-y="33"
     inkscape:window-maximized="1"
     inkscape:current-layer="svg10" /><style
     type="text/css"
     id="style2">
	.st0{fill:none;stroke:#000000;stroke-width:2;stroke-linecap:round;stroke-linejoin:round;stroke-miterlimit:10;}
	.st1{fill:none;stroke:#000000;stroke-width:2;stroke-miterlimit:10;}
	.st2{fill:none;stroke:#000000;stroke-width:2;stroke-linecap:round;stroke-linejoin:round;}
	.st3{fill:none;stroke:#000000;stroke-width:2;stroke-linecap:round;stroke-linejoin:round;stroke-dasharray:4.1329,4.1329;}
</style><path
     d="m 78.075845,30.663987 -38,-17.3 c -0.3,-0.1 -0.6,-0.1 -0.8,0 l -37.9999975,17.3 c -0.40000001,0.2 -0.60000002,0.5 -0.60000002,0.9 0,0.4 0.20000001,0.7 0.60000002,0.9 l 10.3999975,4.8 v 19.3 c 0,0.2 0.1,0.4 0.2,0.5 0.2,0.3 4.4,6.5 27.6,6.5 h 0.5 c 6.4,0 11.9,-0.5 16.4,-1.4 l -0.4,2.7 c 0,0.3 0,0.6 0.2,0.8 0.2,0.2 0.5,0.3 0.8,0.3 h 4.5 c 0.3,0 0.6,-0.1 0.8,-0.3 0.2,-0.2 0.3,-0.5 0.2,-0.8 l -0.6,-4.2 c 4.3,-1.6 5.6,-3.4 5.7,-3.6 0.1,-0.2 0.2,-0.3 0.2,-0.5 v -19.4 l 10.3,-4.7 c 0.4,-0.2 0.6,-0.5 0.6,-0.9 0,-0.4 -0.2,-0.7 -0.6,-0.9 z m -38,30.9 h -0.5 c -19.5,0 -24.9,-4.5 -25.8,-5.4 v -18 l 25.5,11.7 c 0.1,0.1 0.3,0.1 0.4,0.1 0.1,0 0.3,0 0.4,-0.1 l 18,-8.2 v 8.3 c -1.8,0.5 -3.2,2.1 -3.2,4 0,1.5 0.9,2.9 2.1,3.6 l -0.3,2.6 c -4.4,0.9 -10,1.4 -16.6,1.4 z m 19.1,-5.5 c -1.2,0 -2.2,-1 -2.2,-2.2 0,-1.2 1,-2.2 2.2,-2.2 1.2,0 2.2,1 2.2,2.2 0,1.2 -1,2.2 -2.2,2.2 z m -0.9,7.9 0.8,-6 c 0,0 0.1,0 0.1,0 0.2,0 0.3,0 0.5,0 l 0.2,1.8 c 0,0.1 0,0.3 0,0.4 0,0 0,0 0,0.1 l 0.5,3.7 z m 7.6,-7.8 c -0.4,0.4 -1.5,1.4 -4.1,2.4 l -0.2,-1.3 c 1.1,-0.8 1.8,-2 1.8,-3.4 0,-2 -1.4,-3.6 -3.2,-4 v -9.2 l 5.7,-2.6 z m -6.5,-17.3 -18.4,-8.9 c -0.5,-0.2 -1.1,0 -1.3,0.5 -0.2,0.5 0,1.1 0.5,1.3 l 16.9,8.1 -17.3,7.9 -35.6999975,-16.2 35.5999975,-16.2 35.6,16.2 z"
     id="path4"
     inkscape:connector-curvature="0" /></svg>