<?xml version="1.0" encoding="UTF-8" standalone="no"?>
<svg
   xmlns:dc="http://purl.org/dc/elements/1.1/"
   xmlns:cc="http://creativecommons.org/ns#"
   xmlns:rdf="http://www.w3.org/1999/02/22-rdf-syntax-ns#"
   xmlns:svg="http://www.w3.org/2000/svg"
   xmlns="http://www.w3.org/2000/svg"
   xmlns:sodipodi="http://sodipodi.sourceforge.net/DTD/sodipodi-0.dtd"
   xmlns:inkscape="http://www.inkscape.org/namespaces/inkscape"
   version="1.1"
   x="0px"
   y="0px"
   viewBox="0 0 80 80"
   xml:space="preserve"
   id="svg26"
   sodipodi:docname="noun_1698513_cc.svg"
   width="80"
   height="80"
   inkscape:version="0.92.2 (5c3e80d, 2017-08-06)"><metadata
     id="metadata32"><rdf:RDF><cc:Work
         rdf:about=""><dc:format>image/svg+xml</dc:format><dc:type
           rdf:resource="http://purl.org/dc/dcmitype/StillImage" /><dc:title></dc:title></cc:Work></rdf:RDF></metadata><defs
     id="defs30" /><sodipodi:namedview
     pagecolor="#ffffff"
     bordercolor="#666666"
     borderopacity="1"
     objecttolerance="10"
     gridtolerance="10"
     guidetolerance="10"
     inkscape:pageopacity="0"
     inkscape:pageshadow="2"
     inkscape:window-width="1366"
     inkscape:window-height="699"
     id="namedview28"
     showgrid="false"
     fit-margin-top="0"
     fit-margin-left="0"
     fit-margin-right="0"
     fit-margin-bottom="0"
     inkscape:snap-bbox="true"
     inkscape:bbox-paths="true"
     inkscape:bbox-nodes="true"
     inkscape:snap-bbox-edge-midpoints="true"
     inkscape:snap-bbox-midpoints="true"
     inkscape:object-paths="true"
     inkscape:snap-intersection-paths="true"
     inkscape:snap-smooth-nodes="true"
     inkscape:snap-midpoints="true"
     showguides="true"
     inkscape:guide-bbox="true"
     inkscape:snap-global="false"
     inkscape:zoom="1.3350176"
     inkscape:cx="97.569553"
     inkscape:cy="20.388242"
     inkscape:window-x="0"
     inkscape:window-y="33"
     inkscape:window-maximized="1"
     inkscape:current-layer="g943"><sodipodi:guide
       position="180.57199,-568.88086"
       orientation="0,1"
       id="guide856"
       inkscape:locked="false" /><sodipodi:guide
       position="-23.535148,-5.3112588"
       orientation="0,1"
       id="guide890"
       inkscape:locked="false" /></sodipodi:namedview><path
     d="M 79,70.5 H 78 V 1 C 78,0.447 77.552,0 77,0 H 3.016 c -0.552,0 -1,0.447 -1,1 V 70.5 H 1 c -0.552,0 -1,0.447 -1,1 V 79 c 0,0.553 0.448,1 1,1 h 78 c 0.552,0 1,-0.447 1,-1 v -7.5 c 0,-0.553 -0.448,-1 -1,-1 z M 4.016,2 H 76 V 70.5 H 71.419 V 7.75 c 0,-0.553 -0.448,-1 -1,-1 H 9.597 c -0.552,0 -1,0.447 -1,1 V 70.5 H 4.016 Z m 31.27,68.5 c -0.64,0 -1.161,-0.521 -1.161,-1.161 v -2.651 c 0,-0.64 0.521,-1.16 1.161,-1.16 H 62.34 c 0.64,0 1.161,0.521 1.161,1.16 v 2.651 c 0,0.641 -0.521,1.161 -1.161,1.161 z M 62.339,63.527 H 35.286 c -1.743,0 -3.161,1.418 -3.161,3.16 v 2.651 c 0,0.411 0.084,0.801 0.228,1.161 H 10.597 V 8.75 H 69.419 V 70.5 H 65.272 C 65.415,70.14 65.5,69.75 65.5,69.339 v -2.651 c 0,-1.743 -1.418,-3.161 -3.161,-3.161 z M 78,78 H 2 v -5.5 h 76 z"
     id="path20"
     inkscape:connector-curvature="0" /><g
     id="g943"
     transform="translate(1.42283,9.271978)"><g
       id="g962"
       transform="translate(0,-4.1535298)"><path
         style="color:#000000;font-style:normal;font-variant:normal;font-weight:normal;font-stretch:normal;font-size:medium;line-height:normal;font-family:sans-serif;font-variant-ligatures:normal;font-variant-position:normal;font-variant-caps:normal;font-variant-numeric:normal;font-variant-alternates:normal;font-feature-settings:normal;text-indent:0;text-align:start;text-decoration:none;text-decoration-line:none;text-decoration-style:solid;text-decoration-color:#000000;letter-spacing:normal;word-spacing:normal;text-transform:none;writing-mode:lr-tb;direction:ltr;text-orientation:mixed;dominant-baseline:auto;baseline-shift:baseline;text-anchor:start;white-space:normal;shape-padding:0;clip-rule:nonzero;display:inline;overflow:visible;visibility:visible;opacity:1;isolation:auto;mix-blend-mode:normal;color-interpolation:sRGB;color-interpolation-filters:linearRGB;solid-color:#000000;solid-opacity:1;vector-effect:none;fill:#000000;fill-opacity:1;fill-rule:nonzero;stroke:#000000;stroke-width:0;stroke-linecap:round;stroke-linejoin:miter;stroke-miterlimit:4;stroke-dasharray:none;stroke-dashoffset:0;stroke-opacity:1;paint-order:stroke fill markers;color-rendering:auto;image-rendering:auto;shape-rendering:auto;text-rendering:auto;enable-background:accumulate"
         d="m 38.579979,11.548045 c -11.010863,0.0031 -20.310005,6.993092 -21.331739,16.284857 l -0.0824,0.769673 H 59.9885 L 59.90236,27.832902 C 58.880958,18.544076 49.587357,11.555514 38.579979,11.548045 Z m 0,1.385786 c 0.289239,2.17e-4 0.571638,0.02337 0.857689,0.03371 3.521797,0.424579 6.241655,3.406497 6.241655,7.045036 0,3.931155 -3.17379,7.104962 -7.104961,7.104962 -3.931156,0 -7.101217,-3.173807 -7.101217,-7.104962 0,-3.637264 2.716426,-6.618812 6.236037,-7.045036 0.290756,-0.01056 0.576756,-0.03362 0.870797,-0.03371 z m -5.443891,0.629222 c -1.834915,1.54999 -3.003785,3.865481 -3.003785,6.449522 0,2.316454 0.938931,4.416843 2.455089,5.943898 L 22.061037,20.304714 c 2.585466,-3.226015 6.482524,-5.65431 11.075051,-6.741661 z m 10.874675,0 c 4.595752,1.086985 8.494824,3.5153 11.080668,6.743533 l -10.539463,5.662996 c 1.523316,-1.528055 2.466324,-3.634354 2.466324,-5.957007 0,-2.584597 -1.171931,-4.899529 -3.007529,-6.449522 z m -22.848614,7.977632 10.573172,5.677976 H 18.890584 c 0.34717,-2.033124 1.132096,-3.948848 2.271565,-5.677976 z m 34.826298,0.0019 c 1.138589,1.728679 1.924519,3.643612 2.271565,5.676105 H 45.426511 Z"
         id="path850"
         inkscape:connector-curvature="0" /><g
         transform="translate(0,8.307059)"
         id="g952"><path
           inkscape:connector-curvature="0"
           id="path18"
           d="m 26.505,32.065 h -7.843 c -0.552,0 -1,0.447 -1,1 v 7.843 c 0,0.553 0.448,1 1,1 h 7.843 c 0.552,0 1,-0.447 1,-1 v -7.843 c 0,-0.552 -0.448,-1 -1,-1 z m -1,7.843 h -5.843 v -5.843 h 5.843 z" /><path
           d="m 58.681904,32.065 h -7.843 c -0.552,0 -1,0.447 -1,1 v 7.843 c 0,0.553 0.448,1 1,1 h 7.843 c 0.552,0 1,-0.447 1,-1 v -7.843 c 0,-0.552 -0.448,-1 -1,-1 z m -1,7.843 h -5.843 v -5.843 h 5.843 z"
           id="path945"
           inkscape:connector-curvature="0" /><path
           inkscape:connector-curvature="0"
           id="path947"
           d="m 42.593452,32.065 h -7.843 c -0.552,0 -1,0.447 -1,1 v 7.843 c 0,0.553 0.448,1 1,1 h 7.843 c 0.552,0 1,-0.447 1,-1 v -7.843 c 0,-0.552 -0.448,-1 -1,-1 z m -1,7.843 h -5.843 v -5.843 h 5.843 z" /></g><path
         inkscape:connector-curvature="0"
         id="path954"
         d="m 17.116251,34.339014 h 42.32154"
         style="fill:none;stroke:#000000;stroke-width:2;stroke-linecap:round;stroke-linejoin:miter;stroke-miterlimit:4;stroke-dasharray:none;stroke-opacity:1" /></g></g></svg>