<?xml version="1.0" encoding="UTF-8" standalone="no"?>
<svg
   xmlns:dc="http://purl.org/dc/elements/1.1/"
   xmlns:cc="http://creativecommons.org/ns#"
   xmlns:rdf="http://www.w3.org/1999/02/22-rdf-syntax-ns#"
   xmlns:svg="http://www.w3.org/2000/svg"
   xmlns="http://www.w3.org/2000/svg"
   xmlns:sodipodi="http://sodipodi.sourceforge.net/DTD/sodipodi-0.dtd"
   xmlns:inkscape="http://www.inkscape.org/namespaces/inkscape"
   version="1.1"
   x="0px"
   y="0px"
   viewBox="0 0 79.705193 80.024002"
   xml:space="preserve"
   id="svg16"
   sodipodi:docname="noun_1377651_cc.svg"
   width="79.705193"
   height="80.024002"
   inkscape:version="0.92.2 (5c3e80d, 2017-08-06)"><metadata
     id="metadata22"><rdf:RDF><cc:Work
         rdf:about=""><dc:format>image/svg+xml</dc:format><dc:type
           rdf:resource="http://purl.org/dc/dcmitype/StillImage" /><dc:title></dc:title></cc:Work></rdf:RDF></metadata><defs
     id="defs20" /><sodipodi:namedview
     pagecolor="#ffffff"
     bordercolor="#666666"
     borderopacity="1"
     objecttolerance="10"
     gridtolerance="10"
     guidetolerance="10"
     inkscape:pageopacity="0"
     inkscape:pageshadow="2"
     inkscape:window-width="1366"
     inkscape:window-height="699"
     id="namedview18"
     showgrid="false"
     fit-margin-top="0"
     fit-margin-left="0"
     fit-margin-right="0"
     fit-margin-bottom="0"
     inkscape:zoom="1.888"
     inkscape:cx="26.01093"
     inkscape:cy="27.524"
     inkscape:window-x="0"
     inkscape:window-y="33"
     inkscape:window-maximized="1"
     inkscape:current-layer="svg16" /><path
     d="M 47.742,50.924 33.467,40.629 c -0.35,-0.252 -0.82,-0.252 -1.17,0 L 18.023,50.924 c -0.261,0.188 -0.415,0.49 -0.415,0.812 0,0.322 0.154,0.623 0.415,0.812 l 3.031,2.186 v 4.865 c 0,0.315 0.149,0.613 0.402,0.802 l 10.828,8.074 c 0.177,0.132 0.387,0.198 0.598,0.198 0.21,0 0.42,-0.066 0.598,-0.198 l 5.912,-4.408 v 3.606 c 0,0.553 0.448,1 1,1 0.552,0 1,-0.447 1,-1 v -5.097 l 2.917,-2.175 c 0.253,-0.188 0.402,-0.486 0.402,-0.802 v -4.865 l 3.031,-2.186 c 0.261,-0.188 0.415,-0.49 0.415,-0.812 0,-0.322 -0.154,-0.624 -0.415,-0.812 z m -14.86,15.501 -9.828,-7.329 v -2.92 l 9.243,6.666 c 0.175,0.126 0.38,0.188 0.585,0.188 0.205,0 0.41,-0.062 0.585,-0.188 l 5.924,-4.273 v 3.002 z m 9.829,-7.329 -1.319,0.984 v -2.953 l 1.319,-0.951 z m -1.969,-3.967 -7.313,-4.777 c -0.463,-0.303 -1.083,-0.173 -1.384,0.29 -0.302,0.462 -0.172,1.082 0.291,1.384 l 6.669,4.357 -6.122,4.415 -12.565,-9.062 12.565,-9.062 12.565,9.062 z"
     id="path2"
     inkscape:connector-curvature="0" /><path
     d="m 18.007,33.922 h 29.75 c 0.552,0 1,-0.447 1,-1 V 16.237 c 0,-0.553 -0.448,-1 -1,-1 h -29.75 c -0.552,0 -1,0.447 -1,1 v 16.685 c 0,0.553 0.448,1 1,1 z m 1,-16.685 h 27.75 v 14.685 h -27.75 z"
     id="path4"
     inkscape:connector-curvature="0" /><path
     d="M 40.202,21 H 25.563 c -0.552,0 -1,0.447 -1,1 0,0.553 0.448,1 1,1 h 14.639 c 0.552,0 1,-0.447 1,-1 0,-0.553 -0.448,-1 -1,-1 z"
     id="path6"
     inkscape:connector-curvature="0" /><path
     d="M 40.202,26.159 H 25.563 c -0.552,0 -1,0.447 -1,1 0,0.553 0.448,1 1,1 h 14.639 c 0.552,0 1,-0.447 1,-1 0,-0.553 -0.448,-1 -1,-1 z"
     id="path8"
     inkscape:connector-curvature="0" /><path
     d="M 78.659,9.194 C 77.82,8.071 76.593,7.343 75.206,7.143 L 57.486,4.589 C 57.103,2 54.888,0 52.194,0 H 1 C 0.448,0 0,0.447 0,1 v 73.667 c 0,0.553 0.448,1 1,1 h 34.095 c 0.055,0.018 0.102,0.049 0.161,0.058 l 29.455,4.245 c 0.252,0.036 0.503,0.054 0.751,0.054 2.565,0 4.814,-1.889 5.19,-4.499 L 79.65,13.087 c 0.201,-1.389 -0.151,-2.771 -0.991,-3.893 z m -21.094,23.108 2.197,0.317 c 0.049,0.008 0.097,0.011 0.145,0.011 0.489,0 0.917,-0.359 0.988,-0.857 0.079,-0.546 -0.3,-1.054 -0.847,-1.132 l -2.483,-0.359 v -3.044 l 2.913,0.419 c 0.048,0.007 0.096,0.01 0.144,0.01 0.489,0 0.917,-0.359 0.988,-0.857 0.079,-0.547 -0.301,-1.054 -0.847,-1.133 l -3.198,-0.46 V 21.58 l 9.988,1.439 -2.027,14.066 -7.96,-1.147 v -3.636 z m -2,-26.931 v 64.925 c 0,1.858 -1.512,3.371 -3.371,3.371 H 9.359 V 2 h 42.835 c 1.858,0 3.371,1.513 3.371,3.371 z M 2,2 H 7.359 V 73.667 H 2 Z m 75.671,10.801 -8.998,62.438 c -0.256,1.771 -1.906,3.001 -3.677,2.75 L 48.883,75.667 h 3.311 c 2.961,0 5.371,-2.409 5.371,-5.371 V 37.96 l 8.665,1.249 c 0.047,0.007 0.095,0.01 0.143,0.01 0.215,0 0.425,-0.069 0.599,-0.199 0.212,-0.159 0.353,-0.396 0.391,-0.658 l 2.312,-16.046 c 0.079,-0.547 -0.3,-1.054 -0.847,-1.133 L 57.565,19.559 V 6.623 l 17.356,2.501 c 0.858,0.123 1.618,0.573 2.137,1.268 0.519,0.695 0.737,1.549 0.613,2.409 z"
     id="path10"
     inkscape:connector-curvature="0" /></svg>