<svg xmlns="http://www.w3.org/2000/svg" xmlns:svg="http://www.w3.org/2000/svg" id="svg8" width="933.333" height="933.333" preserveAspectRatio="xMidYMid meet" version="1.0" viewBox="0 0 700 700"><metadata id="metadata2">Created by potrace 1.11, written by Peter Selinger 2001-2013</metadata><path style="fill:#1a1a1a;fill-opacity:1;stroke-width:6.17456198" id="path4955-6-0-37-4-4-6-4-7-7-7" d="M 302.02073,30.746191 C 175.81896,54.135488 72.333888,153.36452 45.969159,282.26308 c -4.965048,24.27475 -5.873069,34.25413 -5.873069,65.04981 0,30.79648 0.907856,40.7513 5.873069,65.02616 29.424457,143.85805 155.425881,251.22606 301.202991,256.65435 57.78641,2.15041 109.08862,-8.79179 159.15169,-33.96022 70.27791,-35.33138 124.46899,-94.58339 153.58009,-165.89308 l -9.78015,-0.22966 -11.86705,-0.19747 c -6.53168,-0.10919 -18.55272,-0.40549 -26.69999,-0.6623 l -14.80935,-0.45816 -3.31647,6.07817 c -28.42779,51.96312 -73.91607,93.23148 -128.14622,116.27954 -22.53146,9.57598 -44.82157,15.60484 -70.8747,19.16272 -8.51907,1.164 -43.88713,2.14201 -51.89292,1.43534 C 304.07895,607.15807 272.73298,598.2327 239.93732,581.33975 213.76425,567.85781 193.60261,552.7947 172.07745,530.66485 152.33146,510.36426 138.216,490.53636 125.71998,465.50648 97.175525,408.32921 90.296094,344.17557 106.01434,281.63215 c 9.60725,-38.2263 28.74908,-75.02379 55.31792,-106.33023 12.48709,-14.71301 33.97708,-33.97735 50.68687,-45.45301 20.8626,-14.32789 46.30431,-26.72259 70.28382,-34.249411 5.00514,-1.570885 9.10514,-3.108946 9.10514,-3.412981 0,-0.992784 9.38479,-51.557524 9.61159,-51.784463 L 302.02,30.742341 Z m 75.98783,72.345979 c -2.00183,-0.10919 -3.2867,-0.0846 -3.48523,0.13076 -0.61431,0.61434 -14.3283,74.98569 -13.90469,75.4093 0.15333,0.15332 4.98161,0.60584 10.72097,0.98847 28.17015,1.89025 52.94216,9.53542 76.12081,23.49237 10.22315,6.15494 12.70079,8.04811 11.5653,8.85172 -2.03246,1.43737 -13.94421,11.03848 -25.06005,20.0192 -21.35723,-13.94162 -46.7839,-22.09351 -74.01039,-22.09351 -74.83541,0 -136.2141,61.3789 -136.2141,136.21434 0,17.37093 3.34302,34.00224 9.35833,49.32404 l -87.77041,71.27272 c 0,0 2.15941,2.64289 12.93998,16.14799 7.09359,8.88614 18.00482,22.31039 24.2399,29.83572 11.13784,13.44477 11.69789,13.18115 11.69789,13.18115 l 88.32518,-67.93218 c 22.03589,15.34487 48.73147,24.39685 77.42323,24.39685 74.83581,0 136.21421,-61.39055 136.21421,-136.22632 0,-16.26352 -2.9063,-31.8808 -8.21275,-46.38147 8.65687,-6.53255 17.22955,-12.94356 26.54364,-20.17614 1.66713,0 8.58011,20.81245 11.1914,33.69495 3.96434,19.56492 4.43886,42.71071 1.25365,60.79296 -0.78838,4.47264 -1.36526,8.21096 -1.29082,8.309 0.0661,0.0846 17.01712,0.6623 37.65026,1.25364 20.63294,0.59078 38.03589,1.03238 38.67539,0.97772 1.7569,-0.15333 2.9829,-10.51477 3.58168,-30.32999 0.94781,-31.31933 -3.06285,-58.14447 -12.98833,-86.87812 -20.98676,-60.75563 -65.14145,-110.88836 -122.64672,-139.25342 -21.96268,-10.83301 -41.67107,-17.41448 -64.67625,-21.59871 -8.79928,-1.60155 -21.23868,-3.10039 -27.24291,-3.41308 z m -90.82144,10.902 c -0.81377,-0.93603 -26.4779,9.58627 -37.98811,15.58108 -73.67187,38.37209 -121.30804,107.76766 -131.39027,191.39947 -1.48337,12.29433 -1.27322,43.09324 0.38478,55.76396 3.27412,25.02367 9.99362,48.91241 19.83809,70.85073 l 63.45825,-48.85397 c -9.92681,-30.49098 -10.84273,-62.61418 -2.65314,-94.02928 10.11017,-38.78462 33.24263,-72.08201 66.06311,-95.10289 3.10227,-2.17683 5.80994,-4.67707 6.01757,-5.54746 0.78555,-3.28985 16.42514,-89.87734 16.26849,-90.06164 z m 72.76816,162.7335 c 38.71267,0 69.37958,30.65533 69.37958,69.36736 0,38.71247 -30.66691,69.39143 -69.37958,69.39143 -38.712,0 -69.37934,-30.67896 -69.37934,-69.39143 0,-38.71203 30.66734,-69.36736 69.37934,-69.36736 z m 121.68237,187.97437 -4.94453,4.42601 c -20.40219,18.23972 -38.04141,28.9131 -60.60001,36.67363 -16.54462,5.69167 -30.90869,8.30624 -49.17948,8.93589 -14.7533,0.5099 -25.08951,-0.34337 -39.66416,-3.26812 -20.22918,-4.05908 -41.91583,-13.14936 -58.91164,-24.48098 l -59.17681,51.80839 c 5.2422,4.07153 11.84209,8.94598 16.57007,12.0838 33.45391,22.20223 72.55192,36.05706 112.58928,39.90543 v -0.01 c 11.63775,1.118 35.94588,0.95856 48.0699,-0.3133 56.48185,-5.93151 108.09593,-30.59718 148.21367,-70.82647 14.39404,-14.434 24.67672,-27.44337 35.34684,-44.70538 l 4.93259,-7.97144 h -6.40394 c -3.51686,-0.007 -24.48752,-0.52118 -46.61073,-1.13314 l -40.23105,-1.12241 z"/></svg>