<?xml version="1.0" encoding="UTF-8" standalone="no"?>
<svg
   xmlns:dc="http://purl.org/dc/elements/1.1/"
   xmlns:cc="http://creativecommons.org/ns#"
   xmlns:rdf="http://www.w3.org/1999/02/22-rdf-syntax-ns#"
   xmlns:svg="http://www.w3.org/2000/svg"
   xmlns="http://www.w3.org/2000/svg"
   xmlns:sodipodi="http://sodipodi.sourceforge.net/DTD/sodipodi-0.dtd"
   xmlns:inkscape="http://www.inkscape.org/namespaces/inkscape"
   width="275"
   height="90"
   viewBox="0 0 275 90"
   fill="none"
   version="1.1"
   id="svg10"
   sodipodi:docname="rive_logo_black.svg"
   inkscape:version="1.0 (5b275a35d9, 2020-05-03)">
  <metadata
     id="metadata16">
    <rdf:RDF>
      <cc:Work
         rdf:about="">
        <dc:format>image/svg+xml</dc:format>
        <dc:type
           rdf:resource="http://purl.org/dc/dcmitype/StillImage" />
        <dc:title></dc:title>
      </cc:Work>
    </rdf:RDF>
  </metadata>
  <defs
     id="defs14" />
  <sodipodi:namedview
     fit-margin-right="0"
     fit-margin-left="0"
     fit-margin-bottom="20"
     fit-margin-top="20"
     inkscape:document-rotation="0"
     pagecolor="#ffffff"
     bordercolor="#666666"
     borderopacity="1"
     objecttolerance="10"
     gridtolerance="10"
     guidetolerance="10"
     inkscape:pageopacity="0"
     inkscape:pageshadow="2"
     inkscape:window-width="1920"
     inkscape:window-height="1016"
     id="namedview12"
     showgrid="false"
     inkscape:zoom="3.1061272"
     inkscape:cx="139.76309"
     inkscape:cy="31.02715"
     inkscape:window-x="0"
     inkscape:window-y="27"
     inkscape:window-maximized="1"
     inkscape:current-layer="svg10" />
  <path
     d="M 1.94852,20 H 29.897 c 3.1609,0 5.9538,0.661545 8.3787,1.98463 2.4681,1.28041 4.395,3.05165 5.7806,5.3137 1.3857,2.26206 2.0785,4.88687 2.0785,7.87457 0,3.4997 -0.9959,6.53 -2.9878,9.0909 -1.9918,2.5181 -4.6332,4.2467 -7.924,5.1856 l 11.1716,17.6057 c 0.5629,0.8536 0.6712,1.5578 0.3247,2.1126 C 46.4162,69.7226 45.7667,70 44.7708,70 44.2945,70 43.9264,69.9146 43.6666,69.7439 43.4501,69.5305 43.2336,69.2744 43.0171,68.9757 L 31.0661,50.1537 H 17.4913 c -1.0762,0 -1.9486,-0.8599 -1.9486,-1.9207 0,-1.0607 0.8724,-1.9206 1.9486,-1.9206 H 29.897 c 2.4248,0 4.5466,-0.4695 6.3652,-1.4084 1.8619,-0.9817 3.3125,-2.3048 4.3517,-3.9693 1.0825,-1.6645 1.6238,-3.5851 1.6238,-5.7618 0,-2.2194 -0.5413,-4.1827 -1.6238,-5.88993 -1.0392,-1.70722 -2.4898,-3.0303 -4.3517,-3.96927 -1.8186,-0.98165 -3.9404,-1.47247 -6.3652,-1.47247 H 1.94852 c -0.51962,0 -0.974242,-0.19206 -1.363956,-0.57619 C 0.19485,22.88092 0,22.43278 0,21.92061 0,21.36577 0.194851,20.896287 0.584564,20.512165 0.974278,20.170723 1.4289,20 1.94852,20 Z"
     fill="white"
     id="path2"
     style="fill:#000000" />
  <path
     d="m 97.7825,70 c -0.5629,0 -1.0392,-0.1707 -1.4289,-0.5122 -0.3465,-0.3841 -0.5197,-0.8536 -0.5197,-1.4084 V 21.92061 c 0,-0.55484 0.1732,-1.002985 0.5197,-1.344426 C 96.7433,20.192061 97.2196,20 97.7825,20 c 0.5629,0 1.0175,0.192061 1.364,0.576184 0.3897,0.341441 0.5845,0.789586 0.5845,1.344426 V 68.0794 c 0,0.5548 -0.1948,1.0243 -0.5845,1.4084 C 98.8,69.8293 98.3454,70 97.7825,70 Z"
     fill="white"
     id="path4"
     style="fill:#000000" />
  <path
     d="m 169.849,70 c -0.823,0 -1.408,-0.4055 -1.754,-1.2164 L 148.61,23.137 c -0.433,-0.98165 -0.455,-1.74989 -0.065,-2.304733 C 148.978,20.277422 149.562,20 150.298,20 c 0.823,0 1.451,0.448143 1.884,1.34443 L 169.914,63.2138 187.451,21.60051 C 187.883,20.533504 188.598,20 189.594,20 c 0.779,0 1.299,0.320102 1.559,0.960306 0.26,0.640204 0.216,1.365774 -0.13,2.176694 l -19.421,45.6466 c -0.216,0.4695 -0.498,0.7896 -0.844,0.9603 C 170.455,69.9146 170.152,70 169.849,70 Z"
     fill="white"
     id="path6"
     style="fill:#000000" />
  <path
     d="m 241.81,70 c -0.563,0 -1.039,-0.1707 -1.429,-0.5122 -0.346,-0.3841 -0.52,-0.8536 -0.52,-1.4084 V 21.92061 c 0,-0.55484 0.174,-1.002985 0.52,-1.344426 C 240.771,20.192061 241.247,20 241.81,20 h 31.241 c 0.52,0 0.975,0.192061 1.364,0.576184 0.39,0.341441 0.585,0.789586 0.585,1.344426 0,0.51217 -0.195,0.96031 -0.585,1.34443 -0.389,0.38413 -0.844,0.57619 -1.364,0.57619 H 243.758 V 43.0474 h 21.499 c 0.563,0 1.018,0.192 1.364,0.5762 0.39,0.3414 0.585,0.7895 0.585,1.3444 0,0.5548 -0.195,1.0243 -0.585,1.4084 -0.346,0.3842 -0.801,0.5762 -1.364,0.5762 h -21.499 v 19.2062 h 29.293 c 0.52,0 0.975,0.192 1.364,0.5762 0.39,0.3841 0.585,0.8322 0.585,1.3444 0,0.5548 -0.195,1.0243 -0.585,1.4084 C 274.026,69.8293 273.571,70 273.051,70 Z"
     fill="white"
     id="path8"
     style="fill:#000000" />
</svg>
